G04 #@! TF.GenerationSoftware,KiCad,Pcbnew,5.1.9*
G04 #@! TF.CreationDate,2021-01-23T21:49:56+01:00*
G04 #@! TF.ProjectId,esp32_air_monitor,65737033-325f-4616-9972-5f6d6f6e6974,0.1*
G04 #@! TF.SameCoordinates,Original*
G04 #@! TF.FileFunction,Legend,Top*
G04 #@! TF.FilePolarity,Positive*
%FSLAX46Y46*%
G04 Gerber Fmt 4.6, Leading zero omitted, Abs format (unit mm)*
G04 Created by KiCad (PCBNEW 5.1.9) date 2021-01-23 21:49:56*
%MOMM*%
%LPD*%
G01*
G04 APERTURE LIST*
%ADD10C,0.150000*%
%ADD11C,0.300000*%
%ADD12C,0.120000*%
%ADD13C,0.127000*%
%ADD14C,0.200000*%
%ADD15C,0.015000*%
G04 APERTURE END LIST*
D10*
X140907142Y-111554642D02*
X140907142Y-112054642D01*
X140121428Y-112268928D02*
X140121428Y-111554642D01*
X141621428Y-111554642D01*
X141621428Y-112268928D01*
X140192857Y-112840357D02*
X140121428Y-112983214D01*
X140121428Y-113268928D01*
X140192857Y-113411785D01*
X140335714Y-113483214D01*
X140407142Y-113483214D01*
X140550000Y-113411785D01*
X140621428Y-113268928D01*
X140621428Y-113054642D01*
X140692857Y-112911785D01*
X140835714Y-112840357D01*
X140907142Y-112840357D01*
X141050000Y-112911785D01*
X141121428Y-113054642D01*
X141121428Y-113268928D01*
X141050000Y-113411785D01*
X141121428Y-114126071D02*
X139621428Y-114126071D01*
X141050000Y-114126071D02*
X141121428Y-114268928D01*
X141121428Y-114554642D01*
X141050000Y-114697500D01*
X140978571Y-114768928D01*
X140835714Y-114840357D01*
X140407142Y-114840357D01*
X140264285Y-114768928D01*
X140192857Y-114697500D01*
X140121428Y-114554642D01*
X140121428Y-114268928D01*
X140192857Y-114126071D01*
X140121428Y-115483214D02*
X141121428Y-115483214D01*
X140835714Y-115483214D02*
X140978571Y-115554642D01*
X141050000Y-115626071D01*
X141121428Y-115768928D01*
X141121428Y-115911785D01*
X140192857Y-116983214D02*
X140121428Y-116840357D01*
X140121428Y-116554642D01*
X140192857Y-116411785D01*
X140335714Y-116340357D01*
X140907142Y-116340357D01*
X141050000Y-116411785D01*
X141121428Y-116554642D01*
X141121428Y-116840357D01*
X141050000Y-116983214D01*
X140907142Y-117054642D01*
X140764285Y-117054642D01*
X140621428Y-116340357D01*
X140192857Y-117626071D02*
X140121428Y-117768928D01*
X140121428Y-118054642D01*
X140192857Y-118197500D01*
X140335714Y-118268928D01*
X140407142Y-118268928D01*
X140550000Y-118197500D01*
X140621428Y-118054642D01*
X140621428Y-117840357D01*
X140692857Y-117697500D01*
X140835714Y-117626071D01*
X140907142Y-117626071D01*
X141050000Y-117697500D01*
X141121428Y-117840357D01*
X141121428Y-118054642D01*
X141050000Y-118197500D01*
X140192857Y-118840357D02*
X140121428Y-118983214D01*
X140121428Y-119268928D01*
X140192857Y-119411785D01*
X140335714Y-119483214D01*
X140407142Y-119483214D01*
X140550000Y-119411785D01*
X140621428Y-119268928D01*
X140621428Y-119054642D01*
X140692857Y-118911785D01*
X140835714Y-118840357D01*
X140907142Y-118840357D01*
X141050000Y-118911785D01*
X141121428Y-119054642D01*
X141121428Y-119268928D01*
X141050000Y-119411785D01*
X140121428Y-120126071D02*
X141121428Y-120126071D01*
X141621428Y-120126071D02*
X141550000Y-120054642D01*
X141478571Y-120126071D01*
X141550000Y-120197500D01*
X141621428Y-120126071D01*
X141478571Y-120126071D01*
X141121428Y-120626071D02*
X141121428Y-121197500D01*
X140121428Y-120840357D02*
X141407142Y-120840357D01*
X141550000Y-120911785D01*
X141621428Y-121054642D01*
X141621428Y-121197500D01*
X140907142Y-122840357D02*
X140907142Y-123340357D01*
X140121428Y-123554642D02*
X140121428Y-122840357D01*
X141621428Y-122840357D01*
X141621428Y-123554642D01*
X140192857Y-124126071D02*
X140121428Y-124340357D01*
X140121428Y-124697500D01*
X140192857Y-124840357D01*
X140264285Y-124911785D01*
X140407142Y-124983214D01*
X140550000Y-124983214D01*
X140692857Y-124911785D01*
X140764285Y-124840357D01*
X140835714Y-124697500D01*
X140907142Y-124411785D01*
X140978571Y-124268928D01*
X141050000Y-124197500D01*
X141192857Y-124126071D01*
X141335714Y-124126071D01*
X141478571Y-124197500D01*
X141550000Y-124268928D01*
X141621428Y-124411785D01*
X141621428Y-124768928D01*
X141550000Y-124983214D01*
X140121428Y-125626071D02*
X141621428Y-125626071D01*
X141621428Y-126197500D01*
X141550000Y-126340357D01*
X141478571Y-126411785D01*
X141335714Y-126483214D01*
X141121428Y-126483214D01*
X140978571Y-126411785D01*
X140907142Y-126340357D01*
X140835714Y-126197500D01*
X140835714Y-125626071D01*
X141621428Y-126983214D02*
X141621428Y-127911785D01*
X141050000Y-127411785D01*
X141050000Y-127626071D01*
X140978571Y-127768928D01*
X140907142Y-127840357D01*
X140764285Y-127911785D01*
X140407142Y-127911785D01*
X140264285Y-127840357D01*
X140192857Y-127768928D01*
X140121428Y-127626071D01*
X140121428Y-127197500D01*
X140192857Y-127054642D01*
X140264285Y-126983214D01*
X141478571Y-128483214D02*
X141550000Y-128554642D01*
X141621428Y-128697500D01*
X141621428Y-129054642D01*
X141550000Y-129197500D01*
X141478571Y-129268928D01*
X141335714Y-129340357D01*
X141192857Y-129340357D01*
X140978571Y-129268928D01*
X140121428Y-128411785D01*
X140121428Y-129340357D01*
X137721428Y-111554642D02*
X139221428Y-111554642D01*
X138150000Y-112054642D01*
X139221428Y-112554642D01*
X137721428Y-112554642D01*
X137721428Y-113268928D02*
X138721428Y-113268928D01*
X139221428Y-113268928D02*
X139150000Y-113197500D01*
X139078571Y-113268928D01*
X139150000Y-113340357D01*
X139221428Y-113268928D01*
X139078571Y-113268928D01*
X137792857Y-114626071D02*
X137721428Y-114483214D01*
X137721428Y-114197500D01*
X137792857Y-114054642D01*
X137864285Y-113983214D01*
X138007142Y-113911785D01*
X138435714Y-113911785D01*
X138578571Y-113983214D01*
X138650000Y-114054642D01*
X138721428Y-114197500D01*
X138721428Y-114483214D01*
X138650000Y-114626071D01*
X137721428Y-115268928D02*
X138721428Y-115268928D01*
X138435714Y-115268928D02*
X138578571Y-115340357D01*
X138650000Y-115411785D01*
X138721428Y-115554642D01*
X138721428Y-115697500D01*
X137721428Y-116411785D02*
X137792857Y-116268928D01*
X137864285Y-116197500D01*
X138007142Y-116126071D01*
X138435714Y-116126071D01*
X138578571Y-116197500D01*
X138650000Y-116268928D01*
X138721428Y-116411785D01*
X138721428Y-116626071D01*
X138650000Y-116768928D01*
X138578571Y-116840357D01*
X138435714Y-116911785D01*
X138007142Y-116911785D01*
X137864285Y-116840357D01*
X137792857Y-116768928D01*
X137721428Y-116626071D01*
X137721428Y-116411785D01*
X137792857Y-118197500D02*
X137721428Y-118054642D01*
X137721428Y-117768928D01*
X137792857Y-117626071D01*
X137864285Y-117554642D01*
X138007142Y-117483214D01*
X138435714Y-117483214D01*
X138578571Y-117554642D01*
X138650000Y-117626071D01*
X138721428Y-117768928D01*
X138721428Y-118054642D01*
X138650000Y-118197500D01*
X137721428Y-119054642D02*
X137792857Y-118911785D01*
X137864285Y-118840357D01*
X138007142Y-118768928D01*
X138435714Y-118768928D01*
X138578571Y-118840357D01*
X138650000Y-118911785D01*
X138721428Y-119054642D01*
X138721428Y-119268928D01*
X138650000Y-119411785D01*
X138578571Y-119483214D01*
X138435714Y-119554642D01*
X138007142Y-119554642D01*
X137864285Y-119483214D01*
X137792857Y-119411785D01*
X137721428Y-119268928D01*
X137721428Y-119054642D01*
X138721428Y-120197500D02*
X137721428Y-120197500D01*
X138578571Y-120197500D02*
X138650000Y-120268928D01*
X138721428Y-120411785D01*
X138721428Y-120626071D01*
X138650000Y-120768928D01*
X138507142Y-120840357D01*
X137721428Y-120840357D01*
X138721428Y-121340357D02*
X138721428Y-121911785D01*
X139221428Y-121554642D02*
X137935714Y-121554642D01*
X137792857Y-121626071D01*
X137721428Y-121768928D01*
X137721428Y-121911785D01*
X137721428Y-122411785D02*
X138721428Y-122411785D01*
X138435714Y-122411785D02*
X138578571Y-122483214D01*
X138650000Y-122554642D01*
X138721428Y-122697500D01*
X138721428Y-122840357D01*
X137721428Y-123554642D02*
X137792857Y-123411785D01*
X137864285Y-123340357D01*
X138007142Y-123268928D01*
X138435714Y-123268928D01*
X138578571Y-123340357D01*
X138650000Y-123411785D01*
X138721428Y-123554642D01*
X138721428Y-123768928D01*
X138650000Y-123911785D01*
X138578571Y-123983214D01*
X138435714Y-124054642D01*
X138007142Y-124054642D01*
X137864285Y-123983214D01*
X137792857Y-123911785D01*
X137721428Y-123768928D01*
X137721428Y-123554642D01*
X137721428Y-124911785D02*
X137792857Y-124768928D01*
X137935714Y-124697500D01*
X139221428Y-124697500D01*
X137721428Y-125697500D02*
X137792857Y-125554642D01*
X137935714Y-125483214D01*
X139221428Y-125483214D01*
X137792857Y-126840357D02*
X137721428Y-126697500D01*
X137721428Y-126411785D01*
X137792857Y-126268928D01*
X137935714Y-126197500D01*
X138507142Y-126197500D01*
X138650000Y-126268928D01*
X138721428Y-126411785D01*
X138721428Y-126697500D01*
X138650000Y-126840357D01*
X138507142Y-126911785D01*
X138364285Y-126911785D01*
X138221428Y-126197500D01*
X137721428Y-127554642D02*
X138721428Y-127554642D01*
X138435714Y-127554642D02*
X138578571Y-127626071D01*
X138650000Y-127697500D01*
X138721428Y-127840357D01*
X138721428Y-127983214D01*
X185583214Y-103607142D02*
X185797500Y-103678571D01*
X186154642Y-103678571D01*
X186297500Y-103607142D01*
X186368928Y-103535714D01*
X186440357Y-103392857D01*
X186440357Y-103250000D01*
X186368928Y-103107142D01*
X186297500Y-103035714D01*
X186154642Y-102964285D01*
X185868928Y-102892857D01*
X185726071Y-102821428D01*
X185654642Y-102750000D01*
X185583214Y-102607142D01*
X185583214Y-102464285D01*
X185654642Y-102321428D01*
X185726071Y-102250000D01*
X185868928Y-102178571D01*
X186226071Y-102178571D01*
X186440357Y-102250000D01*
X187654642Y-103607142D02*
X187511785Y-103678571D01*
X187226071Y-103678571D01*
X187083214Y-103607142D01*
X187011785Y-103464285D01*
X187011785Y-102892857D01*
X187083214Y-102750000D01*
X187226071Y-102678571D01*
X187511785Y-102678571D01*
X187654642Y-102750000D01*
X187726071Y-102892857D01*
X187726071Y-103035714D01*
X187011785Y-103178571D01*
X188368928Y-102678571D02*
X188368928Y-103678571D01*
X188368928Y-102821428D02*
X188440357Y-102750000D01*
X188583214Y-102678571D01*
X188797500Y-102678571D01*
X188940357Y-102750000D01*
X189011785Y-102892857D01*
X189011785Y-103678571D01*
X189654642Y-103607142D02*
X189797500Y-103678571D01*
X190083214Y-103678571D01*
X190226071Y-103607142D01*
X190297500Y-103464285D01*
X190297500Y-103392857D01*
X190226071Y-103250000D01*
X190083214Y-103178571D01*
X189868928Y-103178571D01*
X189726071Y-103107142D01*
X189654642Y-102964285D01*
X189654642Y-102892857D01*
X189726071Y-102750000D01*
X189868928Y-102678571D01*
X190083214Y-102678571D01*
X190226071Y-102750000D01*
X190940357Y-103678571D02*
X190940357Y-102678571D01*
X190940357Y-102178571D02*
X190868928Y-102250000D01*
X190940357Y-102321428D01*
X191011785Y-102250000D01*
X190940357Y-102178571D01*
X190940357Y-102321428D01*
X191654642Y-103678571D02*
X191654642Y-102678571D01*
X191654642Y-102964285D02*
X191726071Y-102821428D01*
X191797500Y-102750000D01*
X191940357Y-102678571D01*
X192083214Y-102678571D01*
X192583214Y-103678571D02*
X192583214Y-102678571D01*
X192583214Y-102178571D02*
X192511785Y-102250000D01*
X192583214Y-102321428D01*
X192654642Y-102250000D01*
X192583214Y-102178571D01*
X192583214Y-102321428D01*
X193511785Y-103678571D02*
X193368928Y-103607142D01*
X193297500Y-103535714D01*
X193226071Y-103392857D01*
X193226071Y-102964285D01*
X193297500Y-102821428D01*
X193368928Y-102750000D01*
X193511785Y-102678571D01*
X193726071Y-102678571D01*
X193868928Y-102750000D01*
X193940357Y-102821428D01*
X194011785Y-102964285D01*
X194011785Y-103392857D01*
X193940357Y-103535714D01*
X193868928Y-103607142D01*
X193726071Y-103678571D01*
X193511785Y-103678571D01*
X194654642Y-102678571D02*
X194654642Y-103678571D01*
X194654642Y-102821428D02*
X194726071Y-102750000D01*
X194868928Y-102678571D01*
X195083214Y-102678571D01*
X195226071Y-102750000D01*
X195297500Y-102892857D01*
X195297500Y-103678571D01*
X197083214Y-103607142D02*
X197297500Y-103678571D01*
X197654642Y-103678571D01*
X197797500Y-103607142D01*
X197868928Y-103535714D01*
X197940357Y-103392857D01*
X197940357Y-103250000D01*
X197868928Y-103107142D01*
X197797500Y-103035714D01*
X197654642Y-102964285D01*
X197368928Y-102892857D01*
X197226071Y-102821428D01*
X197154642Y-102750000D01*
X197083214Y-102607142D01*
X197083214Y-102464285D01*
X197154642Y-102321428D01*
X197226071Y-102250000D01*
X197368928Y-102178571D01*
X197726071Y-102178571D01*
X197940357Y-102250000D01*
X199440357Y-103535714D02*
X199368928Y-103607142D01*
X199154642Y-103678571D01*
X199011785Y-103678571D01*
X198797500Y-103607142D01*
X198654642Y-103464285D01*
X198583214Y-103321428D01*
X198511785Y-103035714D01*
X198511785Y-102821428D01*
X198583214Y-102535714D01*
X198654642Y-102392857D01*
X198797500Y-102250000D01*
X199011785Y-102178571D01*
X199154642Y-102178571D01*
X199368928Y-102250000D01*
X199440357Y-102321428D01*
X200083214Y-103678571D02*
X200083214Y-102178571D01*
X200440357Y-102178571D01*
X200654642Y-102250000D01*
X200797500Y-102392857D01*
X200868928Y-102535714D01*
X200940357Y-102821428D01*
X200940357Y-103035714D01*
X200868928Y-103321428D01*
X200797500Y-103464285D01*
X200654642Y-103607142D01*
X200440357Y-103678571D01*
X200083214Y-103678571D01*
X201440357Y-102178571D02*
X202368928Y-102178571D01*
X201868928Y-102750000D01*
X202083214Y-102750000D01*
X202226071Y-102821428D01*
X202297500Y-102892857D01*
X202368928Y-103035714D01*
X202368928Y-103392857D01*
X202297500Y-103535714D01*
X202226071Y-103607142D01*
X202083214Y-103678571D01*
X201654642Y-103678571D01*
X201511785Y-103607142D01*
X201440357Y-103535714D01*
X203297500Y-102178571D02*
X203440357Y-102178571D01*
X203583214Y-102250000D01*
X203654642Y-102321428D01*
X203726071Y-102464285D01*
X203797500Y-102750000D01*
X203797500Y-103107142D01*
X203726071Y-103392857D01*
X203654642Y-103535714D01*
X203583214Y-103607142D01*
X203440357Y-103678571D01*
X203297500Y-103678571D01*
X203154642Y-103607142D01*
X203083214Y-103535714D01*
X203011785Y-103392857D01*
X202940357Y-103107142D01*
X202940357Y-102750000D01*
X203011785Y-102464285D01*
X203083214Y-102321428D01*
X203154642Y-102250000D01*
X203297500Y-102178571D01*
X186511785Y-105935714D02*
X186440357Y-106007142D01*
X186226071Y-106078571D01*
X186083214Y-106078571D01*
X185868928Y-106007142D01*
X185726071Y-105864285D01*
X185654642Y-105721428D01*
X185583214Y-105435714D01*
X185583214Y-105221428D01*
X185654642Y-104935714D01*
X185726071Y-104792857D01*
X185868928Y-104650000D01*
X186083214Y-104578571D01*
X186226071Y-104578571D01*
X186440357Y-104650000D01*
X186511785Y-104721428D01*
X187440357Y-104578571D02*
X187726071Y-104578571D01*
X187868928Y-104650000D01*
X188011785Y-104792857D01*
X188083214Y-105078571D01*
X188083214Y-105578571D01*
X188011785Y-105864285D01*
X187868928Y-106007142D01*
X187726071Y-106078571D01*
X187440357Y-106078571D01*
X187297500Y-106007142D01*
X187154642Y-105864285D01*
X187083214Y-105578571D01*
X187083214Y-105078571D01*
X187154642Y-104792857D01*
X187297500Y-104650000D01*
X187440357Y-104578571D01*
X188654642Y-104721428D02*
X188726071Y-104650000D01*
X188868928Y-104578571D01*
X189226071Y-104578571D01*
X189368928Y-104650000D01*
X189440357Y-104721428D01*
X189511785Y-104864285D01*
X189511785Y-105007142D01*
X189440357Y-105221428D01*
X188583214Y-106078571D01*
X189511785Y-106078571D01*
X191226071Y-106007142D02*
X191368928Y-106078571D01*
X191654642Y-106078571D01*
X191797500Y-106007142D01*
X191868928Y-105864285D01*
X191868928Y-105792857D01*
X191797500Y-105650000D01*
X191654642Y-105578571D01*
X191440357Y-105578571D01*
X191297500Y-105507142D01*
X191226071Y-105364285D01*
X191226071Y-105292857D01*
X191297500Y-105150000D01*
X191440357Y-105078571D01*
X191654642Y-105078571D01*
X191797500Y-105150000D01*
X193083214Y-106007142D02*
X192940357Y-106078571D01*
X192654642Y-106078571D01*
X192511785Y-106007142D01*
X192440357Y-105864285D01*
X192440357Y-105292857D01*
X192511785Y-105150000D01*
X192654642Y-105078571D01*
X192940357Y-105078571D01*
X193083214Y-105150000D01*
X193154642Y-105292857D01*
X193154642Y-105435714D01*
X192440357Y-105578571D01*
X193797500Y-105078571D02*
X193797500Y-106078571D01*
X193797500Y-105221428D02*
X193868928Y-105150000D01*
X194011785Y-105078571D01*
X194226071Y-105078571D01*
X194368928Y-105150000D01*
X194440357Y-105292857D01*
X194440357Y-106078571D01*
X195083214Y-106007142D02*
X195226071Y-106078571D01*
X195511785Y-106078571D01*
X195654642Y-106007142D01*
X195726071Y-105864285D01*
X195726071Y-105792857D01*
X195654642Y-105650000D01*
X195511785Y-105578571D01*
X195297500Y-105578571D01*
X195154642Y-105507142D01*
X195083214Y-105364285D01*
X195083214Y-105292857D01*
X195154642Y-105150000D01*
X195297500Y-105078571D01*
X195511785Y-105078571D01*
X195654642Y-105150000D01*
X196583214Y-106078571D02*
X196440357Y-106007142D01*
X196368928Y-105935714D01*
X196297500Y-105792857D01*
X196297500Y-105364285D01*
X196368928Y-105221428D01*
X196440357Y-105150000D01*
X196583214Y-105078571D01*
X196797500Y-105078571D01*
X196940357Y-105150000D01*
X197011785Y-105221428D01*
X197083214Y-105364285D01*
X197083214Y-105792857D01*
X197011785Y-105935714D01*
X196940357Y-106007142D01*
X196797500Y-106078571D01*
X196583214Y-106078571D01*
X197726071Y-106078571D02*
X197726071Y-105078571D01*
X197726071Y-105364285D02*
X197797500Y-105221428D01*
X197868928Y-105150000D01*
X198011785Y-105078571D01*
X198154642Y-105078571D01*
X186254642Y-77592857D02*
X186468928Y-77664285D01*
X186540357Y-77735714D01*
X186611785Y-77878571D01*
X186611785Y-78092857D01*
X186540357Y-78235714D01*
X186468928Y-78307142D01*
X186326071Y-78378571D01*
X185754642Y-78378571D01*
X185754642Y-76878571D01*
X186254642Y-76878571D01*
X186397500Y-76950000D01*
X186468928Y-77021428D01*
X186540357Y-77164285D01*
X186540357Y-77307142D01*
X186468928Y-77450000D01*
X186397500Y-77521428D01*
X186254642Y-77592857D01*
X185754642Y-77592857D01*
X187468928Y-78378571D02*
X187326071Y-78307142D01*
X187254642Y-78235714D01*
X187183214Y-78092857D01*
X187183214Y-77664285D01*
X187254642Y-77521428D01*
X187326071Y-77450000D01*
X187468928Y-77378571D01*
X187683214Y-77378571D01*
X187826071Y-77450000D01*
X187897500Y-77521428D01*
X187968928Y-77664285D01*
X187968928Y-78092857D01*
X187897500Y-78235714D01*
X187826071Y-78307142D01*
X187683214Y-78378571D01*
X187468928Y-78378571D01*
X188540357Y-78307142D02*
X188683214Y-78378571D01*
X188968928Y-78378571D01*
X189111785Y-78307142D01*
X189183214Y-78164285D01*
X189183214Y-78092857D01*
X189111785Y-77950000D01*
X188968928Y-77878571D01*
X188754642Y-77878571D01*
X188611785Y-77807142D01*
X188540357Y-77664285D01*
X188540357Y-77592857D01*
X188611785Y-77450000D01*
X188754642Y-77378571D01*
X188968928Y-77378571D01*
X189111785Y-77450000D01*
X190468928Y-78307142D02*
X190326071Y-78378571D01*
X190040357Y-78378571D01*
X189897500Y-78307142D01*
X189826071Y-78235714D01*
X189754642Y-78092857D01*
X189754642Y-77664285D01*
X189826071Y-77521428D01*
X189897500Y-77450000D01*
X190040357Y-77378571D01*
X190326071Y-77378571D01*
X190468928Y-77450000D01*
X191111785Y-78378571D02*
X191111785Y-76878571D01*
X191754642Y-78378571D02*
X191754642Y-77592857D01*
X191683214Y-77450000D01*
X191540357Y-77378571D01*
X191326071Y-77378571D01*
X191183214Y-77450000D01*
X191111785Y-77521428D01*
X194111785Y-77592857D02*
X194326071Y-77664285D01*
X194397500Y-77735714D01*
X194468928Y-77878571D01*
X194468928Y-78092857D01*
X194397500Y-78235714D01*
X194326071Y-78307142D01*
X194183214Y-78378571D01*
X193611785Y-78378571D01*
X193611785Y-76878571D01*
X194111785Y-76878571D01*
X194254642Y-76950000D01*
X194326071Y-77021428D01*
X194397500Y-77164285D01*
X194397500Y-77307142D01*
X194326071Y-77450000D01*
X194254642Y-77521428D01*
X194111785Y-77592857D01*
X193611785Y-77592857D01*
X195111785Y-78378571D02*
X195111785Y-76878571D01*
X195611785Y-77950000D01*
X196111785Y-76878571D01*
X196111785Y-78378571D01*
X196826071Y-77592857D02*
X197326071Y-77592857D01*
X197540357Y-78378571D02*
X196826071Y-78378571D01*
X196826071Y-76878571D01*
X197540357Y-76878571D01*
X198111785Y-77021428D02*
X198183214Y-76950000D01*
X198326071Y-76878571D01*
X198683214Y-76878571D01*
X198826071Y-76950000D01*
X198897500Y-77021428D01*
X198968928Y-77164285D01*
X198968928Y-77307142D01*
X198897500Y-77521428D01*
X198040357Y-78378571D01*
X198968928Y-78378571D01*
X199826071Y-77521428D02*
X199683214Y-77450000D01*
X199611785Y-77378571D01*
X199540357Y-77235714D01*
X199540357Y-77164285D01*
X199611785Y-77021428D01*
X199683214Y-76950000D01*
X199826071Y-76878571D01*
X200111785Y-76878571D01*
X200254642Y-76950000D01*
X200326071Y-77021428D01*
X200397500Y-77164285D01*
X200397500Y-77235714D01*
X200326071Y-77378571D01*
X200254642Y-77450000D01*
X200111785Y-77521428D01*
X199826071Y-77521428D01*
X199683214Y-77592857D01*
X199611785Y-77664285D01*
X199540357Y-77807142D01*
X199540357Y-78092857D01*
X199611785Y-78235714D01*
X199683214Y-78307142D01*
X199826071Y-78378571D01*
X200111785Y-78378571D01*
X200254642Y-78307142D01*
X200326071Y-78235714D01*
X200397500Y-78092857D01*
X200397500Y-77807142D01*
X200326071Y-77664285D01*
X200254642Y-77592857D01*
X200111785Y-77521428D01*
X201326071Y-76878571D02*
X201468928Y-76878571D01*
X201611785Y-76950000D01*
X201683214Y-77021428D01*
X201754642Y-77164285D01*
X201826071Y-77450000D01*
X201826071Y-77807142D01*
X201754642Y-78092857D01*
X201683214Y-78235714D01*
X201611785Y-78307142D01*
X201468928Y-78378571D01*
X201326071Y-78378571D01*
X201183214Y-78307142D01*
X201111785Y-78235714D01*
X201040357Y-78092857D01*
X200968928Y-77807142D01*
X200968928Y-77450000D01*
X201040357Y-77164285D01*
X201111785Y-77021428D01*
X201183214Y-76950000D01*
X201326071Y-76878571D01*
X185540357Y-79278571D02*
X186397500Y-79278571D01*
X185968928Y-80778571D02*
X185968928Y-79278571D01*
X186968928Y-80707142D02*
X186968928Y-80778571D01*
X186897500Y-80921428D01*
X186826071Y-80992857D01*
X189611785Y-80778571D02*
X189111785Y-80064285D01*
X188754642Y-80778571D02*
X188754642Y-79278571D01*
X189326071Y-79278571D01*
X189468928Y-79350000D01*
X189540357Y-79421428D01*
X189611785Y-79564285D01*
X189611785Y-79778571D01*
X189540357Y-79921428D01*
X189468928Y-79992857D01*
X189326071Y-80064285D01*
X188754642Y-80064285D01*
X190254642Y-80778571D02*
X190254642Y-79278571D01*
X190254642Y-79992857D02*
X191111785Y-79992857D01*
X191111785Y-80778571D02*
X191111785Y-79278571D01*
X191897500Y-80707142D02*
X191897500Y-80778571D01*
X191826071Y-80921428D01*
X191754642Y-80992857D01*
X193683214Y-79778571D02*
X193683214Y-81278571D01*
X193683214Y-79850000D02*
X193826071Y-79778571D01*
X194111785Y-79778571D01*
X194254642Y-79850000D01*
X194326071Y-79921428D01*
X194397500Y-80064285D01*
X194397500Y-80492857D01*
X194326071Y-80635714D01*
X194254642Y-80707142D01*
X194111785Y-80778571D01*
X193826071Y-80778571D01*
X193683214Y-80707142D01*
X196111785Y-80707142D02*
X196254642Y-80778571D01*
X196540357Y-80778571D01*
X196683214Y-80707142D01*
X196754642Y-80564285D01*
X196754642Y-80492857D01*
X196683214Y-80350000D01*
X196540357Y-80278571D01*
X196326071Y-80278571D01*
X196183214Y-80207142D01*
X196111785Y-80064285D01*
X196111785Y-79992857D01*
X196183214Y-79850000D01*
X196326071Y-79778571D01*
X196540357Y-79778571D01*
X196683214Y-79850000D01*
X197968928Y-80707142D02*
X197826071Y-80778571D01*
X197540357Y-80778571D01*
X197397500Y-80707142D01*
X197326071Y-80564285D01*
X197326071Y-79992857D01*
X197397500Y-79850000D01*
X197540357Y-79778571D01*
X197826071Y-79778571D01*
X197968928Y-79850000D01*
X198040357Y-79992857D01*
X198040357Y-80135714D01*
X197326071Y-80278571D01*
X198683214Y-79778571D02*
X198683214Y-80778571D01*
X198683214Y-79921428D02*
X198754642Y-79850000D01*
X198897500Y-79778571D01*
X199111785Y-79778571D01*
X199254642Y-79850000D01*
X199326071Y-79992857D01*
X199326071Y-80778571D01*
X199968928Y-80707142D02*
X200111785Y-80778571D01*
X200397500Y-80778571D01*
X200540357Y-80707142D01*
X200611785Y-80564285D01*
X200611785Y-80492857D01*
X200540357Y-80350000D01*
X200397500Y-80278571D01*
X200183214Y-80278571D01*
X200040357Y-80207142D01*
X199968928Y-80064285D01*
X199968928Y-79992857D01*
X200040357Y-79850000D01*
X200183214Y-79778571D01*
X200397500Y-79778571D01*
X200540357Y-79850000D01*
X201468928Y-80778571D02*
X201326071Y-80707142D01*
X201254642Y-80635714D01*
X201183214Y-80492857D01*
X201183214Y-80064285D01*
X201254642Y-79921428D01*
X201326071Y-79850000D01*
X201468928Y-79778571D01*
X201683214Y-79778571D01*
X201826071Y-79850000D01*
X201897500Y-79921428D01*
X201968928Y-80064285D01*
X201968928Y-80492857D01*
X201897500Y-80635714D01*
X201826071Y-80707142D01*
X201683214Y-80778571D01*
X201468928Y-80778571D01*
X202611785Y-80778571D02*
X202611785Y-79778571D01*
X202611785Y-80064285D02*
X202683214Y-79921428D01*
X202754642Y-79850000D01*
X202897500Y-79778571D01*
X203040357Y-79778571D01*
X153940357Y-112778571D02*
X154440357Y-114278571D01*
X154940357Y-112778571D01*
X155440357Y-114278571D02*
X155440357Y-113278571D01*
X155440357Y-112778571D02*
X155368928Y-112850000D01*
X155440357Y-112921428D01*
X155511785Y-112850000D01*
X155440357Y-112778571D01*
X155440357Y-112921428D01*
X156083214Y-114207142D02*
X156226071Y-114278571D01*
X156511785Y-114278571D01*
X156654642Y-114207142D01*
X156726071Y-114064285D01*
X156726071Y-113992857D01*
X156654642Y-113850000D01*
X156511785Y-113778571D01*
X156297500Y-113778571D01*
X156154642Y-113707142D01*
X156083214Y-113564285D01*
X156083214Y-113492857D01*
X156154642Y-113350000D01*
X156297500Y-113278571D01*
X156511785Y-113278571D01*
X156654642Y-113350000D01*
X157368928Y-114278571D02*
X157368928Y-112778571D01*
X158011785Y-114278571D02*
X158011785Y-113492857D01*
X157940357Y-113350000D01*
X157797500Y-113278571D01*
X157583214Y-113278571D01*
X157440357Y-113350000D01*
X157368928Y-113421428D01*
X159368928Y-114278571D02*
X159368928Y-113492857D01*
X159297500Y-113350000D01*
X159154642Y-113278571D01*
X158868928Y-113278571D01*
X158726071Y-113350000D01*
X159368928Y-114207142D02*
X159226071Y-114278571D01*
X158868928Y-114278571D01*
X158726071Y-114207142D01*
X158654642Y-114064285D01*
X158654642Y-113921428D01*
X158726071Y-113778571D01*
X158868928Y-113707142D01*
X159226071Y-113707142D01*
X159368928Y-113635714D01*
X159940357Y-113278571D02*
X160297500Y-114278571D01*
X160654642Y-113278571D02*
X160297500Y-114278571D01*
X160154642Y-114635714D01*
X160083214Y-114707142D01*
X159940357Y-114778571D01*
X162154642Y-112778571D02*
X162654642Y-114278571D01*
X163154642Y-112778571D01*
X163654642Y-113492857D02*
X164154642Y-113492857D01*
X164368928Y-114278571D02*
X163654642Y-114278571D01*
X163654642Y-112778571D01*
X164368928Y-112778571D01*
X165011785Y-114278571D02*
X165011785Y-112778571D01*
X165511785Y-113850000D01*
X166011785Y-112778571D01*
X166011785Y-114278571D01*
X167440357Y-114278571D02*
X166726071Y-114278571D01*
X166726071Y-112778571D01*
X167797500Y-112778571D02*
X168797500Y-112778571D01*
X168154642Y-114278571D01*
X169226071Y-112778571D02*
X170226071Y-112778571D01*
X169583214Y-114278571D01*
X171083214Y-112778571D02*
X171226071Y-112778571D01*
X171368928Y-112850000D01*
X171440357Y-112921428D01*
X171511785Y-113064285D01*
X171583214Y-113350000D01*
X171583214Y-113707142D01*
X171511785Y-113992857D01*
X171440357Y-114135714D01*
X171368928Y-114207142D01*
X171226071Y-114278571D01*
X171083214Y-114278571D01*
X170940357Y-114207142D01*
X170868928Y-114135714D01*
X170797500Y-113992857D01*
X170726071Y-113707142D01*
X170726071Y-113350000D01*
X170797500Y-113064285D01*
X170868928Y-112921428D01*
X170940357Y-112850000D01*
X171083214Y-112778571D01*
X172511785Y-112778571D02*
X172654642Y-112778571D01*
X172797500Y-112850000D01*
X172868928Y-112921428D01*
X172940357Y-113064285D01*
X173011785Y-113350000D01*
X173011785Y-113707142D01*
X172940357Y-113992857D01*
X172868928Y-114135714D01*
X172797500Y-114207142D01*
X172654642Y-114278571D01*
X172511785Y-114278571D01*
X172368928Y-114207142D01*
X172297500Y-114135714D01*
X172226071Y-113992857D01*
X172154642Y-113707142D01*
X172154642Y-113350000D01*
X172226071Y-113064285D01*
X172297500Y-112921428D01*
X172368928Y-112850000D01*
X172511785Y-112778571D01*
X154083214Y-116250000D02*
X154797500Y-116250000D01*
X153940357Y-116678571D02*
X154440357Y-115178571D01*
X154940357Y-116678571D01*
X155440357Y-116678571D02*
X155440357Y-115678571D01*
X155440357Y-115821428D02*
X155511785Y-115750000D01*
X155654642Y-115678571D01*
X155868928Y-115678571D01*
X156011785Y-115750000D01*
X156083214Y-115892857D01*
X156083214Y-116678571D01*
X156083214Y-115892857D02*
X156154642Y-115750000D01*
X156297500Y-115678571D01*
X156511785Y-115678571D01*
X156654642Y-115750000D01*
X156726071Y-115892857D01*
X156726071Y-116678571D01*
X157440357Y-116678571D02*
X157440357Y-115178571D01*
X157440357Y-115750000D02*
X157583214Y-115678571D01*
X157868928Y-115678571D01*
X158011785Y-115750000D01*
X158083214Y-115821428D01*
X158154642Y-115964285D01*
X158154642Y-116392857D01*
X158083214Y-116535714D01*
X158011785Y-116607142D01*
X157868928Y-116678571D01*
X157583214Y-116678571D01*
X157440357Y-116607142D01*
X158797500Y-116678571D02*
X158797500Y-115678571D01*
X158797500Y-115178571D02*
X158726071Y-115250000D01*
X158797500Y-115321428D01*
X158868928Y-115250000D01*
X158797500Y-115178571D01*
X158797500Y-115321428D01*
X160083214Y-116607142D02*
X159940357Y-116678571D01*
X159654642Y-116678571D01*
X159511785Y-116607142D01*
X159440357Y-116464285D01*
X159440357Y-115892857D01*
X159511785Y-115750000D01*
X159654642Y-115678571D01*
X159940357Y-115678571D01*
X160083214Y-115750000D01*
X160154642Y-115892857D01*
X160154642Y-116035714D01*
X159440357Y-116178571D01*
X160797500Y-115678571D02*
X160797500Y-116678571D01*
X160797500Y-115821428D02*
X160868928Y-115750000D01*
X161011785Y-115678571D01*
X161226071Y-115678571D01*
X161368928Y-115750000D01*
X161440357Y-115892857D01*
X161440357Y-116678571D01*
X161940357Y-115678571D02*
X162511785Y-115678571D01*
X162154642Y-115178571D02*
X162154642Y-116464285D01*
X162226071Y-116607142D01*
X162368928Y-116678571D01*
X162511785Y-116678571D01*
X164368928Y-116678571D02*
X164226071Y-116607142D01*
X164154642Y-116464285D01*
X164154642Y-115178571D01*
X164940357Y-116678571D02*
X164940357Y-115678571D01*
X164940357Y-115178571D02*
X164868928Y-115250000D01*
X164940357Y-115321428D01*
X165011785Y-115250000D01*
X164940357Y-115178571D01*
X164940357Y-115321428D01*
X166297500Y-115678571D02*
X166297500Y-116892857D01*
X166226071Y-117035714D01*
X166154642Y-117107142D01*
X166011785Y-117178571D01*
X165797500Y-117178571D01*
X165654642Y-117107142D01*
X166297500Y-116607142D02*
X166154642Y-116678571D01*
X165868928Y-116678571D01*
X165726071Y-116607142D01*
X165654642Y-116535714D01*
X165583214Y-116392857D01*
X165583214Y-115964285D01*
X165654642Y-115821428D01*
X165726071Y-115750000D01*
X165868928Y-115678571D01*
X166154642Y-115678571D01*
X166297500Y-115750000D01*
X167011785Y-116678571D02*
X167011785Y-115178571D01*
X167654642Y-116678571D02*
X167654642Y-115892857D01*
X167583214Y-115750000D01*
X167440357Y-115678571D01*
X167226071Y-115678571D01*
X167083214Y-115750000D01*
X167011785Y-115821428D01*
X168154642Y-115678571D02*
X168726071Y-115678571D01*
X168368928Y-115178571D02*
X168368928Y-116464285D01*
X168440357Y-116607142D01*
X168583214Y-116678571D01*
X168726071Y-116678571D01*
X170297500Y-116607142D02*
X170440357Y-116678571D01*
X170726071Y-116678571D01*
X170868928Y-116607142D01*
X170940357Y-116464285D01*
X170940357Y-116392857D01*
X170868928Y-116250000D01*
X170726071Y-116178571D01*
X170511785Y-116178571D01*
X170368928Y-116107142D01*
X170297500Y-115964285D01*
X170297500Y-115892857D01*
X170368928Y-115750000D01*
X170511785Y-115678571D01*
X170726071Y-115678571D01*
X170868928Y-115750000D01*
X172154642Y-116607142D02*
X172011785Y-116678571D01*
X171726071Y-116678571D01*
X171583214Y-116607142D01*
X171511785Y-116464285D01*
X171511785Y-115892857D01*
X171583214Y-115750000D01*
X171726071Y-115678571D01*
X172011785Y-115678571D01*
X172154642Y-115750000D01*
X172226071Y-115892857D01*
X172226071Y-116035714D01*
X171511785Y-116178571D01*
X172868928Y-115678571D02*
X172868928Y-116678571D01*
X172868928Y-115821428D02*
X172940357Y-115750000D01*
X173083214Y-115678571D01*
X173297500Y-115678571D01*
X173440357Y-115750000D01*
X173511785Y-115892857D01*
X173511785Y-116678571D01*
X174154642Y-116607142D02*
X174297500Y-116678571D01*
X174583214Y-116678571D01*
X174726071Y-116607142D01*
X174797500Y-116464285D01*
X174797500Y-116392857D01*
X174726071Y-116250000D01*
X174583214Y-116178571D01*
X174368928Y-116178571D01*
X174226071Y-116107142D01*
X174154642Y-115964285D01*
X174154642Y-115892857D01*
X174226071Y-115750000D01*
X174368928Y-115678571D01*
X174583214Y-115678571D01*
X174726071Y-115750000D01*
X175654642Y-116678571D02*
X175511785Y-116607142D01*
X175440357Y-116535714D01*
X175368928Y-116392857D01*
X175368928Y-115964285D01*
X175440357Y-115821428D01*
X175511785Y-115750000D01*
X175654642Y-115678571D01*
X175868928Y-115678571D01*
X176011785Y-115750000D01*
X176083214Y-115821428D01*
X176154642Y-115964285D01*
X176154642Y-116392857D01*
X176083214Y-116535714D01*
X176011785Y-116607142D01*
X175868928Y-116678571D01*
X175654642Y-116678571D01*
X176797500Y-116678571D02*
X176797500Y-115678571D01*
X176797500Y-115964285D02*
X176868928Y-115821428D01*
X176940357Y-115750000D01*
X177083214Y-115678571D01*
X177226071Y-115678571D01*
D11*
X85171190Y-75107142D02*
X85837857Y-75107142D01*
X86123571Y-76154761D02*
X85171190Y-76154761D01*
X85171190Y-74154761D01*
X86123571Y-74154761D01*
X86885476Y-76059523D02*
X87171190Y-76154761D01*
X87647380Y-76154761D01*
X87837857Y-76059523D01*
X87933095Y-75964285D01*
X88028333Y-75773809D01*
X88028333Y-75583333D01*
X87933095Y-75392857D01*
X87837857Y-75297619D01*
X87647380Y-75202380D01*
X87266428Y-75107142D01*
X87075952Y-75011904D01*
X86980714Y-74916666D01*
X86885476Y-74726190D01*
X86885476Y-74535714D01*
X86980714Y-74345238D01*
X87075952Y-74250000D01*
X87266428Y-74154761D01*
X87742619Y-74154761D01*
X88028333Y-74250000D01*
X88885476Y-76154761D02*
X88885476Y-74154761D01*
X89647380Y-74154761D01*
X89837857Y-74250000D01*
X89933095Y-74345238D01*
X90028333Y-74535714D01*
X90028333Y-74821428D01*
X89933095Y-75011904D01*
X89837857Y-75107142D01*
X89647380Y-75202380D01*
X88885476Y-75202380D01*
X90695000Y-74154761D02*
X91933095Y-74154761D01*
X91266428Y-74916666D01*
X91552142Y-74916666D01*
X91742619Y-75011904D01*
X91837857Y-75107142D01*
X91933095Y-75297619D01*
X91933095Y-75773809D01*
X91837857Y-75964285D01*
X91742619Y-76059523D01*
X91552142Y-76154761D01*
X90980714Y-76154761D01*
X90790238Y-76059523D01*
X90695000Y-75964285D01*
X92695000Y-74345238D02*
X92790238Y-74250000D01*
X92980714Y-74154761D01*
X93456904Y-74154761D01*
X93647380Y-74250000D01*
X93742619Y-74345238D01*
X93837857Y-74535714D01*
X93837857Y-74726190D01*
X93742619Y-75011904D01*
X92599761Y-76154761D01*
X93837857Y-76154761D01*
X97075952Y-76154761D02*
X97075952Y-75107142D01*
X96980714Y-74916666D01*
X96790238Y-74821428D01*
X96409285Y-74821428D01*
X96218809Y-74916666D01*
X97075952Y-76059523D02*
X96885476Y-76154761D01*
X96409285Y-76154761D01*
X96218809Y-76059523D01*
X96123571Y-75869047D01*
X96123571Y-75678571D01*
X96218809Y-75488095D01*
X96409285Y-75392857D01*
X96885476Y-75392857D01*
X97075952Y-75297619D01*
X98028333Y-76154761D02*
X98028333Y-74821428D01*
X98028333Y-74154761D02*
X97933095Y-74250000D01*
X98028333Y-74345238D01*
X98123571Y-74250000D01*
X98028333Y-74154761D01*
X98028333Y-74345238D01*
X98980714Y-76154761D02*
X98980714Y-74821428D01*
X98980714Y-75202380D02*
X99075952Y-75011904D01*
X99171190Y-74916666D01*
X99361666Y-74821428D01*
X99552142Y-74821428D01*
X102599761Y-74821428D02*
X102599761Y-76821428D01*
X102599761Y-76059523D02*
X102409285Y-76154761D01*
X102028333Y-76154761D01*
X101837857Y-76059523D01*
X101742619Y-75964285D01*
X101647380Y-75773809D01*
X101647380Y-75202380D01*
X101742619Y-75011904D01*
X101837857Y-74916666D01*
X102028333Y-74821428D01*
X102409285Y-74821428D01*
X102599761Y-74916666D01*
X104409285Y-74821428D02*
X104409285Y-76154761D01*
X103552142Y-74821428D02*
X103552142Y-75869047D01*
X103647380Y-76059523D01*
X103837857Y-76154761D01*
X104123571Y-76154761D01*
X104314047Y-76059523D01*
X104409285Y-75964285D01*
X106218809Y-76154761D02*
X106218809Y-75107142D01*
X106123571Y-74916666D01*
X105933095Y-74821428D01*
X105552142Y-74821428D01*
X105361666Y-74916666D01*
X106218809Y-76059523D02*
X106028333Y-76154761D01*
X105552142Y-76154761D01*
X105361666Y-76059523D01*
X105266428Y-75869047D01*
X105266428Y-75678571D01*
X105361666Y-75488095D01*
X105552142Y-75392857D01*
X106028333Y-75392857D01*
X106218809Y-75297619D01*
X107456904Y-76154761D02*
X107266428Y-76059523D01*
X107171190Y-75869047D01*
X107171190Y-74154761D01*
X108218809Y-76154761D02*
X108218809Y-74821428D01*
X108218809Y-74154761D02*
X108123571Y-74250000D01*
X108218809Y-74345238D01*
X108314047Y-74250000D01*
X108218809Y-74154761D01*
X108218809Y-74345238D01*
X108885476Y-74821428D02*
X109647380Y-74821428D01*
X109171190Y-74154761D02*
X109171190Y-75869047D01*
X109266428Y-76059523D01*
X109456904Y-76154761D01*
X109647380Y-76154761D01*
X110123571Y-74821428D02*
X110599761Y-76154761D01*
X111075952Y-74821428D02*
X110599761Y-76154761D01*
X110409285Y-76630952D01*
X110314047Y-76726190D01*
X110123571Y-76821428D01*
X113361666Y-76154761D02*
X113361666Y-74821428D01*
X113361666Y-75011904D02*
X113456904Y-74916666D01*
X113647380Y-74821428D01*
X113933095Y-74821428D01*
X114123571Y-74916666D01*
X114218809Y-75107142D01*
X114218809Y-76154761D01*
X114218809Y-75107142D02*
X114314047Y-74916666D01*
X114504523Y-74821428D01*
X114790238Y-74821428D01*
X114980714Y-74916666D01*
X115075952Y-75107142D01*
X115075952Y-76154761D01*
X116314047Y-76154761D02*
X116123571Y-76059523D01*
X116028333Y-75964285D01*
X115933095Y-75773809D01*
X115933095Y-75202380D01*
X116028333Y-75011904D01*
X116123571Y-74916666D01*
X116314047Y-74821428D01*
X116599761Y-74821428D01*
X116790238Y-74916666D01*
X116885476Y-75011904D01*
X116980714Y-75202380D01*
X116980714Y-75773809D01*
X116885476Y-75964285D01*
X116790238Y-76059523D01*
X116599761Y-76154761D01*
X116314047Y-76154761D01*
X117837857Y-74821428D02*
X117837857Y-76154761D01*
X117837857Y-75011904D02*
X117933095Y-74916666D01*
X118123571Y-74821428D01*
X118409285Y-74821428D01*
X118599761Y-74916666D01*
X118695000Y-75107142D01*
X118695000Y-76154761D01*
X119647380Y-76154761D02*
X119647380Y-74821428D01*
X119647380Y-74154761D02*
X119552142Y-74250000D01*
X119647380Y-74345238D01*
X119742619Y-74250000D01*
X119647380Y-74154761D01*
X119647380Y-74345238D01*
X120314047Y-74821428D02*
X121075952Y-74821428D01*
X120599761Y-74154761D02*
X120599761Y-75869047D01*
X120695000Y-76059523D01*
X120885476Y-76154761D01*
X121075952Y-76154761D01*
X122028333Y-76154761D02*
X121837857Y-76059523D01*
X121742619Y-75964285D01*
X121647380Y-75773809D01*
X121647380Y-75202380D01*
X121742619Y-75011904D01*
X121837857Y-74916666D01*
X122028333Y-74821428D01*
X122314047Y-74821428D01*
X122504523Y-74916666D01*
X122599761Y-75011904D01*
X122695000Y-75202380D01*
X122695000Y-75773809D01*
X122599761Y-75964285D01*
X122504523Y-76059523D01*
X122314047Y-76154761D01*
X122028333Y-76154761D01*
X123552142Y-76154761D02*
X123552142Y-74821428D01*
X123552142Y-75202380D02*
X123647380Y-75011904D01*
X123742619Y-74916666D01*
X123933095Y-74821428D01*
X124123571Y-74821428D01*
X126885476Y-76916666D02*
X126790238Y-76821428D01*
X126599761Y-76535714D01*
X126504523Y-76345238D01*
X126409285Y-76059523D01*
X126314047Y-75583333D01*
X126314047Y-75202380D01*
X126409285Y-74726190D01*
X126504523Y-74440476D01*
X126599761Y-74250000D01*
X126790238Y-73964285D01*
X126885476Y-73869047D01*
X127361666Y-74154761D02*
X128504523Y-74154761D01*
X127933095Y-76154761D02*
X127933095Y-74154761D01*
X129266428Y-76059523D02*
X129266428Y-76154761D01*
X129171190Y-76345238D01*
X129075952Y-76440476D01*
X132790238Y-76154761D02*
X132123571Y-75202380D01*
X131647380Y-76154761D02*
X131647380Y-74154761D01*
X132409285Y-74154761D01*
X132599761Y-74250000D01*
X132695000Y-74345238D01*
X132790238Y-74535714D01*
X132790238Y-74821428D01*
X132695000Y-75011904D01*
X132599761Y-75107142D01*
X132409285Y-75202380D01*
X131647380Y-75202380D01*
X133647380Y-76154761D02*
X133647380Y-74154761D01*
X133647380Y-75107142D02*
X134790238Y-75107142D01*
X134790238Y-76154761D02*
X134790238Y-74154761D01*
X135837857Y-76059523D02*
X135837857Y-76154761D01*
X135742619Y-76345238D01*
X135647380Y-76440476D01*
X138218809Y-74821428D02*
X138218809Y-76821428D01*
X138218809Y-74916666D02*
X138409285Y-74821428D01*
X138790238Y-74821428D01*
X138980714Y-74916666D01*
X139075952Y-75011904D01*
X139171190Y-75202380D01*
X139171190Y-75773809D01*
X139075952Y-75964285D01*
X138980714Y-76059523D01*
X138790238Y-76154761D01*
X138409285Y-76154761D01*
X138218809Y-76059523D01*
X140123571Y-76059523D02*
X140123571Y-76154761D01*
X140028333Y-76345238D01*
X139933095Y-76440476D01*
X143647380Y-75964285D02*
X143552142Y-76059523D01*
X143266428Y-76154761D01*
X143075952Y-76154761D01*
X142790238Y-76059523D01*
X142599761Y-75869047D01*
X142504523Y-75678571D01*
X142409285Y-75297619D01*
X142409285Y-75011904D01*
X142504523Y-74630952D01*
X142599761Y-74440476D01*
X142790238Y-74250000D01*
X143075952Y-74154761D01*
X143266428Y-74154761D01*
X143552142Y-74250000D01*
X143647380Y-74345238D01*
X144885476Y-74154761D02*
X145266428Y-74154761D01*
X145456904Y-74250000D01*
X145647380Y-74440476D01*
X145742619Y-74821428D01*
X145742619Y-75488095D01*
X145647380Y-75869047D01*
X145456904Y-76059523D01*
X145266428Y-76154761D01*
X144885476Y-76154761D01*
X144695000Y-76059523D01*
X144504523Y-75869047D01*
X144409285Y-75488095D01*
X144409285Y-74821428D01*
X144504523Y-74440476D01*
X144695000Y-74250000D01*
X144885476Y-74154761D01*
X146504523Y-74345238D02*
X146599761Y-74250000D01*
X146790238Y-74154761D01*
X147266428Y-74154761D01*
X147456904Y-74250000D01*
X147552142Y-74345238D01*
X147647380Y-74535714D01*
X147647380Y-74726190D01*
X147552142Y-75011904D01*
X146409285Y-76154761D01*
X147647380Y-76154761D01*
X148599761Y-76059523D02*
X148599761Y-76154761D01*
X148504523Y-76345238D01*
X148409285Y-76440476D01*
X150980714Y-75107142D02*
X151647380Y-75107142D01*
X151933095Y-76154761D02*
X150980714Y-76154761D01*
X150980714Y-74154761D01*
X151933095Y-74154761D01*
X152599761Y-74821428D02*
X153075952Y-76154761D01*
X153552142Y-74821428D01*
X154123571Y-76916666D02*
X154218809Y-76821428D01*
X154409285Y-76535714D01*
X154504523Y-76345238D01*
X154599761Y-76059523D01*
X154695000Y-75583333D01*
X154695000Y-75202380D01*
X154599761Y-74726190D01*
X154504523Y-74440476D01*
X154409285Y-74250000D01*
X154218809Y-73964285D01*
X154123571Y-73869047D01*
X85742619Y-77454761D02*
X85742619Y-78883333D01*
X85647380Y-79169047D01*
X85456904Y-79359523D01*
X85171190Y-79454761D01*
X84980714Y-79454761D01*
X87552142Y-79454761D02*
X87552142Y-78407142D01*
X87456904Y-78216666D01*
X87266428Y-78121428D01*
X86885476Y-78121428D01*
X86695000Y-78216666D01*
X87552142Y-79359523D02*
X87361666Y-79454761D01*
X86885476Y-79454761D01*
X86695000Y-79359523D01*
X86599761Y-79169047D01*
X86599761Y-78978571D01*
X86695000Y-78788095D01*
X86885476Y-78692857D01*
X87361666Y-78692857D01*
X87552142Y-78597619D01*
X88504523Y-78121428D02*
X88504523Y-79454761D01*
X88504523Y-78311904D02*
X88599761Y-78216666D01*
X88790238Y-78121428D01*
X89075952Y-78121428D01*
X89266428Y-78216666D01*
X89361666Y-78407142D01*
X89361666Y-79454761D01*
X91552142Y-77454761D02*
X92218809Y-79454761D01*
X92885476Y-77454761D01*
X93552142Y-79454761D02*
X93552142Y-78121428D01*
X93552142Y-78502380D02*
X93647380Y-78311904D01*
X93742619Y-78216666D01*
X93933095Y-78121428D01*
X94123571Y-78121428D01*
X94790238Y-79454761D02*
X94790238Y-77454761D01*
X95647380Y-79454761D02*
X95647380Y-78407142D01*
X95552142Y-78216666D01*
X95361666Y-78121428D01*
X95075952Y-78121428D01*
X94885476Y-78216666D01*
X94790238Y-78311904D01*
X96885476Y-79454761D02*
X96695000Y-79359523D01*
X96599761Y-79264285D01*
X96504523Y-79073809D01*
X96504523Y-78502380D01*
X96599761Y-78311904D01*
X96695000Y-78216666D01*
X96885476Y-78121428D01*
X97171190Y-78121428D01*
X97361666Y-78216666D01*
X97456904Y-78311904D01*
X97552142Y-78502380D01*
X97552142Y-79073809D01*
X97456904Y-79264285D01*
X97361666Y-79359523D01*
X97171190Y-79454761D01*
X96885476Y-79454761D01*
X98218809Y-78121428D02*
X98695000Y-79454761D01*
X99171190Y-78121428D01*
X100695000Y-79359523D02*
X100504523Y-79454761D01*
X100123571Y-79454761D01*
X99933095Y-79359523D01*
X99837857Y-79169047D01*
X99837857Y-78407142D01*
X99933095Y-78216666D01*
X100123571Y-78121428D01*
X100504523Y-78121428D01*
X100695000Y-78216666D01*
X100790238Y-78407142D01*
X100790238Y-78597619D01*
X99837857Y-78788095D01*
X102504523Y-79359523D02*
X102314047Y-79454761D01*
X101933095Y-79454761D01*
X101742619Y-79359523D01*
X101647380Y-79264285D01*
X101552142Y-79073809D01*
X101552142Y-78502380D01*
X101647380Y-78311904D01*
X101742619Y-78216666D01*
X101933095Y-78121428D01*
X102314047Y-78121428D01*
X102504523Y-78216666D01*
X103456904Y-79359523D02*
X103456904Y-79454761D01*
X103361666Y-79645238D01*
X103266428Y-79740476D01*
X105742619Y-77645238D02*
X105837857Y-77550000D01*
X106028333Y-77454761D01*
X106504523Y-77454761D01*
X106695000Y-77550000D01*
X106790238Y-77645238D01*
X106885476Y-77835714D01*
X106885476Y-78026190D01*
X106790238Y-78311904D01*
X105647380Y-79454761D01*
X106885476Y-79454761D01*
X108123571Y-77454761D02*
X108314047Y-77454761D01*
X108504523Y-77550000D01*
X108599761Y-77645238D01*
X108695000Y-77835714D01*
X108790238Y-78216666D01*
X108790238Y-78692857D01*
X108695000Y-79073809D01*
X108599761Y-79264285D01*
X108504523Y-79359523D01*
X108314047Y-79454761D01*
X108123571Y-79454761D01*
X107933095Y-79359523D01*
X107837857Y-79264285D01*
X107742619Y-79073809D01*
X107647380Y-78692857D01*
X107647380Y-78216666D01*
X107742619Y-77835714D01*
X107837857Y-77645238D01*
X107933095Y-77550000D01*
X108123571Y-77454761D01*
X109552142Y-77645238D02*
X109647380Y-77550000D01*
X109837857Y-77454761D01*
X110314047Y-77454761D01*
X110504523Y-77550000D01*
X110599761Y-77645238D01*
X110695000Y-77835714D01*
X110695000Y-78026190D01*
X110599761Y-78311904D01*
X109456904Y-79454761D01*
X110695000Y-79454761D01*
X112599761Y-79454761D02*
X111456904Y-79454761D01*
X112028333Y-79454761D02*
X112028333Y-77454761D01*
X111837857Y-77740476D01*
X111647380Y-77930952D01*
X111456904Y-78026190D01*
X147557142Y-81750000D02*
X147414285Y-81678571D01*
X147200000Y-81678571D01*
X146985714Y-81750000D01*
X146842857Y-81892857D01*
X146771428Y-82035714D01*
X146700000Y-82321428D01*
X146700000Y-82535714D01*
X146771428Y-82821428D01*
X146842857Y-82964285D01*
X146985714Y-83107142D01*
X147200000Y-83178571D01*
X147342857Y-83178571D01*
X147557142Y-83107142D01*
X147628571Y-83035714D01*
X147628571Y-82535714D01*
X147342857Y-82535714D01*
X148271428Y-83178571D02*
X148271428Y-81678571D01*
X149128571Y-83178571D01*
X149128571Y-81678571D01*
X149842857Y-83178571D02*
X149842857Y-81678571D01*
X150200000Y-81678571D01*
X150414285Y-81750000D01*
X150557142Y-81892857D01*
X150628571Y-82035714D01*
X150700000Y-82321428D01*
X150700000Y-82535714D01*
X150628571Y-82821428D01*
X150557142Y-82964285D01*
X150414285Y-83107142D01*
X150200000Y-83178571D01*
X149842857Y-83178571D01*
X141614285Y-81578571D02*
X140900000Y-81578571D01*
X140828571Y-82292857D01*
X140900000Y-82221428D01*
X141042857Y-82150000D01*
X141400000Y-82150000D01*
X141542857Y-82221428D01*
X141614285Y-82292857D01*
X141685714Y-82435714D01*
X141685714Y-82792857D01*
X141614285Y-82935714D01*
X141542857Y-83007142D01*
X141400000Y-83078571D01*
X141042857Y-83078571D01*
X140900000Y-83007142D01*
X140828571Y-82935714D01*
X142114285Y-81578571D02*
X142614285Y-83078571D01*
X143114285Y-81578571D01*
D12*
X142570000Y-86830000D02*
X142570000Y-85500000D01*
X143900000Y-86830000D02*
X142570000Y-86830000D01*
X145170000Y-86830000D02*
X145170000Y-84170000D01*
X145170000Y-84170000D02*
X147770000Y-84170000D01*
X145170000Y-86830000D02*
X147770000Y-86830000D01*
X147770000Y-86830000D02*
X147770000Y-84170000D01*
X164330000Y-118370000D02*
X164330000Y-121030000D01*
X164330000Y-118370000D02*
X154110000Y-118370000D01*
X154110000Y-118370000D02*
X154110000Y-121030000D01*
X164330000Y-121030000D02*
X154110000Y-121030000D01*
X166930000Y-121030000D02*
X165600000Y-121030000D01*
X166930000Y-119700000D02*
X166930000Y-121030000D01*
X215140000Y-92090000D02*
X216470000Y-92090000D01*
X216470000Y-92090000D02*
X216470000Y-93420000D01*
X213870000Y-92090000D02*
X213870000Y-94690000D01*
X213870000Y-94690000D02*
X216470000Y-94690000D01*
X216470000Y-94690000D02*
X216470000Y-112530000D01*
X211270000Y-112530000D02*
X216470000Y-112530000D01*
X211270000Y-92090000D02*
X211270000Y-112530000D01*
X211270000Y-92090000D02*
X213870000Y-92090000D01*
X78600000Y-92070000D02*
X79930000Y-92070000D01*
X79930000Y-92070000D02*
X79930000Y-93400000D01*
X77330000Y-92070000D02*
X77330000Y-94670000D01*
X77330000Y-94670000D02*
X79930000Y-94670000D01*
X79930000Y-94670000D02*
X79930000Y-112510000D01*
X74730000Y-112510000D02*
X79930000Y-112510000D01*
X74730000Y-92070000D02*
X74730000Y-112510000D01*
X74730000Y-92070000D02*
X77330000Y-92070000D01*
D13*
X185200000Y-107500000D02*
X220200000Y-107500000D01*
X220200000Y-107500000D02*
X220200000Y-130500000D01*
X185200000Y-130500000D02*
X185200000Y-107500000D01*
X220200000Y-130500000D02*
X185200000Y-130500000D01*
D14*
X184500000Y-108900000D02*
G75*
G03*
X184500000Y-108900000I-100000J0D01*
G01*
D12*
X185970000Y-87270000D02*
X188630000Y-87270000D01*
X185970000Y-87270000D02*
X185970000Y-97490000D01*
X185970000Y-97490000D02*
X188630000Y-97490000D01*
X188630000Y-87270000D02*
X188630000Y-97490000D01*
X188630000Y-84670000D02*
X188630000Y-86000000D01*
X187300000Y-84670000D02*
X188630000Y-84670000D01*
D13*
X81610000Y-99750000D02*
X136010000Y-99750000D01*
X136010000Y-99750000D02*
X136010000Y-127650000D01*
X136010000Y-127650000D02*
X81610000Y-127650000D01*
X81610000Y-127650000D02*
X81610000Y-99750000D01*
D12*
X133910000Y-94427064D02*
X133910000Y-92972936D01*
X132090000Y-94427064D02*
X132090000Y-92972936D01*
X131410000Y-94427064D02*
X131410000Y-92972936D01*
X129590000Y-94427064D02*
X129590000Y-92972936D01*
X128810000Y-94427064D02*
X128810000Y-92972936D01*
X126990000Y-94427064D02*
X126990000Y-92972936D01*
X126310000Y-94427064D02*
X126310000Y-92972936D01*
X124490000Y-94427064D02*
X124490000Y-92972936D01*
X107410000Y-94127064D02*
X107410000Y-92672936D01*
X105590000Y-94127064D02*
X105590000Y-92672936D01*
X116710000Y-94127064D02*
X116710000Y-92672936D01*
X114890000Y-94127064D02*
X114890000Y-92672936D01*
X132385000Y-86066667D02*
X133655000Y-86066667D01*
X133585000Y-87420000D02*
X133585000Y-86066667D01*
X133465000Y-87420000D02*
X133465000Y-86066667D01*
X133345000Y-87420000D02*
X133345000Y-86066667D01*
X133225000Y-87420000D02*
X133225000Y-86066667D01*
X133105000Y-87420000D02*
X133105000Y-86066667D01*
X132985000Y-87420000D02*
X132985000Y-86066667D01*
X132865000Y-87420000D02*
X132865000Y-86066667D01*
X132745000Y-87420000D02*
X132745000Y-86066667D01*
X132625000Y-87420000D02*
X132625000Y-86066667D01*
X132505000Y-87420000D02*
X132505000Y-86066667D01*
X132385000Y-83360000D02*
X132385000Y-87420000D01*
X133655000Y-83360000D02*
X132385000Y-83360000D01*
X133655000Y-87420000D02*
X133655000Y-83360000D01*
X132385000Y-87420000D02*
X133655000Y-87420000D01*
X129845000Y-86066667D02*
X131115000Y-86066667D01*
X131045000Y-87420000D02*
X131045000Y-86066667D01*
X130925000Y-87420000D02*
X130925000Y-86066667D01*
X130805000Y-87420000D02*
X130805000Y-86066667D01*
X130685000Y-87420000D02*
X130685000Y-86066667D01*
X130565000Y-87420000D02*
X130565000Y-86066667D01*
X130445000Y-87420000D02*
X130445000Y-86066667D01*
X130325000Y-87420000D02*
X130325000Y-86066667D01*
X130205000Y-87420000D02*
X130205000Y-86066667D01*
X130085000Y-87420000D02*
X130085000Y-86066667D01*
X129965000Y-87420000D02*
X129965000Y-86066667D01*
X129845000Y-83360000D02*
X129845000Y-87420000D01*
X131115000Y-83360000D02*
X129845000Y-83360000D01*
X131115000Y-87420000D02*
X131115000Y-83360000D01*
X129845000Y-87420000D02*
X131115000Y-87420000D01*
X127305000Y-86066667D02*
X128575000Y-86066667D01*
X128505000Y-87420000D02*
X128505000Y-86066667D01*
X128385000Y-87420000D02*
X128385000Y-86066667D01*
X128265000Y-87420000D02*
X128265000Y-86066667D01*
X128145000Y-87420000D02*
X128145000Y-86066667D01*
X128025000Y-87420000D02*
X128025000Y-86066667D01*
X127905000Y-87420000D02*
X127905000Y-86066667D01*
X127785000Y-87420000D02*
X127785000Y-86066667D01*
X127665000Y-87420000D02*
X127665000Y-86066667D01*
X127545000Y-87420000D02*
X127545000Y-86066667D01*
X127425000Y-87420000D02*
X127425000Y-86066667D01*
X127305000Y-83360000D02*
X127305000Y-87420000D01*
X128575000Y-83360000D02*
X127305000Y-83360000D01*
X128575000Y-87420000D02*
X128575000Y-83360000D01*
X127305000Y-87420000D02*
X128575000Y-87420000D01*
X124765000Y-86066667D02*
X126035000Y-86066667D01*
X125965000Y-87420000D02*
X125965000Y-86066667D01*
X125845000Y-87420000D02*
X125845000Y-86066667D01*
X125725000Y-87420000D02*
X125725000Y-86066667D01*
X125605000Y-87420000D02*
X125605000Y-86066667D01*
X125485000Y-87420000D02*
X125485000Y-86066667D01*
X125365000Y-87420000D02*
X125365000Y-86066667D01*
X125245000Y-87420000D02*
X125245000Y-86066667D01*
X125125000Y-87420000D02*
X125125000Y-86066667D01*
X125005000Y-87420000D02*
X125005000Y-86066667D01*
X124885000Y-87420000D02*
X124885000Y-86066667D01*
X124765000Y-83360000D02*
X124765000Y-87420000D01*
X126035000Y-83360000D02*
X124765000Y-83360000D01*
X126035000Y-87420000D02*
X126035000Y-83360000D01*
X124765000Y-87420000D02*
X126035000Y-87420000D01*
X122740000Y-90580000D02*
X124123000Y-90580000D01*
X122740000Y-90580000D02*
X122740000Y-89196000D01*
X122980000Y-80440000D02*
X135440000Y-80440000D01*
X122980000Y-90340000D02*
X135440000Y-90340000D01*
X135440000Y-90340000D02*
X135440000Y-80440000D01*
X122980000Y-90340000D02*
X122980000Y-80440000D01*
X97810000Y-94127064D02*
X97810000Y-92672936D01*
X95990000Y-94127064D02*
X95990000Y-92672936D01*
D10*
X141022380Y-85833333D02*
X141736666Y-85833333D01*
X141879523Y-85880952D01*
X141974761Y-85976190D01*
X142022380Y-86119047D01*
X142022380Y-86214285D01*
X142022380Y-84833333D02*
X142022380Y-85404761D01*
X142022380Y-85119047D02*
X141022380Y-85119047D01*
X141165238Y-85214285D01*
X141260476Y-85309523D01*
X141308095Y-85404761D01*
X167822380Y-120033333D02*
X168536666Y-120033333D01*
X168679523Y-120080952D01*
X168774761Y-120176190D01*
X168822380Y-120319047D01*
X168822380Y-120414285D01*
X167822380Y-119080952D02*
X167822380Y-119557142D01*
X168298571Y-119604761D01*
X168250952Y-119557142D01*
X168203333Y-119461904D01*
X168203333Y-119223809D01*
X168250952Y-119128571D01*
X168298571Y-119080952D01*
X168393809Y-119033333D01*
X168631904Y-119033333D01*
X168727142Y-119080952D01*
X168774761Y-119128571D01*
X168822380Y-119223809D01*
X168822380Y-119461904D01*
X168774761Y-119557142D01*
X168727142Y-119604761D01*
X158384761Y-124700476D02*
X158432380Y-124557619D01*
X158432380Y-124319523D01*
X158384761Y-124224285D01*
X158337142Y-124176666D01*
X158241904Y-124129047D01*
X158146666Y-124129047D01*
X158051428Y-124176666D01*
X158003809Y-124224285D01*
X157956190Y-124319523D01*
X157908571Y-124510000D01*
X157860952Y-124605238D01*
X157813333Y-124652857D01*
X157718095Y-124700476D01*
X157622857Y-124700476D01*
X157527619Y-124652857D01*
X157480000Y-124605238D01*
X157432380Y-124510000D01*
X157432380Y-124271904D01*
X157480000Y-124129047D01*
X158337142Y-123129047D02*
X158384761Y-123176666D01*
X158432380Y-123319523D01*
X158432380Y-123414761D01*
X158384761Y-123557619D01*
X158289523Y-123652857D01*
X158194285Y-123700476D01*
X158003809Y-123748095D01*
X157860952Y-123748095D01*
X157670476Y-123700476D01*
X157575238Y-123652857D01*
X157480000Y-123557619D01*
X157432380Y-123414761D01*
X157432380Y-123319523D01*
X157480000Y-123176666D01*
X157527619Y-123129047D01*
X158432380Y-122224285D02*
X158432380Y-122700476D01*
X157432380Y-122700476D01*
X155844761Y-124724285D02*
X155892380Y-124581428D01*
X155892380Y-124343333D01*
X155844761Y-124248095D01*
X155797142Y-124200476D01*
X155701904Y-124152857D01*
X155606666Y-124152857D01*
X155511428Y-124200476D01*
X155463809Y-124248095D01*
X155416190Y-124343333D01*
X155368571Y-124533809D01*
X155320952Y-124629047D01*
X155273333Y-124676666D01*
X155178095Y-124724285D01*
X155082857Y-124724285D01*
X154987619Y-124676666D01*
X154940000Y-124629047D01*
X154892380Y-124533809D01*
X154892380Y-124295714D01*
X154940000Y-124152857D01*
X155892380Y-123724285D02*
X154892380Y-123724285D01*
X154892380Y-123486190D01*
X154940000Y-123343333D01*
X155035238Y-123248095D01*
X155130476Y-123200476D01*
X155320952Y-123152857D01*
X155463809Y-123152857D01*
X155654285Y-123200476D01*
X155749523Y-123248095D01*
X155844761Y-123343333D01*
X155892380Y-123486190D01*
X155892380Y-123724285D01*
X155606666Y-122771904D02*
X155606666Y-122295714D01*
X155892380Y-122867142D02*
X154892380Y-122533809D01*
X155892380Y-122200476D01*
X160020000Y-124271904D02*
X159972380Y-124367142D01*
X159972380Y-124510000D01*
X160020000Y-124652857D01*
X160115238Y-124748095D01*
X160210476Y-124795714D01*
X160400952Y-124843333D01*
X160543809Y-124843333D01*
X160734285Y-124795714D01*
X160829523Y-124748095D01*
X160924761Y-124652857D01*
X160972380Y-124510000D01*
X160972380Y-124414761D01*
X160924761Y-124271904D01*
X160877142Y-124224285D01*
X160543809Y-124224285D01*
X160543809Y-124414761D01*
X160972380Y-123795714D02*
X159972380Y-123795714D01*
X160972380Y-123224285D01*
X159972380Y-123224285D01*
X160972380Y-122748095D02*
X159972380Y-122748095D01*
X159972380Y-122510000D01*
X160020000Y-122367142D01*
X160115238Y-122271904D01*
X160210476Y-122224285D01*
X160400952Y-122176666D01*
X160543809Y-122176666D01*
X160734285Y-122224285D01*
X160829523Y-122271904D01*
X160924761Y-122367142D01*
X160972380Y-122510000D01*
X160972380Y-122748095D01*
X162512380Y-124724285D02*
X162512380Y-124105238D01*
X162893333Y-124438571D01*
X162893333Y-124295714D01*
X162940952Y-124200476D01*
X162988571Y-124152857D01*
X163083809Y-124105238D01*
X163321904Y-124105238D01*
X163417142Y-124152857D01*
X163464761Y-124200476D01*
X163512380Y-124295714D01*
X163512380Y-124581428D01*
X163464761Y-124676666D01*
X163417142Y-124724285D01*
X162512380Y-123819523D02*
X163512380Y-123486190D01*
X162512380Y-123152857D01*
X163512380Y-122676666D02*
X163464761Y-122771904D01*
X163417142Y-122819523D01*
X163321904Y-122867142D01*
X163036190Y-122867142D01*
X162940952Y-122819523D01*
X162893333Y-122771904D01*
X162845714Y-122676666D01*
X162845714Y-122533809D01*
X162893333Y-122438571D01*
X162940952Y-122390952D01*
X163036190Y-122343333D01*
X163321904Y-122343333D01*
X163417142Y-122390952D01*
X163464761Y-122438571D01*
X163512380Y-122533809D01*
X163512380Y-122676666D01*
X165052380Y-124533809D02*
X166052380Y-124200476D01*
X165052380Y-123867142D01*
X166052380Y-123533809D02*
X165385714Y-123533809D01*
X165052380Y-123533809D02*
X165100000Y-123581428D01*
X165147619Y-123533809D01*
X165100000Y-123486190D01*
X165052380Y-123533809D01*
X165147619Y-123533809D01*
X165385714Y-123057619D02*
X166052380Y-123057619D01*
X165480952Y-123057619D02*
X165433333Y-123010000D01*
X165385714Y-122914761D01*
X165385714Y-122771904D01*
X165433333Y-122676666D01*
X165528571Y-122629047D01*
X166052380Y-122629047D01*
X213536666Y-90102380D02*
X213536666Y-90816666D01*
X213489047Y-90959523D01*
X213393809Y-91054761D01*
X213250952Y-91102380D01*
X213155714Y-91102380D01*
X213917619Y-90102380D02*
X214536666Y-90102380D01*
X214203333Y-90483333D01*
X214346190Y-90483333D01*
X214441428Y-90530952D01*
X214489047Y-90578571D01*
X214536666Y-90673809D01*
X214536666Y-90911904D01*
X214489047Y-91007142D01*
X214441428Y-91054761D01*
X214346190Y-91102380D01*
X214060476Y-91102380D01*
X213965238Y-91054761D01*
X213917619Y-91007142D01*
X218735714Y-92920000D02*
X218640476Y-92872380D01*
X218497619Y-92872380D01*
X218354761Y-92920000D01*
X218259523Y-93015238D01*
X218211904Y-93110476D01*
X218164285Y-93300952D01*
X218164285Y-93443809D01*
X218211904Y-93634285D01*
X218259523Y-93729523D01*
X218354761Y-93824761D01*
X218497619Y-93872380D01*
X218592857Y-93872380D01*
X218735714Y-93824761D01*
X218783333Y-93777142D01*
X218783333Y-93443809D01*
X218592857Y-93443809D01*
X219402380Y-92872380D02*
X219497619Y-92872380D01*
X219592857Y-92920000D01*
X219640476Y-92967619D01*
X219688095Y-93062857D01*
X219735714Y-93253333D01*
X219735714Y-93491428D01*
X219688095Y-93681904D01*
X219640476Y-93777142D01*
X219592857Y-93824761D01*
X219497619Y-93872380D01*
X219402380Y-93872380D01*
X219307142Y-93824761D01*
X219259523Y-93777142D01*
X219211904Y-93681904D01*
X219164285Y-93491428D01*
X219164285Y-93253333D01*
X219211904Y-93062857D01*
X219259523Y-92967619D01*
X219307142Y-92920000D01*
X219402380Y-92872380D01*
X218188095Y-95460000D02*
X218092857Y-95412380D01*
X217950000Y-95412380D01*
X217807142Y-95460000D01*
X217711904Y-95555238D01*
X217664285Y-95650476D01*
X217616666Y-95840952D01*
X217616666Y-95983809D01*
X217664285Y-96174285D01*
X217711904Y-96269523D01*
X217807142Y-96364761D01*
X217950000Y-96412380D01*
X218045238Y-96412380D01*
X218188095Y-96364761D01*
X218235714Y-96317142D01*
X218235714Y-95983809D01*
X218045238Y-95983809D01*
X218664285Y-96412380D02*
X218664285Y-95412380D01*
X219235714Y-96412380D01*
X219235714Y-95412380D01*
X219711904Y-96412380D02*
X219711904Y-95412380D01*
X219950000Y-95412380D01*
X220092857Y-95460000D01*
X220188095Y-95555238D01*
X220235714Y-95650476D01*
X220283333Y-95840952D01*
X220283333Y-95983809D01*
X220235714Y-96174285D01*
X220188095Y-96269523D01*
X220092857Y-96364761D01*
X219950000Y-96412380D01*
X219711904Y-96412380D01*
X218735714Y-98000000D02*
X218640476Y-97952380D01*
X218497619Y-97952380D01*
X218354761Y-98000000D01*
X218259523Y-98095238D01*
X218211904Y-98190476D01*
X218164285Y-98380952D01*
X218164285Y-98523809D01*
X218211904Y-98714285D01*
X218259523Y-98809523D01*
X218354761Y-98904761D01*
X218497619Y-98952380D01*
X218592857Y-98952380D01*
X218735714Y-98904761D01*
X218783333Y-98857142D01*
X218783333Y-98523809D01*
X218592857Y-98523809D01*
X219735714Y-98952380D02*
X219164285Y-98952380D01*
X219450000Y-98952380D02*
X219450000Y-97952380D01*
X219354761Y-98095238D01*
X219259523Y-98190476D01*
X219164285Y-98238095D01*
X218188095Y-100540000D02*
X218092857Y-100492380D01*
X217950000Y-100492380D01*
X217807142Y-100540000D01*
X217711904Y-100635238D01*
X217664285Y-100730476D01*
X217616666Y-100920952D01*
X217616666Y-101063809D01*
X217664285Y-101254285D01*
X217711904Y-101349523D01*
X217807142Y-101444761D01*
X217950000Y-101492380D01*
X218045238Y-101492380D01*
X218188095Y-101444761D01*
X218235714Y-101397142D01*
X218235714Y-101063809D01*
X218045238Y-101063809D01*
X218664285Y-101492380D02*
X218664285Y-100492380D01*
X219235714Y-101492380D01*
X219235714Y-100492380D01*
X219711904Y-101492380D02*
X219711904Y-100492380D01*
X219950000Y-100492380D01*
X220092857Y-100540000D01*
X220188095Y-100635238D01*
X220235714Y-100730476D01*
X220283333Y-100920952D01*
X220283333Y-101063809D01*
X220235714Y-101254285D01*
X220188095Y-101349523D01*
X220092857Y-101444761D01*
X219950000Y-101492380D01*
X219711904Y-101492380D01*
X219021428Y-103508571D02*
X219164285Y-103556190D01*
X219211904Y-103603809D01*
X219259523Y-103699047D01*
X219259523Y-103841904D01*
X219211904Y-103937142D01*
X219164285Y-103984761D01*
X219069047Y-104032380D01*
X218688095Y-104032380D01*
X218688095Y-103032380D01*
X219021428Y-103032380D01*
X219116666Y-103080000D01*
X219164285Y-103127619D01*
X219211904Y-103222857D01*
X219211904Y-103318095D01*
X219164285Y-103413333D01*
X219116666Y-103460952D01*
X219021428Y-103508571D01*
X218688095Y-103508571D01*
X218688095Y-106572380D02*
X218688095Y-105572380D01*
X218926190Y-105572380D01*
X219069047Y-105620000D01*
X219164285Y-105715238D01*
X219211904Y-105810476D01*
X219259523Y-106000952D01*
X219259523Y-106143809D01*
X219211904Y-106334285D01*
X219164285Y-106429523D01*
X219069047Y-106524761D01*
X218926190Y-106572380D01*
X218688095Y-106572380D01*
X218450000Y-109112380D02*
X217973809Y-109112380D01*
X217973809Y-108112380D01*
X218735714Y-108826666D02*
X219211904Y-108826666D01*
X218640476Y-109112380D02*
X218973809Y-108112380D01*
X219307142Y-109112380D01*
X219497619Y-108112380D02*
X220069047Y-108112380D01*
X219783333Y-109112380D02*
X219783333Y-108112380D01*
X218188095Y-110700000D02*
X218092857Y-110652380D01*
X217950000Y-110652380D01*
X217807142Y-110700000D01*
X217711904Y-110795238D01*
X217664285Y-110890476D01*
X217616666Y-111080952D01*
X217616666Y-111223809D01*
X217664285Y-111414285D01*
X217711904Y-111509523D01*
X217807142Y-111604761D01*
X217950000Y-111652380D01*
X218045238Y-111652380D01*
X218188095Y-111604761D01*
X218235714Y-111557142D01*
X218235714Y-111223809D01*
X218045238Y-111223809D01*
X218664285Y-111652380D02*
X218664285Y-110652380D01*
X219235714Y-111652380D01*
X219235714Y-110652380D01*
X219711904Y-111652380D02*
X219711904Y-110652380D01*
X219950000Y-110652380D01*
X220092857Y-110700000D01*
X220188095Y-110795238D01*
X220235714Y-110890476D01*
X220283333Y-111080952D01*
X220283333Y-111223809D01*
X220235714Y-111414285D01*
X220188095Y-111509523D01*
X220092857Y-111604761D01*
X219950000Y-111652380D01*
X219711904Y-111652380D01*
X208242380Y-110652380D02*
X208432857Y-110652380D01*
X208528095Y-110700000D01*
X208623333Y-110795238D01*
X208670952Y-110985714D01*
X208670952Y-111319047D01*
X208623333Y-111509523D01*
X208528095Y-111604761D01*
X208432857Y-111652380D01*
X208242380Y-111652380D01*
X208147142Y-111604761D01*
X208051904Y-111509523D01*
X208004285Y-111319047D01*
X208004285Y-110985714D01*
X208051904Y-110795238D01*
X208147142Y-110700000D01*
X208242380Y-110652380D01*
X209099523Y-111128571D02*
X209432857Y-111128571D01*
X209575714Y-111652380D02*
X209099523Y-111652380D01*
X209099523Y-110652380D01*
X209575714Y-110652380D01*
X208194761Y-109017142D02*
X208147142Y-109064761D01*
X208004285Y-109112380D01*
X207909047Y-109112380D01*
X207766190Y-109064761D01*
X207670952Y-108969523D01*
X207623333Y-108874285D01*
X207575714Y-108683809D01*
X207575714Y-108540952D01*
X207623333Y-108350476D01*
X207670952Y-108255238D01*
X207766190Y-108160000D01*
X207909047Y-108112380D01*
X208004285Y-108112380D01*
X208147142Y-108160000D01*
X208194761Y-108207619D01*
X209099523Y-109112380D02*
X208623333Y-109112380D01*
X208623333Y-108112380D01*
X209432857Y-109112380D02*
X209432857Y-108112380D01*
X210004285Y-109112380D02*
X209575714Y-108540952D01*
X210004285Y-108112380D02*
X209432857Y-108683809D01*
X209099523Y-106477142D02*
X209051904Y-106524761D01*
X208909047Y-106572380D01*
X208813809Y-106572380D01*
X208670952Y-106524761D01*
X208575714Y-106429523D01*
X208528095Y-106334285D01*
X208480476Y-106143809D01*
X208480476Y-106000952D01*
X208528095Y-105810476D01*
X208575714Y-105715238D01*
X208670952Y-105620000D01*
X208813809Y-105572380D01*
X208909047Y-105572380D01*
X209051904Y-105620000D01*
X209099523Y-105667619D01*
X208551904Y-103746666D02*
X209028095Y-103746666D01*
X208456666Y-104032380D02*
X208790000Y-103032380D01*
X209123333Y-104032380D01*
X208385238Y-100968571D02*
X208528095Y-101016190D01*
X208575714Y-101063809D01*
X208623333Y-101159047D01*
X208623333Y-101301904D01*
X208575714Y-101397142D01*
X208528095Y-101444761D01*
X208432857Y-101492380D01*
X208051904Y-101492380D01*
X208051904Y-100492380D01*
X208385238Y-100492380D01*
X208480476Y-100540000D01*
X208528095Y-100587619D01*
X208575714Y-100682857D01*
X208575714Y-100778095D01*
X208528095Y-100873333D01*
X208480476Y-100920952D01*
X208385238Y-100968571D01*
X208051904Y-100968571D01*
X209575714Y-101492380D02*
X209004285Y-101492380D01*
X209290000Y-101492380D02*
X209290000Y-100492380D01*
X209194761Y-100635238D01*
X209099523Y-100730476D01*
X209004285Y-100778095D01*
X208623333Y-98952380D02*
X208290000Y-98476190D01*
X208051904Y-98952380D02*
X208051904Y-97952380D01*
X208432857Y-97952380D01*
X208528095Y-98000000D01*
X208575714Y-98047619D01*
X208623333Y-98142857D01*
X208623333Y-98285714D01*
X208575714Y-98380952D01*
X208528095Y-98428571D01*
X208432857Y-98476190D01*
X208051904Y-98476190D01*
X209575714Y-98952380D02*
X209004285Y-98952380D01*
X209290000Y-98952380D02*
X209290000Y-97952380D01*
X209194761Y-98095238D01*
X209099523Y-98190476D01*
X209004285Y-98238095D01*
X208385238Y-95888571D02*
X208528095Y-95936190D01*
X208575714Y-95983809D01*
X208623333Y-96079047D01*
X208623333Y-96221904D01*
X208575714Y-96317142D01*
X208528095Y-96364761D01*
X208432857Y-96412380D01*
X208051904Y-96412380D01*
X208051904Y-95412380D01*
X208385238Y-95412380D01*
X208480476Y-95460000D01*
X208528095Y-95507619D01*
X208575714Y-95602857D01*
X208575714Y-95698095D01*
X208528095Y-95793333D01*
X208480476Y-95840952D01*
X208385238Y-95888571D01*
X208051904Y-95888571D01*
X209242380Y-95412380D02*
X209337619Y-95412380D01*
X209432857Y-95460000D01*
X209480476Y-95507619D01*
X209528095Y-95602857D01*
X209575714Y-95793333D01*
X209575714Y-96031428D01*
X209528095Y-96221904D01*
X209480476Y-96317142D01*
X209432857Y-96364761D01*
X209337619Y-96412380D01*
X209242380Y-96412380D01*
X209147142Y-96364761D01*
X209099523Y-96317142D01*
X209051904Y-96221904D01*
X209004285Y-96031428D01*
X209004285Y-95793333D01*
X209051904Y-95602857D01*
X209099523Y-95507619D01*
X209147142Y-95460000D01*
X209242380Y-95412380D01*
X208623333Y-93872380D02*
X208290000Y-93396190D01*
X208051904Y-93872380D02*
X208051904Y-92872380D01*
X208432857Y-92872380D01*
X208528095Y-92920000D01*
X208575714Y-92967619D01*
X208623333Y-93062857D01*
X208623333Y-93205714D01*
X208575714Y-93300952D01*
X208528095Y-93348571D01*
X208432857Y-93396190D01*
X208051904Y-93396190D01*
X209242380Y-92872380D02*
X209337619Y-92872380D01*
X209432857Y-92920000D01*
X209480476Y-92967619D01*
X209528095Y-93062857D01*
X209575714Y-93253333D01*
X209575714Y-93491428D01*
X209528095Y-93681904D01*
X209480476Y-93777142D01*
X209432857Y-93824761D01*
X209337619Y-93872380D01*
X209242380Y-93872380D01*
X209147142Y-93824761D01*
X209099523Y-93777142D01*
X209051904Y-93681904D01*
X209004285Y-93491428D01*
X209004285Y-93253333D01*
X209051904Y-93062857D01*
X209099523Y-92967619D01*
X209147142Y-92920000D01*
X209242380Y-92872380D01*
X76996666Y-90082380D02*
X76996666Y-90796666D01*
X76949047Y-90939523D01*
X76853809Y-91034761D01*
X76710952Y-91082380D01*
X76615714Y-91082380D01*
X77425238Y-90177619D02*
X77472857Y-90130000D01*
X77568095Y-90082380D01*
X77806190Y-90082380D01*
X77901428Y-90130000D01*
X77949047Y-90177619D01*
X77996666Y-90272857D01*
X77996666Y-90368095D01*
X77949047Y-90510952D01*
X77377619Y-91082380D01*
X77996666Y-91082380D01*
X82195714Y-92900000D02*
X82100476Y-92852380D01*
X81957619Y-92852380D01*
X81814761Y-92900000D01*
X81719523Y-92995238D01*
X81671904Y-93090476D01*
X81624285Y-93280952D01*
X81624285Y-93423809D01*
X81671904Y-93614285D01*
X81719523Y-93709523D01*
X81814761Y-93804761D01*
X81957619Y-93852380D01*
X82052857Y-93852380D01*
X82195714Y-93804761D01*
X82243333Y-93757142D01*
X82243333Y-93423809D01*
X82052857Y-93423809D01*
X82862380Y-92852380D02*
X82957619Y-92852380D01*
X83052857Y-92900000D01*
X83100476Y-92947619D01*
X83148095Y-93042857D01*
X83195714Y-93233333D01*
X83195714Y-93471428D01*
X83148095Y-93661904D01*
X83100476Y-93757142D01*
X83052857Y-93804761D01*
X82957619Y-93852380D01*
X82862380Y-93852380D01*
X82767142Y-93804761D01*
X82719523Y-93757142D01*
X82671904Y-93661904D01*
X82624285Y-93471428D01*
X82624285Y-93233333D01*
X82671904Y-93042857D01*
X82719523Y-92947619D01*
X82767142Y-92900000D01*
X82862380Y-92852380D01*
X81648095Y-95440000D02*
X81552857Y-95392380D01*
X81410000Y-95392380D01*
X81267142Y-95440000D01*
X81171904Y-95535238D01*
X81124285Y-95630476D01*
X81076666Y-95820952D01*
X81076666Y-95963809D01*
X81124285Y-96154285D01*
X81171904Y-96249523D01*
X81267142Y-96344761D01*
X81410000Y-96392380D01*
X81505238Y-96392380D01*
X81648095Y-96344761D01*
X81695714Y-96297142D01*
X81695714Y-95963809D01*
X81505238Y-95963809D01*
X82124285Y-96392380D02*
X82124285Y-95392380D01*
X82695714Y-96392380D01*
X82695714Y-95392380D01*
X83171904Y-96392380D02*
X83171904Y-95392380D01*
X83410000Y-95392380D01*
X83552857Y-95440000D01*
X83648095Y-95535238D01*
X83695714Y-95630476D01*
X83743333Y-95820952D01*
X83743333Y-95963809D01*
X83695714Y-96154285D01*
X83648095Y-96249523D01*
X83552857Y-96344761D01*
X83410000Y-96392380D01*
X83171904Y-96392380D01*
X82195714Y-97980000D02*
X82100476Y-97932380D01*
X81957619Y-97932380D01*
X81814761Y-97980000D01*
X81719523Y-98075238D01*
X81671904Y-98170476D01*
X81624285Y-98360952D01*
X81624285Y-98503809D01*
X81671904Y-98694285D01*
X81719523Y-98789523D01*
X81814761Y-98884761D01*
X81957619Y-98932380D01*
X82052857Y-98932380D01*
X82195714Y-98884761D01*
X82243333Y-98837142D01*
X82243333Y-98503809D01*
X82052857Y-98503809D01*
X83195714Y-98932380D02*
X82624285Y-98932380D01*
X82910000Y-98932380D02*
X82910000Y-97932380D01*
X82814761Y-98075238D01*
X82719523Y-98170476D01*
X82624285Y-98218095D01*
X81648095Y-100520000D02*
X81552857Y-100472380D01*
X81410000Y-100472380D01*
X81267142Y-100520000D01*
X81171904Y-100615238D01*
X81124285Y-100710476D01*
X81076666Y-100900952D01*
X81076666Y-101043809D01*
X81124285Y-101234285D01*
X81171904Y-101329523D01*
X81267142Y-101424761D01*
X81410000Y-101472380D01*
X81505238Y-101472380D01*
X81648095Y-101424761D01*
X81695714Y-101377142D01*
X81695714Y-101043809D01*
X81505238Y-101043809D01*
X82124285Y-101472380D02*
X82124285Y-100472380D01*
X82695714Y-101472380D01*
X82695714Y-100472380D01*
X83171904Y-101472380D02*
X83171904Y-100472380D01*
X83410000Y-100472380D01*
X83552857Y-100520000D01*
X83648095Y-100615238D01*
X83695714Y-100710476D01*
X83743333Y-100900952D01*
X83743333Y-101043809D01*
X83695714Y-101234285D01*
X83648095Y-101329523D01*
X83552857Y-101424761D01*
X83410000Y-101472380D01*
X83171904Y-101472380D01*
X82481428Y-103488571D02*
X82624285Y-103536190D01*
X82671904Y-103583809D01*
X82719523Y-103679047D01*
X82719523Y-103821904D01*
X82671904Y-103917142D01*
X82624285Y-103964761D01*
X82529047Y-104012380D01*
X82148095Y-104012380D01*
X82148095Y-103012380D01*
X82481428Y-103012380D01*
X82576666Y-103060000D01*
X82624285Y-103107619D01*
X82671904Y-103202857D01*
X82671904Y-103298095D01*
X82624285Y-103393333D01*
X82576666Y-103440952D01*
X82481428Y-103488571D01*
X82148095Y-103488571D01*
X82148095Y-106552380D02*
X82148095Y-105552380D01*
X82386190Y-105552380D01*
X82529047Y-105600000D01*
X82624285Y-105695238D01*
X82671904Y-105790476D01*
X82719523Y-105980952D01*
X82719523Y-106123809D01*
X82671904Y-106314285D01*
X82624285Y-106409523D01*
X82529047Y-106504761D01*
X82386190Y-106552380D01*
X82148095Y-106552380D01*
X81910000Y-109092380D02*
X81433809Y-109092380D01*
X81433809Y-108092380D01*
X82195714Y-108806666D02*
X82671904Y-108806666D01*
X82100476Y-109092380D02*
X82433809Y-108092380D01*
X82767142Y-109092380D01*
X82957619Y-108092380D02*
X83529047Y-108092380D01*
X83243333Y-109092380D02*
X83243333Y-108092380D01*
X81648095Y-110680000D02*
X81552857Y-110632380D01*
X81410000Y-110632380D01*
X81267142Y-110680000D01*
X81171904Y-110775238D01*
X81124285Y-110870476D01*
X81076666Y-111060952D01*
X81076666Y-111203809D01*
X81124285Y-111394285D01*
X81171904Y-111489523D01*
X81267142Y-111584761D01*
X81410000Y-111632380D01*
X81505238Y-111632380D01*
X81648095Y-111584761D01*
X81695714Y-111537142D01*
X81695714Y-111203809D01*
X81505238Y-111203809D01*
X82124285Y-111632380D02*
X82124285Y-110632380D01*
X82695714Y-111632380D01*
X82695714Y-110632380D01*
X83171904Y-111632380D02*
X83171904Y-110632380D01*
X83410000Y-110632380D01*
X83552857Y-110680000D01*
X83648095Y-110775238D01*
X83695714Y-110870476D01*
X83743333Y-111060952D01*
X83743333Y-111203809D01*
X83695714Y-111394285D01*
X83648095Y-111489523D01*
X83552857Y-111584761D01*
X83410000Y-111632380D01*
X83171904Y-111632380D01*
X71702380Y-110632380D02*
X71892857Y-110632380D01*
X71988095Y-110680000D01*
X72083333Y-110775238D01*
X72130952Y-110965714D01*
X72130952Y-111299047D01*
X72083333Y-111489523D01*
X71988095Y-111584761D01*
X71892857Y-111632380D01*
X71702380Y-111632380D01*
X71607142Y-111584761D01*
X71511904Y-111489523D01*
X71464285Y-111299047D01*
X71464285Y-110965714D01*
X71511904Y-110775238D01*
X71607142Y-110680000D01*
X71702380Y-110632380D01*
X72559523Y-111108571D02*
X72892857Y-111108571D01*
X73035714Y-111632380D02*
X72559523Y-111632380D01*
X72559523Y-110632380D01*
X73035714Y-110632380D01*
X71654761Y-108997142D02*
X71607142Y-109044761D01*
X71464285Y-109092380D01*
X71369047Y-109092380D01*
X71226190Y-109044761D01*
X71130952Y-108949523D01*
X71083333Y-108854285D01*
X71035714Y-108663809D01*
X71035714Y-108520952D01*
X71083333Y-108330476D01*
X71130952Y-108235238D01*
X71226190Y-108140000D01*
X71369047Y-108092380D01*
X71464285Y-108092380D01*
X71607142Y-108140000D01*
X71654761Y-108187619D01*
X72559523Y-109092380D02*
X72083333Y-109092380D01*
X72083333Y-108092380D01*
X72892857Y-109092380D02*
X72892857Y-108092380D01*
X73464285Y-109092380D02*
X73035714Y-108520952D01*
X73464285Y-108092380D02*
X72892857Y-108663809D01*
X72559523Y-106457142D02*
X72511904Y-106504761D01*
X72369047Y-106552380D01*
X72273809Y-106552380D01*
X72130952Y-106504761D01*
X72035714Y-106409523D01*
X71988095Y-106314285D01*
X71940476Y-106123809D01*
X71940476Y-105980952D01*
X71988095Y-105790476D01*
X72035714Y-105695238D01*
X72130952Y-105600000D01*
X72273809Y-105552380D01*
X72369047Y-105552380D01*
X72511904Y-105600000D01*
X72559523Y-105647619D01*
X72011904Y-103726666D02*
X72488095Y-103726666D01*
X71916666Y-104012380D02*
X72250000Y-103012380D01*
X72583333Y-104012380D01*
X71845238Y-100948571D02*
X71988095Y-100996190D01*
X72035714Y-101043809D01*
X72083333Y-101139047D01*
X72083333Y-101281904D01*
X72035714Y-101377142D01*
X71988095Y-101424761D01*
X71892857Y-101472380D01*
X71511904Y-101472380D01*
X71511904Y-100472380D01*
X71845238Y-100472380D01*
X71940476Y-100520000D01*
X71988095Y-100567619D01*
X72035714Y-100662857D01*
X72035714Y-100758095D01*
X71988095Y-100853333D01*
X71940476Y-100900952D01*
X71845238Y-100948571D01*
X71511904Y-100948571D01*
X73035714Y-101472380D02*
X72464285Y-101472380D01*
X72750000Y-101472380D02*
X72750000Y-100472380D01*
X72654761Y-100615238D01*
X72559523Y-100710476D01*
X72464285Y-100758095D01*
X72083333Y-98932380D02*
X71750000Y-98456190D01*
X71511904Y-98932380D02*
X71511904Y-97932380D01*
X71892857Y-97932380D01*
X71988095Y-97980000D01*
X72035714Y-98027619D01*
X72083333Y-98122857D01*
X72083333Y-98265714D01*
X72035714Y-98360952D01*
X71988095Y-98408571D01*
X71892857Y-98456190D01*
X71511904Y-98456190D01*
X73035714Y-98932380D02*
X72464285Y-98932380D01*
X72750000Y-98932380D02*
X72750000Y-97932380D01*
X72654761Y-98075238D01*
X72559523Y-98170476D01*
X72464285Y-98218095D01*
X71845238Y-95868571D02*
X71988095Y-95916190D01*
X72035714Y-95963809D01*
X72083333Y-96059047D01*
X72083333Y-96201904D01*
X72035714Y-96297142D01*
X71988095Y-96344761D01*
X71892857Y-96392380D01*
X71511904Y-96392380D01*
X71511904Y-95392380D01*
X71845238Y-95392380D01*
X71940476Y-95440000D01*
X71988095Y-95487619D01*
X72035714Y-95582857D01*
X72035714Y-95678095D01*
X71988095Y-95773333D01*
X71940476Y-95820952D01*
X71845238Y-95868571D01*
X71511904Y-95868571D01*
X72702380Y-95392380D02*
X72797619Y-95392380D01*
X72892857Y-95440000D01*
X72940476Y-95487619D01*
X72988095Y-95582857D01*
X73035714Y-95773333D01*
X73035714Y-96011428D01*
X72988095Y-96201904D01*
X72940476Y-96297142D01*
X72892857Y-96344761D01*
X72797619Y-96392380D01*
X72702380Y-96392380D01*
X72607142Y-96344761D01*
X72559523Y-96297142D01*
X72511904Y-96201904D01*
X72464285Y-96011428D01*
X72464285Y-95773333D01*
X72511904Y-95582857D01*
X72559523Y-95487619D01*
X72607142Y-95440000D01*
X72702380Y-95392380D01*
X72083333Y-93852380D02*
X71750000Y-93376190D01*
X71511904Y-93852380D02*
X71511904Y-92852380D01*
X71892857Y-92852380D01*
X71988095Y-92900000D01*
X72035714Y-92947619D01*
X72083333Y-93042857D01*
X72083333Y-93185714D01*
X72035714Y-93280952D01*
X71988095Y-93328571D01*
X71892857Y-93376190D01*
X71511904Y-93376190D01*
X72702380Y-92852380D02*
X72797619Y-92852380D01*
X72892857Y-92900000D01*
X72940476Y-92947619D01*
X72988095Y-93042857D01*
X73035714Y-93233333D01*
X73035714Y-93471428D01*
X72988095Y-93661904D01*
X72940476Y-93757142D01*
X72892857Y-93804761D01*
X72797619Y-93852380D01*
X72702380Y-93852380D01*
X72607142Y-93804761D01*
X72559523Y-93757142D01*
X72511904Y-93661904D01*
X72464285Y-93471428D01*
X72464285Y-93233333D01*
X72511904Y-93042857D01*
X72559523Y-92947619D01*
X72607142Y-92900000D01*
X72702380Y-92852380D01*
D15*
X182738095Y-118452380D02*
X182738095Y-119261904D01*
X182785714Y-119357142D01*
X182833333Y-119404761D01*
X182928571Y-119452380D01*
X183119047Y-119452380D01*
X183214285Y-119404761D01*
X183261904Y-119357142D01*
X183309523Y-119261904D01*
X183309523Y-118452380D01*
X183738095Y-118547619D02*
X183785714Y-118500000D01*
X183880952Y-118452380D01*
X184119047Y-118452380D01*
X184214285Y-118500000D01*
X184261904Y-118547619D01*
X184309523Y-118642857D01*
X184309523Y-118738095D01*
X184261904Y-118880952D01*
X183690476Y-119452380D01*
X184309523Y-119452380D01*
D10*
X186966666Y-82682380D02*
X186966666Y-83396666D01*
X186919047Y-83539523D01*
X186823809Y-83634761D01*
X186680952Y-83682380D01*
X186585714Y-83682380D01*
X187871428Y-83015714D02*
X187871428Y-83682380D01*
X187633333Y-82634761D02*
X187395238Y-83349047D01*
X188014285Y-83349047D01*
X190348095Y-95660000D02*
X190252857Y-95612380D01*
X190110000Y-95612380D01*
X189967142Y-95660000D01*
X189871904Y-95755238D01*
X189824285Y-95850476D01*
X189776666Y-96040952D01*
X189776666Y-96183809D01*
X189824285Y-96374285D01*
X189871904Y-96469523D01*
X189967142Y-96564761D01*
X190110000Y-96612380D01*
X190205238Y-96612380D01*
X190348095Y-96564761D01*
X190395714Y-96517142D01*
X190395714Y-96183809D01*
X190205238Y-96183809D01*
X190824285Y-96612380D02*
X190824285Y-95612380D01*
X191395714Y-96612380D01*
X191395714Y-95612380D01*
X191871904Y-96612380D02*
X191871904Y-95612380D01*
X192110000Y-95612380D01*
X192252857Y-95660000D01*
X192348095Y-95755238D01*
X192395714Y-95850476D01*
X192443333Y-96040952D01*
X192443333Y-96183809D01*
X192395714Y-96374285D01*
X192348095Y-96469523D01*
X192252857Y-96564761D01*
X192110000Y-96612380D01*
X191871904Y-96612380D01*
X189919523Y-91484761D02*
X190062380Y-91532380D01*
X190300476Y-91532380D01*
X190395714Y-91484761D01*
X190443333Y-91437142D01*
X190490952Y-91341904D01*
X190490952Y-91246666D01*
X190443333Y-91151428D01*
X190395714Y-91103809D01*
X190300476Y-91056190D01*
X190110000Y-91008571D01*
X190014761Y-90960952D01*
X189967142Y-90913333D01*
X189919523Y-90818095D01*
X189919523Y-90722857D01*
X189967142Y-90627619D01*
X190014761Y-90580000D01*
X190110000Y-90532380D01*
X190348095Y-90532380D01*
X190490952Y-90580000D01*
X191490952Y-91437142D02*
X191443333Y-91484761D01*
X191300476Y-91532380D01*
X191205238Y-91532380D01*
X191062380Y-91484761D01*
X190967142Y-91389523D01*
X190919523Y-91294285D01*
X190871904Y-91103809D01*
X190871904Y-90960952D01*
X190919523Y-90770476D01*
X190967142Y-90675238D01*
X191062380Y-90580000D01*
X191205238Y-90532380D01*
X191300476Y-90532380D01*
X191443333Y-90580000D01*
X191490952Y-90627619D01*
X192395714Y-91532380D02*
X191919523Y-91532380D01*
X191919523Y-90532380D01*
X189895714Y-88944761D02*
X190038571Y-88992380D01*
X190276666Y-88992380D01*
X190371904Y-88944761D01*
X190419523Y-88897142D01*
X190467142Y-88801904D01*
X190467142Y-88706666D01*
X190419523Y-88611428D01*
X190371904Y-88563809D01*
X190276666Y-88516190D01*
X190086190Y-88468571D01*
X189990952Y-88420952D01*
X189943333Y-88373333D01*
X189895714Y-88278095D01*
X189895714Y-88182857D01*
X189943333Y-88087619D01*
X189990952Y-88040000D01*
X190086190Y-87992380D01*
X190324285Y-87992380D01*
X190467142Y-88040000D01*
X190895714Y-88992380D02*
X190895714Y-87992380D01*
X191133809Y-87992380D01*
X191276666Y-88040000D01*
X191371904Y-88135238D01*
X191419523Y-88230476D01*
X191467142Y-88420952D01*
X191467142Y-88563809D01*
X191419523Y-88754285D01*
X191371904Y-88849523D01*
X191276666Y-88944761D01*
X191133809Y-88992380D01*
X190895714Y-88992380D01*
X191848095Y-88706666D02*
X192324285Y-88706666D01*
X191752857Y-88992380D02*
X192086190Y-87992380D01*
X192419523Y-88992380D01*
X189300476Y-85547619D02*
X189348095Y-85500000D01*
X189443333Y-85452380D01*
X189681428Y-85452380D01*
X189776666Y-85500000D01*
X189824285Y-85547619D01*
X189871904Y-85642857D01*
X189871904Y-85738095D01*
X189824285Y-85880952D01*
X189252857Y-86452380D01*
X189871904Y-86452380D01*
X190300476Y-86071428D02*
X191062380Y-86071428D01*
X191967142Y-85452380D02*
X191776666Y-85452380D01*
X191681428Y-85500000D01*
X191633809Y-85547619D01*
X191538571Y-85690476D01*
X191490952Y-85880952D01*
X191490952Y-86261904D01*
X191538571Y-86357142D01*
X191586190Y-86404761D01*
X191681428Y-86452380D01*
X191871904Y-86452380D01*
X191967142Y-86404761D01*
X192014761Y-86357142D01*
X192062380Y-86261904D01*
X192062380Y-86023809D01*
X192014761Y-85928571D01*
X191967142Y-85880952D01*
X191871904Y-85833333D01*
X191681428Y-85833333D01*
X191586190Y-85880952D01*
X191538571Y-85928571D01*
X191490952Y-86023809D01*
X192348095Y-85452380D02*
X192681428Y-86452380D01*
X193014761Y-85452380D01*
D15*
X136758214Y-103633023D02*
X137568050Y-103633023D01*
X137663325Y-103585386D01*
X137710963Y-103537749D01*
X137758600Y-103442474D01*
X137758600Y-103251924D01*
X137710963Y-103156649D01*
X137663325Y-103109012D01*
X137568050Y-103061374D01*
X136758214Y-103061374D01*
X137758600Y-102060988D02*
X137758600Y-102632637D01*
X137758600Y-102346813D02*
X136758214Y-102346813D01*
X136901126Y-102442088D01*
X136996401Y-102537363D01*
X137044039Y-102632637D01*
D10*
X131632380Y-93866666D02*
X131156190Y-94200000D01*
X131632380Y-94438095D02*
X130632380Y-94438095D01*
X130632380Y-94057142D01*
X130680000Y-93961904D01*
X130727619Y-93914285D01*
X130822857Y-93866666D01*
X130965714Y-93866666D01*
X131060952Y-93914285D01*
X131108571Y-93961904D01*
X131156190Y-94057142D01*
X131156190Y-94438095D01*
X131632380Y-92914285D02*
X131632380Y-93485714D01*
X131632380Y-93200000D02*
X130632380Y-93200000D01*
X130775238Y-93295238D01*
X130870476Y-93390476D01*
X130918095Y-93485714D01*
X129132380Y-93866666D02*
X128656190Y-94200000D01*
X129132380Y-94438095D02*
X128132380Y-94438095D01*
X128132380Y-94057142D01*
X128180000Y-93961904D01*
X128227619Y-93914285D01*
X128322857Y-93866666D01*
X128465714Y-93866666D01*
X128560952Y-93914285D01*
X128608571Y-93961904D01*
X128656190Y-94057142D01*
X128656190Y-94438095D01*
X128132380Y-93533333D02*
X128132380Y-92914285D01*
X128513333Y-93247619D01*
X128513333Y-93104761D01*
X128560952Y-93009523D01*
X128608571Y-92961904D01*
X128703809Y-92914285D01*
X128941904Y-92914285D01*
X129037142Y-92961904D01*
X129084761Y-93009523D01*
X129132380Y-93104761D01*
X129132380Y-93390476D01*
X129084761Y-93485714D01*
X129037142Y-93533333D01*
X126532380Y-93866666D02*
X126056190Y-94200000D01*
X126532380Y-94438095D02*
X125532380Y-94438095D01*
X125532380Y-94057142D01*
X125580000Y-93961904D01*
X125627619Y-93914285D01*
X125722857Y-93866666D01*
X125865714Y-93866666D01*
X125960952Y-93914285D01*
X126008571Y-93961904D01*
X126056190Y-94057142D01*
X126056190Y-94438095D01*
X125865714Y-93009523D02*
X126532380Y-93009523D01*
X125484761Y-93247619D02*
X126199047Y-93485714D01*
X126199047Y-92866666D01*
X124032380Y-93866666D02*
X123556190Y-94200000D01*
X124032380Y-94438095D02*
X123032380Y-94438095D01*
X123032380Y-94057142D01*
X123080000Y-93961904D01*
X123127619Y-93914285D01*
X123222857Y-93866666D01*
X123365714Y-93866666D01*
X123460952Y-93914285D01*
X123508571Y-93961904D01*
X123556190Y-94057142D01*
X123556190Y-94438095D01*
X123032380Y-92961904D02*
X123032380Y-93438095D01*
X123508571Y-93485714D01*
X123460952Y-93438095D01*
X123413333Y-93342857D01*
X123413333Y-93104761D01*
X123460952Y-93009523D01*
X123508571Y-92961904D01*
X123603809Y-92914285D01*
X123841904Y-92914285D01*
X123937142Y-92961904D01*
X123984761Y-93009523D01*
X124032380Y-93104761D01*
X124032380Y-93342857D01*
X123984761Y-93438095D01*
X123937142Y-93485714D01*
X105132380Y-93566666D02*
X104656190Y-93900000D01*
X105132380Y-94138095D02*
X104132380Y-94138095D01*
X104132380Y-93757142D01*
X104180000Y-93661904D01*
X104227619Y-93614285D01*
X104322857Y-93566666D01*
X104465714Y-93566666D01*
X104560952Y-93614285D01*
X104608571Y-93661904D01*
X104656190Y-93757142D01*
X104656190Y-94138095D01*
X104132380Y-92709523D02*
X104132380Y-92900000D01*
X104180000Y-92995238D01*
X104227619Y-93042857D01*
X104370476Y-93138095D01*
X104560952Y-93185714D01*
X104941904Y-93185714D01*
X105037142Y-93138095D01*
X105084761Y-93090476D01*
X105132380Y-92995238D01*
X105132380Y-92804761D01*
X105084761Y-92709523D01*
X105037142Y-92661904D01*
X104941904Y-92614285D01*
X104703809Y-92614285D01*
X104608571Y-92661904D01*
X104560952Y-92709523D01*
X104513333Y-92804761D01*
X104513333Y-92995238D01*
X104560952Y-93090476D01*
X104608571Y-93138095D01*
X104703809Y-93185714D01*
X114432380Y-93566666D02*
X113956190Y-93900000D01*
X114432380Y-94138095D02*
X113432380Y-94138095D01*
X113432380Y-93757142D01*
X113480000Y-93661904D01*
X113527619Y-93614285D01*
X113622857Y-93566666D01*
X113765714Y-93566666D01*
X113860952Y-93614285D01*
X113908571Y-93661904D01*
X113956190Y-93757142D01*
X113956190Y-94138095D01*
X113432380Y-93233333D02*
X113432380Y-92566666D01*
X114432380Y-92995238D01*
X105166666Y-90734761D02*
X105309523Y-90782380D01*
X105547619Y-90782380D01*
X105642857Y-90734761D01*
X105690476Y-90687142D01*
X105738095Y-90591904D01*
X105738095Y-90496666D01*
X105690476Y-90401428D01*
X105642857Y-90353809D01*
X105547619Y-90306190D01*
X105357142Y-90258571D01*
X105261904Y-90210952D01*
X105214285Y-90163333D01*
X105166666Y-90068095D01*
X105166666Y-89972857D01*
X105214285Y-89877619D01*
X105261904Y-89830000D01*
X105357142Y-89782380D01*
X105595238Y-89782380D01*
X105738095Y-89830000D01*
X106071428Y-89782380D02*
X106309523Y-90782380D01*
X106500000Y-90068095D01*
X106690476Y-90782380D01*
X106928571Y-89782380D01*
X107261904Y-89877619D02*
X107309523Y-89830000D01*
X107404761Y-89782380D01*
X107642857Y-89782380D01*
X107738095Y-89830000D01*
X107785714Y-89877619D01*
X107833333Y-89972857D01*
X107833333Y-90068095D01*
X107785714Y-90210952D01*
X107214285Y-90782380D01*
X107833333Y-90782380D01*
X114466666Y-90734761D02*
X114609523Y-90782380D01*
X114847619Y-90782380D01*
X114942857Y-90734761D01*
X114990476Y-90687142D01*
X115038095Y-90591904D01*
X115038095Y-90496666D01*
X114990476Y-90401428D01*
X114942857Y-90353809D01*
X114847619Y-90306190D01*
X114657142Y-90258571D01*
X114561904Y-90210952D01*
X114514285Y-90163333D01*
X114466666Y-90068095D01*
X114466666Y-89972857D01*
X114514285Y-89877619D01*
X114561904Y-89830000D01*
X114657142Y-89782380D01*
X114895238Y-89782380D01*
X115038095Y-89830000D01*
X115371428Y-89782380D02*
X115609523Y-90782380D01*
X115800000Y-90068095D01*
X115990476Y-90782380D01*
X116228571Y-89782380D01*
X116514285Y-89782380D02*
X117133333Y-89782380D01*
X116800000Y-90163333D01*
X116942857Y-90163333D01*
X117038095Y-90210952D01*
X117085714Y-90258571D01*
X117133333Y-90353809D01*
X117133333Y-90591904D01*
X117085714Y-90687142D01*
X117038095Y-90734761D01*
X116942857Y-90782380D01*
X116657142Y-90782380D01*
X116561904Y-90734761D01*
X116514285Y-90687142D01*
X122384761Y-86723333D02*
X122432380Y-86580476D01*
X122432380Y-86342380D01*
X122384761Y-86247142D01*
X122337142Y-86199523D01*
X122241904Y-86151904D01*
X122146666Y-86151904D01*
X122051428Y-86199523D01*
X122003809Y-86247142D01*
X121956190Y-86342380D01*
X121908571Y-86532857D01*
X121860952Y-86628095D01*
X121813333Y-86675714D01*
X121718095Y-86723333D01*
X121622857Y-86723333D01*
X121527619Y-86675714D01*
X121480000Y-86628095D01*
X121432380Y-86532857D01*
X121432380Y-86294761D01*
X121480000Y-86151904D01*
X121432380Y-85818571D02*
X122432380Y-85580476D01*
X121718095Y-85390000D01*
X122432380Y-85199523D01*
X121432380Y-84961428D01*
X121765714Y-84151904D02*
X122432380Y-84151904D01*
X121384761Y-84390000D02*
X122099047Y-84628095D01*
X122099047Y-84009047D01*
X95532380Y-93566666D02*
X95056190Y-93900000D01*
X95532380Y-94138095D02*
X94532380Y-94138095D01*
X94532380Y-93757142D01*
X94580000Y-93661904D01*
X94627619Y-93614285D01*
X94722857Y-93566666D01*
X94865714Y-93566666D01*
X94960952Y-93614285D01*
X95008571Y-93661904D01*
X95056190Y-93757142D01*
X95056190Y-94138095D01*
X94627619Y-93185714D02*
X94580000Y-93138095D01*
X94532380Y-93042857D01*
X94532380Y-92804761D01*
X94580000Y-92709523D01*
X94627619Y-92661904D01*
X94722857Y-92614285D01*
X94818095Y-92614285D01*
X94960952Y-92661904D01*
X95532380Y-93233333D01*
X95532380Y-92614285D01*
X95566666Y-90734761D02*
X95709523Y-90782380D01*
X95947619Y-90782380D01*
X96042857Y-90734761D01*
X96090476Y-90687142D01*
X96138095Y-90591904D01*
X96138095Y-90496666D01*
X96090476Y-90401428D01*
X96042857Y-90353809D01*
X95947619Y-90306190D01*
X95757142Y-90258571D01*
X95661904Y-90210952D01*
X95614285Y-90163333D01*
X95566666Y-90068095D01*
X95566666Y-89972857D01*
X95614285Y-89877619D01*
X95661904Y-89830000D01*
X95757142Y-89782380D01*
X95995238Y-89782380D01*
X96138095Y-89830000D01*
X96471428Y-89782380D02*
X96709523Y-90782380D01*
X96900000Y-90068095D01*
X97090476Y-90782380D01*
X97328571Y-89782380D01*
X98233333Y-90782380D02*
X97661904Y-90782380D01*
X97947619Y-90782380D02*
X97947619Y-89782380D01*
X97852380Y-89925238D01*
X97757142Y-90020476D01*
X97661904Y-90068095D01*
M02*
