%TF.GenerationSoftware,KiCad,Pcbnew,5.1.9*%
%TF.CreationDate,2020-12-26T21:21:17+01:00*%
%TF.ProjectId,esp32_air_monitor,65737033-325f-4616-9972-5f6d6f6e6974,0.1*%
%TF.SameCoordinates,Original*%
%TF.FileFunction,Copper,L2,Bot*%
%TF.FilePolarity,Positive*%
%FSLAX46Y46*%
G04 Gerber Fmt 4.6, Leading zero omitted, Abs format (unit mm)*
G04 Created by KiCad (PCBNEW 5.1.9) date 2020-12-26 21:21:17*
%MOMM*%
%LPD*%
G01*
G04 APERTURE LIST*
%TA.AperFunction,ComponentPad*%
%ADD10R,1.560000X1.560000*%
%TD*%
%TA.AperFunction,ComponentPad*%
%ADD11C,1.560000*%
%TD*%
%TA.AperFunction,ComponentPad*%
%ADD12R,1.650000X1.650000*%
%TD*%
%TA.AperFunction,ComponentPad*%
%ADD13C,1.650000*%
%TD*%
%TA.AperFunction,ComponentPad*%
%ADD14O,1.700000X1.700000*%
%TD*%
%TA.AperFunction,ComponentPad*%
%ADD15R,1.700000X1.700000*%
%TD*%
%TA.AperFunction,ViaPad*%
%ADD16C,1.200000*%
%TD*%
%TA.AperFunction,Conductor*%
%ADD17C,0.250000*%
%TD*%
%TA.AperFunction,Conductor*%
%ADD18C,0.500000*%
%TD*%
%TA.AperFunction,Conductor*%
%ADD19C,0.254000*%
%TD*%
%TA.AperFunction,Conductor*%
%ADD20C,0.100000*%
%TD*%
G04 APERTURE END LIST*
D10*
%TO.P,U1,1*%
%TO.N,+3V3*%
X88340000Y-126600000D03*
D11*
%TO.P,U1,2*%
%TO.N,N/C*%
X90880000Y-126600000D03*
%TO.P,U1,19*%
%TO.N,+5V*%
X134060000Y-126600000D03*
%TO.P,U1,3*%
%TO.N,N/C*%
X93420000Y-126600000D03*
%TO.P,U1,4*%
X95960000Y-126600000D03*
%TO.P,U1,5*%
X98500000Y-126600000D03*
%TO.P,U1,6*%
X101040000Y-126600000D03*
%TO.P,U1,7*%
X103580000Y-126600000D03*
%TO.P,U1,8*%
X106120000Y-126600000D03*
%TO.P,U1,9*%
X108660000Y-126600000D03*
%TO.P,U1,10*%
X111200000Y-126600000D03*
%TO.P,U1,11*%
X113740000Y-126600000D03*
%TO.P,U1,12*%
%TO.N,/SCLK*%
X116280000Y-126600000D03*
%TO.P,U1,13*%
%TO.N,N/C*%
X118820000Y-126600000D03*
%TO.P,U1,14*%
%TO.N,GND*%
X121360000Y-126600000D03*
%TO.P,U1,15*%
%TO.N,/MOSI*%
X123900000Y-126600000D03*
%TO.P,U1,16*%
%TO.N,N/C*%
X126440000Y-126600000D03*
%TO.P,U1,17*%
X128980000Y-126600000D03*
%TO.P,U1,18*%
X131520000Y-126600000D03*
%TO.P,U1,20*%
%TO.N,GND*%
X88340000Y-101200000D03*
%TO.P,U1,21*%
%TO.N,/LINE_A*%
X90880000Y-101200000D03*
%TO.P,U1,22*%
%TO.N,/LINE_B*%
X93420000Y-101200000D03*
%TO.P,U1,23*%
%TO.N,N/C*%
X95960000Y-101200000D03*
%TO.P,U1,24*%
X98500000Y-101200000D03*
%TO.P,U1,25*%
%TO.N,/LINE_C*%
X101040000Y-101200000D03*
%TO.P,U1,26*%
%TO.N,GND*%
X103580000Y-101200000D03*
%TO.P,U1,27*%
%TO.N,/LINE_D*%
X106120000Y-101200000D03*
%TO.P,U1,28*%
%TO.N,/LATCH*%
X108660000Y-101200000D03*
%TO.P,U1,29*%
%TO.N,N/C*%
X111200000Y-101200000D03*
%TO.P,U1,30*%
X113740000Y-101200000D03*
%TO.P,U1,31*%
%TO.N,/OE*%
X116280000Y-101200000D03*
%TO.P,U1,32*%
%TO.N,/SCL*%
X118820000Y-101200000D03*
%TO.P,U1,33*%
%TO.N,N/C*%
X121360000Y-101200000D03*
%TO.P,U1,34*%
X123900000Y-101200000D03*
%TO.P,U1,35*%
%TO.N,/SDA*%
X126440000Y-101200000D03*
%TO.P,U1,36*%
%TO.N,N/C*%
X128980000Y-101200000D03*
%TO.P,U1,37*%
X131520000Y-101200000D03*
%TO.P,U1,38*%
X134060000Y-101200000D03*
%TD*%
D12*
%TO.P,U2,1*%
%TO.N,+3V3*%
X186600000Y-108900000D03*
D13*
%TO.P,U2,2*%
%TO.N,GND*%
X189140000Y-108900000D03*
%TO.P,U2,3*%
%TO.N,/SCL*%
X191680000Y-108900000D03*
%TO.P,U2,4*%
%TO.N,/SDA*%
X194220000Y-108900000D03*
%TO.P,U2,5*%
%TO.N,N/C*%
X196760000Y-108900000D03*
%TO.P,U2,6*%
X199300000Y-108900000D03*
%TO.P,U2,7*%
%TO.N,GND*%
X201840000Y-108900000D03*
%TD*%
D14*
%TO.P,J2,16*%
%TO.N,/OE*%
X76060000Y-111180000D03*
%TO.P,J2,15*%
%TO.N,GND*%
X78600000Y-111180000D03*
%TO.P,J2,14*%
%TO.N,/SCLK*%
X76060000Y-108640000D03*
%TO.P,J2,13*%
%TO.N,/LATCH*%
X78600000Y-108640000D03*
%TO.P,J2,12*%
%TO.N,/LINE_C*%
X76060000Y-106100000D03*
%TO.P,J2,11*%
%TO.N,/LINE_D*%
X78600000Y-106100000D03*
%TO.P,J2,10*%
%TO.N,/LINE_A*%
X76060000Y-103560000D03*
%TO.P,J2,9*%
%TO.N,/LINE_B*%
X78600000Y-103560000D03*
%TO.P,J2,8*%
%TO.N,/B1*%
X76060000Y-101020000D03*
%TO.P,J2,7*%
%TO.N,GND*%
X78600000Y-101020000D03*
%TO.P,J2,6*%
%TO.N,/R1*%
X76060000Y-98480000D03*
%TO.P,J2,5*%
%TO.N,/G1*%
X78600000Y-98480000D03*
%TO.P,J2,4*%
%TO.N,/B0*%
X76060000Y-95940000D03*
%TO.P,J2,3*%
%TO.N,GND*%
X78600000Y-95940000D03*
%TO.P,J2,2*%
%TO.N,/MOSI*%
X76060000Y-93400000D03*
D15*
%TO.P,J2,1*%
%TO.N,/G0*%
X78600000Y-93400000D03*
%TD*%
%TO.P,J3,1*%
%TO.N,/G1*%
X212600000Y-93400000D03*
D14*
%TO.P,J3,2*%
%TO.N,/R1*%
X210060000Y-93400000D03*
%TO.P,J3,3*%
%TO.N,GND*%
X212600000Y-95940000D03*
%TO.P,J3,4*%
%TO.N,/B1*%
X210060000Y-95940000D03*
%TO.P,J3,5*%
%TO.N,/B0*%
X212600000Y-98480000D03*
%TO.P,J3,6*%
%TO.N,/G0*%
X210060000Y-98480000D03*
%TO.P,J3,7*%
%TO.N,GND*%
X212600000Y-101020000D03*
%TO.P,J3,8*%
%TO.N,N/C*%
X210060000Y-101020000D03*
%TO.P,J3,9*%
X212600000Y-103560000D03*
%TO.P,J3,10*%
X210060000Y-103560000D03*
%TO.P,J3,11*%
X212600000Y-106100000D03*
%TO.P,J3,12*%
X210060000Y-106100000D03*
%TO.P,J3,13*%
X212600000Y-108640000D03*
%TO.P,J3,14*%
X210060000Y-108640000D03*
%TO.P,J3,15*%
%TO.N,GND*%
X212600000Y-111180000D03*
%TO.P,J3,16*%
%TO.N,N/C*%
X210060000Y-111180000D03*
%TD*%
%TO.P,J5,5*%
%TO.N,/SDA*%
X168140000Y-125500000D03*
%TO.P,J5,4*%
%TO.N,/SCL*%
X170680000Y-125500000D03*
%TO.P,J5,3*%
%TO.N,GND*%
X173220000Y-125500000D03*
%TO.P,J5,2*%
%TO.N,N/C*%
X175760000Y-125500000D03*
D15*
%TO.P,J5,1*%
%TO.N,+3V3*%
X178300000Y-125500000D03*
%TD*%
D14*
%TO.P,J4,5*%
%TO.N,GND*%
X142400000Y-128560000D03*
%TO.P,J4,4*%
%TO.N,N/C*%
X142400000Y-126020000D03*
%TO.P,J4,3*%
%TO.N,/SCL*%
X142400000Y-123480000D03*
%TO.P,J4,2*%
%TO.N,/SDA*%
X142400000Y-120940000D03*
D15*
%TO.P,J4,1*%
%TO.N,+3V3*%
X142400000Y-118400000D03*
%TD*%
D14*
%TO.P,J1,2*%
%TO.N,GND*%
X183900000Y-96160000D03*
D15*
%TO.P,J1,1*%
%TO.N,+5V*%
X183900000Y-98700000D03*
%TD*%
D16*
%TO.N,GND*%
X215000000Y-101000000D03*
X201900000Y-110800000D03*
X212700000Y-114000000D03*
X215400000Y-111200000D03*
X213100000Y-90700000D03*
X215300000Y-93400000D03*
X78600000Y-114100000D03*
X81200000Y-95900000D03*
X81500000Y-101100000D03*
X88300000Y-98900000D03*
X121300000Y-124200000D03*
X121400000Y-128900000D03*
X103600000Y-103500000D03*
X103600000Y-98800000D03*
X187200000Y-96200000D03*
X183800000Y-92300000D03*
X189200000Y-111400000D03*
X189100000Y-106600000D03*
X201800000Y-106600000D03*
X173200000Y-122800000D03*
X173300000Y-128700000D03*
X145400000Y-128700000D03*
X103500000Y-90100000D03*
X114500000Y-89900000D03*
X114400000Y-98800000D03*
X75200000Y-87200000D03*
X79500000Y-87200000D03*
X79700000Y-79800000D03*
X74900000Y-79900000D03*
X220200000Y-100800000D03*
X209000000Y-119000000D03*
X203200000Y-119000000D03*
X187700000Y-122600000D03*
X182000000Y-115100000D03*
X152700000Y-128400000D03*
X137300000Y-128500000D03*
X75800000Y-114200000D03*
X75900000Y-118200000D03*
X79000000Y-118300000D03*
%TD*%
D17*
%TO.N,/B1*%
X202840000Y-95940000D02*
X210060000Y-95940000D01*
X193900000Y-87000000D02*
X202840000Y-95940000D01*
X98400000Y-87000000D02*
X193900000Y-87000000D01*
X85600000Y-99800000D02*
X98400000Y-87000000D01*
X77280000Y-99800000D02*
X85600000Y-99800000D01*
X76060000Y-101020000D02*
X77280000Y-99800000D01*
%TO.N,/R1*%
X76060000Y-98480000D02*
X77340000Y-97200000D01*
X77340000Y-97200000D02*
X84200000Y-97200000D01*
X84200000Y-97200000D02*
X97100000Y-84300000D01*
X97100000Y-84300000D02*
X194700000Y-84300000D01*
X203800000Y-93400000D02*
X210060000Y-93400000D01*
X194700000Y-84300000D02*
X203800000Y-93400000D01*
%TO.N,/G1*%
X78600000Y-98480000D02*
X84920000Y-98480000D01*
X84920000Y-98480000D02*
X97700000Y-85700000D01*
X97700000Y-85700000D02*
X194200000Y-85700000D01*
X194200000Y-85700000D02*
X203200000Y-94700000D01*
X211300000Y-94700000D02*
X212600000Y-93400000D01*
X203200000Y-94700000D02*
X211300000Y-94700000D01*
%TO.N,/B0*%
X212600000Y-98480000D02*
X215220000Y-98480000D01*
X216500000Y-97200000D02*
X216500000Y-86900000D01*
X215220000Y-98480000D02*
X216500000Y-97200000D01*
X216500000Y-86900000D02*
X207500000Y-77900000D01*
X207500000Y-77900000D02*
X98600000Y-77900000D01*
X77235001Y-94764999D02*
X76060000Y-95940000D01*
X81735001Y-94764999D02*
X77235001Y-94764999D01*
X98600000Y-77900000D02*
X81735001Y-94764999D01*
%TO.N,/G0*%
X78600000Y-93400000D02*
X81200000Y-93400000D01*
X81200000Y-93400000D02*
X98200000Y-76400000D01*
X98200000Y-76400000D02*
X208100000Y-76400000D01*
X208100000Y-76400000D02*
X218200000Y-86500000D01*
X218200000Y-97000000D02*
X215400000Y-99800000D01*
X218200000Y-86500000D02*
X218200000Y-97000000D01*
X211380000Y-99800000D02*
X210060000Y-98480000D01*
X215400000Y-99800000D02*
X211380000Y-99800000D01*
%TO.N,/OE*%
X116280000Y-101200000D02*
X116280000Y-105720000D01*
X116280000Y-105720000D02*
X112100000Y-109900000D01*
X77340000Y-109900000D02*
X76060000Y-111180000D01*
X112100000Y-109900000D02*
X77340000Y-109900000D01*
%TO.N,/SCLK*%
X72000000Y-110100000D02*
X73500000Y-108640000D01*
X73500000Y-108640000D02*
X76060000Y-108640000D01*
X72000000Y-126200000D02*
X72000000Y-110100000D01*
X75000000Y-129100000D02*
X72000000Y-126200000D01*
X113780000Y-129100000D02*
X75000000Y-129100000D01*
X116280000Y-126600000D02*
X113780000Y-129100000D01*
%TO.N,/LATCH*%
X108660000Y-101200000D02*
X108660000Y-104740000D01*
X104760000Y-108640000D02*
X78600000Y-108640000D01*
X108660000Y-104740000D02*
X104760000Y-108640000D01*
%TO.N,/LINE_C*%
X101040000Y-101200000D02*
X101040000Y-101240000D01*
X77360000Y-104800000D02*
X76060000Y-106100000D01*
X100100000Y-104800000D02*
X77360000Y-104800000D01*
X101040000Y-103860000D02*
X100100000Y-104800000D01*
X101040000Y-101200000D02*
X101040000Y-103860000D01*
%TO.N,/LINE_D*%
X106120000Y-101200000D02*
X106120000Y-104480000D01*
X104500000Y-106100000D02*
X78600000Y-106100000D01*
X106120000Y-104480000D02*
X104500000Y-106100000D01*
%TO.N,/LINE_A*%
X77314999Y-102305001D02*
X76060000Y-103560000D01*
X89774999Y-102305001D02*
X77314999Y-102305001D01*
X90880000Y-101200000D02*
X89774999Y-102305001D01*
%TO.N,/LINE_B*%
X93420000Y-101200000D02*
X93420000Y-103180000D01*
X93040000Y-103560000D02*
X78600000Y-103560000D01*
X93420000Y-103180000D02*
X93040000Y-103560000D01*
%TO.N,/MOSI*%
X123900000Y-126600000D02*
X123900000Y-128200000D01*
X123900000Y-128200000D02*
X121600000Y-130500000D01*
X121600000Y-130500000D02*
X74800000Y-130500000D01*
X74800000Y-130500000D02*
X70800000Y-126500000D01*
X70800000Y-126500000D02*
X70800000Y-95600000D01*
X73000000Y-93400000D02*
X76060000Y-93400000D01*
X70800000Y-95600000D02*
X73000000Y-93400000D01*
D18*
%TO.N,+3V3*%
X88340000Y-126600000D02*
X89059598Y-126600000D01*
X142400000Y-118400000D02*
X139200000Y-121600000D01*
X139200000Y-121600000D02*
X139200000Y-129600000D01*
X139200000Y-129600000D02*
X140400000Y-130800000D01*
X140400000Y-130800000D02*
X175900000Y-130800000D01*
X178300000Y-128400000D02*
X178300000Y-125500000D01*
X175900000Y-130800000D02*
X178300000Y-128400000D01*
X178300000Y-125500000D02*
X180600000Y-125500000D01*
X186600000Y-119500000D02*
X186600000Y-108900000D01*
X180600000Y-125500000D02*
X186600000Y-119500000D01*
X88340000Y-123460000D02*
X88340000Y-126600000D01*
X93400000Y-118400000D02*
X88340000Y-123460000D01*
X142400000Y-118400000D02*
X93400000Y-118400000D01*
%TD*%
D19*
%TO.N,GND*%
X222415001Y-131615000D02*
X176252640Y-131615000D01*
X176394059Y-131539411D01*
X176528817Y-131428817D01*
X176556534Y-131395044D01*
X178895050Y-129056529D01*
X178928817Y-129028817D01*
X178976117Y-128971183D01*
X179039411Y-128894059D01*
X179121589Y-128740314D01*
X179172195Y-128573490D01*
X179173524Y-128559999D01*
X179185000Y-128443477D01*
X179185000Y-128443469D01*
X179189281Y-128400000D01*
X179185000Y-128356531D01*
X179185000Y-126984625D01*
X179274482Y-126975812D01*
X179394180Y-126939502D01*
X179504494Y-126880537D01*
X179601185Y-126801185D01*
X179680537Y-126704494D01*
X179739502Y-126594180D01*
X179775812Y-126474482D01*
X179784625Y-126385000D01*
X180556531Y-126385000D01*
X180600000Y-126389281D01*
X180643469Y-126385000D01*
X180643477Y-126385000D01*
X180773490Y-126372195D01*
X180940313Y-126321589D01*
X181094059Y-126239411D01*
X181228817Y-126128817D01*
X181256534Y-126095044D01*
X187195051Y-120156528D01*
X187228817Y-120128817D01*
X187339411Y-119994059D01*
X187421589Y-119840313D01*
X187472195Y-119673490D01*
X187485000Y-119543477D01*
X187485000Y-119543467D01*
X187489281Y-119500001D01*
X187485000Y-119456535D01*
X187485000Y-110357163D01*
X187549482Y-110350812D01*
X187669180Y-110314502D01*
X187779494Y-110255537D01*
X187876185Y-110176185D01*
X187955537Y-110079494D01*
X188014502Y-109969180D01*
X188032286Y-109910551D01*
X188309054Y-109910551D01*
X188383663Y-110157073D01*
X188643439Y-110280473D01*
X188922297Y-110350823D01*
X189209521Y-110365417D01*
X189494074Y-110323697D01*
X189765020Y-110227265D01*
X189896337Y-110157073D01*
X189970946Y-109910551D01*
X189140000Y-109079605D01*
X188309054Y-109910551D01*
X188032286Y-109910551D01*
X188050812Y-109849482D01*
X188063072Y-109725000D01*
X188063072Y-109710857D01*
X188129449Y-109730946D01*
X188960395Y-108900000D01*
X189319605Y-108900000D01*
X190150551Y-109730946D01*
X190397073Y-109656337D01*
X190410523Y-109628023D01*
X190545944Y-109830696D01*
X190749304Y-110034056D01*
X190988431Y-110193835D01*
X191254134Y-110303893D01*
X191536203Y-110360000D01*
X191823797Y-110360000D01*
X192105866Y-110303893D01*
X192371569Y-110193835D01*
X192610696Y-110034056D01*
X192814056Y-109830696D01*
X192950000Y-109627241D01*
X193085944Y-109830696D01*
X193289304Y-110034056D01*
X193528431Y-110193835D01*
X193794134Y-110303893D01*
X194076203Y-110360000D01*
X194363797Y-110360000D01*
X194645866Y-110303893D01*
X194911569Y-110193835D01*
X195150696Y-110034056D01*
X195354056Y-109830696D01*
X195490000Y-109627241D01*
X195625944Y-109830696D01*
X195829304Y-110034056D01*
X196068431Y-110193835D01*
X196334134Y-110303893D01*
X196616203Y-110360000D01*
X196903797Y-110360000D01*
X197185866Y-110303893D01*
X197451569Y-110193835D01*
X197690696Y-110034056D01*
X197894056Y-109830696D01*
X198030000Y-109627241D01*
X198165944Y-109830696D01*
X198369304Y-110034056D01*
X198608431Y-110193835D01*
X198874134Y-110303893D01*
X199156203Y-110360000D01*
X199443797Y-110360000D01*
X199725866Y-110303893D01*
X199991569Y-110193835D01*
X200230696Y-110034056D01*
X200354201Y-109910551D01*
X201009054Y-109910551D01*
X201083663Y-110157073D01*
X201343439Y-110280473D01*
X201622297Y-110350823D01*
X201909521Y-110365417D01*
X202194074Y-110323697D01*
X202465020Y-110227265D01*
X202596337Y-110157073D01*
X202670946Y-109910551D01*
X201840000Y-109079605D01*
X201009054Y-109910551D01*
X200354201Y-109910551D01*
X200434056Y-109830696D01*
X200568541Y-109629424D01*
X200582927Y-109656337D01*
X200829449Y-109730946D01*
X201660395Y-108900000D01*
X202019605Y-108900000D01*
X202850551Y-109730946D01*
X203097073Y-109656337D01*
X203220473Y-109396561D01*
X203290823Y-109117703D01*
X203305417Y-108830479D01*
X203263697Y-108545926D01*
X203167265Y-108274980D01*
X203097073Y-108143663D01*
X202850551Y-108069054D01*
X202019605Y-108900000D01*
X201660395Y-108900000D01*
X200829449Y-108069054D01*
X200582927Y-108143663D01*
X200569477Y-108171977D01*
X200434056Y-107969304D01*
X200354201Y-107889449D01*
X201009054Y-107889449D01*
X201840000Y-108720395D01*
X202670946Y-107889449D01*
X202596337Y-107642927D01*
X202336561Y-107519527D01*
X202057703Y-107449177D01*
X201770479Y-107434583D01*
X201485926Y-107476303D01*
X201214980Y-107572735D01*
X201083663Y-107642927D01*
X201009054Y-107889449D01*
X200354201Y-107889449D01*
X200230696Y-107765944D01*
X199991569Y-107606165D01*
X199725866Y-107496107D01*
X199443797Y-107440000D01*
X199156203Y-107440000D01*
X198874134Y-107496107D01*
X198608431Y-107606165D01*
X198369304Y-107765944D01*
X198165944Y-107969304D01*
X198030000Y-108172759D01*
X197894056Y-107969304D01*
X197690696Y-107765944D01*
X197451569Y-107606165D01*
X197185866Y-107496107D01*
X196903797Y-107440000D01*
X196616203Y-107440000D01*
X196334134Y-107496107D01*
X196068431Y-107606165D01*
X195829304Y-107765944D01*
X195625944Y-107969304D01*
X195490000Y-108172759D01*
X195354056Y-107969304D01*
X195150696Y-107765944D01*
X194911569Y-107606165D01*
X194645866Y-107496107D01*
X194363797Y-107440000D01*
X194076203Y-107440000D01*
X193794134Y-107496107D01*
X193528431Y-107606165D01*
X193289304Y-107765944D01*
X193085944Y-107969304D01*
X192950000Y-108172759D01*
X192814056Y-107969304D01*
X192610696Y-107765944D01*
X192371569Y-107606165D01*
X192105866Y-107496107D01*
X191823797Y-107440000D01*
X191536203Y-107440000D01*
X191254134Y-107496107D01*
X190988431Y-107606165D01*
X190749304Y-107765944D01*
X190545944Y-107969304D01*
X190411459Y-108170576D01*
X190397073Y-108143663D01*
X190150551Y-108069054D01*
X189319605Y-108900000D01*
X188960395Y-108900000D01*
X188129449Y-108069054D01*
X188063072Y-108089143D01*
X188063072Y-108075000D01*
X188050812Y-107950518D01*
X188032287Y-107889449D01*
X188309054Y-107889449D01*
X189140000Y-108720395D01*
X189970946Y-107889449D01*
X189896337Y-107642927D01*
X189636561Y-107519527D01*
X189357703Y-107449177D01*
X189070479Y-107434583D01*
X188785926Y-107476303D01*
X188514980Y-107572735D01*
X188383663Y-107642927D01*
X188309054Y-107889449D01*
X188032287Y-107889449D01*
X188014502Y-107830820D01*
X187955537Y-107720506D01*
X187876185Y-107623815D01*
X187779494Y-107544463D01*
X187669180Y-107485498D01*
X187549482Y-107449188D01*
X187425000Y-107436928D01*
X185775000Y-107436928D01*
X185650518Y-107449188D01*
X185530820Y-107485498D01*
X185420506Y-107544463D01*
X185323815Y-107623815D01*
X185244463Y-107720506D01*
X185185498Y-107830820D01*
X185149188Y-107950518D01*
X185136928Y-108075000D01*
X185136928Y-109725000D01*
X185149188Y-109849482D01*
X185185498Y-109969180D01*
X185244463Y-110079494D01*
X185323815Y-110176185D01*
X185420506Y-110255537D01*
X185530820Y-110314502D01*
X185650518Y-110350812D01*
X185715001Y-110357163D01*
X185715000Y-119133421D01*
X180233422Y-124615000D01*
X179784625Y-124615000D01*
X179775812Y-124525518D01*
X179739502Y-124405820D01*
X179680537Y-124295506D01*
X179601185Y-124198815D01*
X179504494Y-124119463D01*
X179394180Y-124060498D01*
X179274482Y-124024188D01*
X179150000Y-124011928D01*
X177450000Y-124011928D01*
X177325518Y-124024188D01*
X177205820Y-124060498D01*
X177095506Y-124119463D01*
X176998815Y-124198815D01*
X176919463Y-124295506D01*
X176860498Y-124405820D01*
X176838487Y-124478380D01*
X176706632Y-124346525D01*
X176463411Y-124184010D01*
X176193158Y-124072068D01*
X175906260Y-124015000D01*
X175613740Y-124015000D01*
X175326842Y-124072068D01*
X175056589Y-124184010D01*
X174813368Y-124346525D01*
X174606525Y-124553368D01*
X174484805Y-124735534D01*
X174415178Y-124618645D01*
X174220269Y-124402412D01*
X173986920Y-124228359D01*
X173724099Y-124103175D01*
X173576890Y-124058524D01*
X173347000Y-124179845D01*
X173347000Y-125373000D01*
X173367000Y-125373000D01*
X173367000Y-125627000D01*
X173347000Y-125627000D01*
X173347000Y-126820155D01*
X173576890Y-126941476D01*
X173724099Y-126896825D01*
X173986920Y-126771641D01*
X174220269Y-126597588D01*
X174415178Y-126381355D01*
X174484805Y-126264466D01*
X174606525Y-126446632D01*
X174813368Y-126653475D01*
X175056589Y-126815990D01*
X175326842Y-126927932D01*
X175613740Y-126985000D01*
X175906260Y-126985000D01*
X176193158Y-126927932D01*
X176463411Y-126815990D01*
X176706632Y-126653475D01*
X176838487Y-126521620D01*
X176860498Y-126594180D01*
X176919463Y-126704494D01*
X176998815Y-126801185D01*
X177095506Y-126880537D01*
X177205820Y-126939502D01*
X177325518Y-126975812D01*
X177415000Y-126984625D01*
X177415000Y-128033421D01*
X175533422Y-129915000D01*
X143000685Y-129915000D01*
X143031252Y-129904157D01*
X143281355Y-129755178D01*
X143497588Y-129560269D01*
X143671641Y-129326920D01*
X143796825Y-129064099D01*
X143841476Y-128916890D01*
X143720155Y-128687000D01*
X142527000Y-128687000D01*
X142527000Y-128707000D01*
X142273000Y-128707000D01*
X142273000Y-128687000D01*
X141079845Y-128687000D01*
X140958524Y-128916890D01*
X141003175Y-129064099D01*
X141128359Y-129326920D01*
X141302412Y-129560269D01*
X141518645Y-129755178D01*
X141768748Y-129904157D01*
X141799315Y-129915000D01*
X140766579Y-129915000D01*
X140085000Y-129233422D01*
X140085000Y-121966578D01*
X140923348Y-121128230D01*
X140972068Y-121373158D01*
X141084010Y-121643411D01*
X141246525Y-121886632D01*
X141453368Y-122093475D01*
X141627760Y-122210000D01*
X141453368Y-122326525D01*
X141246525Y-122533368D01*
X141084010Y-122776589D01*
X140972068Y-123046842D01*
X140915000Y-123333740D01*
X140915000Y-123626260D01*
X140972068Y-123913158D01*
X141084010Y-124183411D01*
X141246525Y-124426632D01*
X141453368Y-124633475D01*
X141627760Y-124750000D01*
X141453368Y-124866525D01*
X141246525Y-125073368D01*
X141084010Y-125316589D01*
X140972068Y-125586842D01*
X140915000Y-125873740D01*
X140915000Y-126166260D01*
X140972068Y-126453158D01*
X141084010Y-126723411D01*
X141246525Y-126966632D01*
X141453368Y-127173475D01*
X141635534Y-127295195D01*
X141518645Y-127364822D01*
X141302412Y-127559731D01*
X141128359Y-127793080D01*
X141003175Y-128055901D01*
X140958524Y-128203110D01*
X141079845Y-128433000D01*
X142273000Y-128433000D01*
X142273000Y-128413000D01*
X142527000Y-128413000D01*
X142527000Y-128433000D01*
X143720155Y-128433000D01*
X143841476Y-128203110D01*
X143796825Y-128055901D01*
X143671641Y-127793080D01*
X143497588Y-127559731D01*
X143281355Y-127364822D01*
X143164466Y-127295195D01*
X143346632Y-127173475D01*
X143553475Y-126966632D01*
X143715990Y-126723411D01*
X143827932Y-126453158D01*
X143885000Y-126166260D01*
X143885000Y-125873740D01*
X143827932Y-125586842D01*
X143731379Y-125353740D01*
X166655000Y-125353740D01*
X166655000Y-125646260D01*
X166712068Y-125933158D01*
X166824010Y-126203411D01*
X166986525Y-126446632D01*
X167193368Y-126653475D01*
X167436589Y-126815990D01*
X167706842Y-126927932D01*
X167993740Y-126985000D01*
X168286260Y-126985000D01*
X168573158Y-126927932D01*
X168843411Y-126815990D01*
X169086632Y-126653475D01*
X169293475Y-126446632D01*
X169410000Y-126272240D01*
X169526525Y-126446632D01*
X169733368Y-126653475D01*
X169976589Y-126815990D01*
X170246842Y-126927932D01*
X170533740Y-126985000D01*
X170826260Y-126985000D01*
X171113158Y-126927932D01*
X171383411Y-126815990D01*
X171626632Y-126653475D01*
X171833475Y-126446632D01*
X171955195Y-126264466D01*
X172024822Y-126381355D01*
X172219731Y-126597588D01*
X172453080Y-126771641D01*
X172715901Y-126896825D01*
X172863110Y-126941476D01*
X173093000Y-126820155D01*
X173093000Y-125627000D01*
X173073000Y-125627000D01*
X173073000Y-125373000D01*
X173093000Y-125373000D01*
X173093000Y-124179845D01*
X172863110Y-124058524D01*
X172715901Y-124103175D01*
X172453080Y-124228359D01*
X172219731Y-124402412D01*
X172024822Y-124618645D01*
X171955195Y-124735534D01*
X171833475Y-124553368D01*
X171626632Y-124346525D01*
X171383411Y-124184010D01*
X171113158Y-124072068D01*
X170826260Y-124015000D01*
X170533740Y-124015000D01*
X170246842Y-124072068D01*
X169976589Y-124184010D01*
X169733368Y-124346525D01*
X169526525Y-124553368D01*
X169410000Y-124727760D01*
X169293475Y-124553368D01*
X169086632Y-124346525D01*
X168843411Y-124184010D01*
X168573158Y-124072068D01*
X168286260Y-124015000D01*
X167993740Y-124015000D01*
X167706842Y-124072068D01*
X167436589Y-124184010D01*
X167193368Y-124346525D01*
X166986525Y-124553368D01*
X166824010Y-124796589D01*
X166712068Y-125066842D01*
X166655000Y-125353740D01*
X143731379Y-125353740D01*
X143715990Y-125316589D01*
X143553475Y-125073368D01*
X143346632Y-124866525D01*
X143172240Y-124750000D01*
X143346632Y-124633475D01*
X143553475Y-124426632D01*
X143715990Y-124183411D01*
X143827932Y-123913158D01*
X143885000Y-123626260D01*
X143885000Y-123333740D01*
X143827932Y-123046842D01*
X143715990Y-122776589D01*
X143553475Y-122533368D01*
X143346632Y-122326525D01*
X143172240Y-122210000D01*
X143346632Y-122093475D01*
X143553475Y-121886632D01*
X143715990Y-121643411D01*
X143827932Y-121373158D01*
X143885000Y-121086260D01*
X143885000Y-120793740D01*
X143827932Y-120506842D01*
X143715990Y-120236589D01*
X143553475Y-119993368D01*
X143421620Y-119861513D01*
X143494180Y-119839502D01*
X143604494Y-119780537D01*
X143701185Y-119701185D01*
X143780537Y-119604494D01*
X143839502Y-119494180D01*
X143875812Y-119374482D01*
X143888072Y-119250000D01*
X143888072Y-117550000D01*
X143875812Y-117425518D01*
X143839502Y-117305820D01*
X143780537Y-117195506D01*
X143701185Y-117098815D01*
X143604494Y-117019463D01*
X143494180Y-116960498D01*
X143374482Y-116924188D01*
X143250000Y-116911928D01*
X141550000Y-116911928D01*
X141425518Y-116924188D01*
X141305820Y-116960498D01*
X141195506Y-117019463D01*
X141098815Y-117098815D01*
X141019463Y-117195506D01*
X140960498Y-117305820D01*
X140924188Y-117425518D01*
X140915375Y-117515000D01*
X93443469Y-117515000D01*
X93400000Y-117510719D01*
X93356531Y-117515000D01*
X93356523Y-117515000D01*
X93226510Y-117527805D01*
X93059686Y-117578411D01*
X92905941Y-117660589D01*
X92804953Y-117743468D01*
X92804951Y-117743470D01*
X92771183Y-117771183D01*
X92743470Y-117804951D01*
X87744956Y-122803466D01*
X87711183Y-122831183D01*
X87600589Y-122965942D01*
X87518411Y-123119688D01*
X87467805Y-123286511D01*
X87455000Y-123416524D01*
X87455000Y-123416531D01*
X87450719Y-123460000D01*
X87455000Y-123503469D01*
X87455001Y-125192269D01*
X87435518Y-125194188D01*
X87315820Y-125230498D01*
X87205506Y-125289463D01*
X87108815Y-125368815D01*
X87029463Y-125465506D01*
X86970498Y-125575820D01*
X86934188Y-125695518D01*
X86921928Y-125820000D01*
X86921928Y-127380000D01*
X86934188Y-127504482D01*
X86970498Y-127624180D01*
X87029463Y-127734494D01*
X87108815Y-127831185D01*
X87205506Y-127910537D01*
X87315820Y-127969502D01*
X87435518Y-128005812D01*
X87560000Y-128018072D01*
X89120000Y-128018072D01*
X89244482Y-128005812D01*
X89364180Y-127969502D01*
X89474494Y-127910537D01*
X89571185Y-127831185D01*
X89650537Y-127734494D01*
X89709502Y-127624180D01*
X89745812Y-127504482D01*
X89750531Y-127456564D01*
X89780897Y-127502010D01*
X89977990Y-127699103D01*
X90209746Y-127853957D01*
X90467260Y-127960623D01*
X90740635Y-128015000D01*
X91019365Y-128015000D01*
X91292740Y-127960623D01*
X91550254Y-127853957D01*
X91782010Y-127699103D01*
X91979103Y-127502010D01*
X92133957Y-127270254D01*
X92150000Y-127231523D01*
X92166043Y-127270254D01*
X92320897Y-127502010D01*
X92517990Y-127699103D01*
X92749746Y-127853957D01*
X93007260Y-127960623D01*
X93280635Y-128015000D01*
X93559365Y-128015000D01*
X93832740Y-127960623D01*
X94090254Y-127853957D01*
X94322010Y-127699103D01*
X94519103Y-127502010D01*
X94673957Y-127270254D01*
X94690000Y-127231523D01*
X94706043Y-127270254D01*
X94860897Y-127502010D01*
X95057990Y-127699103D01*
X95289746Y-127853957D01*
X95547260Y-127960623D01*
X95820635Y-128015000D01*
X96099365Y-128015000D01*
X96372740Y-127960623D01*
X96630254Y-127853957D01*
X96862010Y-127699103D01*
X97059103Y-127502010D01*
X97213957Y-127270254D01*
X97230000Y-127231523D01*
X97246043Y-127270254D01*
X97400897Y-127502010D01*
X97597990Y-127699103D01*
X97829746Y-127853957D01*
X98087260Y-127960623D01*
X98360635Y-128015000D01*
X98639365Y-128015000D01*
X98912740Y-127960623D01*
X99170254Y-127853957D01*
X99402010Y-127699103D01*
X99599103Y-127502010D01*
X99753957Y-127270254D01*
X99770000Y-127231523D01*
X99786043Y-127270254D01*
X99940897Y-127502010D01*
X100137990Y-127699103D01*
X100369746Y-127853957D01*
X100627260Y-127960623D01*
X100900635Y-128015000D01*
X101179365Y-128015000D01*
X101452740Y-127960623D01*
X101710254Y-127853957D01*
X101942010Y-127699103D01*
X102139103Y-127502010D01*
X102293957Y-127270254D01*
X102310000Y-127231523D01*
X102326043Y-127270254D01*
X102480897Y-127502010D01*
X102677990Y-127699103D01*
X102909746Y-127853957D01*
X103167260Y-127960623D01*
X103440635Y-128015000D01*
X103719365Y-128015000D01*
X103992740Y-127960623D01*
X104250254Y-127853957D01*
X104482010Y-127699103D01*
X104679103Y-127502010D01*
X104833957Y-127270254D01*
X104850000Y-127231523D01*
X104866043Y-127270254D01*
X105020897Y-127502010D01*
X105217990Y-127699103D01*
X105449746Y-127853957D01*
X105707260Y-127960623D01*
X105980635Y-128015000D01*
X106259365Y-128015000D01*
X106532740Y-127960623D01*
X106790254Y-127853957D01*
X107022010Y-127699103D01*
X107219103Y-127502010D01*
X107373957Y-127270254D01*
X107390000Y-127231523D01*
X107406043Y-127270254D01*
X107560897Y-127502010D01*
X107757990Y-127699103D01*
X107989746Y-127853957D01*
X108247260Y-127960623D01*
X108520635Y-128015000D01*
X108799365Y-128015000D01*
X109072740Y-127960623D01*
X109330254Y-127853957D01*
X109562010Y-127699103D01*
X109759103Y-127502010D01*
X109913957Y-127270254D01*
X109930000Y-127231523D01*
X109946043Y-127270254D01*
X110100897Y-127502010D01*
X110297990Y-127699103D01*
X110529746Y-127853957D01*
X110787260Y-127960623D01*
X111060635Y-128015000D01*
X111339365Y-128015000D01*
X111612740Y-127960623D01*
X111870254Y-127853957D01*
X112102010Y-127699103D01*
X112299103Y-127502010D01*
X112453957Y-127270254D01*
X112470000Y-127231523D01*
X112486043Y-127270254D01*
X112640897Y-127502010D01*
X112837990Y-127699103D01*
X113069746Y-127853957D01*
X113327260Y-127960623D01*
X113600635Y-128015000D01*
X113790199Y-128015000D01*
X113465199Y-128340000D01*
X75307284Y-128340000D01*
X72760000Y-125877627D01*
X72760000Y-110420834D01*
X73808803Y-109400000D01*
X74781822Y-109400000D01*
X74906525Y-109586632D01*
X75113368Y-109793475D01*
X75287760Y-109910000D01*
X75113368Y-110026525D01*
X74906525Y-110233368D01*
X74744010Y-110476589D01*
X74632068Y-110746842D01*
X74575000Y-111033740D01*
X74575000Y-111326260D01*
X74632068Y-111613158D01*
X74744010Y-111883411D01*
X74906525Y-112126632D01*
X75113368Y-112333475D01*
X75356589Y-112495990D01*
X75626842Y-112607932D01*
X75913740Y-112665000D01*
X76206260Y-112665000D01*
X76493158Y-112607932D01*
X76763411Y-112495990D01*
X77006632Y-112333475D01*
X77213475Y-112126632D01*
X77331100Y-111950594D01*
X77502412Y-112180269D01*
X77718645Y-112375178D01*
X77968748Y-112524157D01*
X78243109Y-112621481D01*
X78473000Y-112500814D01*
X78473000Y-111307000D01*
X78727000Y-111307000D01*
X78727000Y-112500814D01*
X78956891Y-112621481D01*
X79231252Y-112524157D01*
X79481355Y-112375178D01*
X79697588Y-112180269D01*
X79871641Y-111946920D01*
X79996825Y-111684099D01*
X80041476Y-111536890D01*
X79920155Y-111307000D01*
X78727000Y-111307000D01*
X78473000Y-111307000D01*
X78453000Y-111307000D01*
X78453000Y-111053000D01*
X78473000Y-111053000D01*
X78473000Y-111033000D01*
X78727000Y-111033000D01*
X78727000Y-111053000D01*
X79920155Y-111053000D01*
X80041476Y-110823110D01*
X79996825Y-110675901D01*
X79989251Y-110660000D01*
X112062678Y-110660000D01*
X112100000Y-110663676D01*
X112137322Y-110660000D01*
X112137333Y-110660000D01*
X112248986Y-110649003D01*
X112392247Y-110605546D01*
X112524276Y-110534974D01*
X112640001Y-110440001D01*
X112663804Y-110410997D01*
X116791003Y-106283799D01*
X116820001Y-106260001D01*
X116914974Y-106144276D01*
X116985546Y-106012247D01*
X117029003Y-105868986D01*
X117040000Y-105757333D01*
X117040000Y-105757325D01*
X117043676Y-105720000D01*
X117040000Y-105682675D01*
X117040000Y-102393991D01*
X117182010Y-102299103D01*
X117379103Y-102102010D01*
X117533957Y-101870254D01*
X117550000Y-101831523D01*
X117566043Y-101870254D01*
X117720897Y-102102010D01*
X117917990Y-102299103D01*
X118149746Y-102453957D01*
X118407260Y-102560623D01*
X118680635Y-102615000D01*
X118959365Y-102615000D01*
X119232740Y-102560623D01*
X119490254Y-102453957D01*
X119722010Y-102299103D01*
X119919103Y-102102010D01*
X120073957Y-101870254D01*
X120090000Y-101831523D01*
X120106043Y-101870254D01*
X120260897Y-102102010D01*
X120457990Y-102299103D01*
X120689746Y-102453957D01*
X120947260Y-102560623D01*
X121220635Y-102615000D01*
X121499365Y-102615000D01*
X121772740Y-102560623D01*
X122030254Y-102453957D01*
X122262010Y-102299103D01*
X122459103Y-102102010D01*
X122613957Y-101870254D01*
X122630000Y-101831523D01*
X122646043Y-101870254D01*
X122800897Y-102102010D01*
X122997990Y-102299103D01*
X123229746Y-102453957D01*
X123487260Y-102560623D01*
X123760635Y-102615000D01*
X124039365Y-102615000D01*
X124312740Y-102560623D01*
X124570254Y-102453957D01*
X124802010Y-102299103D01*
X124999103Y-102102010D01*
X125153957Y-101870254D01*
X125170000Y-101831523D01*
X125186043Y-101870254D01*
X125340897Y-102102010D01*
X125537990Y-102299103D01*
X125769746Y-102453957D01*
X126027260Y-102560623D01*
X126300635Y-102615000D01*
X126579365Y-102615000D01*
X126852740Y-102560623D01*
X127110254Y-102453957D01*
X127342010Y-102299103D01*
X127539103Y-102102010D01*
X127693957Y-101870254D01*
X127710000Y-101831523D01*
X127726043Y-101870254D01*
X127880897Y-102102010D01*
X128077990Y-102299103D01*
X128309746Y-102453957D01*
X128567260Y-102560623D01*
X128840635Y-102615000D01*
X129119365Y-102615000D01*
X129392740Y-102560623D01*
X129650254Y-102453957D01*
X129882010Y-102299103D01*
X130079103Y-102102010D01*
X130233957Y-101870254D01*
X130250000Y-101831523D01*
X130266043Y-101870254D01*
X130420897Y-102102010D01*
X130617990Y-102299103D01*
X130849746Y-102453957D01*
X131107260Y-102560623D01*
X131380635Y-102615000D01*
X131659365Y-102615000D01*
X131932740Y-102560623D01*
X132190254Y-102453957D01*
X132422010Y-102299103D01*
X132619103Y-102102010D01*
X132773957Y-101870254D01*
X132790000Y-101831523D01*
X132806043Y-101870254D01*
X132960897Y-102102010D01*
X133157990Y-102299103D01*
X133389746Y-102453957D01*
X133647260Y-102560623D01*
X133920635Y-102615000D01*
X134199365Y-102615000D01*
X134472740Y-102560623D01*
X134730254Y-102453957D01*
X134962010Y-102299103D01*
X135159103Y-102102010D01*
X135313957Y-101870254D01*
X135420623Y-101612740D01*
X135475000Y-101339365D01*
X135475000Y-101060635D01*
X135420623Y-100787260D01*
X135313957Y-100529746D01*
X135159103Y-100297990D01*
X134962010Y-100100897D01*
X134730254Y-99946043D01*
X134472740Y-99839377D01*
X134199365Y-99785000D01*
X133920635Y-99785000D01*
X133647260Y-99839377D01*
X133389746Y-99946043D01*
X133157990Y-100100897D01*
X132960897Y-100297990D01*
X132806043Y-100529746D01*
X132790000Y-100568477D01*
X132773957Y-100529746D01*
X132619103Y-100297990D01*
X132422010Y-100100897D01*
X132190254Y-99946043D01*
X131932740Y-99839377D01*
X131659365Y-99785000D01*
X131380635Y-99785000D01*
X131107260Y-99839377D01*
X130849746Y-99946043D01*
X130617990Y-100100897D01*
X130420897Y-100297990D01*
X130266043Y-100529746D01*
X130250000Y-100568477D01*
X130233957Y-100529746D01*
X130079103Y-100297990D01*
X129882010Y-100100897D01*
X129650254Y-99946043D01*
X129392740Y-99839377D01*
X129119365Y-99785000D01*
X128840635Y-99785000D01*
X128567260Y-99839377D01*
X128309746Y-99946043D01*
X128077990Y-100100897D01*
X127880897Y-100297990D01*
X127726043Y-100529746D01*
X127710000Y-100568477D01*
X127693957Y-100529746D01*
X127539103Y-100297990D01*
X127342010Y-100100897D01*
X127110254Y-99946043D01*
X126852740Y-99839377D01*
X126579365Y-99785000D01*
X126300635Y-99785000D01*
X126027260Y-99839377D01*
X125769746Y-99946043D01*
X125537990Y-100100897D01*
X125340897Y-100297990D01*
X125186043Y-100529746D01*
X125170000Y-100568477D01*
X125153957Y-100529746D01*
X124999103Y-100297990D01*
X124802010Y-100100897D01*
X124570254Y-99946043D01*
X124312740Y-99839377D01*
X124039365Y-99785000D01*
X123760635Y-99785000D01*
X123487260Y-99839377D01*
X123229746Y-99946043D01*
X122997990Y-100100897D01*
X122800897Y-100297990D01*
X122646043Y-100529746D01*
X122630000Y-100568477D01*
X122613957Y-100529746D01*
X122459103Y-100297990D01*
X122262010Y-100100897D01*
X122030254Y-99946043D01*
X121772740Y-99839377D01*
X121499365Y-99785000D01*
X121220635Y-99785000D01*
X120947260Y-99839377D01*
X120689746Y-99946043D01*
X120457990Y-100100897D01*
X120260897Y-100297990D01*
X120106043Y-100529746D01*
X120090000Y-100568477D01*
X120073957Y-100529746D01*
X119919103Y-100297990D01*
X119722010Y-100100897D01*
X119490254Y-99946043D01*
X119232740Y-99839377D01*
X118959365Y-99785000D01*
X118680635Y-99785000D01*
X118407260Y-99839377D01*
X118149746Y-99946043D01*
X117917990Y-100100897D01*
X117720897Y-100297990D01*
X117566043Y-100529746D01*
X117550000Y-100568477D01*
X117533957Y-100529746D01*
X117379103Y-100297990D01*
X117182010Y-100100897D01*
X116950254Y-99946043D01*
X116692740Y-99839377D01*
X116419365Y-99785000D01*
X116140635Y-99785000D01*
X115867260Y-99839377D01*
X115609746Y-99946043D01*
X115377990Y-100100897D01*
X115180897Y-100297990D01*
X115026043Y-100529746D01*
X115010000Y-100568477D01*
X114993957Y-100529746D01*
X114839103Y-100297990D01*
X114642010Y-100100897D01*
X114410254Y-99946043D01*
X114152740Y-99839377D01*
X113879365Y-99785000D01*
X113600635Y-99785000D01*
X113327260Y-99839377D01*
X113069746Y-99946043D01*
X112837990Y-100100897D01*
X112640897Y-100297990D01*
X112486043Y-100529746D01*
X112470000Y-100568477D01*
X112453957Y-100529746D01*
X112299103Y-100297990D01*
X112102010Y-100100897D01*
X111870254Y-99946043D01*
X111612740Y-99839377D01*
X111339365Y-99785000D01*
X111060635Y-99785000D01*
X110787260Y-99839377D01*
X110529746Y-99946043D01*
X110297990Y-100100897D01*
X110100897Y-100297990D01*
X109946043Y-100529746D01*
X109930000Y-100568477D01*
X109913957Y-100529746D01*
X109759103Y-100297990D01*
X109562010Y-100100897D01*
X109330254Y-99946043D01*
X109072740Y-99839377D01*
X108799365Y-99785000D01*
X108520635Y-99785000D01*
X108247260Y-99839377D01*
X107989746Y-99946043D01*
X107757990Y-100100897D01*
X107560897Y-100297990D01*
X107406043Y-100529746D01*
X107390000Y-100568477D01*
X107373957Y-100529746D01*
X107219103Y-100297990D01*
X107022010Y-100100897D01*
X106790254Y-99946043D01*
X106532740Y-99839377D01*
X106259365Y-99785000D01*
X105980635Y-99785000D01*
X105707260Y-99839377D01*
X105449746Y-99946043D01*
X105217990Y-100100897D01*
X105020897Y-100297990D01*
X104866043Y-100529746D01*
X104851223Y-100565525D01*
X104800349Y-100470345D01*
X104558421Y-100401184D01*
X103759605Y-101200000D01*
X104558421Y-101998816D01*
X104800349Y-101929655D01*
X104848425Y-101827721D01*
X104866043Y-101870254D01*
X105020897Y-102102010D01*
X105217990Y-102299103D01*
X105360000Y-102393991D01*
X105360001Y-104165197D01*
X104185199Y-105340000D01*
X100640002Y-105340000D01*
X100663804Y-105310998D01*
X101551003Y-104423799D01*
X101580001Y-104400001D01*
X101674974Y-104284276D01*
X101745546Y-104152247D01*
X101789003Y-104008986D01*
X101800000Y-103897333D01*
X101800000Y-103897325D01*
X101803676Y-103860000D01*
X101800000Y-103822675D01*
X101800000Y-102393991D01*
X101942010Y-102299103D01*
X102062692Y-102178421D01*
X102781184Y-102178421D01*
X102850345Y-102420349D01*
X103102443Y-102539248D01*
X103372894Y-102606681D01*
X103651303Y-102620057D01*
X103926972Y-102578860D01*
X104189308Y-102484675D01*
X104309655Y-102420349D01*
X104378816Y-102178421D01*
X103580000Y-101379605D01*
X102781184Y-102178421D01*
X102062692Y-102178421D01*
X102139103Y-102102010D01*
X102293957Y-101870254D01*
X102308777Y-101834475D01*
X102359651Y-101929655D01*
X102601579Y-101998816D01*
X103400395Y-101200000D01*
X102601579Y-100401184D01*
X102359651Y-100470345D01*
X102311575Y-100572279D01*
X102293957Y-100529746D01*
X102139103Y-100297990D01*
X102062692Y-100221579D01*
X102781184Y-100221579D01*
X103580000Y-101020395D01*
X104378816Y-100221579D01*
X104309655Y-99979651D01*
X104057557Y-99860752D01*
X103787106Y-99793319D01*
X103508697Y-99779943D01*
X103233028Y-99821140D01*
X102970692Y-99915325D01*
X102850345Y-99979651D01*
X102781184Y-100221579D01*
X102062692Y-100221579D01*
X101942010Y-100100897D01*
X101710254Y-99946043D01*
X101452740Y-99839377D01*
X101179365Y-99785000D01*
X100900635Y-99785000D01*
X100627260Y-99839377D01*
X100369746Y-99946043D01*
X100137990Y-100100897D01*
X99940897Y-100297990D01*
X99786043Y-100529746D01*
X99770000Y-100568477D01*
X99753957Y-100529746D01*
X99599103Y-100297990D01*
X99402010Y-100100897D01*
X99170254Y-99946043D01*
X98912740Y-99839377D01*
X98639365Y-99785000D01*
X98360635Y-99785000D01*
X98087260Y-99839377D01*
X97829746Y-99946043D01*
X97597990Y-100100897D01*
X97400897Y-100297990D01*
X97246043Y-100529746D01*
X97230000Y-100568477D01*
X97213957Y-100529746D01*
X97059103Y-100297990D01*
X96862010Y-100100897D01*
X96630254Y-99946043D01*
X96372740Y-99839377D01*
X96099365Y-99785000D01*
X95820635Y-99785000D01*
X95547260Y-99839377D01*
X95289746Y-99946043D01*
X95057990Y-100100897D01*
X94860897Y-100297990D01*
X94706043Y-100529746D01*
X94690000Y-100568477D01*
X94673957Y-100529746D01*
X94519103Y-100297990D01*
X94322010Y-100100897D01*
X94090254Y-99946043D01*
X93832740Y-99839377D01*
X93559365Y-99785000D01*
X93280635Y-99785000D01*
X93007260Y-99839377D01*
X92749746Y-99946043D01*
X92517990Y-100100897D01*
X92320897Y-100297990D01*
X92166043Y-100529746D01*
X92150000Y-100568477D01*
X92133957Y-100529746D01*
X91979103Y-100297990D01*
X91782010Y-100100897D01*
X91550254Y-99946043D01*
X91292740Y-99839377D01*
X91019365Y-99785000D01*
X90740635Y-99785000D01*
X90467260Y-99839377D01*
X90209746Y-99946043D01*
X89977990Y-100100897D01*
X89780897Y-100297990D01*
X89626043Y-100529746D01*
X89611223Y-100565525D01*
X89560349Y-100470345D01*
X89318421Y-100401184D01*
X88519605Y-101200000D01*
X88533748Y-101214143D01*
X88354143Y-101393748D01*
X88340000Y-101379605D01*
X88325858Y-101393748D01*
X88146253Y-101214143D01*
X88160395Y-101200000D01*
X87361579Y-100401184D01*
X87119651Y-100470345D01*
X87000752Y-100722443D01*
X86933319Y-100992894D01*
X86919943Y-101271303D01*
X86960845Y-101545001D01*
X79986869Y-101545001D01*
X79996825Y-101524099D01*
X80041476Y-101376890D01*
X79920155Y-101147000D01*
X78727000Y-101147000D01*
X78727000Y-101167000D01*
X78473000Y-101167000D01*
X78473000Y-101147000D01*
X78453000Y-101147000D01*
X78453000Y-100893000D01*
X78473000Y-100893000D01*
X78473000Y-100873000D01*
X78727000Y-100873000D01*
X78727000Y-100893000D01*
X79920155Y-100893000D01*
X80041476Y-100663110D01*
X80010201Y-100560000D01*
X85562678Y-100560000D01*
X85600000Y-100563676D01*
X85637322Y-100560000D01*
X85637333Y-100560000D01*
X85748986Y-100549003D01*
X85892247Y-100505546D01*
X86024276Y-100434974D01*
X86140001Y-100340001D01*
X86163804Y-100310997D01*
X86253222Y-100221579D01*
X87541184Y-100221579D01*
X88340000Y-101020395D01*
X89138816Y-100221579D01*
X89069655Y-99979651D01*
X88817557Y-99860752D01*
X88547106Y-99793319D01*
X88268697Y-99779943D01*
X87993028Y-99821140D01*
X87730692Y-99915325D01*
X87610345Y-99979651D01*
X87541184Y-100221579D01*
X86253222Y-100221579D01*
X96674801Y-89800000D01*
X138911686Y-89800000D01*
X138915001Y-89833657D01*
X138915000Y-109766353D01*
X138911686Y-109800000D01*
X138924912Y-109934283D01*
X138964081Y-110063406D01*
X139027688Y-110182407D01*
X139113289Y-110286711D01*
X139191409Y-110350823D01*
X139217593Y-110372312D01*
X139336594Y-110435919D01*
X139465717Y-110475088D01*
X139600000Y-110488314D01*
X139633647Y-110485000D01*
X175566353Y-110485000D01*
X175600000Y-110488314D01*
X175734283Y-110475088D01*
X175863406Y-110435919D01*
X175982407Y-110372312D01*
X176086711Y-110286711D01*
X176172312Y-110182407D01*
X176235919Y-110063406D01*
X176275088Y-109934283D01*
X176285000Y-109833647D01*
X176285000Y-109833646D01*
X176288314Y-109800000D01*
X176285000Y-109766353D01*
X176285000Y-97850000D01*
X182411928Y-97850000D01*
X182411928Y-99550000D01*
X182424188Y-99674482D01*
X182460498Y-99794180D01*
X182519463Y-99904494D01*
X182598815Y-100001185D01*
X182695506Y-100080537D01*
X182805820Y-100139502D01*
X182925518Y-100175812D01*
X183050000Y-100188072D01*
X184750000Y-100188072D01*
X184874482Y-100175812D01*
X184994180Y-100139502D01*
X185104494Y-100080537D01*
X185201185Y-100001185D01*
X185280537Y-99904494D01*
X185339502Y-99794180D01*
X185375812Y-99674482D01*
X185388072Y-99550000D01*
X185388072Y-97850000D01*
X185375812Y-97725518D01*
X185339502Y-97605820D01*
X185280537Y-97495506D01*
X185201185Y-97398815D01*
X185104494Y-97319463D01*
X184994180Y-97260498D01*
X184913534Y-97236034D01*
X184997588Y-97160269D01*
X185171641Y-96926920D01*
X185296825Y-96664099D01*
X185341476Y-96516890D01*
X185220155Y-96287000D01*
X184027000Y-96287000D01*
X184027000Y-96307000D01*
X183773000Y-96307000D01*
X183773000Y-96287000D01*
X182579845Y-96287000D01*
X182458524Y-96516890D01*
X182503175Y-96664099D01*
X182628359Y-96926920D01*
X182802412Y-97160269D01*
X182886466Y-97236034D01*
X182805820Y-97260498D01*
X182695506Y-97319463D01*
X182598815Y-97398815D01*
X182519463Y-97495506D01*
X182460498Y-97605820D01*
X182424188Y-97725518D01*
X182411928Y-97850000D01*
X176285000Y-97850000D01*
X176285000Y-95803110D01*
X182458524Y-95803110D01*
X182579845Y-96033000D01*
X183773000Y-96033000D01*
X183773000Y-94839186D01*
X184027000Y-94839186D01*
X184027000Y-96033000D01*
X185220155Y-96033000D01*
X185341476Y-95803110D01*
X185296825Y-95655901D01*
X185171641Y-95393080D01*
X184997588Y-95159731D01*
X184781355Y-94964822D01*
X184531252Y-94815843D01*
X184256891Y-94718519D01*
X184027000Y-94839186D01*
X183773000Y-94839186D01*
X183543109Y-94718519D01*
X183268748Y-94815843D01*
X183018645Y-94964822D01*
X182802412Y-95159731D01*
X182628359Y-95393080D01*
X182503175Y-95655901D01*
X182458524Y-95803110D01*
X176285000Y-95803110D01*
X176285000Y-89833647D01*
X176288314Y-89800000D01*
X176275088Y-89665717D01*
X176235919Y-89536594D01*
X176172312Y-89417593D01*
X176086711Y-89313289D01*
X175982407Y-89227688D01*
X175863406Y-89164081D01*
X175734283Y-89124912D01*
X175633647Y-89115000D01*
X175600000Y-89111686D01*
X175566353Y-89115000D01*
X139633647Y-89115000D01*
X139600000Y-89111686D01*
X139566353Y-89115000D01*
X139465717Y-89124912D01*
X139336594Y-89164081D01*
X139217593Y-89227688D01*
X139113289Y-89313289D01*
X139027688Y-89417593D01*
X138964081Y-89536594D01*
X138924912Y-89665717D01*
X138911686Y-89800000D01*
X96674801Y-89800000D01*
X98714802Y-87760000D01*
X193585199Y-87760000D01*
X202276201Y-96451003D01*
X202299999Y-96480001D01*
X202415724Y-96574974D01*
X202547753Y-96645546D01*
X202691014Y-96689003D01*
X202802667Y-96700000D01*
X202802676Y-96700000D01*
X202839999Y-96703676D01*
X202877322Y-96700000D01*
X208781822Y-96700000D01*
X208906525Y-96886632D01*
X209113368Y-97093475D01*
X209287760Y-97210000D01*
X209113368Y-97326525D01*
X208906525Y-97533368D01*
X208744010Y-97776589D01*
X208632068Y-98046842D01*
X208575000Y-98333740D01*
X208575000Y-98626260D01*
X208632068Y-98913158D01*
X208744010Y-99183411D01*
X208906525Y-99426632D01*
X209113368Y-99633475D01*
X209287760Y-99750000D01*
X209113368Y-99866525D01*
X208906525Y-100073368D01*
X208744010Y-100316589D01*
X208632068Y-100586842D01*
X208575000Y-100873740D01*
X208575000Y-101166260D01*
X208632068Y-101453158D01*
X208744010Y-101723411D01*
X208906525Y-101966632D01*
X209113368Y-102173475D01*
X209287760Y-102290000D01*
X209113368Y-102406525D01*
X208906525Y-102613368D01*
X208744010Y-102856589D01*
X208632068Y-103126842D01*
X208575000Y-103413740D01*
X208575000Y-103706260D01*
X208632068Y-103993158D01*
X208744010Y-104263411D01*
X208906525Y-104506632D01*
X209113368Y-104713475D01*
X209287760Y-104830000D01*
X209113368Y-104946525D01*
X208906525Y-105153368D01*
X208744010Y-105396589D01*
X208632068Y-105666842D01*
X208575000Y-105953740D01*
X208575000Y-106246260D01*
X208632068Y-106533158D01*
X208744010Y-106803411D01*
X208906525Y-107046632D01*
X209113368Y-107253475D01*
X209287760Y-107370000D01*
X209113368Y-107486525D01*
X208906525Y-107693368D01*
X208744010Y-107936589D01*
X208632068Y-108206842D01*
X208575000Y-108493740D01*
X208575000Y-108786260D01*
X208632068Y-109073158D01*
X208744010Y-109343411D01*
X208906525Y-109586632D01*
X209113368Y-109793475D01*
X209287760Y-109910000D01*
X209113368Y-110026525D01*
X208906525Y-110233368D01*
X208744010Y-110476589D01*
X208632068Y-110746842D01*
X208575000Y-111033740D01*
X208575000Y-111326260D01*
X208632068Y-111613158D01*
X208744010Y-111883411D01*
X208906525Y-112126632D01*
X209113368Y-112333475D01*
X209356589Y-112495990D01*
X209626842Y-112607932D01*
X209913740Y-112665000D01*
X210206260Y-112665000D01*
X210493158Y-112607932D01*
X210763411Y-112495990D01*
X211006632Y-112333475D01*
X211213475Y-112126632D01*
X211331100Y-111950594D01*
X211502412Y-112180269D01*
X211718645Y-112375178D01*
X211968748Y-112524157D01*
X212243109Y-112621481D01*
X212473000Y-112500814D01*
X212473000Y-111307000D01*
X212727000Y-111307000D01*
X212727000Y-112500814D01*
X212956891Y-112621481D01*
X213231252Y-112524157D01*
X213481355Y-112375178D01*
X213697588Y-112180269D01*
X213871641Y-111946920D01*
X213996825Y-111684099D01*
X214041476Y-111536890D01*
X213920155Y-111307000D01*
X212727000Y-111307000D01*
X212473000Y-111307000D01*
X212453000Y-111307000D01*
X212453000Y-111053000D01*
X212473000Y-111053000D01*
X212473000Y-111033000D01*
X212727000Y-111033000D01*
X212727000Y-111053000D01*
X213920155Y-111053000D01*
X214041476Y-110823110D01*
X213996825Y-110675901D01*
X213871641Y-110413080D01*
X213697588Y-110179731D01*
X213481355Y-109984822D01*
X213364466Y-109915195D01*
X213546632Y-109793475D01*
X213753475Y-109586632D01*
X213915990Y-109343411D01*
X214027932Y-109073158D01*
X214085000Y-108786260D01*
X214085000Y-108493740D01*
X214027932Y-108206842D01*
X213915990Y-107936589D01*
X213753475Y-107693368D01*
X213546632Y-107486525D01*
X213372240Y-107370000D01*
X213546632Y-107253475D01*
X213753475Y-107046632D01*
X213915990Y-106803411D01*
X214027932Y-106533158D01*
X214085000Y-106246260D01*
X214085000Y-105953740D01*
X214027932Y-105666842D01*
X213915990Y-105396589D01*
X213753475Y-105153368D01*
X213546632Y-104946525D01*
X213372240Y-104830000D01*
X213546632Y-104713475D01*
X213753475Y-104506632D01*
X213915990Y-104263411D01*
X214027932Y-103993158D01*
X214085000Y-103706260D01*
X214085000Y-103413740D01*
X214027932Y-103126842D01*
X213915990Y-102856589D01*
X213753475Y-102613368D01*
X213546632Y-102406525D01*
X213364466Y-102284805D01*
X213481355Y-102215178D01*
X213697588Y-102020269D01*
X213871641Y-101786920D01*
X213996825Y-101524099D01*
X214041476Y-101376890D01*
X213920155Y-101147000D01*
X212727000Y-101147000D01*
X212727000Y-101167000D01*
X212473000Y-101167000D01*
X212473000Y-101147000D01*
X212453000Y-101147000D01*
X212453000Y-100893000D01*
X212473000Y-100893000D01*
X212473000Y-100873000D01*
X212727000Y-100873000D01*
X212727000Y-100893000D01*
X213920155Y-100893000D01*
X214041476Y-100663110D01*
X214010201Y-100560000D01*
X215362678Y-100560000D01*
X215400000Y-100563676D01*
X215437322Y-100560000D01*
X215437333Y-100560000D01*
X215548986Y-100549003D01*
X215692247Y-100505546D01*
X215824276Y-100434974D01*
X215940001Y-100340001D01*
X215963804Y-100310997D01*
X218711003Y-97563799D01*
X218740001Y-97540001D01*
X218779192Y-97492247D01*
X218834974Y-97424277D01*
X218905546Y-97292247D01*
X218916544Y-97255990D01*
X218949003Y-97148986D01*
X218960000Y-97037333D01*
X218960000Y-97037323D01*
X218963676Y-97000000D01*
X218960000Y-96962677D01*
X218960000Y-86537322D01*
X218963676Y-86500000D01*
X218960000Y-86462677D01*
X218960000Y-86462667D01*
X218949003Y-86351014D01*
X218905546Y-86207753D01*
X218875209Y-86150997D01*
X218834974Y-86075723D01*
X218763799Y-85988997D01*
X218740001Y-85959999D01*
X218711004Y-85936202D01*
X208663804Y-75889003D01*
X208640001Y-75859999D01*
X208524276Y-75765026D01*
X208392247Y-75694454D01*
X208248986Y-75650997D01*
X208137333Y-75640000D01*
X208137322Y-75640000D01*
X208100000Y-75636324D01*
X208062678Y-75640000D01*
X98237333Y-75640000D01*
X98200000Y-75636323D01*
X98162667Y-75640000D01*
X98051014Y-75650997D01*
X97907753Y-75694454D01*
X97775724Y-75765026D01*
X97659999Y-75859999D01*
X97636201Y-75888997D01*
X80885199Y-92640000D01*
X80088072Y-92640000D01*
X80088072Y-92550000D01*
X80075812Y-92425518D01*
X80039502Y-92305820D01*
X79980537Y-92195506D01*
X79901185Y-92098815D01*
X79804494Y-92019463D01*
X79694180Y-91960498D01*
X79574482Y-91924188D01*
X79450000Y-91911928D01*
X77750000Y-91911928D01*
X77625518Y-91924188D01*
X77505820Y-91960498D01*
X77395506Y-92019463D01*
X77298815Y-92098815D01*
X77219463Y-92195506D01*
X77160498Y-92305820D01*
X77138487Y-92378380D01*
X77006632Y-92246525D01*
X76763411Y-92084010D01*
X76493158Y-91972068D01*
X76206260Y-91915000D01*
X75913740Y-91915000D01*
X75626842Y-91972068D01*
X75356589Y-92084010D01*
X75113368Y-92246525D01*
X74906525Y-92453368D01*
X74781822Y-92640000D01*
X73037323Y-92640000D01*
X73000000Y-92636324D01*
X72962677Y-92640000D01*
X72962667Y-92640000D01*
X72851014Y-92650997D01*
X72707753Y-92694454D01*
X72575724Y-92765026D01*
X72459999Y-92859999D01*
X72436202Y-92888996D01*
X70288998Y-95036201D01*
X70260000Y-95059999D01*
X70236202Y-95088997D01*
X70236201Y-95088998D01*
X70165026Y-95175724D01*
X70094454Y-95307754D01*
X70068572Y-95393080D01*
X70051609Y-95449002D01*
X70050998Y-95451015D01*
X70036324Y-95600000D01*
X70040001Y-95637333D01*
X70040000Y-126462678D01*
X70036324Y-126500000D01*
X70040000Y-126537322D01*
X70040000Y-126537332D01*
X70050997Y-126648985D01*
X70094454Y-126792246D01*
X70165026Y-126924276D01*
X70197362Y-126963677D01*
X70259999Y-127040001D01*
X70289003Y-127063804D01*
X74236201Y-131011003D01*
X74259999Y-131040001D01*
X74375724Y-131134974D01*
X74507753Y-131205546D01*
X74651014Y-131249003D01*
X74762667Y-131260000D01*
X74762676Y-131260000D01*
X74799999Y-131263676D01*
X74837322Y-131260000D01*
X121562678Y-131260000D01*
X121600000Y-131263676D01*
X121637322Y-131260000D01*
X121637333Y-131260000D01*
X121748986Y-131249003D01*
X121892247Y-131205546D01*
X122024276Y-131134974D01*
X122140001Y-131040001D01*
X122163804Y-131010997D01*
X124411003Y-128763799D01*
X124440001Y-128740001D01*
X124534974Y-128624276D01*
X124605546Y-128492247D01*
X124649003Y-128348986D01*
X124660000Y-128237333D01*
X124660000Y-128237324D01*
X124663676Y-128200001D01*
X124660000Y-128162678D01*
X124660000Y-127793991D01*
X124802010Y-127699103D01*
X124999103Y-127502010D01*
X125153957Y-127270254D01*
X125170000Y-127231523D01*
X125186043Y-127270254D01*
X125340897Y-127502010D01*
X125537990Y-127699103D01*
X125769746Y-127853957D01*
X126027260Y-127960623D01*
X126300635Y-128015000D01*
X126579365Y-128015000D01*
X126852740Y-127960623D01*
X127110254Y-127853957D01*
X127342010Y-127699103D01*
X127539103Y-127502010D01*
X127693957Y-127270254D01*
X127710000Y-127231523D01*
X127726043Y-127270254D01*
X127880897Y-127502010D01*
X128077990Y-127699103D01*
X128309746Y-127853957D01*
X128567260Y-127960623D01*
X128840635Y-128015000D01*
X129119365Y-128015000D01*
X129392740Y-127960623D01*
X129650254Y-127853957D01*
X129882010Y-127699103D01*
X130079103Y-127502010D01*
X130233957Y-127270254D01*
X130250000Y-127231523D01*
X130266043Y-127270254D01*
X130420897Y-127502010D01*
X130617990Y-127699103D01*
X130849746Y-127853957D01*
X131107260Y-127960623D01*
X131380635Y-128015000D01*
X131659365Y-128015000D01*
X131932740Y-127960623D01*
X132190254Y-127853957D01*
X132422010Y-127699103D01*
X132619103Y-127502010D01*
X132773957Y-127270254D01*
X132790000Y-127231523D01*
X132806043Y-127270254D01*
X132960897Y-127502010D01*
X133157990Y-127699103D01*
X133389746Y-127853957D01*
X133647260Y-127960623D01*
X133920635Y-128015000D01*
X134199365Y-128015000D01*
X134472740Y-127960623D01*
X134730254Y-127853957D01*
X134962010Y-127699103D01*
X135159103Y-127502010D01*
X135313957Y-127270254D01*
X135420623Y-127012740D01*
X135475000Y-126739365D01*
X135475000Y-126460635D01*
X135420623Y-126187260D01*
X135313957Y-125929746D01*
X135159103Y-125697990D01*
X134962010Y-125500897D01*
X134730254Y-125346043D01*
X134472740Y-125239377D01*
X134199365Y-125185000D01*
X133920635Y-125185000D01*
X133647260Y-125239377D01*
X133389746Y-125346043D01*
X133157990Y-125500897D01*
X132960897Y-125697990D01*
X132806043Y-125929746D01*
X132790000Y-125968477D01*
X132773957Y-125929746D01*
X132619103Y-125697990D01*
X132422010Y-125500897D01*
X132190254Y-125346043D01*
X131932740Y-125239377D01*
X131659365Y-125185000D01*
X131380635Y-125185000D01*
X131107260Y-125239377D01*
X130849746Y-125346043D01*
X130617990Y-125500897D01*
X130420897Y-125697990D01*
X130266043Y-125929746D01*
X130250000Y-125968477D01*
X130233957Y-125929746D01*
X130079103Y-125697990D01*
X129882010Y-125500897D01*
X129650254Y-125346043D01*
X129392740Y-125239377D01*
X129119365Y-125185000D01*
X128840635Y-125185000D01*
X128567260Y-125239377D01*
X128309746Y-125346043D01*
X128077990Y-125500897D01*
X127880897Y-125697990D01*
X127726043Y-125929746D01*
X127710000Y-125968477D01*
X127693957Y-125929746D01*
X127539103Y-125697990D01*
X127342010Y-125500897D01*
X127110254Y-125346043D01*
X126852740Y-125239377D01*
X126579365Y-125185000D01*
X126300635Y-125185000D01*
X126027260Y-125239377D01*
X125769746Y-125346043D01*
X125537990Y-125500897D01*
X125340897Y-125697990D01*
X125186043Y-125929746D01*
X125170000Y-125968477D01*
X125153957Y-125929746D01*
X124999103Y-125697990D01*
X124802010Y-125500897D01*
X124570254Y-125346043D01*
X124312740Y-125239377D01*
X124039365Y-125185000D01*
X123760635Y-125185000D01*
X123487260Y-125239377D01*
X123229746Y-125346043D01*
X122997990Y-125500897D01*
X122800897Y-125697990D01*
X122646043Y-125929746D01*
X122631223Y-125965525D01*
X122580349Y-125870345D01*
X122338421Y-125801184D01*
X121539605Y-126600000D01*
X122338421Y-127398816D01*
X122580349Y-127329655D01*
X122628425Y-127227721D01*
X122646043Y-127270254D01*
X122800897Y-127502010D01*
X122997990Y-127699103D01*
X123140001Y-127793991D01*
X123140001Y-127885197D01*
X121285199Y-129740000D01*
X114194873Y-129740000D01*
X114204276Y-129734974D01*
X114320001Y-129640001D01*
X114343804Y-129610997D01*
X115973122Y-127981680D01*
X116140635Y-128015000D01*
X116419365Y-128015000D01*
X116692740Y-127960623D01*
X116950254Y-127853957D01*
X117182010Y-127699103D01*
X117379103Y-127502010D01*
X117533957Y-127270254D01*
X117550000Y-127231523D01*
X117566043Y-127270254D01*
X117720897Y-127502010D01*
X117917990Y-127699103D01*
X118149746Y-127853957D01*
X118407260Y-127960623D01*
X118680635Y-128015000D01*
X118959365Y-128015000D01*
X119232740Y-127960623D01*
X119490254Y-127853957D01*
X119722010Y-127699103D01*
X119842692Y-127578421D01*
X120561184Y-127578421D01*
X120630345Y-127820349D01*
X120882443Y-127939248D01*
X121152894Y-128006681D01*
X121431303Y-128020057D01*
X121706972Y-127978860D01*
X121969308Y-127884675D01*
X122089655Y-127820349D01*
X122158816Y-127578421D01*
X121360000Y-126779605D01*
X120561184Y-127578421D01*
X119842692Y-127578421D01*
X119919103Y-127502010D01*
X120073957Y-127270254D01*
X120088777Y-127234475D01*
X120139651Y-127329655D01*
X120381579Y-127398816D01*
X121180395Y-126600000D01*
X120381579Y-125801184D01*
X120139651Y-125870345D01*
X120091575Y-125972279D01*
X120073957Y-125929746D01*
X119919103Y-125697990D01*
X119842692Y-125621579D01*
X120561184Y-125621579D01*
X121360000Y-126420395D01*
X122158816Y-125621579D01*
X122089655Y-125379651D01*
X121837557Y-125260752D01*
X121567106Y-125193319D01*
X121288697Y-125179943D01*
X121013028Y-125221140D01*
X120750692Y-125315325D01*
X120630345Y-125379651D01*
X120561184Y-125621579D01*
X119842692Y-125621579D01*
X119722010Y-125500897D01*
X119490254Y-125346043D01*
X119232740Y-125239377D01*
X118959365Y-125185000D01*
X118680635Y-125185000D01*
X118407260Y-125239377D01*
X118149746Y-125346043D01*
X117917990Y-125500897D01*
X117720897Y-125697990D01*
X117566043Y-125929746D01*
X117550000Y-125968477D01*
X117533957Y-125929746D01*
X117379103Y-125697990D01*
X117182010Y-125500897D01*
X116950254Y-125346043D01*
X116692740Y-125239377D01*
X116419365Y-125185000D01*
X116140635Y-125185000D01*
X115867260Y-125239377D01*
X115609746Y-125346043D01*
X115377990Y-125500897D01*
X115180897Y-125697990D01*
X115026043Y-125929746D01*
X115010000Y-125968477D01*
X114993957Y-125929746D01*
X114839103Y-125697990D01*
X114642010Y-125500897D01*
X114410254Y-125346043D01*
X114152740Y-125239377D01*
X113879365Y-125185000D01*
X113600635Y-125185000D01*
X113327260Y-125239377D01*
X113069746Y-125346043D01*
X112837990Y-125500897D01*
X112640897Y-125697990D01*
X112486043Y-125929746D01*
X112470000Y-125968477D01*
X112453957Y-125929746D01*
X112299103Y-125697990D01*
X112102010Y-125500897D01*
X111870254Y-125346043D01*
X111612740Y-125239377D01*
X111339365Y-125185000D01*
X111060635Y-125185000D01*
X110787260Y-125239377D01*
X110529746Y-125346043D01*
X110297990Y-125500897D01*
X110100897Y-125697990D01*
X109946043Y-125929746D01*
X109930000Y-125968477D01*
X109913957Y-125929746D01*
X109759103Y-125697990D01*
X109562010Y-125500897D01*
X109330254Y-125346043D01*
X109072740Y-125239377D01*
X108799365Y-125185000D01*
X108520635Y-125185000D01*
X108247260Y-125239377D01*
X107989746Y-125346043D01*
X107757990Y-125500897D01*
X107560897Y-125697990D01*
X107406043Y-125929746D01*
X107390000Y-125968477D01*
X107373957Y-125929746D01*
X107219103Y-125697990D01*
X107022010Y-125500897D01*
X106790254Y-125346043D01*
X106532740Y-125239377D01*
X106259365Y-125185000D01*
X105980635Y-125185000D01*
X105707260Y-125239377D01*
X105449746Y-125346043D01*
X105217990Y-125500897D01*
X105020897Y-125697990D01*
X104866043Y-125929746D01*
X104850000Y-125968477D01*
X104833957Y-125929746D01*
X104679103Y-125697990D01*
X104482010Y-125500897D01*
X104250254Y-125346043D01*
X103992740Y-125239377D01*
X103719365Y-125185000D01*
X103440635Y-125185000D01*
X103167260Y-125239377D01*
X102909746Y-125346043D01*
X102677990Y-125500897D01*
X102480897Y-125697990D01*
X102326043Y-125929746D01*
X102310000Y-125968477D01*
X102293957Y-125929746D01*
X102139103Y-125697990D01*
X101942010Y-125500897D01*
X101710254Y-125346043D01*
X101452740Y-125239377D01*
X101179365Y-125185000D01*
X100900635Y-125185000D01*
X100627260Y-125239377D01*
X100369746Y-125346043D01*
X100137990Y-125500897D01*
X99940897Y-125697990D01*
X99786043Y-125929746D01*
X99770000Y-125968477D01*
X99753957Y-125929746D01*
X99599103Y-125697990D01*
X99402010Y-125500897D01*
X99170254Y-125346043D01*
X98912740Y-125239377D01*
X98639365Y-125185000D01*
X98360635Y-125185000D01*
X98087260Y-125239377D01*
X97829746Y-125346043D01*
X97597990Y-125500897D01*
X97400897Y-125697990D01*
X97246043Y-125929746D01*
X97230000Y-125968477D01*
X97213957Y-125929746D01*
X97059103Y-125697990D01*
X96862010Y-125500897D01*
X96630254Y-125346043D01*
X96372740Y-125239377D01*
X96099365Y-125185000D01*
X95820635Y-125185000D01*
X95547260Y-125239377D01*
X95289746Y-125346043D01*
X95057990Y-125500897D01*
X94860897Y-125697990D01*
X94706043Y-125929746D01*
X94690000Y-125968477D01*
X94673957Y-125929746D01*
X94519103Y-125697990D01*
X94322010Y-125500897D01*
X94090254Y-125346043D01*
X93832740Y-125239377D01*
X93559365Y-125185000D01*
X93280635Y-125185000D01*
X93007260Y-125239377D01*
X92749746Y-125346043D01*
X92517990Y-125500897D01*
X92320897Y-125697990D01*
X92166043Y-125929746D01*
X92150000Y-125968477D01*
X92133957Y-125929746D01*
X91979103Y-125697990D01*
X91782010Y-125500897D01*
X91550254Y-125346043D01*
X91292740Y-125239377D01*
X91019365Y-125185000D01*
X90740635Y-125185000D01*
X90467260Y-125239377D01*
X90209746Y-125346043D01*
X89977990Y-125500897D01*
X89780897Y-125697990D01*
X89750531Y-125743436D01*
X89745812Y-125695518D01*
X89709502Y-125575820D01*
X89650537Y-125465506D01*
X89571185Y-125368815D01*
X89474494Y-125289463D01*
X89364180Y-125230498D01*
X89244482Y-125194188D01*
X89225000Y-125192269D01*
X89225000Y-123826578D01*
X93766579Y-119285000D01*
X140263421Y-119285000D01*
X138604956Y-120943466D01*
X138571183Y-120971183D01*
X138460589Y-121105942D01*
X138378411Y-121259688D01*
X138327805Y-121426511D01*
X138315000Y-121556524D01*
X138315000Y-121556531D01*
X138310719Y-121600000D01*
X138315000Y-121643469D01*
X138315001Y-129556521D01*
X138310719Y-129600000D01*
X138327805Y-129773490D01*
X138378412Y-129940313D01*
X138460590Y-130094059D01*
X138543468Y-130195046D01*
X138543471Y-130195049D01*
X138571184Y-130228817D01*
X138604951Y-130256529D01*
X139743470Y-131395049D01*
X139771183Y-131428817D01*
X139804951Y-131456530D01*
X139804953Y-131456532D01*
X139876452Y-131515210D01*
X139905941Y-131539411D01*
X140047360Y-131615000D01*
X68785000Y-131615000D01*
X68785000Y-72985000D01*
X222415000Y-72985000D01*
X222415001Y-131615000D01*
%TA.AperFunction,Conductor*%
D20*
G36*
X222415001Y-131615000D02*
G01*
X176252640Y-131615000D01*
X176394059Y-131539411D01*
X176528817Y-131428817D01*
X176556534Y-131395044D01*
X178895050Y-129056529D01*
X178928817Y-129028817D01*
X178976117Y-128971183D01*
X179039411Y-128894059D01*
X179121589Y-128740314D01*
X179172195Y-128573490D01*
X179173524Y-128559999D01*
X179185000Y-128443477D01*
X179185000Y-128443469D01*
X179189281Y-128400000D01*
X179185000Y-128356531D01*
X179185000Y-126984625D01*
X179274482Y-126975812D01*
X179394180Y-126939502D01*
X179504494Y-126880537D01*
X179601185Y-126801185D01*
X179680537Y-126704494D01*
X179739502Y-126594180D01*
X179775812Y-126474482D01*
X179784625Y-126385000D01*
X180556531Y-126385000D01*
X180600000Y-126389281D01*
X180643469Y-126385000D01*
X180643477Y-126385000D01*
X180773490Y-126372195D01*
X180940313Y-126321589D01*
X181094059Y-126239411D01*
X181228817Y-126128817D01*
X181256534Y-126095044D01*
X187195051Y-120156528D01*
X187228817Y-120128817D01*
X187339411Y-119994059D01*
X187421589Y-119840313D01*
X187472195Y-119673490D01*
X187485000Y-119543477D01*
X187485000Y-119543467D01*
X187489281Y-119500001D01*
X187485000Y-119456535D01*
X187485000Y-110357163D01*
X187549482Y-110350812D01*
X187669180Y-110314502D01*
X187779494Y-110255537D01*
X187876185Y-110176185D01*
X187955537Y-110079494D01*
X188014502Y-109969180D01*
X188032286Y-109910551D01*
X188309054Y-109910551D01*
X188383663Y-110157073D01*
X188643439Y-110280473D01*
X188922297Y-110350823D01*
X189209521Y-110365417D01*
X189494074Y-110323697D01*
X189765020Y-110227265D01*
X189896337Y-110157073D01*
X189970946Y-109910551D01*
X189140000Y-109079605D01*
X188309054Y-109910551D01*
X188032286Y-109910551D01*
X188050812Y-109849482D01*
X188063072Y-109725000D01*
X188063072Y-109710857D01*
X188129449Y-109730946D01*
X188960395Y-108900000D01*
X189319605Y-108900000D01*
X190150551Y-109730946D01*
X190397073Y-109656337D01*
X190410523Y-109628023D01*
X190545944Y-109830696D01*
X190749304Y-110034056D01*
X190988431Y-110193835D01*
X191254134Y-110303893D01*
X191536203Y-110360000D01*
X191823797Y-110360000D01*
X192105866Y-110303893D01*
X192371569Y-110193835D01*
X192610696Y-110034056D01*
X192814056Y-109830696D01*
X192950000Y-109627241D01*
X193085944Y-109830696D01*
X193289304Y-110034056D01*
X193528431Y-110193835D01*
X193794134Y-110303893D01*
X194076203Y-110360000D01*
X194363797Y-110360000D01*
X194645866Y-110303893D01*
X194911569Y-110193835D01*
X195150696Y-110034056D01*
X195354056Y-109830696D01*
X195490000Y-109627241D01*
X195625944Y-109830696D01*
X195829304Y-110034056D01*
X196068431Y-110193835D01*
X196334134Y-110303893D01*
X196616203Y-110360000D01*
X196903797Y-110360000D01*
X197185866Y-110303893D01*
X197451569Y-110193835D01*
X197690696Y-110034056D01*
X197894056Y-109830696D01*
X198030000Y-109627241D01*
X198165944Y-109830696D01*
X198369304Y-110034056D01*
X198608431Y-110193835D01*
X198874134Y-110303893D01*
X199156203Y-110360000D01*
X199443797Y-110360000D01*
X199725866Y-110303893D01*
X199991569Y-110193835D01*
X200230696Y-110034056D01*
X200354201Y-109910551D01*
X201009054Y-109910551D01*
X201083663Y-110157073D01*
X201343439Y-110280473D01*
X201622297Y-110350823D01*
X201909521Y-110365417D01*
X202194074Y-110323697D01*
X202465020Y-110227265D01*
X202596337Y-110157073D01*
X202670946Y-109910551D01*
X201840000Y-109079605D01*
X201009054Y-109910551D01*
X200354201Y-109910551D01*
X200434056Y-109830696D01*
X200568541Y-109629424D01*
X200582927Y-109656337D01*
X200829449Y-109730946D01*
X201660395Y-108900000D01*
X202019605Y-108900000D01*
X202850551Y-109730946D01*
X203097073Y-109656337D01*
X203220473Y-109396561D01*
X203290823Y-109117703D01*
X203305417Y-108830479D01*
X203263697Y-108545926D01*
X203167265Y-108274980D01*
X203097073Y-108143663D01*
X202850551Y-108069054D01*
X202019605Y-108900000D01*
X201660395Y-108900000D01*
X200829449Y-108069054D01*
X200582927Y-108143663D01*
X200569477Y-108171977D01*
X200434056Y-107969304D01*
X200354201Y-107889449D01*
X201009054Y-107889449D01*
X201840000Y-108720395D01*
X202670946Y-107889449D01*
X202596337Y-107642927D01*
X202336561Y-107519527D01*
X202057703Y-107449177D01*
X201770479Y-107434583D01*
X201485926Y-107476303D01*
X201214980Y-107572735D01*
X201083663Y-107642927D01*
X201009054Y-107889449D01*
X200354201Y-107889449D01*
X200230696Y-107765944D01*
X199991569Y-107606165D01*
X199725866Y-107496107D01*
X199443797Y-107440000D01*
X199156203Y-107440000D01*
X198874134Y-107496107D01*
X198608431Y-107606165D01*
X198369304Y-107765944D01*
X198165944Y-107969304D01*
X198030000Y-108172759D01*
X197894056Y-107969304D01*
X197690696Y-107765944D01*
X197451569Y-107606165D01*
X197185866Y-107496107D01*
X196903797Y-107440000D01*
X196616203Y-107440000D01*
X196334134Y-107496107D01*
X196068431Y-107606165D01*
X195829304Y-107765944D01*
X195625944Y-107969304D01*
X195490000Y-108172759D01*
X195354056Y-107969304D01*
X195150696Y-107765944D01*
X194911569Y-107606165D01*
X194645866Y-107496107D01*
X194363797Y-107440000D01*
X194076203Y-107440000D01*
X193794134Y-107496107D01*
X193528431Y-107606165D01*
X193289304Y-107765944D01*
X193085944Y-107969304D01*
X192950000Y-108172759D01*
X192814056Y-107969304D01*
X192610696Y-107765944D01*
X192371569Y-107606165D01*
X192105866Y-107496107D01*
X191823797Y-107440000D01*
X191536203Y-107440000D01*
X191254134Y-107496107D01*
X190988431Y-107606165D01*
X190749304Y-107765944D01*
X190545944Y-107969304D01*
X190411459Y-108170576D01*
X190397073Y-108143663D01*
X190150551Y-108069054D01*
X189319605Y-108900000D01*
X188960395Y-108900000D01*
X188129449Y-108069054D01*
X188063072Y-108089143D01*
X188063072Y-108075000D01*
X188050812Y-107950518D01*
X188032287Y-107889449D01*
X188309054Y-107889449D01*
X189140000Y-108720395D01*
X189970946Y-107889449D01*
X189896337Y-107642927D01*
X189636561Y-107519527D01*
X189357703Y-107449177D01*
X189070479Y-107434583D01*
X188785926Y-107476303D01*
X188514980Y-107572735D01*
X188383663Y-107642927D01*
X188309054Y-107889449D01*
X188032287Y-107889449D01*
X188014502Y-107830820D01*
X187955537Y-107720506D01*
X187876185Y-107623815D01*
X187779494Y-107544463D01*
X187669180Y-107485498D01*
X187549482Y-107449188D01*
X187425000Y-107436928D01*
X185775000Y-107436928D01*
X185650518Y-107449188D01*
X185530820Y-107485498D01*
X185420506Y-107544463D01*
X185323815Y-107623815D01*
X185244463Y-107720506D01*
X185185498Y-107830820D01*
X185149188Y-107950518D01*
X185136928Y-108075000D01*
X185136928Y-109725000D01*
X185149188Y-109849482D01*
X185185498Y-109969180D01*
X185244463Y-110079494D01*
X185323815Y-110176185D01*
X185420506Y-110255537D01*
X185530820Y-110314502D01*
X185650518Y-110350812D01*
X185715001Y-110357163D01*
X185715000Y-119133421D01*
X180233422Y-124615000D01*
X179784625Y-124615000D01*
X179775812Y-124525518D01*
X179739502Y-124405820D01*
X179680537Y-124295506D01*
X179601185Y-124198815D01*
X179504494Y-124119463D01*
X179394180Y-124060498D01*
X179274482Y-124024188D01*
X179150000Y-124011928D01*
X177450000Y-124011928D01*
X177325518Y-124024188D01*
X177205820Y-124060498D01*
X177095506Y-124119463D01*
X176998815Y-124198815D01*
X176919463Y-124295506D01*
X176860498Y-124405820D01*
X176838487Y-124478380D01*
X176706632Y-124346525D01*
X176463411Y-124184010D01*
X176193158Y-124072068D01*
X175906260Y-124015000D01*
X175613740Y-124015000D01*
X175326842Y-124072068D01*
X175056589Y-124184010D01*
X174813368Y-124346525D01*
X174606525Y-124553368D01*
X174484805Y-124735534D01*
X174415178Y-124618645D01*
X174220269Y-124402412D01*
X173986920Y-124228359D01*
X173724099Y-124103175D01*
X173576890Y-124058524D01*
X173347000Y-124179845D01*
X173347000Y-125373000D01*
X173367000Y-125373000D01*
X173367000Y-125627000D01*
X173347000Y-125627000D01*
X173347000Y-126820155D01*
X173576890Y-126941476D01*
X173724099Y-126896825D01*
X173986920Y-126771641D01*
X174220269Y-126597588D01*
X174415178Y-126381355D01*
X174484805Y-126264466D01*
X174606525Y-126446632D01*
X174813368Y-126653475D01*
X175056589Y-126815990D01*
X175326842Y-126927932D01*
X175613740Y-126985000D01*
X175906260Y-126985000D01*
X176193158Y-126927932D01*
X176463411Y-126815990D01*
X176706632Y-126653475D01*
X176838487Y-126521620D01*
X176860498Y-126594180D01*
X176919463Y-126704494D01*
X176998815Y-126801185D01*
X177095506Y-126880537D01*
X177205820Y-126939502D01*
X177325518Y-126975812D01*
X177415000Y-126984625D01*
X177415000Y-128033421D01*
X175533422Y-129915000D01*
X143000685Y-129915000D01*
X143031252Y-129904157D01*
X143281355Y-129755178D01*
X143497588Y-129560269D01*
X143671641Y-129326920D01*
X143796825Y-129064099D01*
X143841476Y-128916890D01*
X143720155Y-128687000D01*
X142527000Y-128687000D01*
X142527000Y-128707000D01*
X142273000Y-128707000D01*
X142273000Y-128687000D01*
X141079845Y-128687000D01*
X140958524Y-128916890D01*
X141003175Y-129064099D01*
X141128359Y-129326920D01*
X141302412Y-129560269D01*
X141518645Y-129755178D01*
X141768748Y-129904157D01*
X141799315Y-129915000D01*
X140766579Y-129915000D01*
X140085000Y-129233422D01*
X140085000Y-121966578D01*
X140923348Y-121128230D01*
X140972068Y-121373158D01*
X141084010Y-121643411D01*
X141246525Y-121886632D01*
X141453368Y-122093475D01*
X141627760Y-122210000D01*
X141453368Y-122326525D01*
X141246525Y-122533368D01*
X141084010Y-122776589D01*
X140972068Y-123046842D01*
X140915000Y-123333740D01*
X140915000Y-123626260D01*
X140972068Y-123913158D01*
X141084010Y-124183411D01*
X141246525Y-124426632D01*
X141453368Y-124633475D01*
X141627760Y-124750000D01*
X141453368Y-124866525D01*
X141246525Y-125073368D01*
X141084010Y-125316589D01*
X140972068Y-125586842D01*
X140915000Y-125873740D01*
X140915000Y-126166260D01*
X140972068Y-126453158D01*
X141084010Y-126723411D01*
X141246525Y-126966632D01*
X141453368Y-127173475D01*
X141635534Y-127295195D01*
X141518645Y-127364822D01*
X141302412Y-127559731D01*
X141128359Y-127793080D01*
X141003175Y-128055901D01*
X140958524Y-128203110D01*
X141079845Y-128433000D01*
X142273000Y-128433000D01*
X142273000Y-128413000D01*
X142527000Y-128413000D01*
X142527000Y-128433000D01*
X143720155Y-128433000D01*
X143841476Y-128203110D01*
X143796825Y-128055901D01*
X143671641Y-127793080D01*
X143497588Y-127559731D01*
X143281355Y-127364822D01*
X143164466Y-127295195D01*
X143346632Y-127173475D01*
X143553475Y-126966632D01*
X143715990Y-126723411D01*
X143827932Y-126453158D01*
X143885000Y-126166260D01*
X143885000Y-125873740D01*
X143827932Y-125586842D01*
X143731379Y-125353740D01*
X166655000Y-125353740D01*
X166655000Y-125646260D01*
X166712068Y-125933158D01*
X166824010Y-126203411D01*
X166986525Y-126446632D01*
X167193368Y-126653475D01*
X167436589Y-126815990D01*
X167706842Y-126927932D01*
X167993740Y-126985000D01*
X168286260Y-126985000D01*
X168573158Y-126927932D01*
X168843411Y-126815990D01*
X169086632Y-126653475D01*
X169293475Y-126446632D01*
X169410000Y-126272240D01*
X169526525Y-126446632D01*
X169733368Y-126653475D01*
X169976589Y-126815990D01*
X170246842Y-126927932D01*
X170533740Y-126985000D01*
X170826260Y-126985000D01*
X171113158Y-126927932D01*
X171383411Y-126815990D01*
X171626632Y-126653475D01*
X171833475Y-126446632D01*
X171955195Y-126264466D01*
X172024822Y-126381355D01*
X172219731Y-126597588D01*
X172453080Y-126771641D01*
X172715901Y-126896825D01*
X172863110Y-126941476D01*
X173093000Y-126820155D01*
X173093000Y-125627000D01*
X173073000Y-125627000D01*
X173073000Y-125373000D01*
X173093000Y-125373000D01*
X173093000Y-124179845D01*
X172863110Y-124058524D01*
X172715901Y-124103175D01*
X172453080Y-124228359D01*
X172219731Y-124402412D01*
X172024822Y-124618645D01*
X171955195Y-124735534D01*
X171833475Y-124553368D01*
X171626632Y-124346525D01*
X171383411Y-124184010D01*
X171113158Y-124072068D01*
X170826260Y-124015000D01*
X170533740Y-124015000D01*
X170246842Y-124072068D01*
X169976589Y-124184010D01*
X169733368Y-124346525D01*
X169526525Y-124553368D01*
X169410000Y-124727760D01*
X169293475Y-124553368D01*
X169086632Y-124346525D01*
X168843411Y-124184010D01*
X168573158Y-124072068D01*
X168286260Y-124015000D01*
X167993740Y-124015000D01*
X167706842Y-124072068D01*
X167436589Y-124184010D01*
X167193368Y-124346525D01*
X166986525Y-124553368D01*
X166824010Y-124796589D01*
X166712068Y-125066842D01*
X166655000Y-125353740D01*
X143731379Y-125353740D01*
X143715990Y-125316589D01*
X143553475Y-125073368D01*
X143346632Y-124866525D01*
X143172240Y-124750000D01*
X143346632Y-124633475D01*
X143553475Y-124426632D01*
X143715990Y-124183411D01*
X143827932Y-123913158D01*
X143885000Y-123626260D01*
X143885000Y-123333740D01*
X143827932Y-123046842D01*
X143715990Y-122776589D01*
X143553475Y-122533368D01*
X143346632Y-122326525D01*
X143172240Y-122210000D01*
X143346632Y-122093475D01*
X143553475Y-121886632D01*
X143715990Y-121643411D01*
X143827932Y-121373158D01*
X143885000Y-121086260D01*
X143885000Y-120793740D01*
X143827932Y-120506842D01*
X143715990Y-120236589D01*
X143553475Y-119993368D01*
X143421620Y-119861513D01*
X143494180Y-119839502D01*
X143604494Y-119780537D01*
X143701185Y-119701185D01*
X143780537Y-119604494D01*
X143839502Y-119494180D01*
X143875812Y-119374482D01*
X143888072Y-119250000D01*
X143888072Y-117550000D01*
X143875812Y-117425518D01*
X143839502Y-117305820D01*
X143780537Y-117195506D01*
X143701185Y-117098815D01*
X143604494Y-117019463D01*
X143494180Y-116960498D01*
X143374482Y-116924188D01*
X143250000Y-116911928D01*
X141550000Y-116911928D01*
X141425518Y-116924188D01*
X141305820Y-116960498D01*
X141195506Y-117019463D01*
X141098815Y-117098815D01*
X141019463Y-117195506D01*
X140960498Y-117305820D01*
X140924188Y-117425518D01*
X140915375Y-117515000D01*
X93443469Y-117515000D01*
X93400000Y-117510719D01*
X93356531Y-117515000D01*
X93356523Y-117515000D01*
X93226510Y-117527805D01*
X93059686Y-117578411D01*
X92905941Y-117660589D01*
X92804953Y-117743468D01*
X92804951Y-117743470D01*
X92771183Y-117771183D01*
X92743470Y-117804951D01*
X87744956Y-122803466D01*
X87711183Y-122831183D01*
X87600589Y-122965942D01*
X87518411Y-123119688D01*
X87467805Y-123286511D01*
X87455000Y-123416524D01*
X87455000Y-123416531D01*
X87450719Y-123460000D01*
X87455000Y-123503469D01*
X87455001Y-125192269D01*
X87435518Y-125194188D01*
X87315820Y-125230498D01*
X87205506Y-125289463D01*
X87108815Y-125368815D01*
X87029463Y-125465506D01*
X86970498Y-125575820D01*
X86934188Y-125695518D01*
X86921928Y-125820000D01*
X86921928Y-127380000D01*
X86934188Y-127504482D01*
X86970498Y-127624180D01*
X87029463Y-127734494D01*
X87108815Y-127831185D01*
X87205506Y-127910537D01*
X87315820Y-127969502D01*
X87435518Y-128005812D01*
X87560000Y-128018072D01*
X89120000Y-128018072D01*
X89244482Y-128005812D01*
X89364180Y-127969502D01*
X89474494Y-127910537D01*
X89571185Y-127831185D01*
X89650537Y-127734494D01*
X89709502Y-127624180D01*
X89745812Y-127504482D01*
X89750531Y-127456564D01*
X89780897Y-127502010D01*
X89977990Y-127699103D01*
X90209746Y-127853957D01*
X90467260Y-127960623D01*
X90740635Y-128015000D01*
X91019365Y-128015000D01*
X91292740Y-127960623D01*
X91550254Y-127853957D01*
X91782010Y-127699103D01*
X91979103Y-127502010D01*
X92133957Y-127270254D01*
X92150000Y-127231523D01*
X92166043Y-127270254D01*
X92320897Y-127502010D01*
X92517990Y-127699103D01*
X92749746Y-127853957D01*
X93007260Y-127960623D01*
X93280635Y-128015000D01*
X93559365Y-128015000D01*
X93832740Y-127960623D01*
X94090254Y-127853957D01*
X94322010Y-127699103D01*
X94519103Y-127502010D01*
X94673957Y-127270254D01*
X94690000Y-127231523D01*
X94706043Y-127270254D01*
X94860897Y-127502010D01*
X95057990Y-127699103D01*
X95289746Y-127853957D01*
X95547260Y-127960623D01*
X95820635Y-128015000D01*
X96099365Y-128015000D01*
X96372740Y-127960623D01*
X96630254Y-127853957D01*
X96862010Y-127699103D01*
X97059103Y-127502010D01*
X97213957Y-127270254D01*
X97230000Y-127231523D01*
X97246043Y-127270254D01*
X97400897Y-127502010D01*
X97597990Y-127699103D01*
X97829746Y-127853957D01*
X98087260Y-127960623D01*
X98360635Y-128015000D01*
X98639365Y-128015000D01*
X98912740Y-127960623D01*
X99170254Y-127853957D01*
X99402010Y-127699103D01*
X99599103Y-127502010D01*
X99753957Y-127270254D01*
X99770000Y-127231523D01*
X99786043Y-127270254D01*
X99940897Y-127502010D01*
X100137990Y-127699103D01*
X100369746Y-127853957D01*
X100627260Y-127960623D01*
X100900635Y-128015000D01*
X101179365Y-128015000D01*
X101452740Y-127960623D01*
X101710254Y-127853957D01*
X101942010Y-127699103D01*
X102139103Y-127502010D01*
X102293957Y-127270254D01*
X102310000Y-127231523D01*
X102326043Y-127270254D01*
X102480897Y-127502010D01*
X102677990Y-127699103D01*
X102909746Y-127853957D01*
X103167260Y-127960623D01*
X103440635Y-128015000D01*
X103719365Y-128015000D01*
X103992740Y-127960623D01*
X104250254Y-127853957D01*
X104482010Y-127699103D01*
X104679103Y-127502010D01*
X104833957Y-127270254D01*
X104850000Y-127231523D01*
X104866043Y-127270254D01*
X105020897Y-127502010D01*
X105217990Y-127699103D01*
X105449746Y-127853957D01*
X105707260Y-127960623D01*
X105980635Y-128015000D01*
X106259365Y-128015000D01*
X106532740Y-127960623D01*
X106790254Y-127853957D01*
X107022010Y-127699103D01*
X107219103Y-127502010D01*
X107373957Y-127270254D01*
X107390000Y-127231523D01*
X107406043Y-127270254D01*
X107560897Y-127502010D01*
X107757990Y-127699103D01*
X107989746Y-127853957D01*
X108247260Y-127960623D01*
X108520635Y-128015000D01*
X108799365Y-128015000D01*
X109072740Y-127960623D01*
X109330254Y-127853957D01*
X109562010Y-127699103D01*
X109759103Y-127502010D01*
X109913957Y-127270254D01*
X109930000Y-127231523D01*
X109946043Y-127270254D01*
X110100897Y-127502010D01*
X110297990Y-127699103D01*
X110529746Y-127853957D01*
X110787260Y-127960623D01*
X111060635Y-128015000D01*
X111339365Y-128015000D01*
X111612740Y-127960623D01*
X111870254Y-127853957D01*
X112102010Y-127699103D01*
X112299103Y-127502010D01*
X112453957Y-127270254D01*
X112470000Y-127231523D01*
X112486043Y-127270254D01*
X112640897Y-127502010D01*
X112837990Y-127699103D01*
X113069746Y-127853957D01*
X113327260Y-127960623D01*
X113600635Y-128015000D01*
X113790199Y-128015000D01*
X113465199Y-128340000D01*
X75307284Y-128340000D01*
X72760000Y-125877627D01*
X72760000Y-110420834D01*
X73808803Y-109400000D01*
X74781822Y-109400000D01*
X74906525Y-109586632D01*
X75113368Y-109793475D01*
X75287760Y-109910000D01*
X75113368Y-110026525D01*
X74906525Y-110233368D01*
X74744010Y-110476589D01*
X74632068Y-110746842D01*
X74575000Y-111033740D01*
X74575000Y-111326260D01*
X74632068Y-111613158D01*
X74744010Y-111883411D01*
X74906525Y-112126632D01*
X75113368Y-112333475D01*
X75356589Y-112495990D01*
X75626842Y-112607932D01*
X75913740Y-112665000D01*
X76206260Y-112665000D01*
X76493158Y-112607932D01*
X76763411Y-112495990D01*
X77006632Y-112333475D01*
X77213475Y-112126632D01*
X77331100Y-111950594D01*
X77502412Y-112180269D01*
X77718645Y-112375178D01*
X77968748Y-112524157D01*
X78243109Y-112621481D01*
X78473000Y-112500814D01*
X78473000Y-111307000D01*
X78727000Y-111307000D01*
X78727000Y-112500814D01*
X78956891Y-112621481D01*
X79231252Y-112524157D01*
X79481355Y-112375178D01*
X79697588Y-112180269D01*
X79871641Y-111946920D01*
X79996825Y-111684099D01*
X80041476Y-111536890D01*
X79920155Y-111307000D01*
X78727000Y-111307000D01*
X78473000Y-111307000D01*
X78453000Y-111307000D01*
X78453000Y-111053000D01*
X78473000Y-111053000D01*
X78473000Y-111033000D01*
X78727000Y-111033000D01*
X78727000Y-111053000D01*
X79920155Y-111053000D01*
X80041476Y-110823110D01*
X79996825Y-110675901D01*
X79989251Y-110660000D01*
X112062678Y-110660000D01*
X112100000Y-110663676D01*
X112137322Y-110660000D01*
X112137333Y-110660000D01*
X112248986Y-110649003D01*
X112392247Y-110605546D01*
X112524276Y-110534974D01*
X112640001Y-110440001D01*
X112663804Y-110410997D01*
X116791003Y-106283799D01*
X116820001Y-106260001D01*
X116914974Y-106144276D01*
X116985546Y-106012247D01*
X117029003Y-105868986D01*
X117040000Y-105757333D01*
X117040000Y-105757325D01*
X117043676Y-105720000D01*
X117040000Y-105682675D01*
X117040000Y-102393991D01*
X117182010Y-102299103D01*
X117379103Y-102102010D01*
X117533957Y-101870254D01*
X117550000Y-101831523D01*
X117566043Y-101870254D01*
X117720897Y-102102010D01*
X117917990Y-102299103D01*
X118149746Y-102453957D01*
X118407260Y-102560623D01*
X118680635Y-102615000D01*
X118959365Y-102615000D01*
X119232740Y-102560623D01*
X119490254Y-102453957D01*
X119722010Y-102299103D01*
X119919103Y-102102010D01*
X120073957Y-101870254D01*
X120090000Y-101831523D01*
X120106043Y-101870254D01*
X120260897Y-102102010D01*
X120457990Y-102299103D01*
X120689746Y-102453957D01*
X120947260Y-102560623D01*
X121220635Y-102615000D01*
X121499365Y-102615000D01*
X121772740Y-102560623D01*
X122030254Y-102453957D01*
X122262010Y-102299103D01*
X122459103Y-102102010D01*
X122613957Y-101870254D01*
X122630000Y-101831523D01*
X122646043Y-101870254D01*
X122800897Y-102102010D01*
X122997990Y-102299103D01*
X123229746Y-102453957D01*
X123487260Y-102560623D01*
X123760635Y-102615000D01*
X124039365Y-102615000D01*
X124312740Y-102560623D01*
X124570254Y-102453957D01*
X124802010Y-102299103D01*
X124999103Y-102102010D01*
X125153957Y-101870254D01*
X125170000Y-101831523D01*
X125186043Y-101870254D01*
X125340897Y-102102010D01*
X125537990Y-102299103D01*
X125769746Y-102453957D01*
X126027260Y-102560623D01*
X126300635Y-102615000D01*
X126579365Y-102615000D01*
X126852740Y-102560623D01*
X127110254Y-102453957D01*
X127342010Y-102299103D01*
X127539103Y-102102010D01*
X127693957Y-101870254D01*
X127710000Y-101831523D01*
X127726043Y-101870254D01*
X127880897Y-102102010D01*
X128077990Y-102299103D01*
X128309746Y-102453957D01*
X128567260Y-102560623D01*
X128840635Y-102615000D01*
X129119365Y-102615000D01*
X129392740Y-102560623D01*
X129650254Y-102453957D01*
X129882010Y-102299103D01*
X130079103Y-102102010D01*
X130233957Y-101870254D01*
X130250000Y-101831523D01*
X130266043Y-101870254D01*
X130420897Y-102102010D01*
X130617990Y-102299103D01*
X130849746Y-102453957D01*
X131107260Y-102560623D01*
X131380635Y-102615000D01*
X131659365Y-102615000D01*
X131932740Y-102560623D01*
X132190254Y-102453957D01*
X132422010Y-102299103D01*
X132619103Y-102102010D01*
X132773957Y-101870254D01*
X132790000Y-101831523D01*
X132806043Y-101870254D01*
X132960897Y-102102010D01*
X133157990Y-102299103D01*
X133389746Y-102453957D01*
X133647260Y-102560623D01*
X133920635Y-102615000D01*
X134199365Y-102615000D01*
X134472740Y-102560623D01*
X134730254Y-102453957D01*
X134962010Y-102299103D01*
X135159103Y-102102010D01*
X135313957Y-101870254D01*
X135420623Y-101612740D01*
X135475000Y-101339365D01*
X135475000Y-101060635D01*
X135420623Y-100787260D01*
X135313957Y-100529746D01*
X135159103Y-100297990D01*
X134962010Y-100100897D01*
X134730254Y-99946043D01*
X134472740Y-99839377D01*
X134199365Y-99785000D01*
X133920635Y-99785000D01*
X133647260Y-99839377D01*
X133389746Y-99946043D01*
X133157990Y-100100897D01*
X132960897Y-100297990D01*
X132806043Y-100529746D01*
X132790000Y-100568477D01*
X132773957Y-100529746D01*
X132619103Y-100297990D01*
X132422010Y-100100897D01*
X132190254Y-99946043D01*
X131932740Y-99839377D01*
X131659365Y-99785000D01*
X131380635Y-99785000D01*
X131107260Y-99839377D01*
X130849746Y-99946043D01*
X130617990Y-100100897D01*
X130420897Y-100297990D01*
X130266043Y-100529746D01*
X130250000Y-100568477D01*
X130233957Y-100529746D01*
X130079103Y-100297990D01*
X129882010Y-100100897D01*
X129650254Y-99946043D01*
X129392740Y-99839377D01*
X129119365Y-99785000D01*
X128840635Y-99785000D01*
X128567260Y-99839377D01*
X128309746Y-99946043D01*
X128077990Y-100100897D01*
X127880897Y-100297990D01*
X127726043Y-100529746D01*
X127710000Y-100568477D01*
X127693957Y-100529746D01*
X127539103Y-100297990D01*
X127342010Y-100100897D01*
X127110254Y-99946043D01*
X126852740Y-99839377D01*
X126579365Y-99785000D01*
X126300635Y-99785000D01*
X126027260Y-99839377D01*
X125769746Y-99946043D01*
X125537990Y-100100897D01*
X125340897Y-100297990D01*
X125186043Y-100529746D01*
X125170000Y-100568477D01*
X125153957Y-100529746D01*
X124999103Y-100297990D01*
X124802010Y-100100897D01*
X124570254Y-99946043D01*
X124312740Y-99839377D01*
X124039365Y-99785000D01*
X123760635Y-99785000D01*
X123487260Y-99839377D01*
X123229746Y-99946043D01*
X122997990Y-100100897D01*
X122800897Y-100297990D01*
X122646043Y-100529746D01*
X122630000Y-100568477D01*
X122613957Y-100529746D01*
X122459103Y-100297990D01*
X122262010Y-100100897D01*
X122030254Y-99946043D01*
X121772740Y-99839377D01*
X121499365Y-99785000D01*
X121220635Y-99785000D01*
X120947260Y-99839377D01*
X120689746Y-99946043D01*
X120457990Y-100100897D01*
X120260897Y-100297990D01*
X120106043Y-100529746D01*
X120090000Y-100568477D01*
X120073957Y-100529746D01*
X119919103Y-100297990D01*
X119722010Y-100100897D01*
X119490254Y-99946043D01*
X119232740Y-99839377D01*
X118959365Y-99785000D01*
X118680635Y-99785000D01*
X118407260Y-99839377D01*
X118149746Y-99946043D01*
X117917990Y-100100897D01*
X117720897Y-100297990D01*
X117566043Y-100529746D01*
X117550000Y-100568477D01*
X117533957Y-100529746D01*
X117379103Y-100297990D01*
X117182010Y-100100897D01*
X116950254Y-99946043D01*
X116692740Y-99839377D01*
X116419365Y-99785000D01*
X116140635Y-99785000D01*
X115867260Y-99839377D01*
X115609746Y-99946043D01*
X115377990Y-100100897D01*
X115180897Y-100297990D01*
X115026043Y-100529746D01*
X115010000Y-100568477D01*
X114993957Y-100529746D01*
X114839103Y-100297990D01*
X114642010Y-100100897D01*
X114410254Y-99946043D01*
X114152740Y-99839377D01*
X113879365Y-99785000D01*
X113600635Y-99785000D01*
X113327260Y-99839377D01*
X113069746Y-99946043D01*
X112837990Y-100100897D01*
X112640897Y-100297990D01*
X112486043Y-100529746D01*
X112470000Y-100568477D01*
X112453957Y-100529746D01*
X112299103Y-100297990D01*
X112102010Y-100100897D01*
X111870254Y-99946043D01*
X111612740Y-99839377D01*
X111339365Y-99785000D01*
X111060635Y-99785000D01*
X110787260Y-99839377D01*
X110529746Y-99946043D01*
X110297990Y-100100897D01*
X110100897Y-100297990D01*
X109946043Y-100529746D01*
X109930000Y-100568477D01*
X109913957Y-100529746D01*
X109759103Y-100297990D01*
X109562010Y-100100897D01*
X109330254Y-99946043D01*
X109072740Y-99839377D01*
X108799365Y-99785000D01*
X108520635Y-99785000D01*
X108247260Y-99839377D01*
X107989746Y-99946043D01*
X107757990Y-100100897D01*
X107560897Y-100297990D01*
X107406043Y-100529746D01*
X107390000Y-100568477D01*
X107373957Y-100529746D01*
X107219103Y-100297990D01*
X107022010Y-100100897D01*
X106790254Y-99946043D01*
X106532740Y-99839377D01*
X106259365Y-99785000D01*
X105980635Y-99785000D01*
X105707260Y-99839377D01*
X105449746Y-99946043D01*
X105217990Y-100100897D01*
X105020897Y-100297990D01*
X104866043Y-100529746D01*
X104851223Y-100565525D01*
X104800349Y-100470345D01*
X104558421Y-100401184D01*
X103759605Y-101200000D01*
X104558421Y-101998816D01*
X104800349Y-101929655D01*
X104848425Y-101827721D01*
X104866043Y-101870254D01*
X105020897Y-102102010D01*
X105217990Y-102299103D01*
X105360000Y-102393991D01*
X105360001Y-104165197D01*
X104185199Y-105340000D01*
X100640002Y-105340000D01*
X100663804Y-105310998D01*
X101551003Y-104423799D01*
X101580001Y-104400001D01*
X101674974Y-104284276D01*
X101745546Y-104152247D01*
X101789003Y-104008986D01*
X101800000Y-103897333D01*
X101800000Y-103897325D01*
X101803676Y-103860000D01*
X101800000Y-103822675D01*
X101800000Y-102393991D01*
X101942010Y-102299103D01*
X102062692Y-102178421D01*
X102781184Y-102178421D01*
X102850345Y-102420349D01*
X103102443Y-102539248D01*
X103372894Y-102606681D01*
X103651303Y-102620057D01*
X103926972Y-102578860D01*
X104189308Y-102484675D01*
X104309655Y-102420349D01*
X104378816Y-102178421D01*
X103580000Y-101379605D01*
X102781184Y-102178421D01*
X102062692Y-102178421D01*
X102139103Y-102102010D01*
X102293957Y-101870254D01*
X102308777Y-101834475D01*
X102359651Y-101929655D01*
X102601579Y-101998816D01*
X103400395Y-101200000D01*
X102601579Y-100401184D01*
X102359651Y-100470345D01*
X102311575Y-100572279D01*
X102293957Y-100529746D01*
X102139103Y-100297990D01*
X102062692Y-100221579D01*
X102781184Y-100221579D01*
X103580000Y-101020395D01*
X104378816Y-100221579D01*
X104309655Y-99979651D01*
X104057557Y-99860752D01*
X103787106Y-99793319D01*
X103508697Y-99779943D01*
X103233028Y-99821140D01*
X102970692Y-99915325D01*
X102850345Y-99979651D01*
X102781184Y-100221579D01*
X102062692Y-100221579D01*
X101942010Y-100100897D01*
X101710254Y-99946043D01*
X101452740Y-99839377D01*
X101179365Y-99785000D01*
X100900635Y-99785000D01*
X100627260Y-99839377D01*
X100369746Y-99946043D01*
X100137990Y-100100897D01*
X99940897Y-100297990D01*
X99786043Y-100529746D01*
X99770000Y-100568477D01*
X99753957Y-100529746D01*
X99599103Y-100297990D01*
X99402010Y-100100897D01*
X99170254Y-99946043D01*
X98912740Y-99839377D01*
X98639365Y-99785000D01*
X98360635Y-99785000D01*
X98087260Y-99839377D01*
X97829746Y-99946043D01*
X97597990Y-100100897D01*
X97400897Y-100297990D01*
X97246043Y-100529746D01*
X97230000Y-100568477D01*
X97213957Y-100529746D01*
X97059103Y-100297990D01*
X96862010Y-100100897D01*
X96630254Y-99946043D01*
X96372740Y-99839377D01*
X96099365Y-99785000D01*
X95820635Y-99785000D01*
X95547260Y-99839377D01*
X95289746Y-99946043D01*
X95057990Y-100100897D01*
X94860897Y-100297990D01*
X94706043Y-100529746D01*
X94690000Y-100568477D01*
X94673957Y-100529746D01*
X94519103Y-100297990D01*
X94322010Y-100100897D01*
X94090254Y-99946043D01*
X93832740Y-99839377D01*
X93559365Y-99785000D01*
X93280635Y-99785000D01*
X93007260Y-99839377D01*
X92749746Y-99946043D01*
X92517990Y-100100897D01*
X92320897Y-100297990D01*
X92166043Y-100529746D01*
X92150000Y-100568477D01*
X92133957Y-100529746D01*
X91979103Y-100297990D01*
X91782010Y-100100897D01*
X91550254Y-99946043D01*
X91292740Y-99839377D01*
X91019365Y-99785000D01*
X90740635Y-99785000D01*
X90467260Y-99839377D01*
X90209746Y-99946043D01*
X89977990Y-100100897D01*
X89780897Y-100297990D01*
X89626043Y-100529746D01*
X89611223Y-100565525D01*
X89560349Y-100470345D01*
X89318421Y-100401184D01*
X88519605Y-101200000D01*
X88533748Y-101214143D01*
X88354143Y-101393748D01*
X88340000Y-101379605D01*
X88325858Y-101393748D01*
X88146253Y-101214143D01*
X88160395Y-101200000D01*
X87361579Y-100401184D01*
X87119651Y-100470345D01*
X87000752Y-100722443D01*
X86933319Y-100992894D01*
X86919943Y-101271303D01*
X86960845Y-101545001D01*
X79986869Y-101545001D01*
X79996825Y-101524099D01*
X80041476Y-101376890D01*
X79920155Y-101147000D01*
X78727000Y-101147000D01*
X78727000Y-101167000D01*
X78473000Y-101167000D01*
X78473000Y-101147000D01*
X78453000Y-101147000D01*
X78453000Y-100893000D01*
X78473000Y-100893000D01*
X78473000Y-100873000D01*
X78727000Y-100873000D01*
X78727000Y-100893000D01*
X79920155Y-100893000D01*
X80041476Y-100663110D01*
X80010201Y-100560000D01*
X85562678Y-100560000D01*
X85600000Y-100563676D01*
X85637322Y-100560000D01*
X85637333Y-100560000D01*
X85748986Y-100549003D01*
X85892247Y-100505546D01*
X86024276Y-100434974D01*
X86140001Y-100340001D01*
X86163804Y-100310997D01*
X86253222Y-100221579D01*
X87541184Y-100221579D01*
X88340000Y-101020395D01*
X89138816Y-100221579D01*
X89069655Y-99979651D01*
X88817557Y-99860752D01*
X88547106Y-99793319D01*
X88268697Y-99779943D01*
X87993028Y-99821140D01*
X87730692Y-99915325D01*
X87610345Y-99979651D01*
X87541184Y-100221579D01*
X86253222Y-100221579D01*
X96674801Y-89800000D01*
X138911686Y-89800000D01*
X138915001Y-89833657D01*
X138915000Y-109766353D01*
X138911686Y-109800000D01*
X138924912Y-109934283D01*
X138964081Y-110063406D01*
X139027688Y-110182407D01*
X139113289Y-110286711D01*
X139191409Y-110350823D01*
X139217593Y-110372312D01*
X139336594Y-110435919D01*
X139465717Y-110475088D01*
X139600000Y-110488314D01*
X139633647Y-110485000D01*
X175566353Y-110485000D01*
X175600000Y-110488314D01*
X175734283Y-110475088D01*
X175863406Y-110435919D01*
X175982407Y-110372312D01*
X176086711Y-110286711D01*
X176172312Y-110182407D01*
X176235919Y-110063406D01*
X176275088Y-109934283D01*
X176285000Y-109833647D01*
X176285000Y-109833646D01*
X176288314Y-109800000D01*
X176285000Y-109766353D01*
X176285000Y-97850000D01*
X182411928Y-97850000D01*
X182411928Y-99550000D01*
X182424188Y-99674482D01*
X182460498Y-99794180D01*
X182519463Y-99904494D01*
X182598815Y-100001185D01*
X182695506Y-100080537D01*
X182805820Y-100139502D01*
X182925518Y-100175812D01*
X183050000Y-100188072D01*
X184750000Y-100188072D01*
X184874482Y-100175812D01*
X184994180Y-100139502D01*
X185104494Y-100080537D01*
X185201185Y-100001185D01*
X185280537Y-99904494D01*
X185339502Y-99794180D01*
X185375812Y-99674482D01*
X185388072Y-99550000D01*
X185388072Y-97850000D01*
X185375812Y-97725518D01*
X185339502Y-97605820D01*
X185280537Y-97495506D01*
X185201185Y-97398815D01*
X185104494Y-97319463D01*
X184994180Y-97260498D01*
X184913534Y-97236034D01*
X184997588Y-97160269D01*
X185171641Y-96926920D01*
X185296825Y-96664099D01*
X185341476Y-96516890D01*
X185220155Y-96287000D01*
X184027000Y-96287000D01*
X184027000Y-96307000D01*
X183773000Y-96307000D01*
X183773000Y-96287000D01*
X182579845Y-96287000D01*
X182458524Y-96516890D01*
X182503175Y-96664099D01*
X182628359Y-96926920D01*
X182802412Y-97160269D01*
X182886466Y-97236034D01*
X182805820Y-97260498D01*
X182695506Y-97319463D01*
X182598815Y-97398815D01*
X182519463Y-97495506D01*
X182460498Y-97605820D01*
X182424188Y-97725518D01*
X182411928Y-97850000D01*
X176285000Y-97850000D01*
X176285000Y-95803110D01*
X182458524Y-95803110D01*
X182579845Y-96033000D01*
X183773000Y-96033000D01*
X183773000Y-94839186D01*
X184027000Y-94839186D01*
X184027000Y-96033000D01*
X185220155Y-96033000D01*
X185341476Y-95803110D01*
X185296825Y-95655901D01*
X185171641Y-95393080D01*
X184997588Y-95159731D01*
X184781355Y-94964822D01*
X184531252Y-94815843D01*
X184256891Y-94718519D01*
X184027000Y-94839186D01*
X183773000Y-94839186D01*
X183543109Y-94718519D01*
X183268748Y-94815843D01*
X183018645Y-94964822D01*
X182802412Y-95159731D01*
X182628359Y-95393080D01*
X182503175Y-95655901D01*
X182458524Y-95803110D01*
X176285000Y-95803110D01*
X176285000Y-89833647D01*
X176288314Y-89800000D01*
X176275088Y-89665717D01*
X176235919Y-89536594D01*
X176172312Y-89417593D01*
X176086711Y-89313289D01*
X175982407Y-89227688D01*
X175863406Y-89164081D01*
X175734283Y-89124912D01*
X175633647Y-89115000D01*
X175600000Y-89111686D01*
X175566353Y-89115000D01*
X139633647Y-89115000D01*
X139600000Y-89111686D01*
X139566353Y-89115000D01*
X139465717Y-89124912D01*
X139336594Y-89164081D01*
X139217593Y-89227688D01*
X139113289Y-89313289D01*
X139027688Y-89417593D01*
X138964081Y-89536594D01*
X138924912Y-89665717D01*
X138911686Y-89800000D01*
X96674801Y-89800000D01*
X98714802Y-87760000D01*
X193585199Y-87760000D01*
X202276201Y-96451003D01*
X202299999Y-96480001D01*
X202415724Y-96574974D01*
X202547753Y-96645546D01*
X202691014Y-96689003D01*
X202802667Y-96700000D01*
X202802676Y-96700000D01*
X202839999Y-96703676D01*
X202877322Y-96700000D01*
X208781822Y-96700000D01*
X208906525Y-96886632D01*
X209113368Y-97093475D01*
X209287760Y-97210000D01*
X209113368Y-97326525D01*
X208906525Y-97533368D01*
X208744010Y-97776589D01*
X208632068Y-98046842D01*
X208575000Y-98333740D01*
X208575000Y-98626260D01*
X208632068Y-98913158D01*
X208744010Y-99183411D01*
X208906525Y-99426632D01*
X209113368Y-99633475D01*
X209287760Y-99750000D01*
X209113368Y-99866525D01*
X208906525Y-100073368D01*
X208744010Y-100316589D01*
X208632068Y-100586842D01*
X208575000Y-100873740D01*
X208575000Y-101166260D01*
X208632068Y-101453158D01*
X208744010Y-101723411D01*
X208906525Y-101966632D01*
X209113368Y-102173475D01*
X209287760Y-102290000D01*
X209113368Y-102406525D01*
X208906525Y-102613368D01*
X208744010Y-102856589D01*
X208632068Y-103126842D01*
X208575000Y-103413740D01*
X208575000Y-103706260D01*
X208632068Y-103993158D01*
X208744010Y-104263411D01*
X208906525Y-104506632D01*
X209113368Y-104713475D01*
X209287760Y-104830000D01*
X209113368Y-104946525D01*
X208906525Y-105153368D01*
X208744010Y-105396589D01*
X208632068Y-105666842D01*
X208575000Y-105953740D01*
X208575000Y-106246260D01*
X208632068Y-106533158D01*
X208744010Y-106803411D01*
X208906525Y-107046632D01*
X209113368Y-107253475D01*
X209287760Y-107370000D01*
X209113368Y-107486525D01*
X208906525Y-107693368D01*
X208744010Y-107936589D01*
X208632068Y-108206842D01*
X208575000Y-108493740D01*
X208575000Y-108786260D01*
X208632068Y-109073158D01*
X208744010Y-109343411D01*
X208906525Y-109586632D01*
X209113368Y-109793475D01*
X209287760Y-109910000D01*
X209113368Y-110026525D01*
X208906525Y-110233368D01*
X208744010Y-110476589D01*
X208632068Y-110746842D01*
X208575000Y-111033740D01*
X208575000Y-111326260D01*
X208632068Y-111613158D01*
X208744010Y-111883411D01*
X208906525Y-112126632D01*
X209113368Y-112333475D01*
X209356589Y-112495990D01*
X209626842Y-112607932D01*
X209913740Y-112665000D01*
X210206260Y-112665000D01*
X210493158Y-112607932D01*
X210763411Y-112495990D01*
X211006632Y-112333475D01*
X211213475Y-112126632D01*
X211331100Y-111950594D01*
X211502412Y-112180269D01*
X211718645Y-112375178D01*
X211968748Y-112524157D01*
X212243109Y-112621481D01*
X212473000Y-112500814D01*
X212473000Y-111307000D01*
X212727000Y-111307000D01*
X212727000Y-112500814D01*
X212956891Y-112621481D01*
X213231252Y-112524157D01*
X213481355Y-112375178D01*
X213697588Y-112180269D01*
X213871641Y-111946920D01*
X213996825Y-111684099D01*
X214041476Y-111536890D01*
X213920155Y-111307000D01*
X212727000Y-111307000D01*
X212473000Y-111307000D01*
X212453000Y-111307000D01*
X212453000Y-111053000D01*
X212473000Y-111053000D01*
X212473000Y-111033000D01*
X212727000Y-111033000D01*
X212727000Y-111053000D01*
X213920155Y-111053000D01*
X214041476Y-110823110D01*
X213996825Y-110675901D01*
X213871641Y-110413080D01*
X213697588Y-110179731D01*
X213481355Y-109984822D01*
X213364466Y-109915195D01*
X213546632Y-109793475D01*
X213753475Y-109586632D01*
X213915990Y-109343411D01*
X214027932Y-109073158D01*
X214085000Y-108786260D01*
X214085000Y-108493740D01*
X214027932Y-108206842D01*
X213915990Y-107936589D01*
X213753475Y-107693368D01*
X213546632Y-107486525D01*
X213372240Y-107370000D01*
X213546632Y-107253475D01*
X213753475Y-107046632D01*
X213915990Y-106803411D01*
X214027932Y-106533158D01*
X214085000Y-106246260D01*
X214085000Y-105953740D01*
X214027932Y-105666842D01*
X213915990Y-105396589D01*
X213753475Y-105153368D01*
X213546632Y-104946525D01*
X213372240Y-104830000D01*
X213546632Y-104713475D01*
X213753475Y-104506632D01*
X213915990Y-104263411D01*
X214027932Y-103993158D01*
X214085000Y-103706260D01*
X214085000Y-103413740D01*
X214027932Y-103126842D01*
X213915990Y-102856589D01*
X213753475Y-102613368D01*
X213546632Y-102406525D01*
X213364466Y-102284805D01*
X213481355Y-102215178D01*
X213697588Y-102020269D01*
X213871641Y-101786920D01*
X213996825Y-101524099D01*
X214041476Y-101376890D01*
X213920155Y-101147000D01*
X212727000Y-101147000D01*
X212727000Y-101167000D01*
X212473000Y-101167000D01*
X212473000Y-101147000D01*
X212453000Y-101147000D01*
X212453000Y-100893000D01*
X212473000Y-100893000D01*
X212473000Y-100873000D01*
X212727000Y-100873000D01*
X212727000Y-100893000D01*
X213920155Y-100893000D01*
X214041476Y-100663110D01*
X214010201Y-100560000D01*
X215362678Y-100560000D01*
X215400000Y-100563676D01*
X215437322Y-100560000D01*
X215437333Y-100560000D01*
X215548986Y-100549003D01*
X215692247Y-100505546D01*
X215824276Y-100434974D01*
X215940001Y-100340001D01*
X215963804Y-100310997D01*
X218711003Y-97563799D01*
X218740001Y-97540001D01*
X218779192Y-97492247D01*
X218834974Y-97424277D01*
X218905546Y-97292247D01*
X218916544Y-97255990D01*
X218949003Y-97148986D01*
X218960000Y-97037333D01*
X218960000Y-97037323D01*
X218963676Y-97000000D01*
X218960000Y-96962677D01*
X218960000Y-86537322D01*
X218963676Y-86500000D01*
X218960000Y-86462677D01*
X218960000Y-86462667D01*
X218949003Y-86351014D01*
X218905546Y-86207753D01*
X218875209Y-86150997D01*
X218834974Y-86075723D01*
X218763799Y-85988997D01*
X218740001Y-85959999D01*
X218711004Y-85936202D01*
X208663804Y-75889003D01*
X208640001Y-75859999D01*
X208524276Y-75765026D01*
X208392247Y-75694454D01*
X208248986Y-75650997D01*
X208137333Y-75640000D01*
X208137322Y-75640000D01*
X208100000Y-75636324D01*
X208062678Y-75640000D01*
X98237333Y-75640000D01*
X98200000Y-75636323D01*
X98162667Y-75640000D01*
X98051014Y-75650997D01*
X97907753Y-75694454D01*
X97775724Y-75765026D01*
X97659999Y-75859999D01*
X97636201Y-75888997D01*
X80885199Y-92640000D01*
X80088072Y-92640000D01*
X80088072Y-92550000D01*
X80075812Y-92425518D01*
X80039502Y-92305820D01*
X79980537Y-92195506D01*
X79901185Y-92098815D01*
X79804494Y-92019463D01*
X79694180Y-91960498D01*
X79574482Y-91924188D01*
X79450000Y-91911928D01*
X77750000Y-91911928D01*
X77625518Y-91924188D01*
X77505820Y-91960498D01*
X77395506Y-92019463D01*
X77298815Y-92098815D01*
X77219463Y-92195506D01*
X77160498Y-92305820D01*
X77138487Y-92378380D01*
X77006632Y-92246525D01*
X76763411Y-92084010D01*
X76493158Y-91972068D01*
X76206260Y-91915000D01*
X75913740Y-91915000D01*
X75626842Y-91972068D01*
X75356589Y-92084010D01*
X75113368Y-92246525D01*
X74906525Y-92453368D01*
X74781822Y-92640000D01*
X73037323Y-92640000D01*
X73000000Y-92636324D01*
X72962677Y-92640000D01*
X72962667Y-92640000D01*
X72851014Y-92650997D01*
X72707753Y-92694454D01*
X72575724Y-92765026D01*
X72459999Y-92859999D01*
X72436202Y-92888996D01*
X70288998Y-95036201D01*
X70260000Y-95059999D01*
X70236202Y-95088997D01*
X70236201Y-95088998D01*
X70165026Y-95175724D01*
X70094454Y-95307754D01*
X70068572Y-95393080D01*
X70051609Y-95449002D01*
X70050998Y-95451015D01*
X70036324Y-95600000D01*
X70040001Y-95637333D01*
X70040000Y-126462678D01*
X70036324Y-126500000D01*
X70040000Y-126537322D01*
X70040000Y-126537332D01*
X70050997Y-126648985D01*
X70094454Y-126792246D01*
X70165026Y-126924276D01*
X70197362Y-126963677D01*
X70259999Y-127040001D01*
X70289003Y-127063804D01*
X74236201Y-131011003D01*
X74259999Y-131040001D01*
X74375724Y-131134974D01*
X74507753Y-131205546D01*
X74651014Y-131249003D01*
X74762667Y-131260000D01*
X74762676Y-131260000D01*
X74799999Y-131263676D01*
X74837322Y-131260000D01*
X121562678Y-131260000D01*
X121600000Y-131263676D01*
X121637322Y-131260000D01*
X121637333Y-131260000D01*
X121748986Y-131249003D01*
X121892247Y-131205546D01*
X122024276Y-131134974D01*
X122140001Y-131040001D01*
X122163804Y-131010997D01*
X124411003Y-128763799D01*
X124440001Y-128740001D01*
X124534974Y-128624276D01*
X124605546Y-128492247D01*
X124649003Y-128348986D01*
X124660000Y-128237333D01*
X124660000Y-128237324D01*
X124663676Y-128200001D01*
X124660000Y-128162678D01*
X124660000Y-127793991D01*
X124802010Y-127699103D01*
X124999103Y-127502010D01*
X125153957Y-127270254D01*
X125170000Y-127231523D01*
X125186043Y-127270254D01*
X125340897Y-127502010D01*
X125537990Y-127699103D01*
X125769746Y-127853957D01*
X126027260Y-127960623D01*
X126300635Y-128015000D01*
X126579365Y-128015000D01*
X126852740Y-127960623D01*
X127110254Y-127853957D01*
X127342010Y-127699103D01*
X127539103Y-127502010D01*
X127693957Y-127270254D01*
X127710000Y-127231523D01*
X127726043Y-127270254D01*
X127880897Y-127502010D01*
X128077990Y-127699103D01*
X128309746Y-127853957D01*
X128567260Y-127960623D01*
X128840635Y-128015000D01*
X129119365Y-128015000D01*
X129392740Y-127960623D01*
X129650254Y-127853957D01*
X129882010Y-127699103D01*
X130079103Y-127502010D01*
X130233957Y-127270254D01*
X130250000Y-127231523D01*
X130266043Y-127270254D01*
X130420897Y-127502010D01*
X130617990Y-127699103D01*
X130849746Y-127853957D01*
X131107260Y-127960623D01*
X131380635Y-128015000D01*
X131659365Y-128015000D01*
X131932740Y-127960623D01*
X132190254Y-127853957D01*
X132422010Y-127699103D01*
X132619103Y-127502010D01*
X132773957Y-127270254D01*
X132790000Y-127231523D01*
X132806043Y-127270254D01*
X132960897Y-127502010D01*
X133157990Y-127699103D01*
X133389746Y-127853957D01*
X133647260Y-127960623D01*
X133920635Y-128015000D01*
X134199365Y-128015000D01*
X134472740Y-127960623D01*
X134730254Y-127853957D01*
X134962010Y-127699103D01*
X135159103Y-127502010D01*
X135313957Y-127270254D01*
X135420623Y-127012740D01*
X135475000Y-126739365D01*
X135475000Y-126460635D01*
X135420623Y-126187260D01*
X135313957Y-125929746D01*
X135159103Y-125697990D01*
X134962010Y-125500897D01*
X134730254Y-125346043D01*
X134472740Y-125239377D01*
X134199365Y-125185000D01*
X133920635Y-125185000D01*
X133647260Y-125239377D01*
X133389746Y-125346043D01*
X133157990Y-125500897D01*
X132960897Y-125697990D01*
X132806043Y-125929746D01*
X132790000Y-125968477D01*
X132773957Y-125929746D01*
X132619103Y-125697990D01*
X132422010Y-125500897D01*
X132190254Y-125346043D01*
X131932740Y-125239377D01*
X131659365Y-125185000D01*
X131380635Y-125185000D01*
X131107260Y-125239377D01*
X130849746Y-125346043D01*
X130617990Y-125500897D01*
X130420897Y-125697990D01*
X130266043Y-125929746D01*
X130250000Y-125968477D01*
X130233957Y-125929746D01*
X130079103Y-125697990D01*
X129882010Y-125500897D01*
X129650254Y-125346043D01*
X129392740Y-125239377D01*
X129119365Y-125185000D01*
X128840635Y-125185000D01*
X128567260Y-125239377D01*
X128309746Y-125346043D01*
X128077990Y-125500897D01*
X127880897Y-125697990D01*
X127726043Y-125929746D01*
X127710000Y-125968477D01*
X127693957Y-125929746D01*
X127539103Y-125697990D01*
X127342010Y-125500897D01*
X127110254Y-125346043D01*
X126852740Y-125239377D01*
X126579365Y-125185000D01*
X126300635Y-125185000D01*
X126027260Y-125239377D01*
X125769746Y-125346043D01*
X125537990Y-125500897D01*
X125340897Y-125697990D01*
X125186043Y-125929746D01*
X125170000Y-125968477D01*
X125153957Y-125929746D01*
X124999103Y-125697990D01*
X124802010Y-125500897D01*
X124570254Y-125346043D01*
X124312740Y-125239377D01*
X124039365Y-125185000D01*
X123760635Y-125185000D01*
X123487260Y-125239377D01*
X123229746Y-125346043D01*
X122997990Y-125500897D01*
X122800897Y-125697990D01*
X122646043Y-125929746D01*
X122631223Y-125965525D01*
X122580349Y-125870345D01*
X122338421Y-125801184D01*
X121539605Y-126600000D01*
X122338421Y-127398816D01*
X122580349Y-127329655D01*
X122628425Y-127227721D01*
X122646043Y-127270254D01*
X122800897Y-127502010D01*
X122997990Y-127699103D01*
X123140001Y-127793991D01*
X123140001Y-127885197D01*
X121285199Y-129740000D01*
X114194873Y-129740000D01*
X114204276Y-129734974D01*
X114320001Y-129640001D01*
X114343804Y-129610997D01*
X115973122Y-127981680D01*
X116140635Y-128015000D01*
X116419365Y-128015000D01*
X116692740Y-127960623D01*
X116950254Y-127853957D01*
X117182010Y-127699103D01*
X117379103Y-127502010D01*
X117533957Y-127270254D01*
X117550000Y-127231523D01*
X117566043Y-127270254D01*
X117720897Y-127502010D01*
X117917990Y-127699103D01*
X118149746Y-127853957D01*
X118407260Y-127960623D01*
X118680635Y-128015000D01*
X118959365Y-128015000D01*
X119232740Y-127960623D01*
X119490254Y-127853957D01*
X119722010Y-127699103D01*
X119842692Y-127578421D01*
X120561184Y-127578421D01*
X120630345Y-127820349D01*
X120882443Y-127939248D01*
X121152894Y-128006681D01*
X121431303Y-128020057D01*
X121706972Y-127978860D01*
X121969308Y-127884675D01*
X122089655Y-127820349D01*
X122158816Y-127578421D01*
X121360000Y-126779605D01*
X120561184Y-127578421D01*
X119842692Y-127578421D01*
X119919103Y-127502010D01*
X120073957Y-127270254D01*
X120088777Y-127234475D01*
X120139651Y-127329655D01*
X120381579Y-127398816D01*
X121180395Y-126600000D01*
X120381579Y-125801184D01*
X120139651Y-125870345D01*
X120091575Y-125972279D01*
X120073957Y-125929746D01*
X119919103Y-125697990D01*
X119842692Y-125621579D01*
X120561184Y-125621579D01*
X121360000Y-126420395D01*
X122158816Y-125621579D01*
X122089655Y-125379651D01*
X121837557Y-125260752D01*
X121567106Y-125193319D01*
X121288697Y-125179943D01*
X121013028Y-125221140D01*
X120750692Y-125315325D01*
X120630345Y-125379651D01*
X120561184Y-125621579D01*
X119842692Y-125621579D01*
X119722010Y-125500897D01*
X119490254Y-125346043D01*
X119232740Y-125239377D01*
X118959365Y-125185000D01*
X118680635Y-125185000D01*
X118407260Y-125239377D01*
X118149746Y-125346043D01*
X117917990Y-125500897D01*
X117720897Y-125697990D01*
X117566043Y-125929746D01*
X117550000Y-125968477D01*
X117533957Y-125929746D01*
X117379103Y-125697990D01*
X117182010Y-125500897D01*
X116950254Y-125346043D01*
X116692740Y-125239377D01*
X116419365Y-125185000D01*
X116140635Y-125185000D01*
X115867260Y-125239377D01*
X115609746Y-125346043D01*
X115377990Y-125500897D01*
X115180897Y-125697990D01*
X115026043Y-125929746D01*
X115010000Y-125968477D01*
X114993957Y-125929746D01*
X114839103Y-125697990D01*
X114642010Y-125500897D01*
X114410254Y-125346043D01*
X114152740Y-125239377D01*
X113879365Y-125185000D01*
X113600635Y-125185000D01*
X113327260Y-125239377D01*
X113069746Y-125346043D01*
X112837990Y-125500897D01*
X112640897Y-125697990D01*
X112486043Y-125929746D01*
X112470000Y-125968477D01*
X112453957Y-125929746D01*
X112299103Y-125697990D01*
X112102010Y-125500897D01*
X111870254Y-125346043D01*
X111612740Y-125239377D01*
X111339365Y-125185000D01*
X111060635Y-125185000D01*
X110787260Y-125239377D01*
X110529746Y-125346043D01*
X110297990Y-125500897D01*
X110100897Y-125697990D01*
X109946043Y-125929746D01*
X109930000Y-125968477D01*
X109913957Y-125929746D01*
X109759103Y-125697990D01*
X109562010Y-125500897D01*
X109330254Y-125346043D01*
X109072740Y-125239377D01*
X108799365Y-125185000D01*
X108520635Y-125185000D01*
X108247260Y-125239377D01*
X107989746Y-125346043D01*
X107757990Y-125500897D01*
X107560897Y-125697990D01*
X107406043Y-125929746D01*
X107390000Y-125968477D01*
X107373957Y-125929746D01*
X107219103Y-125697990D01*
X107022010Y-125500897D01*
X106790254Y-125346043D01*
X106532740Y-125239377D01*
X106259365Y-125185000D01*
X105980635Y-125185000D01*
X105707260Y-125239377D01*
X105449746Y-125346043D01*
X105217990Y-125500897D01*
X105020897Y-125697990D01*
X104866043Y-125929746D01*
X104850000Y-125968477D01*
X104833957Y-125929746D01*
X104679103Y-125697990D01*
X104482010Y-125500897D01*
X104250254Y-125346043D01*
X103992740Y-125239377D01*
X103719365Y-125185000D01*
X103440635Y-125185000D01*
X103167260Y-125239377D01*
X102909746Y-125346043D01*
X102677990Y-125500897D01*
X102480897Y-125697990D01*
X102326043Y-125929746D01*
X102310000Y-125968477D01*
X102293957Y-125929746D01*
X102139103Y-125697990D01*
X101942010Y-125500897D01*
X101710254Y-125346043D01*
X101452740Y-125239377D01*
X101179365Y-125185000D01*
X100900635Y-125185000D01*
X100627260Y-125239377D01*
X100369746Y-125346043D01*
X100137990Y-125500897D01*
X99940897Y-125697990D01*
X99786043Y-125929746D01*
X99770000Y-125968477D01*
X99753957Y-125929746D01*
X99599103Y-125697990D01*
X99402010Y-125500897D01*
X99170254Y-125346043D01*
X98912740Y-125239377D01*
X98639365Y-125185000D01*
X98360635Y-125185000D01*
X98087260Y-125239377D01*
X97829746Y-125346043D01*
X97597990Y-125500897D01*
X97400897Y-125697990D01*
X97246043Y-125929746D01*
X97230000Y-125968477D01*
X97213957Y-125929746D01*
X97059103Y-125697990D01*
X96862010Y-125500897D01*
X96630254Y-125346043D01*
X96372740Y-125239377D01*
X96099365Y-125185000D01*
X95820635Y-125185000D01*
X95547260Y-125239377D01*
X95289746Y-125346043D01*
X95057990Y-125500897D01*
X94860897Y-125697990D01*
X94706043Y-125929746D01*
X94690000Y-125968477D01*
X94673957Y-125929746D01*
X94519103Y-125697990D01*
X94322010Y-125500897D01*
X94090254Y-125346043D01*
X93832740Y-125239377D01*
X93559365Y-125185000D01*
X93280635Y-125185000D01*
X93007260Y-125239377D01*
X92749746Y-125346043D01*
X92517990Y-125500897D01*
X92320897Y-125697990D01*
X92166043Y-125929746D01*
X92150000Y-125968477D01*
X92133957Y-125929746D01*
X91979103Y-125697990D01*
X91782010Y-125500897D01*
X91550254Y-125346043D01*
X91292740Y-125239377D01*
X91019365Y-125185000D01*
X90740635Y-125185000D01*
X90467260Y-125239377D01*
X90209746Y-125346043D01*
X89977990Y-125500897D01*
X89780897Y-125697990D01*
X89750531Y-125743436D01*
X89745812Y-125695518D01*
X89709502Y-125575820D01*
X89650537Y-125465506D01*
X89571185Y-125368815D01*
X89474494Y-125289463D01*
X89364180Y-125230498D01*
X89244482Y-125194188D01*
X89225000Y-125192269D01*
X89225000Y-123826578D01*
X93766579Y-119285000D01*
X140263421Y-119285000D01*
X138604956Y-120943466D01*
X138571183Y-120971183D01*
X138460589Y-121105942D01*
X138378411Y-121259688D01*
X138327805Y-121426511D01*
X138315000Y-121556524D01*
X138315000Y-121556531D01*
X138310719Y-121600000D01*
X138315000Y-121643469D01*
X138315001Y-129556521D01*
X138310719Y-129600000D01*
X138327805Y-129773490D01*
X138378412Y-129940313D01*
X138460590Y-130094059D01*
X138543468Y-130195046D01*
X138543471Y-130195049D01*
X138571184Y-130228817D01*
X138604951Y-130256529D01*
X139743470Y-131395049D01*
X139771183Y-131428817D01*
X139804951Y-131456530D01*
X139804953Y-131456532D01*
X139876452Y-131515210D01*
X139905941Y-131539411D01*
X140047360Y-131615000D01*
X68785000Y-131615000D01*
X68785000Y-72985000D01*
X222415000Y-72985000D01*
X222415001Y-131615000D01*
G37*
%TD.AperFunction*%
D19*
X215740001Y-87214803D02*
X215740000Y-96885198D01*
X214905199Y-97720000D01*
X213878178Y-97720000D01*
X213753475Y-97533368D01*
X213546632Y-97326525D01*
X213364466Y-97204805D01*
X213481355Y-97135178D01*
X213697588Y-96940269D01*
X213871641Y-96706920D01*
X213996825Y-96444099D01*
X214041476Y-96296890D01*
X213920155Y-96067000D01*
X212727000Y-96067000D01*
X212727000Y-96087000D01*
X212473000Y-96087000D01*
X212473000Y-96067000D01*
X212453000Y-96067000D01*
X212453000Y-95813000D01*
X212473000Y-95813000D01*
X212473000Y-95793000D01*
X212727000Y-95793000D01*
X212727000Y-95813000D01*
X213920155Y-95813000D01*
X214041476Y-95583110D01*
X213996825Y-95435901D01*
X213871641Y-95173080D01*
X213697588Y-94939731D01*
X213613534Y-94863966D01*
X213694180Y-94839502D01*
X213804494Y-94780537D01*
X213901185Y-94701185D01*
X213980537Y-94604494D01*
X214039502Y-94494180D01*
X214075812Y-94374482D01*
X214088072Y-94250000D01*
X214088072Y-92550000D01*
X214075812Y-92425518D01*
X214039502Y-92305820D01*
X213980537Y-92195506D01*
X213901185Y-92098815D01*
X213804494Y-92019463D01*
X213694180Y-91960498D01*
X213574482Y-91924188D01*
X213450000Y-91911928D01*
X211750000Y-91911928D01*
X211625518Y-91924188D01*
X211505820Y-91960498D01*
X211395506Y-92019463D01*
X211298815Y-92098815D01*
X211219463Y-92195506D01*
X211160498Y-92305820D01*
X211138487Y-92378380D01*
X211006632Y-92246525D01*
X210763411Y-92084010D01*
X210493158Y-91972068D01*
X210206260Y-91915000D01*
X209913740Y-91915000D01*
X209626842Y-91972068D01*
X209356589Y-92084010D01*
X209113368Y-92246525D01*
X208906525Y-92453368D01*
X208781822Y-92640000D01*
X204114803Y-92640000D01*
X195263804Y-83789003D01*
X195240001Y-83759999D01*
X195124276Y-83665026D01*
X194992247Y-83594454D01*
X194848986Y-83550997D01*
X194737333Y-83540000D01*
X194737322Y-83540000D01*
X194700000Y-83536324D01*
X194662678Y-83540000D01*
X97137323Y-83540000D01*
X97100000Y-83536324D01*
X97062677Y-83540000D01*
X97062667Y-83540000D01*
X96951014Y-83550997D01*
X96807753Y-83594454D01*
X96675723Y-83665026D01*
X96592083Y-83733668D01*
X96559999Y-83759999D01*
X96536201Y-83788997D01*
X83885199Y-96440000D01*
X79998068Y-96440000D01*
X80041476Y-96296890D01*
X79920155Y-96067000D01*
X78727000Y-96067000D01*
X78727000Y-96087000D01*
X78473000Y-96087000D01*
X78473000Y-96067000D01*
X78453000Y-96067000D01*
X78453000Y-95813000D01*
X78473000Y-95813000D01*
X78473000Y-95793000D01*
X78727000Y-95793000D01*
X78727000Y-95813000D01*
X79920155Y-95813000D01*
X80041476Y-95583110D01*
X80023850Y-95524999D01*
X81697679Y-95524999D01*
X81735001Y-95528675D01*
X81772323Y-95524999D01*
X81772334Y-95524999D01*
X81883987Y-95514002D01*
X82027248Y-95470545D01*
X82159277Y-95399973D01*
X82275002Y-95305000D01*
X82298805Y-95275996D01*
X98914802Y-78660000D01*
X207185199Y-78660000D01*
X215740001Y-87214803D01*
%TA.AperFunction,Conductor*%
D20*
G36*
X215740001Y-87214803D02*
G01*
X215740000Y-96885198D01*
X214905199Y-97720000D01*
X213878178Y-97720000D01*
X213753475Y-97533368D01*
X213546632Y-97326525D01*
X213364466Y-97204805D01*
X213481355Y-97135178D01*
X213697588Y-96940269D01*
X213871641Y-96706920D01*
X213996825Y-96444099D01*
X214041476Y-96296890D01*
X213920155Y-96067000D01*
X212727000Y-96067000D01*
X212727000Y-96087000D01*
X212473000Y-96087000D01*
X212473000Y-96067000D01*
X212453000Y-96067000D01*
X212453000Y-95813000D01*
X212473000Y-95813000D01*
X212473000Y-95793000D01*
X212727000Y-95793000D01*
X212727000Y-95813000D01*
X213920155Y-95813000D01*
X214041476Y-95583110D01*
X213996825Y-95435901D01*
X213871641Y-95173080D01*
X213697588Y-94939731D01*
X213613534Y-94863966D01*
X213694180Y-94839502D01*
X213804494Y-94780537D01*
X213901185Y-94701185D01*
X213980537Y-94604494D01*
X214039502Y-94494180D01*
X214075812Y-94374482D01*
X214088072Y-94250000D01*
X214088072Y-92550000D01*
X214075812Y-92425518D01*
X214039502Y-92305820D01*
X213980537Y-92195506D01*
X213901185Y-92098815D01*
X213804494Y-92019463D01*
X213694180Y-91960498D01*
X213574482Y-91924188D01*
X213450000Y-91911928D01*
X211750000Y-91911928D01*
X211625518Y-91924188D01*
X211505820Y-91960498D01*
X211395506Y-92019463D01*
X211298815Y-92098815D01*
X211219463Y-92195506D01*
X211160498Y-92305820D01*
X211138487Y-92378380D01*
X211006632Y-92246525D01*
X210763411Y-92084010D01*
X210493158Y-91972068D01*
X210206260Y-91915000D01*
X209913740Y-91915000D01*
X209626842Y-91972068D01*
X209356589Y-92084010D01*
X209113368Y-92246525D01*
X208906525Y-92453368D01*
X208781822Y-92640000D01*
X204114803Y-92640000D01*
X195263804Y-83789003D01*
X195240001Y-83759999D01*
X195124276Y-83665026D01*
X194992247Y-83594454D01*
X194848986Y-83550997D01*
X194737333Y-83540000D01*
X194737322Y-83540000D01*
X194700000Y-83536324D01*
X194662678Y-83540000D01*
X97137323Y-83540000D01*
X97100000Y-83536324D01*
X97062677Y-83540000D01*
X97062667Y-83540000D01*
X96951014Y-83550997D01*
X96807753Y-83594454D01*
X96675723Y-83665026D01*
X96592083Y-83733668D01*
X96559999Y-83759999D01*
X96536201Y-83788997D01*
X83885199Y-96440000D01*
X79998068Y-96440000D01*
X80041476Y-96296890D01*
X79920155Y-96067000D01*
X78727000Y-96067000D01*
X78727000Y-96087000D01*
X78473000Y-96087000D01*
X78473000Y-96067000D01*
X78453000Y-96067000D01*
X78453000Y-95813000D01*
X78473000Y-95813000D01*
X78473000Y-95793000D01*
X78727000Y-95793000D01*
X78727000Y-95813000D01*
X79920155Y-95813000D01*
X80041476Y-95583110D01*
X80023850Y-95524999D01*
X81697679Y-95524999D01*
X81735001Y-95528675D01*
X81772323Y-95524999D01*
X81772334Y-95524999D01*
X81883987Y-95514002D01*
X82027248Y-95470545D01*
X82159277Y-95399973D01*
X82275002Y-95305000D01*
X82298805Y-95275996D01*
X98914802Y-78660000D01*
X207185199Y-78660000D01*
X215740001Y-87214803D01*
G37*
%TD.AperFunction*%
%TD*%
M02*
