G04 #@! TF.GenerationSoftware,KiCad,Pcbnew,5.1.9*
G04 #@! TF.CreationDate,2021-01-23T21:49:56+01:00*
G04 #@! TF.ProjectId,esp32_air_monitor,65737033-325f-4616-9972-5f6d6f6e6974,0.1*
G04 #@! TF.SameCoordinates,Original*
G04 #@! TF.FileFunction,Legend,Bot*
G04 #@! TF.FilePolarity,Positive*
%FSLAX46Y46*%
G04 Gerber Fmt 4.6, Leading zero omitted, Abs format (unit mm)*
G04 Created by KiCad (PCBNEW 5.1.9) date 2021-01-23 21:49:56*
%MOMM*%
%LPD*%
G01*
G04 APERTURE LIST*
%ADD10C,0.150000*%
G04 APERTURE END LIST*
D10*
X218619047Y-128352380D02*
X218619047Y-129066666D01*
X218666666Y-129209523D01*
X218761904Y-129304761D01*
X218904761Y-129352380D01*
X219000000Y-129352380D01*
X217666666Y-129352380D02*
X218142857Y-129352380D01*
X218142857Y-128352380D01*
X216761904Y-129257142D02*
X216809523Y-129304761D01*
X216952380Y-129352380D01*
X217047619Y-129352380D01*
X217190476Y-129304761D01*
X217285714Y-129209523D01*
X217333333Y-129114285D01*
X217380952Y-128923809D01*
X217380952Y-128780952D01*
X217333333Y-128590476D01*
X217285714Y-128495238D01*
X217190476Y-128400000D01*
X217047619Y-128352380D01*
X216952380Y-128352380D01*
X216809523Y-128400000D01*
X216761904Y-128447619D01*
X216047619Y-128352380D02*
X216047619Y-129066666D01*
X216095238Y-129209523D01*
X216190476Y-129304761D01*
X216333333Y-129352380D01*
X216428571Y-129352380D01*
X215095238Y-129352380D02*
X215571428Y-129352380D01*
X215571428Y-128352380D01*
X214190476Y-129257142D02*
X214238095Y-129304761D01*
X214380952Y-129352380D01*
X214476190Y-129352380D01*
X214619047Y-129304761D01*
X214714285Y-129209523D01*
X214761904Y-129114285D01*
X214809523Y-128923809D01*
X214809523Y-128780952D01*
X214761904Y-128590476D01*
X214714285Y-128495238D01*
X214619047Y-128400000D01*
X214476190Y-128352380D01*
X214380952Y-128352380D01*
X214238095Y-128400000D01*
X214190476Y-128447619D01*
X213476190Y-128352380D02*
X213476190Y-129066666D01*
X213523809Y-129209523D01*
X213619047Y-129304761D01*
X213761904Y-129352380D01*
X213857142Y-129352380D01*
X212523809Y-129352380D02*
X213000000Y-129352380D01*
X213000000Y-128352380D01*
X211619047Y-129257142D02*
X211666666Y-129304761D01*
X211809523Y-129352380D01*
X211904761Y-129352380D01*
X212047619Y-129304761D01*
X212142857Y-129209523D01*
X212190476Y-129114285D01*
X212238095Y-128923809D01*
X212238095Y-128780952D01*
X212190476Y-128590476D01*
X212142857Y-128495238D01*
X212047619Y-128400000D01*
X211904761Y-128352380D01*
X211809523Y-128352380D01*
X211666666Y-128400000D01*
X211619047Y-128447619D01*
X210904761Y-128352380D02*
X210904761Y-129066666D01*
X210952380Y-129209523D01*
X211047619Y-129304761D01*
X211190476Y-129352380D01*
X211285714Y-129352380D01*
X209952380Y-129352380D02*
X210428571Y-129352380D01*
X210428571Y-128352380D01*
X209047619Y-129257142D02*
X209095238Y-129304761D01*
X209238095Y-129352380D01*
X209333333Y-129352380D01*
X209476190Y-129304761D01*
X209571428Y-129209523D01*
X209619047Y-129114285D01*
X209666666Y-128923809D01*
X209666666Y-128780952D01*
X209619047Y-128590476D01*
X209571428Y-128495238D01*
X209476190Y-128400000D01*
X209333333Y-128352380D01*
X209238095Y-128352380D01*
X209095238Y-128400000D01*
X209047619Y-128447619D01*
M02*
