G04 #@! TF.GenerationSoftware,KiCad,Pcbnew,5.1.9*
G04 #@! TF.CreationDate,2020-12-27T16:17:09+01:00*
G04 #@! TF.ProjectId,esp32_air_monitor,65737033-325f-4616-9972-5f6d6f6e6974,0.1*
G04 #@! TF.SameCoordinates,Original*
G04 #@! TF.FileFunction,Copper,L1,Top*
G04 #@! TF.FilePolarity,Positive*
%FSLAX46Y46*%
G04 Gerber Fmt 4.6, Leading zero omitted, Abs format (unit mm)*
G04 Created by KiCad (PCBNEW 5.1.9) date 2020-12-27 16:17:09*
%MOMM*%
%LPD*%
G01*
G04 APERTURE LIST*
G04 #@! TA.AperFunction,ComponentPad*
%ADD10R,1.560000X1.560000*%
G04 #@! TD*
G04 #@! TA.AperFunction,ComponentPad*
%ADD11C,1.560000*%
G04 #@! TD*
G04 #@! TA.AperFunction,ComponentPad*
%ADD12R,1.650000X1.650000*%
G04 #@! TD*
G04 #@! TA.AperFunction,ComponentPad*
%ADD13C,1.650000*%
G04 #@! TD*
G04 #@! TA.AperFunction,ComponentPad*
%ADD14O,1.700000X1.700000*%
G04 #@! TD*
G04 #@! TA.AperFunction,ComponentPad*
%ADD15R,1.700000X1.700000*%
G04 #@! TD*
G04 #@! TA.AperFunction,ViaPad*
%ADD16C,1.200000*%
G04 #@! TD*
G04 #@! TA.AperFunction,Conductor*
%ADD17C,0.250000*%
G04 #@! TD*
G04 #@! TA.AperFunction,Conductor*
%ADD18C,0.500000*%
G04 #@! TD*
G04 #@! TA.AperFunction,Conductor*
%ADD19C,0.254000*%
G04 #@! TD*
G04 #@! TA.AperFunction,Conductor*
%ADD20C,0.100000*%
G04 #@! TD*
G04 APERTURE END LIST*
D10*
X88340000Y-126600000D03*
D11*
X90880000Y-126600000D03*
X134060000Y-126600000D03*
X93420000Y-126600000D03*
X95960000Y-126600000D03*
X98500000Y-126600000D03*
X101040000Y-126600000D03*
X103580000Y-126600000D03*
X106120000Y-126600000D03*
X108660000Y-126600000D03*
X111200000Y-126600000D03*
X113740000Y-126600000D03*
X116280000Y-126600000D03*
X118820000Y-126600000D03*
X121360000Y-126600000D03*
X123900000Y-126600000D03*
X126440000Y-126600000D03*
X128980000Y-126600000D03*
X131520000Y-126600000D03*
X88340000Y-101200000D03*
X90880000Y-101200000D03*
X93420000Y-101200000D03*
X95960000Y-101200000D03*
X98500000Y-101200000D03*
X101040000Y-101200000D03*
X103580000Y-101200000D03*
X106120000Y-101200000D03*
X108660000Y-101200000D03*
X111200000Y-101200000D03*
X113740000Y-101200000D03*
X116280000Y-101200000D03*
X118820000Y-101200000D03*
X121360000Y-101200000D03*
X123900000Y-101200000D03*
X126440000Y-101200000D03*
X128980000Y-101200000D03*
X131520000Y-101200000D03*
X134060000Y-101200000D03*
D12*
X186600000Y-108900000D03*
D13*
X189140000Y-108900000D03*
X191680000Y-108900000D03*
X194220000Y-108900000D03*
X196760000Y-108900000D03*
X199300000Y-108900000D03*
X201840000Y-108900000D03*
D14*
X76060000Y-111180000D03*
X78600000Y-111180000D03*
X76060000Y-108640000D03*
X78600000Y-108640000D03*
X76060000Y-106100000D03*
X78600000Y-106100000D03*
X76060000Y-103560000D03*
X78600000Y-103560000D03*
X76060000Y-101020000D03*
X78600000Y-101020000D03*
X76060000Y-98480000D03*
X78600000Y-98480000D03*
X76060000Y-95940000D03*
X78600000Y-95940000D03*
X76060000Y-93400000D03*
D15*
X78600000Y-93400000D03*
D14*
X210060000Y-111180000D03*
X212600000Y-111180000D03*
X210060000Y-108640000D03*
X212600000Y-108640000D03*
X210060000Y-106100000D03*
X212600000Y-106100000D03*
X210060000Y-103560000D03*
X212600000Y-103560000D03*
X210060000Y-101020000D03*
X212600000Y-101020000D03*
X210060000Y-98480000D03*
X212600000Y-98480000D03*
X210060000Y-95940000D03*
X212600000Y-95940000D03*
X210060000Y-93400000D03*
D15*
X212600000Y-93400000D03*
D14*
X168140000Y-125500000D03*
X170680000Y-125500000D03*
X173220000Y-125500000D03*
X175760000Y-125500000D03*
D15*
X178300000Y-125500000D03*
D14*
X143800000Y-126600000D03*
X143800000Y-124060000D03*
X143800000Y-121520000D03*
X143800000Y-118980000D03*
D15*
X143800000Y-116440000D03*
D14*
X183900000Y-96160000D03*
D15*
X183900000Y-98700000D03*
D16*
X215000000Y-101000000D03*
X201900000Y-110800000D03*
X212700000Y-114000000D03*
X215400000Y-111200000D03*
X213100000Y-90700000D03*
X215300000Y-93400000D03*
X78600000Y-114100000D03*
X81200000Y-95900000D03*
X81500000Y-101100000D03*
X88300000Y-98900000D03*
X121300000Y-124200000D03*
X121400000Y-128900000D03*
X103600000Y-103500000D03*
X103600000Y-98800000D03*
X187200000Y-96200000D03*
X183800000Y-92300000D03*
X189200000Y-111400000D03*
X189100000Y-106600000D03*
X201800000Y-106600000D03*
X173200000Y-122800000D03*
X103500000Y-90100000D03*
X114500000Y-89900000D03*
X114400000Y-98800000D03*
X75200000Y-87200000D03*
X79500000Y-87200000D03*
X79700000Y-79800000D03*
X74900000Y-79900000D03*
X220200000Y-100800000D03*
X209000000Y-119000000D03*
X203200000Y-119000000D03*
X187700000Y-122600000D03*
X182000000Y-115100000D03*
X75800000Y-114200000D03*
X75900000Y-118200000D03*
X78600000Y-118200000D03*
X126400000Y-98800000D03*
X146900000Y-126700000D03*
X140700000Y-126700000D03*
X118800000Y-98800000D03*
D17*
X170680000Y-125500000D02*
X170680000Y-123120000D01*
X170680000Y-123120000D02*
X174300000Y-119500000D01*
X174300000Y-119500000D02*
X195900000Y-119500000D01*
X195900000Y-119500000D02*
X204100000Y-111300000D01*
X204100000Y-111300000D02*
X204100000Y-107000000D01*
X204100000Y-107000000D02*
X202500000Y-105400000D01*
X202500000Y-105400000D02*
X193500000Y-105400000D01*
X191680000Y-107220000D02*
X191680000Y-108900000D01*
X193500000Y-105400000D02*
X191680000Y-107220000D01*
X143800000Y-121520000D02*
X158220000Y-121520000D01*
X158220000Y-121520000D02*
X164400000Y-127700000D01*
X164400000Y-127700000D02*
X169900000Y-127700000D01*
X170680000Y-126920000D02*
X170680000Y-125500000D01*
X169900000Y-127700000D02*
X170680000Y-126920000D01*
X143800000Y-121520000D02*
X130120000Y-121520000D01*
X118820000Y-110220000D02*
X118820000Y-101200000D01*
X130120000Y-121520000D02*
X118820000Y-110220000D01*
X194220000Y-113980000D02*
X194220000Y-108900000D01*
X191500000Y-116700000D02*
X194220000Y-113980000D01*
X143800000Y-118980000D02*
X161620000Y-118980000D01*
X161620000Y-118980000D02*
X165220000Y-118980000D01*
X167500000Y-116700000D02*
X175800000Y-116700000D01*
X165220000Y-118980000D02*
X167500000Y-116700000D01*
X175800000Y-116700000D02*
X191500000Y-116700000D01*
X174200000Y-116700000D02*
X175800000Y-116700000D01*
X165220000Y-118980000D02*
X165280000Y-118980000D01*
X168140000Y-121840000D02*
X168140000Y-125500000D01*
X165280000Y-118980000D02*
X168140000Y-121840000D01*
X143800000Y-118980000D02*
X134980000Y-118980000D01*
X126440000Y-110440000D02*
X126440000Y-101200000D01*
X134980000Y-118980000D02*
X126440000Y-110440000D01*
D18*
X134060000Y-128460000D02*
X134060000Y-126600000D01*
X135300000Y-129700000D02*
X134060000Y-128460000D01*
X205100000Y-129700000D02*
X135300000Y-129700000D01*
X205900000Y-104600000D02*
X205900000Y-128900000D01*
X200000000Y-98700000D02*
X205900000Y-104600000D01*
X205900000Y-128900000D02*
X205100000Y-129700000D01*
X183900000Y-98700000D02*
X200000000Y-98700000D01*
D19*
X222415001Y-131615000D02*
X68785000Y-131615000D01*
X68785000Y-125820000D01*
X86921928Y-125820000D01*
X86921928Y-127380000D01*
X86934188Y-127504482D01*
X86970498Y-127624180D01*
X87029463Y-127734494D01*
X87108815Y-127831185D01*
X87205506Y-127910537D01*
X87315820Y-127969502D01*
X87435518Y-128005812D01*
X87560000Y-128018072D01*
X89120000Y-128018072D01*
X89244482Y-128005812D01*
X89364180Y-127969502D01*
X89474494Y-127910537D01*
X89571185Y-127831185D01*
X89650537Y-127734494D01*
X89709502Y-127624180D01*
X89745812Y-127504482D01*
X89750531Y-127456564D01*
X89780897Y-127502010D01*
X89977990Y-127699103D01*
X90209746Y-127853957D01*
X90467260Y-127960623D01*
X90740635Y-128015000D01*
X91019365Y-128015000D01*
X91292740Y-127960623D01*
X91550254Y-127853957D01*
X91782010Y-127699103D01*
X91979103Y-127502010D01*
X92133957Y-127270254D01*
X92150000Y-127231523D01*
X92166043Y-127270254D01*
X92320897Y-127502010D01*
X92517990Y-127699103D01*
X92749746Y-127853957D01*
X93007260Y-127960623D01*
X93280635Y-128015000D01*
X93559365Y-128015000D01*
X93832740Y-127960623D01*
X94090254Y-127853957D01*
X94322010Y-127699103D01*
X94519103Y-127502010D01*
X94673957Y-127270254D01*
X94690000Y-127231523D01*
X94706043Y-127270254D01*
X94860897Y-127502010D01*
X95057990Y-127699103D01*
X95289746Y-127853957D01*
X95547260Y-127960623D01*
X95820635Y-128015000D01*
X96099365Y-128015000D01*
X96372740Y-127960623D01*
X96630254Y-127853957D01*
X96862010Y-127699103D01*
X97059103Y-127502010D01*
X97213957Y-127270254D01*
X97230000Y-127231523D01*
X97246043Y-127270254D01*
X97400897Y-127502010D01*
X97597990Y-127699103D01*
X97829746Y-127853957D01*
X98087260Y-127960623D01*
X98360635Y-128015000D01*
X98639365Y-128015000D01*
X98912740Y-127960623D01*
X99170254Y-127853957D01*
X99402010Y-127699103D01*
X99599103Y-127502010D01*
X99753957Y-127270254D01*
X99770000Y-127231523D01*
X99786043Y-127270254D01*
X99940897Y-127502010D01*
X100137990Y-127699103D01*
X100369746Y-127853957D01*
X100627260Y-127960623D01*
X100900635Y-128015000D01*
X101179365Y-128015000D01*
X101452740Y-127960623D01*
X101710254Y-127853957D01*
X101942010Y-127699103D01*
X102139103Y-127502010D01*
X102293957Y-127270254D01*
X102310000Y-127231523D01*
X102326043Y-127270254D01*
X102480897Y-127502010D01*
X102677990Y-127699103D01*
X102909746Y-127853957D01*
X103167260Y-127960623D01*
X103440635Y-128015000D01*
X103719365Y-128015000D01*
X103992740Y-127960623D01*
X104250254Y-127853957D01*
X104482010Y-127699103D01*
X104679103Y-127502010D01*
X104833957Y-127270254D01*
X104850000Y-127231523D01*
X104866043Y-127270254D01*
X105020897Y-127502010D01*
X105217990Y-127699103D01*
X105449746Y-127853957D01*
X105707260Y-127960623D01*
X105980635Y-128015000D01*
X106259365Y-128015000D01*
X106532740Y-127960623D01*
X106790254Y-127853957D01*
X107022010Y-127699103D01*
X107219103Y-127502010D01*
X107373957Y-127270254D01*
X107390000Y-127231523D01*
X107406043Y-127270254D01*
X107560897Y-127502010D01*
X107757990Y-127699103D01*
X107989746Y-127853957D01*
X108247260Y-127960623D01*
X108520635Y-128015000D01*
X108799365Y-128015000D01*
X109072740Y-127960623D01*
X109330254Y-127853957D01*
X109562010Y-127699103D01*
X109759103Y-127502010D01*
X109913957Y-127270254D01*
X109930000Y-127231523D01*
X109946043Y-127270254D01*
X110100897Y-127502010D01*
X110297990Y-127699103D01*
X110529746Y-127853957D01*
X110787260Y-127960623D01*
X111060635Y-128015000D01*
X111339365Y-128015000D01*
X111612740Y-127960623D01*
X111870254Y-127853957D01*
X112102010Y-127699103D01*
X112299103Y-127502010D01*
X112453957Y-127270254D01*
X112470000Y-127231523D01*
X112486043Y-127270254D01*
X112640897Y-127502010D01*
X112837990Y-127699103D01*
X113069746Y-127853957D01*
X113327260Y-127960623D01*
X113600635Y-128015000D01*
X113879365Y-128015000D01*
X114152740Y-127960623D01*
X114410254Y-127853957D01*
X114642010Y-127699103D01*
X114839103Y-127502010D01*
X114993957Y-127270254D01*
X115010000Y-127231523D01*
X115026043Y-127270254D01*
X115180897Y-127502010D01*
X115377990Y-127699103D01*
X115609746Y-127853957D01*
X115867260Y-127960623D01*
X116140635Y-128015000D01*
X116419365Y-128015000D01*
X116692740Y-127960623D01*
X116950254Y-127853957D01*
X117182010Y-127699103D01*
X117379103Y-127502010D01*
X117533957Y-127270254D01*
X117550000Y-127231523D01*
X117566043Y-127270254D01*
X117720897Y-127502010D01*
X117917990Y-127699103D01*
X118149746Y-127853957D01*
X118407260Y-127960623D01*
X118680635Y-128015000D01*
X118959365Y-128015000D01*
X119232740Y-127960623D01*
X119490254Y-127853957D01*
X119722010Y-127699103D01*
X119842692Y-127578421D01*
X120561184Y-127578421D01*
X120630345Y-127820349D01*
X120882443Y-127939248D01*
X121152894Y-128006681D01*
X121431303Y-128020057D01*
X121706972Y-127978860D01*
X121969308Y-127884675D01*
X122089655Y-127820349D01*
X122158816Y-127578421D01*
X121360000Y-126779605D01*
X120561184Y-127578421D01*
X119842692Y-127578421D01*
X119919103Y-127502010D01*
X120073957Y-127270254D01*
X120088777Y-127234475D01*
X120139651Y-127329655D01*
X120381579Y-127398816D01*
X121180395Y-126600000D01*
X121539605Y-126600000D01*
X122338421Y-127398816D01*
X122580349Y-127329655D01*
X122628425Y-127227721D01*
X122646043Y-127270254D01*
X122800897Y-127502010D01*
X122997990Y-127699103D01*
X123229746Y-127853957D01*
X123487260Y-127960623D01*
X123760635Y-128015000D01*
X124039365Y-128015000D01*
X124312740Y-127960623D01*
X124570254Y-127853957D01*
X124802010Y-127699103D01*
X124999103Y-127502010D01*
X125153957Y-127270254D01*
X125170000Y-127231523D01*
X125186043Y-127270254D01*
X125340897Y-127502010D01*
X125537990Y-127699103D01*
X125769746Y-127853957D01*
X126027260Y-127960623D01*
X126300635Y-128015000D01*
X126579365Y-128015000D01*
X126852740Y-127960623D01*
X127110254Y-127853957D01*
X127342010Y-127699103D01*
X127539103Y-127502010D01*
X127693957Y-127270254D01*
X127710000Y-127231523D01*
X127726043Y-127270254D01*
X127880897Y-127502010D01*
X128077990Y-127699103D01*
X128309746Y-127853957D01*
X128567260Y-127960623D01*
X128840635Y-128015000D01*
X129119365Y-128015000D01*
X129392740Y-127960623D01*
X129650254Y-127853957D01*
X129882010Y-127699103D01*
X130079103Y-127502010D01*
X130233957Y-127270254D01*
X130250000Y-127231523D01*
X130266043Y-127270254D01*
X130420897Y-127502010D01*
X130617990Y-127699103D01*
X130849746Y-127853957D01*
X131107260Y-127960623D01*
X131380635Y-128015000D01*
X131659365Y-128015000D01*
X131932740Y-127960623D01*
X132190254Y-127853957D01*
X132422010Y-127699103D01*
X132619103Y-127502010D01*
X132773957Y-127270254D01*
X132790000Y-127231523D01*
X132806043Y-127270254D01*
X132960897Y-127502010D01*
X133157990Y-127699103D01*
X133175000Y-127710469D01*
X133175000Y-128416531D01*
X133170719Y-128460000D01*
X133175000Y-128503469D01*
X133175000Y-128503476D01*
X133187805Y-128633489D01*
X133238411Y-128800312D01*
X133320589Y-128954058D01*
X133431183Y-129088817D01*
X133464956Y-129116534D01*
X134643470Y-130295049D01*
X134671183Y-130328817D01*
X134704951Y-130356530D01*
X134704953Y-130356532D01*
X134805940Y-130439410D01*
X134805941Y-130439411D01*
X134959687Y-130521589D01*
X135126510Y-130572195D01*
X135256523Y-130585000D01*
X135256531Y-130585000D01*
X135300000Y-130589281D01*
X135343469Y-130585000D01*
X205056531Y-130585000D01*
X205100000Y-130589281D01*
X205143469Y-130585000D01*
X205143477Y-130585000D01*
X205273490Y-130572195D01*
X205440313Y-130521589D01*
X205594059Y-130439411D01*
X205728817Y-130328817D01*
X205756534Y-130295044D01*
X206495049Y-129556530D01*
X206528817Y-129528817D01*
X206639411Y-129394059D01*
X206721589Y-129240313D01*
X206772195Y-129073490D01*
X206785000Y-128943477D01*
X206785000Y-128943469D01*
X206789281Y-128900000D01*
X206785000Y-128856531D01*
X206785000Y-104643466D01*
X206789281Y-104599999D01*
X206785000Y-104556533D01*
X206785000Y-104556523D01*
X206772195Y-104426510D01*
X206721589Y-104259687D01*
X206639411Y-104105941D01*
X206528817Y-103971183D01*
X206495051Y-103943472D01*
X200656534Y-98104956D01*
X200628817Y-98071183D01*
X200494059Y-97960589D01*
X200340313Y-97878411D01*
X200173490Y-97827805D01*
X200043477Y-97815000D01*
X200043469Y-97815000D01*
X200000000Y-97810719D01*
X199956531Y-97815000D01*
X185384625Y-97815000D01*
X185375812Y-97725518D01*
X185339502Y-97605820D01*
X185280537Y-97495506D01*
X185201185Y-97398815D01*
X185104494Y-97319463D01*
X184994180Y-97260498D01*
X184913534Y-97236034D01*
X184997588Y-97160269D01*
X185171641Y-96926920D01*
X185296825Y-96664099D01*
X185341476Y-96516890D01*
X185220155Y-96287000D01*
X184027000Y-96287000D01*
X184027000Y-96307000D01*
X183773000Y-96307000D01*
X183773000Y-96287000D01*
X182579845Y-96287000D01*
X182458524Y-96516890D01*
X182503175Y-96664099D01*
X182628359Y-96926920D01*
X182802412Y-97160269D01*
X182886466Y-97236034D01*
X182805820Y-97260498D01*
X182695506Y-97319463D01*
X182598815Y-97398815D01*
X182519463Y-97495506D01*
X182460498Y-97605820D01*
X182424188Y-97725518D01*
X182411928Y-97850000D01*
X182411928Y-99550000D01*
X182424188Y-99674482D01*
X182460498Y-99794180D01*
X182519463Y-99904494D01*
X182598815Y-100001185D01*
X182695506Y-100080537D01*
X182805820Y-100139502D01*
X182925518Y-100175812D01*
X183050000Y-100188072D01*
X184750000Y-100188072D01*
X184874482Y-100175812D01*
X184994180Y-100139502D01*
X185104494Y-100080537D01*
X185201185Y-100001185D01*
X185280537Y-99904494D01*
X185339502Y-99794180D01*
X185375812Y-99674482D01*
X185384625Y-99585000D01*
X199633422Y-99585000D01*
X205015000Y-104966579D01*
X205015001Y-128533420D01*
X204733422Y-128815000D01*
X135666579Y-128815000D01*
X134945000Y-128093422D01*
X134945000Y-127710469D01*
X134962010Y-127699103D01*
X135159103Y-127502010D01*
X135313957Y-127270254D01*
X135420623Y-127012740D01*
X135431732Y-126956890D01*
X142358524Y-126956890D01*
X142403175Y-127104099D01*
X142528359Y-127366920D01*
X142702412Y-127600269D01*
X142918645Y-127795178D01*
X143168748Y-127944157D01*
X143443109Y-128041481D01*
X143673000Y-127920814D01*
X143673000Y-126727000D01*
X143927000Y-126727000D01*
X143927000Y-127920814D01*
X144156891Y-128041481D01*
X144431252Y-127944157D01*
X144681355Y-127795178D01*
X144897588Y-127600269D01*
X145071641Y-127366920D01*
X145196825Y-127104099D01*
X145241476Y-126956890D01*
X145120155Y-126727000D01*
X143927000Y-126727000D01*
X143673000Y-126727000D01*
X142479845Y-126727000D01*
X142358524Y-126956890D01*
X135431732Y-126956890D01*
X135475000Y-126739365D01*
X135475000Y-126460635D01*
X135420623Y-126187260D01*
X135313957Y-125929746D01*
X135159103Y-125697990D01*
X134962010Y-125500897D01*
X134730254Y-125346043D01*
X134472740Y-125239377D01*
X134199365Y-125185000D01*
X133920635Y-125185000D01*
X133647260Y-125239377D01*
X133389746Y-125346043D01*
X133157990Y-125500897D01*
X132960897Y-125697990D01*
X132806043Y-125929746D01*
X132790000Y-125968477D01*
X132773957Y-125929746D01*
X132619103Y-125697990D01*
X132422010Y-125500897D01*
X132190254Y-125346043D01*
X131932740Y-125239377D01*
X131659365Y-125185000D01*
X131380635Y-125185000D01*
X131107260Y-125239377D01*
X130849746Y-125346043D01*
X130617990Y-125500897D01*
X130420897Y-125697990D01*
X130266043Y-125929746D01*
X130250000Y-125968477D01*
X130233957Y-125929746D01*
X130079103Y-125697990D01*
X129882010Y-125500897D01*
X129650254Y-125346043D01*
X129392740Y-125239377D01*
X129119365Y-125185000D01*
X128840635Y-125185000D01*
X128567260Y-125239377D01*
X128309746Y-125346043D01*
X128077990Y-125500897D01*
X127880897Y-125697990D01*
X127726043Y-125929746D01*
X127710000Y-125968477D01*
X127693957Y-125929746D01*
X127539103Y-125697990D01*
X127342010Y-125500897D01*
X127110254Y-125346043D01*
X126852740Y-125239377D01*
X126579365Y-125185000D01*
X126300635Y-125185000D01*
X126027260Y-125239377D01*
X125769746Y-125346043D01*
X125537990Y-125500897D01*
X125340897Y-125697990D01*
X125186043Y-125929746D01*
X125170000Y-125968477D01*
X125153957Y-125929746D01*
X124999103Y-125697990D01*
X124802010Y-125500897D01*
X124570254Y-125346043D01*
X124312740Y-125239377D01*
X124039365Y-125185000D01*
X123760635Y-125185000D01*
X123487260Y-125239377D01*
X123229746Y-125346043D01*
X122997990Y-125500897D01*
X122800897Y-125697990D01*
X122646043Y-125929746D01*
X122631223Y-125965525D01*
X122580349Y-125870345D01*
X122338421Y-125801184D01*
X121539605Y-126600000D01*
X121180395Y-126600000D01*
X120381579Y-125801184D01*
X120139651Y-125870345D01*
X120091575Y-125972279D01*
X120073957Y-125929746D01*
X119919103Y-125697990D01*
X119842692Y-125621579D01*
X120561184Y-125621579D01*
X121360000Y-126420395D01*
X122158816Y-125621579D01*
X122089655Y-125379651D01*
X121837557Y-125260752D01*
X121567106Y-125193319D01*
X121288697Y-125179943D01*
X121013028Y-125221140D01*
X120750692Y-125315325D01*
X120630345Y-125379651D01*
X120561184Y-125621579D01*
X119842692Y-125621579D01*
X119722010Y-125500897D01*
X119490254Y-125346043D01*
X119232740Y-125239377D01*
X118959365Y-125185000D01*
X118680635Y-125185000D01*
X118407260Y-125239377D01*
X118149746Y-125346043D01*
X117917990Y-125500897D01*
X117720897Y-125697990D01*
X117566043Y-125929746D01*
X117550000Y-125968477D01*
X117533957Y-125929746D01*
X117379103Y-125697990D01*
X117182010Y-125500897D01*
X116950254Y-125346043D01*
X116692740Y-125239377D01*
X116419365Y-125185000D01*
X116140635Y-125185000D01*
X115867260Y-125239377D01*
X115609746Y-125346043D01*
X115377990Y-125500897D01*
X115180897Y-125697990D01*
X115026043Y-125929746D01*
X115010000Y-125968477D01*
X114993957Y-125929746D01*
X114839103Y-125697990D01*
X114642010Y-125500897D01*
X114410254Y-125346043D01*
X114152740Y-125239377D01*
X113879365Y-125185000D01*
X113600635Y-125185000D01*
X113327260Y-125239377D01*
X113069746Y-125346043D01*
X112837990Y-125500897D01*
X112640897Y-125697990D01*
X112486043Y-125929746D01*
X112470000Y-125968477D01*
X112453957Y-125929746D01*
X112299103Y-125697990D01*
X112102010Y-125500897D01*
X111870254Y-125346043D01*
X111612740Y-125239377D01*
X111339365Y-125185000D01*
X111060635Y-125185000D01*
X110787260Y-125239377D01*
X110529746Y-125346043D01*
X110297990Y-125500897D01*
X110100897Y-125697990D01*
X109946043Y-125929746D01*
X109930000Y-125968477D01*
X109913957Y-125929746D01*
X109759103Y-125697990D01*
X109562010Y-125500897D01*
X109330254Y-125346043D01*
X109072740Y-125239377D01*
X108799365Y-125185000D01*
X108520635Y-125185000D01*
X108247260Y-125239377D01*
X107989746Y-125346043D01*
X107757990Y-125500897D01*
X107560897Y-125697990D01*
X107406043Y-125929746D01*
X107390000Y-125968477D01*
X107373957Y-125929746D01*
X107219103Y-125697990D01*
X107022010Y-125500897D01*
X106790254Y-125346043D01*
X106532740Y-125239377D01*
X106259365Y-125185000D01*
X105980635Y-125185000D01*
X105707260Y-125239377D01*
X105449746Y-125346043D01*
X105217990Y-125500897D01*
X105020897Y-125697990D01*
X104866043Y-125929746D01*
X104850000Y-125968477D01*
X104833957Y-125929746D01*
X104679103Y-125697990D01*
X104482010Y-125500897D01*
X104250254Y-125346043D01*
X103992740Y-125239377D01*
X103719365Y-125185000D01*
X103440635Y-125185000D01*
X103167260Y-125239377D01*
X102909746Y-125346043D01*
X102677990Y-125500897D01*
X102480897Y-125697990D01*
X102326043Y-125929746D01*
X102310000Y-125968477D01*
X102293957Y-125929746D01*
X102139103Y-125697990D01*
X101942010Y-125500897D01*
X101710254Y-125346043D01*
X101452740Y-125239377D01*
X101179365Y-125185000D01*
X100900635Y-125185000D01*
X100627260Y-125239377D01*
X100369746Y-125346043D01*
X100137990Y-125500897D01*
X99940897Y-125697990D01*
X99786043Y-125929746D01*
X99770000Y-125968477D01*
X99753957Y-125929746D01*
X99599103Y-125697990D01*
X99402010Y-125500897D01*
X99170254Y-125346043D01*
X98912740Y-125239377D01*
X98639365Y-125185000D01*
X98360635Y-125185000D01*
X98087260Y-125239377D01*
X97829746Y-125346043D01*
X97597990Y-125500897D01*
X97400897Y-125697990D01*
X97246043Y-125929746D01*
X97230000Y-125968477D01*
X97213957Y-125929746D01*
X97059103Y-125697990D01*
X96862010Y-125500897D01*
X96630254Y-125346043D01*
X96372740Y-125239377D01*
X96099365Y-125185000D01*
X95820635Y-125185000D01*
X95547260Y-125239377D01*
X95289746Y-125346043D01*
X95057990Y-125500897D01*
X94860897Y-125697990D01*
X94706043Y-125929746D01*
X94690000Y-125968477D01*
X94673957Y-125929746D01*
X94519103Y-125697990D01*
X94322010Y-125500897D01*
X94090254Y-125346043D01*
X93832740Y-125239377D01*
X93559365Y-125185000D01*
X93280635Y-125185000D01*
X93007260Y-125239377D01*
X92749746Y-125346043D01*
X92517990Y-125500897D01*
X92320897Y-125697990D01*
X92166043Y-125929746D01*
X92150000Y-125968477D01*
X92133957Y-125929746D01*
X91979103Y-125697990D01*
X91782010Y-125500897D01*
X91550254Y-125346043D01*
X91292740Y-125239377D01*
X91019365Y-125185000D01*
X90740635Y-125185000D01*
X90467260Y-125239377D01*
X90209746Y-125346043D01*
X89977990Y-125500897D01*
X89780897Y-125697990D01*
X89750531Y-125743436D01*
X89745812Y-125695518D01*
X89709502Y-125575820D01*
X89650537Y-125465506D01*
X89571185Y-125368815D01*
X89474494Y-125289463D01*
X89364180Y-125230498D01*
X89244482Y-125194188D01*
X89120000Y-125181928D01*
X87560000Y-125181928D01*
X87435518Y-125194188D01*
X87315820Y-125230498D01*
X87205506Y-125289463D01*
X87108815Y-125368815D01*
X87029463Y-125465506D01*
X86970498Y-125575820D01*
X86934188Y-125695518D01*
X86921928Y-125820000D01*
X68785000Y-125820000D01*
X68785000Y-93253740D01*
X74575000Y-93253740D01*
X74575000Y-93546260D01*
X74632068Y-93833158D01*
X74744010Y-94103411D01*
X74906525Y-94346632D01*
X75113368Y-94553475D01*
X75287760Y-94670000D01*
X75113368Y-94786525D01*
X74906525Y-94993368D01*
X74744010Y-95236589D01*
X74632068Y-95506842D01*
X74575000Y-95793740D01*
X74575000Y-96086260D01*
X74632068Y-96373158D01*
X74744010Y-96643411D01*
X74906525Y-96886632D01*
X75113368Y-97093475D01*
X75287760Y-97210000D01*
X75113368Y-97326525D01*
X74906525Y-97533368D01*
X74744010Y-97776589D01*
X74632068Y-98046842D01*
X74575000Y-98333740D01*
X74575000Y-98626260D01*
X74632068Y-98913158D01*
X74744010Y-99183411D01*
X74906525Y-99426632D01*
X75113368Y-99633475D01*
X75287760Y-99750000D01*
X75113368Y-99866525D01*
X74906525Y-100073368D01*
X74744010Y-100316589D01*
X74632068Y-100586842D01*
X74575000Y-100873740D01*
X74575000Y-101166260D01*
X74632068Y-101453158D01*
X74744010Y-101723411D01*
X74906525Y-101966632D01*
X75113368Y-102173475D01*
X75287760Y-102290000D01*
X75113368Y-102406525D01*
X74906525Y-102613368D01*
X74744010Y-102856589D01*
X74632068Y-103126842D01*
X74575000Y-103413740D01*
X74575000Y-103706260D01*
X74632068Y-103993158D01*
X74744010Y-104263411D01*
X74906525Y-104506632D01*
X75113368Y-104713475D01*
X75287760Y-104830000D01*
X75113368Y-104946525D01*
X74906525Y-105153368D01*
X74744010Y-105396589D01*
X74632068Y-105666842D01*
X74575000Y-105953740D01*
X74575000Y-106246260D01*
X74632068Y-106533158D01*
X74744010Y-106803411D01*
X74906525Y-107046632D01*
X75113368Y-107253475D01*
X75287760Y-107370000D01*
X75113368Y-107486525D01*
X74906525Y-107693368D01*
X74744010Y-107936589D01*
X74632068Y-108206842D01*
X74575000Y-108493740D01*
X74575000Y-108786260D01*
X74632068Y-109073158D01*
X74744010Y-109343411D01*
X74906525Y-109586632D01*
X75113368Y-109793475D01*
X75287760Y-109910000D01*
X75113368Y-110026525D01*
X74906525Y-110233368D01*
X74744010Y-110476589D01*
X74632068Y-110746842D01*
X74575000Y-111033740D01*
X74575000Y-111326260D01*
X74632068Y-111613158D01*
X74744010Y-111883411D01*
X74906525Y-112126632D01*
X75113368Y-112333475D01*
X75356589Y-112495990D01*
X75626842Y-112607932D01*
X75913740Y-112665000D01*
X76206260Y-112665000D01*
X76493158Y-112607932D01*
X76763411Y-112495990D01*
X77006632Y-112333475D01*
X77213475Y-112126632D01*
X77331100Y-111950594D01*
X77502412Y-112180269D01*
X77718645Y-112375178D01*
X77968748Y-112524157D01*
X78243109Y-112621481D01*
X78473000Y-112500814D01*
X78473000Y-111307000D01*
X78727000Y-111307000D01*
X78727000Y-112500814D01*
X78956891Y-112621481D01*
X79231252Y-112524157D01*
X79481355Y-112375178D01*
X79697588Y-112180269D01*
X79871641Y-111946920D01*
X79996825Y-111684099D01*
X80041476Y-111536890D01*
X79920155Y-111307000D01*
X78727000Y-111307000D01*
X78473000Y-111307000D01*
X78453000Y-111307000D01*
X78453000Y-111053000D01*
X78473000Y-111053000D01*
X78473000Y-111033000D01*
X78727000Y-111033000D01*
X78727000Y-111053000D01*
X79920155Y-111053000D01*
X80041476Y-110823110D01*
X79996825Y-110675901D01*
X79871641Y-110413080D01*
X79697588Y-110179731D01*
X79481355Y-109984822D01*
X79364466Y-109915195D01*
X79546632Y-109793475D01*
X79753475Y-109586632D01*
X79915990Y-109343411D01*
X80027932Y-109073158D01*
X80085000Y-108786260D01*
X80085000Y-108493740D01*
X80027932Y-108206842D01*
X79915990Y-107936589D01*
X79753475Y-107693368D01*
X79546632Y-107486525D01*
X79372240Y-107370000D01*
X79546632Y-107253475D01*
X79753475Y-107046632D01*
X79915990Y-106803411D01*
X80027932Y-106533158D01*
X80085000Y-106246260D01*
X80085000Y-105953740D01*
X80027932Y-105666842D01*
X79915990Y-105396589D01*
X79753475Y-105153368D01*
X79546632Y-104946525D01*
X79372240Y-104830000D01*
X79546632Y-104713475D01*
X79753475Y-104506632D01*
X79915990Y-104263411D01*
X80027932Y-103993158D01*
X80085000Y-103706260D01*
X80085000Y-103413740D01*
X80027932Y-103126842D01*
X79915990Y-102856589D01*
X79753475Y-102613368D01*
X79546632Y-102406525D01*
X79364466Y-102284805D01*
X79481355Y-102215178D01*
X79522133Y-102178421D01*
X87541184Y-102178421D01*
X87610345Y-102420349D01*
X87862443Y-102539248D01*
X88132894Y-102606681D01*
X88411303Y-102620057D01*
X88686972Y-102578860D01*
X88949308Y-102484675D01*
X89069655Y-102420349D01*
X89138816Y-102178421D01*
X88340000Y-101379605D01*
X87541184Y-102178421D01*
X79522133Y-102178421D01*
X79697588Y-102020269D01*
X79871641Y-101786920D01*
X79996825Y-101524099D01*
X80041476Y-101376890D01*
X79985755Y-101271303D01*
X86919943Y-101271303D01*
X86961140Y-101546972D01*
X87055325Y-101809308D01*
X87119651Y-101929655D01*
X87361579Y-101998816D01*
X88160395Y-101200000D01*
X88519605Y-101200000D01*
X89318421Y-101998816D01*
X89560349Y-101929655D01*
X89608425Y-101827721D01*
X89626043Y-101870254D01*
X89780897Y-102102010D01*
X89977990Y-102299103D01*
X90209746Y-102453957D01*
X90467260Y-102560623D01*
X90740635Y-102615000D01*
X91019365Y-102615000D01*
X91292740Y-102560623D01*
X91550254Y-102453957D01*
X91782010Y-102299103D01*
X91979103Y-102102010D01*
X92133957Y-101870254D01*
X92150000Y-101831523D01*
X92166043Y-101870254D01*
X92320897Y-102102010D01*
X92517990Y-102299103D01*
X92749746Y-102453957D01*
X93007260Y-102560623D01*
X93280635Y-102615000D01*
X93559365Y-102615000D01*
X93832740Y-102560623D01*
X94090254Y-102453957D01*
X94322010Y-102299103D01*
X94519103Y-102102010D01*
X94673957Y-101870254D01*
X94690000Y-101831523D01*
X94706043Y-101870254D01*
X94860897Y-102102010D01*
X95057990Y-102299103D01*
X95289746Y-102453957D01*
X95547260Y-102560623D01*
X95820635Y-102615000D01*
X96099365Y-102615000D01*
X96372740Y-102560623D01*
X96630254Y-102453957D01*
X96862010Y-102299103D01*
X97059103Y-102102010D01*
X97213957Y-101870254D01*
X97230000Y-101831523D01*
X97246043Y-101870254D01*
X97400897Y-102102010D01*
X97597990Y-102299103D01*
X97829746Y-102453957D01*
X98087260Y-102560623D01*
X98360635Y-102615000D01*
X98639365Y-102615000D01*
X98912740Y-102560623D01*
X99170254Y-102453957D01*
X99402010Y-102299103D01*
X99599103Y-102102010D01*
X99753957Y-101870254D01*
X99770000Y-101831523D01*
X99786043Y-101870254D01*
X99940897Y-102102010D01*
X100137990Y-102299103D01*
X100369746Y-102453957D01*
X100627260Y-102560623D01*
X100900635Y-102615000D01*
X101179365Y-102615000D01*
X101452740Y-102560623D01*
X101710254Y-102453957D01*
X101942010Y-102299103D01*
X102062692Y-102178421D01*
X102781184Y-102178421D01*
X102850345Y-102420349D01*
X103102443Y-102539248D01*
X103372894Y-102606681D01*
X103651303Y-102620057D01*
X103926972Y-102578860D01*
X104189308Y-102484675D01*
X104309655Y-102420349D01*
X104378816Y-102178421D01*
X103580000Y-101379605D01*
X102781184Y-102178421D01*
X102062692Y-102178421D01*
X102139103Y-102102010D01*
X102293957Y-101870254D01*
X102308777Y-101834475D01*
X102359651Y-101929655D01*
X102601579Y-101998816D01*
X103400395Y-101200000D01*
X103759605Y-101200000D01*
X104558421Y-101998816D01*
X104800349Y-101929655D01*
X104848425Y-101827721D01*
X104866043Y-101870254D01*
X105020897Y-102102010D01*
X105217990Y-102299103D01*
X105449746Y-102453957D01*
X105707260Y-102560623D01*
X105980635Y-102615000D01*
X106259365Y-102615000D01*
X106532740Y-102560623D01*
X106790254Y-102453957D01*
X107022010Y-102299103D01*
X107219103Y-102102010D01*
X107373957Y-101870254D01*
X107390000Y-101831523D01*
X107406043Y-101870254D01*
X107560897Y-102102010D01*
X107757990Y-102299103D01*
X107989746Y-102453957D01*
X108247260Y-102560623D01*
X108520635Y-102615000D01*
X108799365Y-102615000D01*
X109072740Y-102560623D01*
X109330254Y-102453957D01*
X109562010Y-102299103D01*
X109759103Y-102102010D01*
X109913957Y-101870254D01*
X109930000Y-101831523D01*
X109946043Y-101870254D01*
X110100897Y-102102010D01*
X110297990Y-102299103D01*
X110529746Y-102453957D01*
X110787260Y-102560623D01*
X111060635Y-102615000D01*
X111339365Y-102615000D01*
X111612740Y-102560623D01*
X111870254Y-102453957D01*
X112102010Y-102299103D01*
X112299103Y-102102010D01*
X112453957Y-101870254D01*
X112470000Y-101831523D01*
X112486043Y-101870254D01*
X112640897Y-102102010D01*
X112837990Y-102299103D01*
X113069746Y-102453957D01*
X113327260Y-102560623D01*
X113600635Y-102615000D01*
X113879365Y-102615000D01*
X114152740Y-102560623D01*
X114410254Y-102453957D01*
X114642010Y-102299103D01*
X114839103Y-102102010D01*
X114993957Y-101870254D01*
X115010000Y-101831523D01*
X115026043Y-101870254D01*
X115180897Y-102102010D01*
X115377990Y-102299103D01*
X115609746Y-102453957D01*
X115867260Y-102560623D01*
X116140635Y-102615000D01*
X116419365Y-102615000D01*
X116692740Y-102560623D01*
X116950254Y-102453957D01*
X117182010Y-102299103D01*
X117379103Y-102102010D01*
X117533957Y-101870254D01*
X117550000Y-101831523D01*
X117566043Y-101870254D01*
X117720897Y-102102010D01*
X117917990Y-102299103D01*
X118060001Y-102393991D01*
X118060000Y-110182678D01*
X118056324Y-110220000D01*
X118060000Y-110257322D01*
X118060000Y-110257332D01*
X118070997Y-110368985D01*
X118114454Y-110512246D01*
X118185026Y-110644276D01*
X118224871Y-110692826D01*
X118279999Y-110760001D01*
X118309003Y-110783804D01*
X129556200Y-122031002D01*
X129579999Y-122060001D01*
X129695724Y-122154974D01*
X129827753Y-122225546D01*
X129971014Y-122269003D01*
X130082667Y-122280000D01*
X130082676Y-122280000D01*
X130119999Y-122283676D01*
X130157322Y-122280000D01*
X142521822Y-122280000D01*
X142646525Y-122466632D01*
X142853368Y-122673475D01*
X143027760Y-122790000D01*
X142853368Y-122906525D01*
X142646525Y-123113368D01*
X142484010Y-123356589D01*
X142372068Y-123626842D01*
X142315000Y-123913740D01*
X142315000Y-124206260D01*
X142372068Y-124493158D01*
X142484010Y-124763411D01*
X142646525Y-125006632D01*
X142853368Y-125213475D01*
X143035534Y-125335195D01*
X142918645Y-125404822D01*
X142702412Y-125599731D01*
X142528359Y-125833080D01*
X142403175Y-126095901D01*
X142358524Y-126243110D01*
X142479845Y-126473000D01*
X143673000Y-126473000D01*
X143673000Y-126453000D01*
X143927000Y-126453000D01*
X143927000Y-126473000D01*
X145120155Y-126473000D01*
X145241476Y-126243110D01*
X145196825Y-126095901D01*
X145071641Y-125833080D01*
X144897588Y-125599731D01*
X144681355Y-125404822D01*
X144564466Y-125335195D01*
X144746632Y-125213475D01*
X144953475Y-125006632D01*
X145115990Y-124763411D01*
X145227932Y-124493158D01*
X145285000Y-124206260D01*
X145285000Y-123913740D01*
X145227932Y-123626842D01*
X145115990Y-123356589D01*
X144953475Y-123113368D01*
X144746632Y-122906525D01*
X144572240Y-122790000D01*
X144746632Y-122673475D01*
X144953475Y-122466632D01*
X145078178Y-122280000D01*
X157905199Y-122280000D01*
X163836201Y-128211003D01*
X163859999Y-128240001D01*
X163975724Y-128334974D01*
X164107753Y-128405546D01*
X164251014Y-128449003D01*
X164362667Y-128460000D01*
X164362677Y-128460000D01*
X164400000Y-128463676D01*
X164437323Y-128460000D01*
X169862678Y-128460000D01*
X169900000Y-128463676D01*
X169937322Y-128460000D01*
X169937333Y-128460000D01*
X170048986Y-128449003D01*
X170192247Y-128405546D01*
X170324276Y-128334974D01*
X170440001Y-128240001D01*
X170463803Y-128210998D01*
X171191004Y-127483798D01*
X171220001Y-127460001D01*
X171314974Y-127344276D01*
X171385546Y-127212247D01*
X171429003Y-127068986D01*
X171440000Y-126957333D01*
X171440000Y-126957332D01*
X171443677Y-126920000D01*
X171440000Y-126882667D01*
X171440000Y-126778178D01*
X171626632Y-126653475D01*
X171833475Y-126446632D01*
X171955195Y-126264466D01*
X172024822Y-126381355D01*
X172219731Y-126597588D01*
X172453080Y-126771641D01*
X172715901Y-126896825D01*
X172863110Y-126941476D01*
X173093000Y-126820155D01*
X173093000Y-125627000D01*
X173073000Y-125627000D01*
X173073000Y-125373000D01*
X173093000Y-125373000D01*
X173093000Y-124179845D01*
X173347000Y-124179845D01*
X173347000Y-125373000D01*
X173367000Y-125373000D01*
X173367000Y-125627000D01*
X173347000Y-125627000D01*
X173347000Y-126820155D01*
X173576890Y-126941476D01*
X173724099Y-126896825D01*
X173986920Y-126771641D01*
X174220269Y-126597588D01*
X174415178Y-126381355D01*
X174484805Y-126264466D01*
X174606525Y-126446632D01*
X174813368Y-126653475D01*
X175056589Y-126815990D01*
X175326842Y-126927932D01*
X175613740Y-126985000D01*
X175906260Y-126985000D01*
X176193158Y-126927932D01*
X176463411Y-126815990D01*
X176706632Y-126653475D01*
X176838487Y-126521620D01*
X176860498Y-126594180D01*
X176919463Y-126704494D01*
X176998815Y-126801185D01*
X177095506Y-126880537D01*
X177205820Y-126939502D01*
X177325518Y-126975812D01*
X177450000Y-126988072D01*
X179150000Y-126988072D01*
X179274482Y-126975812D01*
X179394180Y-126939502D01*
X179504494Y-126880537D01*
X179601185Y-126801185D01*
X179680537Y-126704494D01*
X179739502Y-126594180D01*
X179775812Y-126474482D01*
X179788072Y-126350000D01*
X179788072Y-124650000D01*
X179775812Y-124525518D01*
X179739502Y-124405820D01*
X179680537Y-124295506D01*
X179601185Y-124198815D01*
X179504494Y-124119463D01*
X179394180Y-124060498D01*
X179274482Y-124024188D01*
X179150000Y-124011928D01*
X177450000Y-124011928D01*
X177325518Y-124024188D01*
X177205820Y-124060498D01*
X177095506Y-124119463D01*
X176998815Y-124198815D01*
X176919463Y-124295506D01*
X176860498Y-124405820D01*
X176838487Y-124478380D01*
X176706632Y-124346525D01*
X176463411Y-124184010D01*
X176193158Y-124072068D01*
X175906260Y-124015000D01*
X175613740Y-124015000D01*
X175326842Y-124072068D01*
X175056589Y-124184010D01*
X174813368Y-124346525D01*
X174606525Y-124553368D01*
X174484805Y-124735534D01*
X174415178Y-124618645D01*
X174220269Y-124402412D01*
X173986920Y-124228359D01*
X173724099Y-124103175D01*
X173576890Y-124058524D01*
X173347000Y-124179845D01*
X173093000Y-124179845D01*
X172863110Y-124058524D01*
X172715901Y-124103175D01*
X172453080Y-124228359D01*
X172219731Y-124402412D01*
X172024822Y-124618645D01*
X171955195Y-124735534D01*
X171833475Y-124553368D01*
X171626632Y-124346525D01*
X171440000Y-124221822D01*
X171440000Y-123434801D01*
X174614802Y-120260000D01*
X195862678Y-120260000D01*
X195900000Y-120263676D01*
X195937322Y-120260000D01*
X195937333Y-120260000D01*
X196048986Y-120249003D01*
X196192247Y-120205546D01*
X196324276Y-120134974D01*
X196440001Y-120040001D01*
X196463804Y-120010997D01*
X204611004Y-111863798D01*
X204640001Y-111840001D01*
X204734974Y-111724276D01*
X204805546Y-111592247D01*
X204849003Y-111448986D01*
X204860000Y-111337333D01*
X204860000Y-111337324D01*
X204863676Y-111300001D01*
X204860000Y-111262678D01*
X204860000Y-107037325D01*
X204863676Y-107000000D01*
X204860000Y-106962675D01*
X204860000Y-106962667D01*
X204849003Y-106851014D01*
X204805546Y-106707753D01*
X204734974Y-106575724D01*
X204640001Y-106459999D01*
X204611003Y-106436201D01*
X203063804Y-104889003D01*
X203040001Y-104859999D01*
X202924276Y-104765026D01*
X202792247Y-104694454D01*
X202648986Y-104650997D01*
X202537333Y-104640000D01*
X202537322Y-104640000D01*
X202500000Y-104636324D01*
X202462678Y-104640000D01*
X193537325Y-104640000D01*
X193500000Y-104636324D01*
X193462675Y-104640000D01*
X193462667Y-104640000D01*
X193351014Y-104650997D01*
X193207753Y-104694454D01*
X193075724Y-104765026D01*
X192959999Y-104859999D01*
X192936201Y-104888997D01*
X191169003Y-106656196D01*
X191139999Y-106679999D01*
X191084871Y-106747174D01*
X191045026Y-106795724D01*
X191015473Y-106851014D01*
X190974454Y-106927754D01*
X190930997Y-107071015D01*
X190920000Y-107182668D01*
X190920000Y-107182678D01*
X190916324Y-107220000D01*
X190920000Y-107257323D01*
X190920000Y-107651889D01*
X190749304Y-107765944D01*
X190545944Y-107969304D01*
X190411459Y-108170576D01*
X190397073Y-108143663D01*
X190150551Y-108069054D01*
X189319605Y-108900000D01*
X190150551Y-109730946D01*
X190397073Y-109656337D01*
X190410523Y-109628023D01*
X190545944Y-109830696D01*
X190749304Y-110034056D01*
X190988431Y-110193835D01*
X191254134Y-110303893D01*
X191536203Y-110360000D01*
X191823797Y-110360000D01*
X192105866Y-110303893D01*
X192371569Y-110193835D01*
X192610696Y-110034056D01*
X192814056Y-109830696D01*
X192950000Y-109627241D01*
X193085944Y-109830696D01*
X193289304Y-110034056D01*
X193460001Y-110148112D01*
X193460000Y-113665198D01*
X191185199Y-115940000D01*
X167537323Y-115940000D01*
X167500000Y-115936324D01*
X167462677Y-115940000D01*
X167462667Y-115940000D01*
X167351014Y-115950997D01*
X167207753Y-115994454D01*
X167075723Y-116065026D01*
X166992083Y-116133668D01*
X166959999Y-116159999D01*
X166936201Y-116188997D01*
X164905199Y-118220000D01*
X145078178Y-118220000D01*
X144953475Y-118033368D01*
X144821620Y-117901513D01*
X144894180Y-117879502D01*
X145004494Y-117820537D01*
X145101185Y-117741185D01*
X145180537Y-117644494D01*
X145239502Y-117534180D01*
X145275812Y-117414482D01*
X145288072Y-117290000D01*
X145288072Y-115590000D01*
X145275812Y-115465518D01*
X145239502Y-115345820D01*
X145180537Y-115235506D01*
X145101185Y-115138815D01*
X145004494Y-115059463D01*
X144894180Y-115000498D01*
X144774482Y-114964188D01*
X144650000Y-114951928D01*
X142950000Y-114951928D01*
X142825518Y-114964188D01*
X142705820Y-115000498D01*
X142595506Y-115059463D01*
X142498815Y-115138815D01*
X142419463Y-115235506D01*
X142360498Y-115345820D01*
X142324188Y-115465518D01*
X142311928Y-115590000D01*
X142311928Y-117290000D01*
X142324188Y-117414482D01*
X142360498Y-117534180D01*
X142419463Y-117644494D01*
X142498815Y-117741185D01*
X142595506Y-117820537D01*
X142705820Y-117879502D01*
X142778380Y-117901513D01*
X142646525Y-118033368D01*
X142521822Y-118220000D01*
X135294802Y-118220000D01*
X127200000Y-110125199D01*
X127200000Y-102393991D01*
X127342010Y-102299103D01*
X127539103Y-102102010D01*
X127693957Y-101870254D01*
X127710000Y-101831523D01*
X127726043Y-101870254D01*
X127880897Y-102102010D01*
X128077990Y-102299103D01*
X128309746Y-102453957D01*
X128567260Y-102560623D01*
X128840635Y-102615000D01*
X129119365Y-102615000D01*
X129392740Y-102560623D01*
X129650254Y-102453957D01*
X129882010Y-102299103D01*
X130079103Y-102102010D01*
X130233957Y-101870254D01*
X130250000Y-101831523D01*
X130266043Y-101870254D01*
X130420897Y-102102010D01*
X130617990Y-102299103D01*
X130849746Y-102453957D01*
X131107260Y-102560623D01*
X131380635Y-102615000D01*
X131659365Y-102615000D01*
X131932740Y-102560623D01*
X132190254Y-102453957D01*
X132422010Y-102299103D01*
X132619103Y-102102010D01*
X132773957Y-101870254D01*
X132790000Y-101831523D01*
X132806043Y-101870254D01*
X132960897Y-102102010D01*
X133157990Y-102299103D01*
X133389746Y-102453957D01*
X133647260Y-102560623D01*
X133920635Y-102615000D01*
X134199365Y-102615000D01*
X134472740Y-102560623D01*
X134730254Y-102453957D01*
X134962010Y-102299103D01*
X135159103Y-102102010D01*
X135313957Y-101870254D01*
X135420623Y-101612740D01*
X135475000Y-101339365D01*
X135475000Y-101060635D01*
X135420623Y-100787260D01*
X135313957Y-100529746D01*
X135159103Y-100297990D01*
X134962010Y-100100897D01*
X134730254Y-99946043D01*
X134472740Y-99839377D01*
X134199365Y-99785000D01*
X133920635Y-99785000D01*
X133647260Y-99839377D01*
X133389746Y-99946043D01*
X133157990Y-100100897D01*
X132960897Y-100297990D01*
X132806043Y-100529746D01*
X132790000Y-100568477D01*
X132773957Y-100529746D01*
X132619103Y-100297990D01*
X132422010Y-100100897D01*
X132190254Y-99946043D01*
X131932740Y-99839377D01*
X131659365Y-99785000D01*
X131380635Y-99785000D01*
X131107260Y-99839377D01*
X130849746Y-99946043D01*
X130617990Y-100100897D01*
X130420897Y-100297990D01*
X130266043Y-100529746D01*
X130250000Y-100568477D01*
X130233957Y-100529746D01*
X130079103Y-100297990D01*
X129882010Y-100100897D01*
X129650254Y-99946043D01*
X129392740Y-99839377D01*
X129119365Y-99785000D01*
X128840635Y-99785000D01*
X128567260Y-99839377D01*
X128309746Y-99946043D01*
X128077990Y-100100897D01*
X127880897Y-100297990D01*
X127726043Y-100529746D01*
X127710000Y-100568477D01*
X127693957Y-100529746D01*
X127539103Y-100297990D01*
X127342010Y-100100897D01*
X127110254Y-99946043D01*
X126852740Y-99839377D01*
X126579365Y-99785000D01*
X126300635Y-99785000D01*
X126027260Y-99839377D01*
X125769746Y-99946043D01*
X125537990Y-100100897D01*
X125340897Y-100297990D01*
X125186043Y-100529746D01*
X125170000Y-100568477D01*
X125153957Y-100529746D01*
X124999103Y-100297990D01*
X124802010Y-100100897D01*
X124570254Y-99946043D01*
X124312740Y-99839377D01*
X124039365Y-99785000D01*
X123760635Y-99785000D01*
X123487260Y-99839377D01*
X123229746Y-99946043D01*
X122997990Y-100100897D01*
X122800897Y-100297990D01*
X122646043Y-100529746D01*
X122630000Y-100568477D01*
X122613957Y-100529746D01*
X122459103Y-100297990D01*
X122262010Y-100100897D01*
X122030254Y-99946043D01*
X121772740Y-99839377D01*
X121499365Y-99785000D01*
X121220635Y-99785000D01*
X120947260Y-99839377D01*
X120689746Y-99946043D01*
X120457990Y-100100897D01*
X120260897Y-100297990D01*
X120106043Y-100529746D01*
X120090000Y-100568477D01*
X120073957Y-100529746D01*
X119919103Y-100297990D01*
X119722010Y-100100897D01*
X119490254Y-99946043D01*
X119232740Y-99839377D01*
X118959365Y-99785000D01*
X118680635Y-99785000D01*
X118407260Y-99839377D01*
X118149746Y-99946043D01*
X117917990Y-100100897D01*
X117720897Y-100297990D01*
X117566043Y-100529746D01*
X117550000Y-100568477D01*
X117533957Y-100529746D01*
X117379103Y-100297990D01*
X117182010Y-100100897D01*
X116950254Y-99946043D01*
X116692740Y-99839377D01*
X116419365Y-99785000D01*
X116140635Y-99785000D01*
X115867260Y-99839377D01*
X115609746Y-99946043D01*
X115377990Y-100100897D01*
X115180897Y-100297990D01*
X115026043Y-100529746D01*
X115010000Y-100568477D01*
X114993957Y-100529746D01*
X114839103Y-100297990D01*
X114642010Y-100100897D01*
X114410254Y-99946043D01*
X114152740Y-99839377D01*
X113879365Y-99785000D01*
X113600635Y-99785000D01*
X113327260Y-99839377D01*
X113069746Y-99946043D01*
X112837990Y-100100897D01*
X112640897Y-100297990D01*
X112486043Y-100529746D01*
X112470000Y-100568477D01*
X112453957Y-100529746D01*
X112299103Y-100297990D01*
X112102010Y-100100897D01*
X111870254Y-99946043D01*
X111612740Y-99839377D01*
X111339365Y-99785000D01*
X111060635Y-99785000D01*
X110787260Y-99839377D01*
X110529746Y-99946043D01*
X110297990Y-100100897D01*
X110100897Y-100297990D01*
X109946043Y-100529746D01*
X109930000Y-100568477D01*
X109913957Y-100529746D01*
X109759103Y-100297990D01*
X109562010Y-100100897D01*
X109330254Y-99946043D01*
X109072740Y-99839377D01*
X108799365Y-99785000D01*
X108520635Y-99785000D01*
X108247260Y-99839377D01*
X107989746Y-99946043D01*
X107757990Y-100100897D01*
X107560897Y-100297990D01*
X107406043Y-100529746D01*
X107390000Y-100568477D01*
X107373957Y-100529746D01*
X107219103Y-100297990D01*
X107022010Y-100100897D01*
X106790254Y-99946043D01*
X106532740Y-99839377D01*
X106259365Y-99785000D01*
X105980635Y-99785000D01*
X105707260Y-99839377D01*
X105449746Y-99946043D01*
X105217990Y-100100897D01*
X105020897Y-100297990D01*
X104866043Y-100529746D01*
X104851223Y-100565525D01*
X104800349Y-100470345D01*
X104558421Y-100401184D01*
X103759605Y-101200000D01*
X103400395Y-101200000D01*
X102601579Y-100401184D01*
X102359651Y-100470345D01*
X102311575Y-100572279D01*
X102293957Y-100529746D01*
X102139103Y-100297990D01*
X102062692Y-100221579D01*
X102781184Y-100221579D01*
X103580000Y-101020395D01*
X104378816Y-100221579D01*
X104309655Y-99979651D01*
X104057557Y-99860752D01*
X103787106Y-99793319D01*
X103508697Y-99779943D01*
X103233028Y-99821140D01*
X102970692Y-99915325D01*
X102850345Y-99979651D01*
X102781184Y-100221579D01*
X102062692Y-100221579D01*
X101942010Y-100100897D01*
X101710254Y-99946043D01*
X101452740Y-99839377D01*
X101179365Y-99785000D01*
X100900635Y-99785000D01*
X100627260Y-99839377D01*
X100369746Y-99946043D01*
X100137990Y-100100897D01*
X99940897Y-100297990D01*
X99786043Y-100529746D01*
X99770000Y-100568477D01*
X99753957Y-100529746D01*
X99599103Y-100297990D01*
X99402010Y-100100897D01*
X99170254Y-99946043D01*
X98912740Y-99839377D01*
X98639365Y-99785000D01*
X98360635Y-99785000D01*
X98087260Y-99839377D01*
X97829746Y-99946043D01*
X97597990Y-100100897D01*
X97400897Y-100297990D01*
X97246043Y-100529746D01*
X97230000Y-100568477D01*
X97213957Y-100529746D01*
X97059103Y-100297990D01*
X96862010Y-100100897D01*
X96630254Y-99946043D01*
X96372740Y-99839377D01*
X96099365Y-99785000D01*
X95820635Y-99785000D01*
X95547260Y-99839377D01*
X95289746Y-99946043D01*
X95057990Y-100100897D01*
X94860897Y-100297990D01*
X94706043Y-100529746D01*
X94690000Y-100568477D01*
X94673957Y-100529746D01*
X94519103Y-100297990D01*
X94322010Y-100100897D01*
X94090254Y-99946043D01*
X93832740Y-99839377D01*
X93559365Y-99785000D01*
X93280635Y-99785000D01*
X93007260Y-99839377D01*
X92749746Y-99946043D01*
X92517990Y-100100897D01*
X92320897Y-100297990D01*
X92166043Y-100529746D01*
X92150000Y-100568477D01*
X92133957Y-100529746D01*
X91979103Y-100297990D01*
X91782010Y-100100897D01*
X91550254Y-99946043D01*
X91292740Y-99839377D01*
X91019365Y-99785000D01*
X90740635Y-99785000D01*
X90467260Y-99839377D01*
X90209746Y-99946043D01*
X89977990Y-100100897D01*
X89780897Y-100297990D01*
X89626043Y-100529746D01*
X89611223Y-100565525D01*
X89560349Y-100470345D01*
X89318421Y-100401184D01*
X88519605Y-101200000D01*
X88160395Y-101200000D01*
X87361579Y-100401184D01*
X87119651Y-100470345D01*
X87000752Y-100722443D01*
X86933319Y-100992894D01*
X86919943Y-101271303D01*
X79985755Y-101271303D01*
X79920155Y-101147000D01*
X78727000Y-101147000D01*
X78727000Y-101167000D01*
X78473000Y-101167000D01*
X78473000Y-101147000D01*
X78453000Y-101147000D01*
X78453000Y-100893000D01*
X78473000Y-100893000D01*
X78473000Y-100873000D01*
X78727000Y-100873000D01*
X78727000Y-100893000D01*
X79920155Y-100893000D01*
X80041476Y-100663110D01*
X79996825Y-100515901D01*
X79871641Y-100253080D01*
X79848145Y-100221579D01*
X87541184Y-100221579D01*
X88340000Y-101020395D01*
X89138816Y-100221579D01*
X89069655Y-99979651D01*
X88817557Y-99860752D01*
X88547106Y-99793319D01*
X88268697Y-99779943D01*
X87993028Y-99821140D01*
X87730692Y-99915325D01*
X87610345Y-99979651D01*
X87541184Y-100221579D01*
X79848145Y-100221579D01*
X79697588Y-100019731D01*
X79481355Y-99824822D01*
X79364466Y-99755195D01*
X79546632Y-99633475D01*
X79753475Y-99426632D01*
X79915990Y-99183411D01*
X80027932Y-98913158D01*
X80085000Y-98626260D01*
X80085000Y-98333740D01*
X80027932Y-98046842D01*
X79915990Y-97776589D01*
X79753475Y-97533368D01*
X79546632Y-97326525D01*
X79364466Y-97204805D01*
X79481355Y-97135178D01*
X79697588Y-96940269D01*
X79871641Y-96706920D01*
X79996825Y-96444099D01*
X80041476Y-96296890D01*
X79920155Y-96067000D01*
X78727000Y-96067000D01*
X78727000Y-96087000D01*
X78473000Y-96087000D01*
X78473000Y-96067000D01*
X78453000Y-96067000D01*
X78453000Y-95813000D01*
X78473000Y-95813000D01*
X78473000Y-95793000D01*
X78727000Y-95793000D01*
X78727000Y-95813000D01*
X79920155Y-95813000D01*
X80041476Y-95583110D01*
X79996825Y-95435901D01*
X79871641Y-95173080D01*
X79697588Y-94939731D01*
X79613534Y-94863966D01*
X79694180Y-94839502D01*
X79804494Y-94780537D01*
X79901185Y-94701185D01*
X79980537Y-94604494D01*
X80039502Y-94494180D01*
X80075812Y-94374482D01*
X80088072Y-94250000D01*
X80088072Y-92550000D01*
X80075812Y-92425518D01*
X80039502Y-92305820D01*
X79980537Y-92195506D01*
X79901185Y-92098815D01*
X79804494Y-92019463D01*
X79694180Y-91960498D01*
X79574482Y-91924188D01*
X79450000Y-91911928D01*
X77750000Y-91911928D01*
X77625518Y-91924188D01*
X77505820Y-91960498D01*
X77395506Y-92019463D01*
X77298815Y-92098815D01*
X77219463Y-92195506D01*
X77160498Y-92305820D01*
X77138487Y-92378380D01*
X77006632Y-92246525D01*
X76763411Y-92084010D01*
X76493158Y-91972068D01*
X76206260Y-91915000D01*
X75913740Y-91915000D01*
X75626842Y-91972068D01*
X75356589Y-92084010D01*
X75113368Y-92246525D01*
X74906525Y-92453368D01*
X74744010Y-92696589D01*
X74632068Y-92966842D01*
X74575000Y-93253740D01*
X68785000Y-93253740D01*
X68785000Y-89800000D01*
X138911686Y-89800000D01*
X138915001Y-89833657D01*
X138915000Y-109766353D01*
X138911686Y-109800000D01*
X138924912Y-109934283D01*
X138964081Y-110063406D01*
X139027688Y-110182407D01*
X139113289Y-110286711D01*
X139191409Y-110350823D01*
X139217593Y-110372312D01*
X139336594Y-110435919D01*
X139465717Y-110475088D01*
X139600000Y-110488314D01*
X139633647Y-110485000D01*
X175566353Y-110485000D01*
X175600000Y-110488314D01*
X175734283Y-110475088D01*
X175863406Y-110435919D01*
X175982407Y-110372312D01*
X176086711Y-110286711D01*
X176172312Y-110182407D01*
X176235919Y-110063406D01*
X176275088Y-109934283D01*
X176285000Y-109833647D01*
X176285000Y-109833646D01*
X176288314Y-109800000D01*
X176285000Y-109766353D01*
X176285000Y-108075000D01*
X185136928Y-108075000D01*
X185136928Y-109725000D01*
X185149188Y-109849482D01*
X185185498Y-109969180D01*
X185244463Y-110079494D01*
X185323815Y-110176185D01*
X185420506Y-110255537D01*
X185530820Y-110314502D01*
X185650518Y-110350812D01*
X185775000Y-110363072D01*
X187425000Y-110363072D01*
X187549482Y-110350812D01*
X187669180Y-110314502D01*
X187779494Y-110255537D01*
X187876185Y-110176185D01*
X187955537Y-110079494D01*
X188014502Y-109969180D01*
X188032286Y-109910551D01*
X188309054Y-109910551D01*
X188383663Y-110157073D01*
X188643439Y-110280473D01*
X188922297Y-110350823D01*
X189209521Y-110365417D01*
X189494074Y-110323697D01*
X189765020Y-110227265D01*
X189896337Y-110157073D01*
X189970946Y-109910551D01*
X189140000Y-109079605D01*
X188309054Y-109910551D01*
X188032286Y-109910551D01*
X188050812Y-109849482D01*
X188063072Y-109725000D01*
X188063072Y-109710857D01*
X188129449Y-109730946D01*
X188960395Y-108900000D01*
X188129449Y-108069054D01*
X188063072Y-108089143D01*
X188063072Y-108075000D01*
X188050812Y-107950518D01*
X188032287Y-107889449D01*
X188309054Y-107889449D01*
X189140000Y-108720395D01*
X189970946Y-107889449D01*
X189896337Y-107642927D01*
X189636561Y-107519527D01*
X189357703Y-107449177D01*
X189070479Y-107434583D01*
X188785926Y-107476303D01*
X188514980Y-107572735D01*
X188383663Y-107642927D01*
X188309054Y-107889449D01*
X188032287Y-107889449D01*
X188014502Y-107830820D01*
X187955537Y-107720506D01*
X187876185Y-107623815D01*
X187779494Y-107544463D01*
X187669180Y-107485498D01*
X187549482Y-107449188D01*
X187425000Y-107436928D01*
X185775000Y-107436928D01*
X185650518Y-107449188D01*
X185530820Y-107485498D01*
X185420506Y-107544463D01*
X185323815Y-107623815D01*
X185244463Y-107720506D01*
X185185498Y-107830820D01*
X185149188Y-107950518D01*
X185136928Y-108075000D01*
X176285000Y-108075000D01*
X176285000Y-95803110D01*
X182458524Y-95803110D01*
X182579845Y-96033000D01*
X183773000Y-96033000D01*
X183773000Y-94839186D01*
X184027000Y-94839186D01*
X184027000Y-96033000D01*
X185220155Y-96033000D01*
X185341476Y-95803110D01*
X185296825Y-95655901D01*
X185171641Y-95393080D01*
X184997588Y-95159731D01*
X184781355Y-94964822D01*
X184531252Y-94815843D01*
X184256891Y-94718519D01*
X184027000Y-94839186D01*
X183773000Y-94839186D01*
X183543109Y-94718519D01*
X183268748Y-94815843D01*
X183018645Y-94964822D01*
X182802412Y-95159731D01*
X182628359Y-95393080D01*
X182503175Y-95655901D01*
X182458524Y-95803110D01*
X176285000Y-95803110D01*
X176285000Y-93253740D01*
X208575000Y-93253740D01*
X208575000Y-93546260D01*
X208632068Y-93833158D01*
X208744010Y-94103411D01*
X208906525Y-94346632D01*
X209113368Y-94553475D01*
X209287760Y-94670000D01*
X209113368Y-94786525D01*
X208906525Y-94993368D01*
X208744010Y-95236589D01*
X208632068Y-95506842D01*
X208575000Y-95793740D01*
X208575000Y-96086260D01*
X208632068Y-96373158D01*
X208744010Y-96643411D01*
X208906525Y-96886632D01*
X209113368Y-97093475D01*
X209287760Y-97210000D01*
X209113368Y-97326525D01*
X208906525Y-97533368D01*
X208744010Y-97776589D01*
X208632068Y-98046842D01*
X208575000Y-98333740D01*
X208575000Y-98626260D01*
X208632068Y-98913158D01*
X208744010Y-99183411D01*
X208906525Y-99426632D01*
X209113368Y-99633475D01*
X209287760Y-99750000D01*
X209113368Y-99866525D01*
X208906525Y-100073368D01*
X208744010Y-100316589D01*
X208632068Y-100586842D01*
X208575000Y-100873740D01*
X208575000Y-101166260D01*
X208632068Y-101453158D01*
X208744010Y-101723411D01*
X208906525Y-101966632D01*
X209113368Y-102173475D01*
X209287760Y-102290000D01*
X209113368Y-102406525D01*
X208906525Y-102613368D01*
X208744010Y-102856589D01*
X208632068Y-103126842D01*
X208575000Y-103413740D01*
X208575000Y-103706260D01*
X208632068Y-103993158D01*
X208744010Y-104263411D01*
X208906525Y-104506632D01*
X209113368Y-104713475D01*
X209287760Y-104830000D01*
X209113368Y-104946525D01*
X208906525Y-105153368D01*
X208744010Y-105396589D01*
X208632068Y-105666842D01*
X208575000Y-105953740D01*
X208575000Y-106246260D01*
X208632068Y-106533158D01*
X208744010Y-106803411D01*
X208906525Y-107046632D01*
X209113368Y-107253475D01*
X209287760Y-107370000D01*
X209113368Y-107486525D01*
X208906525Y-107693368D01*
X208744010Y-107936589D01*
X208632068Y-108206842D01*
X208575000Y-108493740D01*
X208575000Y-108786260D01*
X208632068Y-109073158D01*
X208744010Y-109343411D01*
X208906525Y-109586632D01*
X209113368Y-109793475D01*
X209287760Y-109910000D01*
X209113368Y-110026525D01*
X208906525Y-110233368D01*
X208744010Y-110476589D01*
X208632068Y-110746842D01*
X208575000Y-111033740D01*
X208575000Y-111326260D01*
X208632068Y-111613158D01*
X208744010Y-111883411D01*
X208906525Y-112126632D01*
X209113368Y-112333475D01*
X209356589Y-112495990D01*
X209626842Y-112607932D01*
X209913740Y-112665000D01*
X210206260Y-112665000D01*
X210493158Y-112607932D01*
X210763411Y-112495990D01*
X211006632Y-112333475D01*
X211213475Y-112126632D01*
X211331100Y-111950594D01*
X211502412Y-112180269D01*
X211718645Y-112375178D01*
X211968748Y-112524157D01*
X212243109Y-112621481D01*
X212473000Y-112500814D01*
X212473000Y-111307000D01*
X212727000Y-111307000D01*
X212727000Y-112500814D01*
X212956891Y-112621481D01*
X213231252Y-112524157D01*
X213481355Y-112375178D01*
X213697588Y-112180269D01*
X213871641Y-111946920D01*
X213996825Y-111684099D01*
X214041476Y-111536890D01*
X213920155Y-111307000D01*
X212727000Y-111307000D01*
X212473000Y-111307000D01*
X212453000Y-111307000D01*
X212453000Y-111053000D01*
X212473000Y-111053000D01*
X212473000Y-111033000D01*
X212727000Y-111033000D01*
X212727000Y-111053000D01*
X213920155Y-111053000D01*
X214041476Y-110823110D01*
X213996825Y-110675901D01*
X213871641Y-110413080D01*
X213697588Y-110179731D01*
X213481355Y-109984822D01*
X213364466Y-109915195D01*
X213546632Y-109793475D01*
X213753475Y-109586632D01*
X213915990Y-109343411D01*
X214027932Y-109073158D01*
X214085000Y-108786260D01*
X214085000Y-108493740D01*
X214027932Y-108206842D01*
X213915990Y-107936589D01*
X213753475Y-107693368D01*
X213546632Y-107486525D01*
X213372240Y-107370000D01*
X213546632Y-107253475D01*
X213753475Y-107046632D01*
X213915990Y-106803411D01*
X214027932Y-106533158D01*
X214085000Y-106246260D01*
X214085000Y-105953740D01*
X214027932Y-105666842D01*
X213915990Y-105396589D01*
X213753475Y-105153368D01*
X213546632Y-104946525D01*
X213372240Y-104830000D01*
X213546632Y-104713475D01*
X213753475Y-104506632D01*
X213915990Y-104263411D01*
X214027932Y-103993158D01*
X214085000Y-103706260D01*
X214085000Y-103413740D01*
X214027932Y-103126842D01*
X213915990Y-102856589D01*
X213753475Y-102613368D01*
X213546632Y-102406525D01*
X213364466Y-102284805D01*
X213481355Y-102215178D01*
X213697588Y-102020269D01*
X213871641Y-101786920D01*
X213996825Y-101524099D01*
X214041476Y-101376890D01*
X213920155Y-101147000D01*
X212727000Y-101147000D01*
X212727000Y-101167000D01*
X212473000Y-101167000D01*
X212473000Y-101147000D01*
X212453000Y-101147000D01*
X212453000Y-100893000D01*
X212473000Y-100893000D01*
X212473000Y-100873000D01*
X212727000Y-100873000D01*
X212727000Y-100893000D01*
X213920155Y-100893000D01*
X214041476Y-100663110D01*
X213996825Y-100515901D01*
X213871641Y-100253080D01*
X213697588Y-100019731D01*
X213481355Y-99824822D01*
X213364466Y-99755195D01*
X213546632Y-99633475D01*
X213753475Y-99426632D01*
X213915990Y-99183411D01*
X214027932Y-98913158D01*
X214085000Y-98626260D01*
X214085000Y-98333740D01*
X214027932Y-98046842D01*
X213915990Y-97776589D01*
X213753475Y-97533368D01*
X213546632Y-97326525D01*
X213364466Y-97204805D01*
X213481355Y-97135178D01*
X213697588Y-96940269D01*
X213871641Y-96706920D01*
X213996825Y-96444099D01*
X214041476Y-96296890D01*
X213920155Y-96067000D01*
X212727000Y-96067000D01*
X212727000Y-96087000D01*
X212473000Y-96087000D01*
X212473000Y-96067000D01*
X212453000Y-96067000D01*
X212453000Y-95813000D01*
X212473000Y-95813000D01*
X212473000Y-95793000D01*
X212727000Y-95793000D01*
X212727000Y-95813000D01*
X213920155Y-95813000D01*
X214041476Y-95583110D01*
X213996825Y-95435901D01*
X213871641Y-95173080D01*
X213697588Y-94939731D01*
X213613534Y-94863966D01*
X213694180Y-94839502D01*
X213804494Y-94780537D01*
X213901185Y-94701185D01*
X213980537Y-94604494D01*
X214039502Y-94494180D01*
X214075812Y-94374482D01*
X214088072Y-94250000D01*
X214088072Y-92550000D01*
X214075812Y-92425518D01*
X214039502Y-92305820D01*
X213980537Y-92195506D01*
X213901185Y-92098815D01*
X213804494Y-92019463D01*
X213694180Y-91960498D01*
X213574482Y-91924188D01*
X213450000Y-91911928D01*
X211750000Y-91911928D01*
X211625518Y-91924188D01*
X211505820Y-91960498D01*
X211395506Y-92019463D01*
X211298815Y-92098815D01*
X211219463Y-92195506D01*
X211160498Y-92305820D01*
X211138487Y-92378380D01*
X211006632Y-92246525D01*
X210763411Y-92084010D01*
X210493158Y-91972068D01*
X210206260Y-91915000D01*
X209913740Y-91915000D01*
X209626842Y-91972068D01*
X209356589Y-92084010D01*
X209113368Y-92246525D01*
X208906525Y-92453368D01*
X208744010Y-92696589D01*
X208632068Y-92966842D01*
X208575000Y-93253740D01*
X176285000Y-93253740D01*
X176285000Y-89833647D01*
X176288314Y-89800000D01*
X176275088Y-89665717D01*
X176235919Y-89536594D01*
X176172312Y-89417593D01*
X176086711Y-89313289D01*
X175982407Y-89227688D01*
X175863406Y-89164081D01*
X175734283Y-89124912D01*
X175633647Y-89115000D01*
X175600000Y-89111686D01*
X175566353Y-89115000D01*
X139633647Y-89115000D01*
X139600000Y-89111686D01*
X139566353Y-89115000D01*
X139465717Y-89124912D01*
X139336594Y-89164081D01*
X139217593Y-89227688D01*
X139113289Y-89313289D01*
X139027688Y-89417593D01*
X138964081Y-89536594D01*
X138924912Y-89665717D01*
X138911686Y-89800000D01*
X68785000Y-89800000D01*
X68785000Y-72985000D01*
X222415000Y-72985000D01*
X222415001Y-131615000D01*
G04 #@! TA.AperFunction,Conductor*
D20*
G36*
X222415001Y-131615000D02*
G01*
X68785000Y-131615000D01*
X68785000Y-125820000D01*
X86921928Y-125820000D01*
X86921928Y-127380000D01*
X86934188Y-127504482D01*
X86970498Y-127624180D01*
X87029463Y-127734494D01*
X87108815Y-127831185D01*
X87205506Y-127910537D01*
X87315820Y-127969502D01*
X87435518Y-128005812D01*
X87560000Y-128018072D01*
X89120000Y-128018072D01*
X89244482Y-128005812D01*
X89364180Y-127969502D01*
X89474494Y-127910537D01*
X89571185Y-127831185D01*
X89650537Y-127734494D01*
X89709502Y-127624180D01*
X89745812Y-127504482D01*
X89750531Y-127456564D01*
X89780897Y-127502010D01*
X89977990Y-127699103D01*
X90209746Y-127853957D01*
X90467260Y-127960623D01*
X90740635Y-128015000D01*
X91019365Y-128015000D01*
X91292740Y-127960623D01*
X91550254Y-127853957D01*
X91782010Y-127699103D01*
X91979103Y-127502010D01*
X92133957Y-127270254D01*
X92150000Y-127231523D01*
X92166043Y-127270254D01*
X92320897Y-127502010D01*
X92517990Y-127699103D01*
X92749746Y-127853957D01*
X93007260Y-127960623D01*
X93280635Y-128015000D01*
X93559365Y-128015000D01*
X93832740Y-127960623D01*
X94090254Y-127853957D01*
X94322010Y-127699103D01*
X94519103Y-127502010D01*
X94673957Y-127270254D01*
X94690000Y-127231523D01*
X94706043Y-127270254D01*
X94860897Y-127502010D01*
X95057990Y-127699103D01*
X95289746Y-127853957D01*
X95547260Y-127960623D01*
X95820635Y-128015000D01*
X96099365Y-128015000D01*
X96372740Y-127960623D01*
X96630254Y-127853957D01*
X96862010Y-127699103D01*
X97059103Y-127502010D01*
X97213957Y-127270254D01*
X97230000Y-127231523D01*
X97246043Y-127270254D01*
X97400897Y-127502010D01*
X97597990Y-127699103D01*
X97829746Y-127853957D01*
X98087260Y-127960623D01*
X98360635Y-128015000D01*
X98639365Y-128015000D01*
X98912740Y-127960623D01*
X99170254Y-127853957D01*
X99402010Y-127699103D01*
X99599103Y-127502010D01*
X99753957Y-127270254D01*
X99770000Y-127231523D01*
X99786043Y-127270254D01*
X99940897Y-127502010D01*
X100137990Y-127699103D01*
X100369746Y-127853957D01*
X100627260Y-127960623D01*
X100900635Y-128015000D01*
X101179365Y-128015000D01*
X101452740Y-127960623D01*
X101710254Y-127853957D01*
X101942010Y-127699103D01*
X102139103Y-127502010D01*
X102293957Y-127270254D01*
X102310000Y-127231523D01*
X102326043Y-127270254D01*
X102480897Y-127502010D01*
X102677990Y-127699103D01*
X102909746Y-127853957D01*
X103167260Y-127960623D01*
X103440635Y-128015000D01*
X103719365Y-128015000D01*
X103992740Y-127960623D01*
X104250254Y-127853957D01*
X104482010Y-127699103D01*
X104679103Y-127502010D01*
X104833957Y-127270254D01*
X104850000Y-127231523D01*
X104866043Y-127270254D01*
X105020897Y-127502010D01*
X105217990Y-127699103D01*
X105449746Y-127853957D01*
X105707260Y-127960623D01*
X105980635Y-128015000D01*
X106259365Y-128015000D01*
X106532740Y-127960623D01*
X106790254Y-127853957D01*
X107022010Y-127699103D01*
X107219103Y-127502010D01*
X107373957Y-127270254D01*
X107390000Y-127231523D01*
X107406043Y-127270254D01*
X107560897Y-127502010D01*
X107757990Y-127699103D01*
X107989746Y-127853957D01*
X108247260Y-127960623D01*
X108520635Y-128015000D01*
X108799365Y-128015000D01*
X109072740Y-127960623D01*
X109330254Y-127853957D01*
X109562010Y-127699103D01*
X109759103Y-127502010D01*
X109913957Y-127270254D01*
X109930000Y-127231523D01*
X109946043Y-127270254D01*
X110100897Y-127502010D01*
X110297990Y-127699103D01*
X110529746Y-127853957D01*
X110787260Y-127960623D01*
X111060635Y-128015000D01*
X111339365Y-128015000D01*
X111612740Y-127960623D01*
X111870254Y-127853957D01*
X112102010Y-127699103D01*
X112299103Y-127502010D01*
X112453957Y-127270254D01*
X112470000Y-127231523D01*
X112486043Y-127270254D01*
X112640897Y-127502010D01*
X112837990Y-127699103D01*
X113069746Y-127853957D01*
X113327260Y-127960623D01*
X113600635Y-128015000D01*
X113879365Y-128015000D01*
X114152740Y-127960623D01*
X114410254Y-127853957D01*
X114642010Y-127699103D01*
X114839103Y-127502010D01*
X114993957Y-127270254D01*
X115010000Y-127231523D01*
X115026043Y-127270254D01*
X115180897Y-127502010D01*
X115377990Y-127699103D01*
X115609746Y-127853957D01*
X115867260Y-127960623D01*
X116140635Y-128015000D01*
X116419365Y-128015000D01*
X116692740Y-127960623D01*
X116950254Y-127853957D01*
X117182010Y-127699103D01*
X117379103Y-127502010D01*
X117533957Y-127270254D01*
X117550000Y-127231523D01*
X117566043Y-127270254D01*
X117720897Y-127502010D01*
X117917990Y-127699103D01*
X118149746Y-127853957D01*
X118407260Y-127960623D01*
X118680635Y-128015000D01*
X118959365Y-128015000D01*
X119232740Y-127960623D01*
X119490254Y-127853957D01*
X119722010Y-127699103D01*
X119842692Y-127578421D01*
X120561184Y-127578421D01*
X120630345Y-127820349D01*
X120882443Y-127939248D01*
X121152894Y-128006681D01*
X121431303Y-128020057D01*
X121706972Y-127978860D01*
X121969308Y-127884675D01*
X122089655Y-127820349D01*
X122158816Y-127578421D01*
X121360000Y-126779605D01*
X120561184Y-127578421D01*
X119842692Y-127578421D01*
X119919103Y-127502010D01*
X120073957Y-127270254D01*
X120088777Y-127234475D01*
X120139651Y-127329655D01*
X120381579Y-127398816D01*
X121180395Y-126600000D01*
X121539605Y-126600000D01*
X122338421Y-127398816D01*
X122580349Y-127329655D01*
X122628425Y-127227721D01*
X122646043Y-127270254D01*
X122800897Y-127502010D01*
X122997990Y-127699103D01*
X123229746Y-127853957D01*
X123487260Y-127960623D01*
X123760635Y-128015000D01*
X124039365Y-128015000D01*
X124312740Y-127960623D01*
X124570254Y-127853957D01*
X124802010Y-127699103D01*
X124999103Y-127502010D01*
X125153957Y-127270254D01*
X125170000Y-127231523D01*
X125186043Y-127270254D01*
X125340897Y-127502010D01*
X125537990Y-127699103D01*
X125769746Y-127853957D01*
X126027260Y-127960623D01*
X126300635Y-128015000D01*
X126579365Y-128015000D01*
X126852740Y-127960623D01*
X127110254Y-127853957D01*
X127342010Y-127699103D01*
X127539103Y-127502010D01*
X127693957Y-127270254D01*
X127710000Y-127231523D01*
X127726043Y-127270254D01*
X127880897Y-127502010D01*
X128077990Y-127699103D01*
X128309746Y-127853957D01*
X128567260Y-127960623D01*
X128840635Y-128015000D01*
X129119365Y-128015000D01*
X129392740Y-127960623D01*
X129650254Y-127853957D01*
X129882010Y-127699103D01*
X130079103Y-127502010D01*
X130233957Y-127270254D01*
X130250000Y-127231523D01*
X130266043Y-127270254D01*
X130420897Y-127502010D01*
X130617990Y-127699103D01*
X130849746Y-127853957D01*
X131107260Y-127960623D01*
X131380635Y-128015000D01*
X131659365Y-128015000D01*
X131932740Y-127960623D01*
X132190254Y-127853957D01*
X132422010Y-127699103D01*
X132619103Y-127502010D01*
X132773957Y-127270254D01*
X132790000Y-127231523D01*
X132806043Y-127270254D01*
X132960897Y-127502010D01*
X133157990Y-127699103D01*
X133175000Y-127710469D01*
X133175000Y-128416531D01*
X133170719Y-128460000D01*
X133175000Y-128503469D01*
X133175000Y-128503476D01*
X133187805Y-128633489D01*
X133238411Y-128800312D01*
X133320589Y-128954058D01*
X133431183Y-129088817D01*
X133464956Y-129116534D01*
X134643470Y-130295049D01*
X134671183Y-130328817D01*
X134704951Y-130356530D01*
X134704953Y-130356532D01*
X134805940Y-130439410D01*
X134805941Y-130439411D01*
X134959687Y-130521589D01*
X135126510Y-130572195D01*
X135256523Y-130585000D01*
X135256531Y-130585000D01*
X135300000Y-130589281D01*
X135343469Y-130585000D01*
X205056531Y-130585000D01*
X205100000Y-130589281D01*
X205143469Y-130585000D01*
X205143477Y-130585000D01*
X205273490Y-130572195D01*
X205440313Y-130521589D01*
X205594059Y-130439411D01*
X205728817Y-130328817D01*
X205756534Y-130295044D01*
X206495049Y-129556530D01*
X206528817Y-129528817D01*
X206639411Y-129394059D01*
X206721589Y-129240313D01*
X206772195Y-129073490D01*
X206785000Y-128943477D01*
X206785000Y-128943469D01*
X206789281Y-128900000D01*
X206785000Y-128856531D01*
X206785000Y-104643466D01*
X206789281Y-104599999D01*
X206785000Y-104556533D01*
X206785000Y-104556523D01*
X206772195Y-104426510D01*
X206721589Y-104259687D01*
X206639411Y-104105941D01*
X206528817Y-103971183D01*
X206495051Y-103943472D01*
X200656534Y-98104956D01*
X200628817Y-98071183D01*
X200494059Y-97960589D01*
X200340313Y-97878411D01*
X200173490Y-97827805D01*
X200043477Y-97815000D01*
X200043469Y-97815000D01*
X200000000Y-97810719D01*
X199956531Y-97815000D01*
X185384625Y-97815000D01*
X185375812Y-97725518D01*
X185339502Y-97605820D01*
X185280537Y-97495506D01*
X185201185Y-97398815D01*
X185104494Y-97319463D01*
X184994180Y-97260498D01*
X184913534Y-97236034D01*
X184997588Y-97160269D01*
X185171641Y-96926920D01*
X185296825Y-96664099D01*
X185341476Y-96516890D01*
X185220155Y-96287000D01*
X184027000Y-96287000D01*
X184027000Y-96307000D01*
X183773000Y-96307000D01*
X183773000Y-96287000D01*
X182579845Y-96287000D01*
X182458524Y-96516890D01*
X182503175Y-96664099D01*
X182628359Y-96926920D01*
X182802412Y-97160269D01*
X182886466Y-97236034D01*
X182805820Y-97260498D01*
X182695506Y-97319463D01*
X182598815Y-97398815D01*
X182519463Y-97495506D01*
X182460498Y-97605820D01*
X182424188Y-97725518D01*
X182411928Y-97850000D01*
X182411928Y-99550000D01*
X182424188Y-99674482D01*
X182460498Y-99794180D01*
X182519463Y-99904494D01*
X182598815Y-100001185D01*
X182695506Y-100080537D01*
X182805820Y-100139502D01*
X182925518Y-100175812D01*
X183050000Y-100188072D01*
X184750000Y-100188072D01*
X184874482Y-100175812D01*
X184994180Y-100139502D01*
X185104494Y-100080537D01*
X185201185Y-100001185D01*
X185280537Y-99904494D01*
X185339502Y-99794180D01*
X185375812Y-99674482D01*
X185384625Y-99585000D01*
X199633422Y-99585000D01*
X205015000Y-104966579D01*
X205015001Y-128533420D01*
X204733422Y-128815000D01*
X135666579Y-128815000D01*
X134945000Y-128093422D01*
X134945000Y-127710469D01*
X134962010Y-127699103D01*
X135159103Y-127502010D01*
X135313957Y-127270254D01*
X135420623Y-127012740D01*
X135431732Y-126956890D01*
X142358524Y-126956890D01*
X142403175Y-127104099D01*
X142528359Y-127366920D01*
X142702412Y-127600269D01*
X142918645Y-127795178D01*
X143168748Y-127944157D01*
X143443109Y-128041481D01*
X143673000Y-127920814D01*
X143673000Y-126727000D01*
X143927000Y-126727000D01*
X143927000Y-127920814D01*
X144156891Y-128041481D01*
X144431252Y-127944157D01*
X144681355Y-127795178D01*
X144897588Y-127600269D01*
X145071641Y-127366920D01*
X145196825Y-127104099D01*
X145241476Y-126956890D01*
X145120155Y-126727000D01*
X143927000Y-126727000D01*
X143673000Y-126727000D01*
X142479845Y-126727000D01*
X142358524Y-126956890D01*
X135431732Y-126956890D01*
X135475000Y-126739365D01*
X135475000Y-126460635D01*
X135420623Y-126187260D01*
X135313957Y-125929746D01*
X135159103Y-125697990D01*
X134962010Y-125500897D01*
X134730254Y-125346043D01*
X134472740Y-125239377D01*
X134199365Y-125185000D01*
X133920635Y-125185000D01*
X133647260Y-125239377D01*
X133389746Y-125346043D01*
X133157990Y-125500897D01*
X132960897Y-125697990D01*
X132806043Y-125929746D01*
X132790000Y-125968477D01*
X132773957Y-125929746D01*
X132619103Y-125697990D01*
X132422010Y-125500897D01*
X132190254Y-125346043D01*
X131932740Y-125239377D01*
X131659365Y-125185000D01*
X131380635Y-125185000D01*
X131107260Y-125239377D01*
X130849746Y-125346043D01*
X130617990Y-125500897D01*
X130420897Y-125697990D01*
X130266043Y-125929746D01*
X130250000Y-125968477D01*
X130233957Y-125929746D01*
X130079103Y-125697990D01*
X129882010Y-125500897D01*
X129650254Y-125346043D01*
X129392740Y-125239377D01*
X129119365Y-125185000D01*
X128840635Y-125185000D01*
X128567260Y-125239377D01*
X128309746Y-125346043D01*
X128077990Y-125500897D01*
X127880897Y-125697990D01*
X127726043Y-125929746D01*
X127710000Y-125968477D01*
X127693957Y-125929746D01*
X127539103Y-125697990D01*
X127342010Y-125500897D01*
X127110254Y-125346043D01*
X126852740Y-125239377D01*
X126579365Y-125185000D01*
X126300635Y-125185000D01*
X126027260Y-125239377D01*
X125769746Y-125346043D01*
X125537990Y-125500897D01*
X125340897Y-125697990D01*
X125186043Y-125929746D01*
X125170000Y-125968477D01*
X125153957Y-125929746D01*
X124999103Y-125697990D01*
X124802010Y-125500897D01*
X124570254Y-125346043D01*
X124312740Y-125239377D01*
X124039365Y-125185000D01*
X123760635Y-125185000D01*
X123487260Y-125239377D01*
X123229746Y-125346043D01*
X122997990Y-125500897D01*
X122800897Y-125697990D01*
X122646043Y-125929746D01*
X122631223Y-125965525D01*
X122580349Y-125870345D01*
X122338421Y-125801184D01*
X121539605Y-126600000D01*
X121180395Y-126600000D01*
X120381579Y-125801184D01*
X120139651Y-125870345D01*
X120091575Y-125972279D01*
X120073957Y-125929746D01*
X119919103Y-125697990D01*
X119842692Y-125621579D01*
X120561184Y-125621579D01*
X121360000Y-126420395D01*
X122158816Y-125621579D01*
X122089655Y-125379651D01*
X121837557Y-125260752D01*
X121567106Y-125193319D01*
X121288697Y-125179943D01*
X121013028Y-125221140D01*
X120750692Y-125315325D01*
X120630345Y-125379651D01*
X120561184Y-125621579D01*
X119842692Y-125621579D01*
X119722010Y-125500897D01*
X119490254Y-125346043D01*
X119232740Y-125239377D01*
X118959365Y-125185000D01*
X118680635Y-125185000D01*
X118407260Y-125239377D01*
X118149746Y-125346043D01*
X117917990Y-125500897D01*
X117720897Y-125697990D01*
X117566043Y-125929746D01*
X117550000Y-125968477D01*
X117533957Y-125929746D01*
X117379103Y-125697990D01*
X117182010Y-125500897D01*
X116950254Y-125346043D01*
X116692740Y-125239377D01*
X116419365Y-125185000D01*
X116140635Y-125185000D01*
X115867260Y-125239377D01*
X115609746Y-125346043D01*
X115377990Y-125500897D01*
X115180897Y-125697990D01*
X115026043Y-125929746D01*
X115010000Y-125968477D01*
X114993957Y-125929746D01*
X114839103Y-125697990D01*
X114642010Y-125500897D01*
X114410254Y-125346043D01*
X114152740Y-125239377D01*
X113879365Y-125185000D01*
X113600635Y-125185000D01*
X113327260Y-125239377D01*
X113069746Y-125346043D01*
X112837990Y-125500897D01*
X112640897Y-125697990D01*
X112486043Y-125929746D01*
X112470000Y-125968477D01*
X112453957Y-125929746D01*
X112299103Y-125697990D01*
X112102010Y-125500897D01*
X111870254Y-125346043D01*
X111612740Y-125239377D01*
X111339365Y-125185000D01*
X111060635Y-125185000D01*
X110787260Y-125239377D01*
X110529746Y-125346043D01*
X110297990Y-125500897D01*
X110100897Y-125697990D01*
X109946043Y-125929746D01*
X109930000Y-125968477D01*
X109913957Y-125929746D01*
X109759103Y-125697990D01*
X109562010Y-125500897D01*
X109330254Y-125346043D01*
X109072740Y-125239377D01*
X108799365Y-125185000D01*
X108520635Y-125185000D01*
X108247260Y-125239377D01*
X107989746Y-125346043D01*
X107757990Y-125500897D01*
X107560897Y-125697990D01*
X107406043Y-125929746D01*
X107390000Y-125968477D01*
X107373957Y-125929746D01*
X107219103Y-125697990D01*
X107022010Y-125500897D01*
X106790254Y-125346043D01*
X106532740Y-125239377D01*
X106259365Y-125185000D01*
X105980635Y-125185000D01*
X105707260Y-125239377D01*
X105449746Y-125346043D01*
X105217990Y-125500897D01*
X105020897Y-125697990D01*
X104866043Y-125929746D01*
X104850000Y-125968477D01*
X104833957Y-125929746D01*
X104679103Y-125697990D01*
X104482010Y-125500897D01*
X104250254Y-125346043D01*
X103992740Y-125239377D01*
X103719365Y-125185000D01*
X103440635Y-125185000D01*
X103167260Y-125239377D01*
X102909746Y-125346043D01*
X102677990Y-125500897D01*
X102480897Y-125697990D01*
X102326043Y-125929746D01*
X102310000Y-125968477D01*
X102293957Y-125929746D01*
X102139103Y-125697990D01*
X101942010Y-125500897D01*
X101710254Y-125346043D01*
X101452740Y-125239377D01*
X101179365Y-125185000D01*
X100900635Y-125185000D01*
X100627260Y-125239377D01*
X100369746Y-125346043D01*
X100137990Y-125500897D01*
X99940897Y-125697990D01*
X99786043Y-125929746D01*
X99770000Y-125968477D01*
X99753957Y-125929746D01*
X99599103Y-125697990D01*
X99402010Y-125500897D01*
X99170254Y-125346043D01*
X98912740Y-125239377D01*
X98639365Y-125185000D01*
X98360635Y-125185000D01*
X98087260Y-125239377D01*
X97829746Y-125346043D01*
X97597990Y-125500897D01*
X97400897Y-125697990D01*
X97246043Y-125929746D01*
X97230000Y-125968477D01*
X97213957Y-125929746D01*
X97059103Y-125697990D01*
X96862010Y-125500897D01*
X96630254Y-125346043D01*
X96372740Y-125239377D01*
X96099365Y-125185000D01*
X95820635Y-125185000D01*
X95547260Y-125239377D01*
X95289746Y-125346043D01*
X95057990Y-125500897D01*
X94860897Y-125697990D01*
X94706043Y-125929746D01*
X94690000Y-125968477D01*
X94673957Y-125929746D01*
X94519103Y-125697990D01*
X94322010Y-125500897D01*
X94090254Y-125346043D01*
X93832740Y-125239377D01*
X93559365Y-125185000D01*
X93280635Y-125185000D01*
X93007260Y-125239377D01*
X92749746Y-125346043D01*
X92517990Y-125500897D01*
X92320897Y-125697990D01*
X92166043Y-125929746D01*
X92150000Y-125968477D01*
X92133957Y-125929746D01*
X91979103Y-125697990D01*
X91782010Y-125500897D01*
X91550254Y-125346043D01*
X91292740Y-125239377D01*
X91019365Y-125185000D01*
X90740635Y-125185000D01*
X90467260Y-125239377D01*
X90209746Y-125346043D01*
X89977990Y-125500897D01*
X89780897Y-125697990D01*
X89750531Y-125743436D01*
X89745812Y-125695518D01*
X89709502Y-125575820D01*
X89650537Y-125465506D01*
X89571185Y-125368815D01*
X89474494Y-125289463D01*
X89364180Y-125230498D01*
X89244482Y-125194188D01*
X89120000Y-125181928D01*
X87560000Y-125181928D01*
X87435518Y-125194188D01*
X87315820Y-125230498D01*
X87205506Y-125289463D01*
X87108815Y-125368815D01*
X87029463Y-125465506D01*
X86970498Y-125575820D01*
X86934188Y-125695518D01*
X86921928Y-125820000D01*
X68785000Y-125820000D01*
X68785000Y-93253740D01*
X74575000Y-93253740D01*
X74575000Y-93546260D01*
X74632068Y-93833158D01*
X74744010Y-94103411D01*
X74906525Y-94346632D01*
X75113368Y-94553475D01*
X75287760Y-94670000D01*
X75113368Y-94786525D01*
X74906525Y-94993368D01*
X74744010Y-95236589D01*
X74632068Y-95506842D01*
X74575000Y-95793740D01*
X74575000Y-96086260D01*
X74632068Y-96373158D01*
X74744010Y-96643411D01*
X74906525Y-96886632D01*
X75113368Y-97093475D01*
X75287760Y-97210000D01*
X75113368Y-97326525D01*
X74906525Y-97533368D01*
X74744010Y-97776589D01*
X74632068Y-98046842D01*
X74575000Y-98333740D01*
X74575000Y-98626260D01*
X74632068Y-98913158D01*
X74744010Y-99183411D01*
X74906525Y-99426632D01*
X75113368Y-99633475D01*
X75287760Y-99750000D01*
X75113368Y-99866525D01*
X74906525Y-100073368D01*
X74744010Y-100316589D01*
X74632068Y-100586842D01*
X74575000Y-100873740D01*
X74575000Y-101166260D01*
X74632068Y-101453158D01*
X74744010Y-101723411D01*
X74906525Y-101966632D01*
X75113368Y-102173475D01*
X75287760Y-102290000D01*
X75113368Y-102406525D01*
X74906525Y-102613368D01*
X74744010Y-102856589D01*
X74632068Y-103126842D01*
X74575000Y-103413740D01*
X74575000Y-103706260D01*
X74632068Y-103993158D01*
X74744010Y-104263411D01*
X74906525Y-104506632D01*
X75113368Y-104713475D01*
X75287760Y-104830000D01*
X75113368Y-104946525D01*
X74906525Y-105153368D01*
X74744010Y-105396589D01*
X74632068Y-105666842D01*
X74575000Y-105953740D01*
X74575000Y-106246260D01*
X74632068Y-106533158D01*
X74744010Y-106803411D01*
X74906525Y-107046632D01*
X75113368Y-107253475D01*
X75287760Y-107370000D01*
X75113368Y-107486525D01*
X74906525Y-107693368D01*
X74744010Y-107936589D01*
X74632068Y-108206842D01*
X74575000Y-108493740D01*
X74575000Y-108786260D01*
X74632068Y-109073158D01*
X74744010Y-109343411D01*
X74906525Y-109586632D01*
X75113368Y-109793475D01*
X75287760Y-109910000D01*
X75113368Y-110026525D01*
X74906525Y-110233368D01*
X74744010Y-110476589D01*
X74632068Y-110746842D01*
X74575000Y-111033740D01*
X74575000Y-111326260D01*
X74632068Y-111613158D01*
X74744010Y-111883411D01*
X74906525Y-112126632D01*
X75113368Y-112333475D01*
X75356589Y-112495990D01*
X75626842Y-112607932D01*
X75913740Y-112665000D01*
X76206260Y-112665000D01*
X76493158Y-112607932D01*
X76763411Y-112495990D01*
X77006632Y-112333475D01*
X77213475Y-112126632D01*
X77331100Y-111950594D01*
X77502412Y-112180269D01*
X77718645Y-112375178D01*
X77968748Y-112524157D01*
X78243109Y-112621481D01*
X78473000Y-112500814D01*
X78473000Y-111307000D01*
X78727000Y-111307000D01*
X78727000Y-112500814D01*
X78956891Y-112621481D01*
X79231252Y-112524157D01*
X79481355Y-112375178D01*
X79697588Y-112180269D01*
X79871641Y-111946920D01*
X79996825Y-111684099D01*
X80041476Y-111536890D01*
X79920155Y-111307000D01*
X78727000Y-111307000D01*
X78473000Y-111307000D01*
X78453000Y-111307000D01*
X78453000Y-111053000D01*
X78473000Y-111053000D01*
X78473000Y-111033000D01*
X78727000Y-111033000D01*
X78727000Y-111053000D01*
X79920155Y-111053000D01*
X80041476Y-110823110D01*
X79996825Y-110675901D01*
X79871641Y-110413080D01*
X79697588Y-110179731D01*
X79481355Y-109984822D01*
X79364466Y-109915195D01*
X79546632Y-109793475D01*
X79753475Y-109586632D01*
X79915990Y-109343411D01*
X80027932Y-109073158D01*
X80085000Y-108786260D01*
X80085000Y-108493740D01*
X80027932Y-108206842D01*
X79915990Y-107936589D01*
X79753475Y-107693368D01*
X79546632Y-107486525D01*
X79372240Y-107370000D01*
X79546632Y-107253475D01*
X79753475Y-107046632D01*
X79915990Y-106803411D01*
X80027932Y-106533158D01*
X80085000Y-106246260D01*
X80085000Y-105953740D01*
X80027932Y-105666842D01*
X79915990Y-105396589D01*
X79753475Y-105153368D01*
X79546632Y-104946525D01*
X79372240Y-104830000D01*
X79546632Y-104713475D01*
X79753475Y-104506632D01*
X79915990Y-104263411D01*
X80027932Y-103993158D01*
X80085000Y-103706260D01*
X80085000Y-103413740D01*
X80027932Y-103126842D01*
X79915990Y-102856589D01*
X79753475Y-102613368D01*
X79546632Y-102406525D01*
X79364466Y-102284805D01*
X79481355Y-102215178D01*
X79522133Y-102178421D01*
X87541184Y-102178421D01*
X87610345Y-102420349D01*
X87862443Y-102539248D01*
X88132894Y-102606681D01*
X88411303Y-102620057D01*
X88686972Y-102578860D01*
X88949308Y-102484675D01*
X89069655Y-102420349D01*
X89138816Y-102178421D01*
X88340000Y-101379605D01*
X87541184Y-102178421D01*
X79522133Y-102178421D01*
X79697588Y-102020269D01*
X79871641Y-101786920D01*
X79996825Y-101524099D01*
X80041476Y-101376890D01*
X79985755Y-101271303D01*
X86919943Y-101271303D01*
X86961140Y-101546972D01*
X87055325Y-101809308D01*
X87119651Y-101929655D01*
X87361579Y-101998816D01*
X88160395Y-101200000D01*
X88519605Y-101200000D01*
X89318421Y-101998816D01*
X89560349Y-101929655D01*
X89608425Y-101827721D01*
X89626043Y-101870254D01*
X89780897Y-102102010D01*
X89977990Y-102299103D01*
X90209746Y-102453957D01*
X90467260Y-102560623D01*
X90740635Y-102615000D01*
X91019365Y-102615000D01*
X91292740Y-102560623D01*
X91550254Y-102453957D01*
X91782010Y-102299103D01*
X91979103Y-102102010D01*
X92133957Y-101870254D01*
X92150000Y-101831523D01*
X92166043Y-101870254D01*
X92320897Y-102102010D01*
X92517990Y-102299103D01*
X92749746Y-102453957D01*
X93007260Y-102560623D01*
X93280635Y-102615000D01*
X93559365Y-102615000D01*
X93832740Y-102560623D01*
X94090254Y-102453957D01*
X94322010Y-102299103D01*
X94519103Y-102102010D01*
X94673957Y-101870254D01*
X94690000Y-101831523D01*
X94706043Y-101870254D01*
X94860897Y-102102010D01*
X95057990Y-102299103D01*
X95289746Y-102453957D01*
X95547260Y-102560623D01*
X95820635Y-102615000D01*
X96099365Y-102615000D01*
X96372740Y-102560623D01*
X96630254Y-102453957D01*
X96862010Y-102299103D01*
X97059103Y-102102010D01*
X97213957Y-101870254D01*
X97230000Y-101831523D01*
X97246043Y-101870254D01*
X97400897Y-102102010D01*
X97597990Y-102299103D01*
X97829746Y-102453957D01*
X98087260Y-102560623D01*
X98360635Y-102615000D01*
X98639365Y-102615000D01*
X98912740Y-102560623D01*
X99170254Y-102453957D01*
X99402010Y-102299103D01*
X99599103Y-102102010D01*
X99753957Y-101870254D01*
X99770000Y-101831523D01*
X99786043Y-101870254D01*
X99940897Y-102102010D01*
X100137990Y-102299103D01*
X100369746Y-102453957D01*
X100627260Y-102560623D01*
X100900635Y-102615000D01*
X101179365Y-102615000D01*
X101452740Y-102560623D01*
X101710254Y-102453957D01*
X101942010Y-102299103D01*
X102062692Y-102178421D01*
X102781184Y-102178421D01*
X102850345Y-102420349D01*
X103102443Y-102539248D01*
X103372894Y-102606681D01*
X103651303Y-102620057D01*
X103926972Y-102578860D01*
X104189308Y-102484675D01*
X104309655Y-102420349D01*
X104378816Y-102178421D01*
X103580000Y-101379605D01*
X102781184Y-102178421D01*
X102062692Y-102178421D01*
X102139103Y-102102010D01*
X102293957Y-101870254D01*
X102308777Y-101834475D01*
X102359651Y-101929655D01*
X102601579Y-101998816D01*
X103400395Y-101200000D01*
X103759605Y-101200000D01*
X104558421Y-101998816D01*
X104800349Y-101929655D01*
X104848425Y-101827721D01*
X104866043Y-101870254D01*
X105020897Y-102102010D01*
X105217990Y-102299103D01*
X105449746Y-102453957D01*
X105707260Y-102560623D01*
X105980635Y-102615000D01*
X106259365Y-102615000D01*
X106532740Y-102560623D01*
X106790254Y-102453957D01*
X107022010Y-102299103D01*
X107219103Y-102102010D01*
X107373957Y-101870254D01*
X107390000Y-101831523D01*
X107406043Y-101870254D01*
X107560897Y-102102010D01*
X107757990Y-102299103D01*
X107989746Y-102453957D01*
X108247260Y-102560623D01*
X108520635Y-102615000D01*
X108799365Y-102615000D01*
X109072740Y-102560623D01*
X109330254Y-102453957D01*
X109562010Y-102299103D01*
X109759103Y-102102010D01*
X109913957Y-101870254D01*
X109930000Y-101831523D01*
X109946043Y-101870254D01*
X110100897Y-102102010D01*
X110297990Y-102299103D01*
X110529746Y-102453957D01*
X110787260Y-102560623D01*
X111060635Y-102615000D01*
X111339365Y-102615000D01*
X111612740Y-102560623D01*
X111870254Y-102453957D01*
X112102010Y-102299103D01*
X112299103Y-102102010D01*
X112453957Y-101870254D01*
X112470000Y-101831523D01*
X112486043Y-101870254D01*
X112640897Y-102102010D01*
X112837990Y-102299103D01*
X113069746Y-102453957D01*
X113327260Y-102560623D01*
X113600635Y-102615000D01*
X113879365Y-102615000D01*
X114152740Y-102560623D01*
X114410254Y-102453957D01*
X114642010Y-102299103D01*
X114839103Y-102102010D01*
X114993957Y-101870254D01*
X115010000Y-101831523D01*
X115026043Y-101870254D01*
X115180897Y-102102010D01*
X115377990Y-102299103D01*
X115609746Y-102453957D01*
X115867260Y-102560623D01*
X116140635Y-102615000D01*
X116419365Y-102615000D01*
X116692740Y-102560623D01*
X116950254Y-102453957D01*
X117182010Y-102299103D01*
X117379103Y-102102010D01*
X117533957Y-101870254D01*
X117550000Y-101831523D01*
X117566043Y-101870254D01*
X117720897Y-102102010D01*
X117917990Y-102299103D01*
X118060001Y-102393991D01*
X118060000Y-110182678D01*
X118056324Y-110220000D01*
X118060000Y-110257322D01*
X118060000Y-110257332D01*
X118070997Y-110368985D01*
X118114454Y-110512246D01*
X118185026Y-110644276D01*
X118224871Y-110692826D01*
X118279999Y-110760001D01*
X118309003Y-110783804D01*
X129556200Y-122031002D01*
X129579999Y-122060001D01*
X129695724Y-122154974D01*
X129827753Y-122225546D01*
X129971014Y-122269003D01*
X130082667Y-122280000D01*
X130082676Y-122280000D01*
X130119999Y-122283676D01*
X130157322Y-122280000D01*
X142521822Y-122280000D01*
X142646525Y-122466632D01*
X142853368Y-122673475D01*
X143027760Y-122790000D01*
X142853368Y-122906525D01*
X142646525Y-123113368D01*
X142484010Y-123356589D01*
X142372068Y-123626842D01*
X142315000Y-123913740D01*
X142315000Y-124206260D01*
X142372068Y-124493158D01*
X142484010Y-124763411D01*
X142646525Y-125006632D01*
X142853368Y-125213475D01*
X143035534Y-125335195D01*
X142918645Y-125404822D01*
X142702412Y-125599731D01*
X142528359Y-125833080D01*
X142403175Y-126095901D01*
X142358524Y-126243110D01*
X142479845Y-126473000D01*
X143673000Y-126473000D01*
X143673000Y-126453000D01*
X143927000Y-126453000D01*
X143927000Y-126473000D01*
X145120155Y-126473000D01*
X145241476Y-126243110D01*
X145196825Y-126095901D01*
X145071641Y-125833080D01*
X144897588Y-125599731D01*
X144681355Y-125404822D01*
X144564466Y-125335195D01*
X144746632Y-125213475D01*
X144953475Y-125006632D01*
X145115990Y-124763411D01*
X145227932Y-124493158D01*
X145285000Y-124206260D01*
X145285000Y-123913740D01*
X145227932Y-123626842D01*
X145115990Y-123356589D01*
X144953475Y-123113368D01*
X144746632Y-122906525D01*
X144572240Y-122790000D01*
X144746632Y-122673475D01*
X144953475Y-122466632D01*
X145078178Y-122280000D01*
X157905199Y-122280000D01*
X163836201Y-128211003D01*
X163859999Y-128240001D01*
X163975724Y-128334974D01*
X164107753Y-128405546D01*
X164251014Y-128449003D01*
X164362667Y-128460000D01*
X164362677Y-128460000D01*
X164400000Y-128463676D01*
X164437323Y-128460000D01*
X169862678Y-128460000D01*
X169900000Y-128463676D01*
X169937322Y-128460000D01*
X169937333Y-128460000D01*
X170048986Y-128449003D01*
X170192247Y-128405546D01*
X170324276Y-128334974D01*
X170440001Y-128240001D01*
X170463803Y-128210998D01*
X171191004Y-127483798D01*
X171220001Y-127460001D01*
X171314974Y-127344276D01*
X171385546Y-127212247D01*
X171429003Y-127068986D01*
X171440000Y-126957333D01*
X171440000Y-126957332D01*
X171443677Y-126920000D01*
X171440000Y-126882667D01*
X171440000Y-126778178D01*
X171626632Y-126653475D01*
X171833475Y-126446632D01*
X171955195Y-126264466D01*
X172024822Y-126381355D01*
X172219731Y-126597588D01*
X172453080Y-126771641D01*
X172715901Y-126896825D01*
X172863110Y-126941476D01*
X173093000Y-126820155D01*
X173093000Y-125627000D01*
X173073000Y-125627000D01*
X173073000Y-125373000D01*
X173093000Y-125373000D01*
X173093000Y-124179845D01*
X173347000Y-124179845D01*
X173347000Y-125373000D01*
X173367000Y-125373000D01*
X173367000Y-125627000D01*
X173347000Y-125627000D01*
X173347000Y-126820155D01*
X173576890Y-126941476D01*
X173724099Y-126896825D01*
X173986920Y-126771641D01*
X174220269Y-126597588D01*
X174415178Y-126381355D01*
X174484805Y-126264466D01*
X174606525Y-126446632D01*
X174813368Y-126653475D01*
X175056589Y-126815990D01*
X175326842Y-126927932D01*
X175613740Y-126985000D01*
X175906260Y-126985000D01*
X176193158Y-126927932D01*
X176463411Y-126815990D01*
X176706632Y-126653475D01*
X176838487Y-126521620D01*
X176860498Y-126594180D01*
X176919463Y-126704494D01*
X176998815Y-126801185D01*
X177095506Y-126880537D01*
X177205820Y-126939502D01*
X177325518Y-126975812D01*
X177450000Y-126988072D01*
X179150000Y-126988072D01*
X179274482Y-126975812D01*
X179394180Y-126939502D01*
X179504494Y-126880537D01*
X179601185Y-126801185D01*
X179680537Y-126704494D01*
X179739502Y-126594180D01*
X179775812Y-126474482D01*
X179788072Y-126350000D01*
X179788072Y-124650000D01*
X179775812Y-124525518D01*
X179739502Y-124405820D01*
X179680537Y-124295506D01*
X179601185Y-124198815D01*
X179504494Y-124119463D01*
X179394180Y-124060498D01*
X179274482Y-124024188D01*
X179150000Y-124011928D01*
X177450000Y-124011928D01*
X177325518Y-124024188D01*
X177205820Y-124060498D01*
X177095506Y-124119463D01*
X176998815Y-124198815D01*
X176919463Y-124295506D01*
X176860498Y-124405820D01*
X176838487Y-124478380D01*
X176706632Y-124346525D01*
X176463411Y-124184010D01*
X176193158Y-124072068D01*
X175906260Y-124015000D01*
X175613740Y-124015000D01*
X175326842Y-124072068D01*
X175056589Y-124184010D01*
X174813368Y-124346525D01*
X174606525Y-124553368D01*
X174484805Y-124735534D01*
X174415178Y-124618645D01*
X174220269Y-124402412D01*
X173986920Y-124228359D01*
X173724099Y-124103175D01*
X173576890Y-124058524D01*
X173347000Y-124179845D01*
X173093000Y-124179845D01*
X172863110Y-124058524D01*
X172715901Y-124103175D01*
X172453080Y-124228359D01*
X172219731Y-124402412D01*
X172024822Y-124618645D01*
X171955195Y-124735534D01*
X171833475Y-124553368D01*
X171626632Y-124346525D01*
X171440000Y-124221822D01*
X171440000Y-123434801D01*
X174614802Y-120260000D01*
X195862678Y-120260000D01*
X195900000Y-120263676D01*
X195937322Y-120260000D01*
X195937333Y-120260000D01*
X196048986Y-120249003D01*
X196192247Y-120205546D01*
X196324276Y-120134974D01*
X196440001Y-120040001D01*
X196463804Y-120010997D01*
X204611004Y-111863798D01*
X204640001Y-111840001D01*
X204734974Y-111724276D01*
X204805546Y-111592247D01*
X204849003Y-111448986D01*
X204860000Y-111337333D01*
X204860000Y-111337324D01*
X204863676Y-111300001D01*
X204860000Y-111262678D01*
X204860000Y-107037325D01*
X204863676Y-107000000D01*
X204860000Y-106962675D01*
X204860000Y-106962667D01*
X204849003Y-106851014D01*
X204805546Y-106707753D01*
X204734974Y-106575724D01*
X204640001Y-106459999D01*
X204611003Y-106436201D01*
X203063804Y-104889003D01*
X203040001Y-104859999D01*
X202924276Y-104765026D01*
X202792247Y-104694454D01*
X202648986Y-104650997D01*
X202537333Y-104640000D01*
X202537322Y-104640000D01*
X202500000Y-104636324D01*
X202462678Y-104640000D01*
X193537325Y-104640000D01*
X193500000Y-104636324D01*
X193462675Y-104640000D01*
X193462667Y-104640000D01*
X193351014Y-104650997D01*
X193207753Y-104694454D01*
X193075724Y-104765026D01*
X192959999Y-104859999D01*
X192936201Y-104888997D01*
X191169003Y-106656196D01*
X191139999Y-106679999D01*
X191084871Y-106747174D01*
X191045026Y-106795724D01*
X191015473Y-106851014D01*
X190974454Y-106927754D01*
X190930997Y-107071015D01*
X190920000Y-107182668D01*
X190920000Y-107182678D01*
X190916324Y-107220000D01*
X190920000Y-107257323D01*
X190920000Y-107651889D01*
X190749304Y-107765944D01*
X190545944Y-107969304D01*
X190411459Y-108170576D01*
X190397073Y-108143663D01*
X190150551Y-108069054D01*
X189319605Y-108900000D01*
X190150551Y-109730946D01*
X190397073Y-109656337D01*
X190410523Y-109628023D01*
X190545944Y-109830696D01*
X190749304Y-110034056D01*
X190988431Y-110193835D01*
X191254134Y-110303893D01*
X191536203Y-110360000D01*
X191823797Y-110360000D01*
X192105866Y-110303893D01*
X192371569Y-110193835D01*
X192610696Y-110034056D01*
X192814056Y-109830696D01*
X192950000Y-109627241D01*
X193085944Y-109830696D01*
X193289304Y-110034056D01*
X193460001Y-110148112D01*
X193460000Y-113665198D01*
X191185199Y-115940000D01*
X167537323Y-115940000D01*
X167500000Y-115936324D01*
X167462677Y-115940000D01*
X167462667Y-115940000D01*
X167351014Y-115950997D01*
X167207753Y-115994454D01*
X167075723Y-116065026D01*
X166992083Y-116133668D01*
X166959999Y-116159999D01*
X166936201Y-116188997D01*
X164905199Y-118220000D01*
X145078178Y-118220000D01*
X144953475Y-118033368D01*
X144821620Y-117901513D01*
X144894180Y-117879502D01*
X145004494Y-117820537D01*
X145101185Y-117741185D01*
X145180537Y-117644494D01*
X145239502Y-117534180D01*
X145275812Y-117414482D01*
X145288072Y-117290000D01*
X145288072Y-115590000D01*
X145275812Y-115465518D01*
X145239502Y-115345820D01*
X145180537Y-115235506D01*
X145101185Y-115138815D01*
X145004494Y-115059463D01*
X144894180Y-115000498D01*
X144774482Y-114964188D01*
X144650000Y-114951928D01*
X142950000Y-114951928D01*
X142825518Y-114964188D01*
X142705820Y-115000498D01*
X142595506Y-115059463D01*
X142498815Y-115138815D01*
X142419463Y-115235506D01*
X142360498Y-115345820D01*
X142324188Y-115465518D01*
X142311928Y-115590000D01*
X142311928Y-117290000D01*
X142324188Y-117414482D01*
X142360498Y-117534180D01*
X142419463Y-117644494D01*
X142498815Y-117741185D01*
X142595506Y-117820537D01*
X142705820Y-117879502D01*
X142778380Y-117901513D01*
X142646525Y-118033368D01*
X142521822Y-118220000D01*
X135294802Y-118220000D01*
X127200000Y-110125199D01*
X127200000Y-102393991D01*
X127342010Y-102299103D01*
X127539103Y-102102010D01*
X127693957Y-101870254D01*
X127710000Y-101831523D01*
X127726043Y-101870254D01*
X127880897Y-102102010D01*
X128077990Y-102299103D01*
X128309746Y-102453957D01*
X128567260Y-102560623D01*
X128840635Y-102615000D01*
X129119365Y-102615000D01*
X129392740Y-102560623D01*
X129650254Y-102453957D01*
X129882010Y-102299103D01*
X130079103Y-102102010D01*
X130233957Y-101870254D01*
X130250000Y-101831523D01*
X130266043Y-101870254D01*
X130420897Y-102102010D01*
X130617990Y-102299103D01*
X130849746Y-102453957D01*
X131107260Y-102560623D01*
X131380635Y-102615000D01*
X131659365Y-102615000D01*
X131932740Y-102560623D01*
X132190254Y-102453957D01*
X132422010Y-102299103D01*
X132619103Y-102102010D01*
X132773957Y-101870254D01*
X132790000Y-101831523D01*
X132806043Y-101870254D01*
X132960897Y-102102010D01*
X133157990Y-102299103D01*
X133389746Y-102453957D01*
X133647260Y-102560623D01*
X133920635Y-102615000D01*
X134199365Y-102615000D01*
X134472740Y-102560623D01*
X134730254Y-102453957D01*
X134962010Y-102299103D01*
X135159103Y-102102010D01*
X135313957Y-101870254D01*
X135420623Y-101612740D01*
X135475000Y-101339365D01*
X135475000Y-101060635D01*
X135420623Y-100787260D01*
X135313957Y-100529746D01*
X135159103Y-100297990D01*
X134962010Y-100100897D01*
X134730254Y-99946043D01*
X134472740Y-99839377D01*
X134199365Y-99785000D01*
X133920635Y-99785000D01*
X133647260Y-99839377D01*
X133389746Y-99946043D01*
X133157990Y-100100897D01*
X132960897Y-100297990D01*
X132806043Y-100529746D01*
X132790000Y-100568477D01*
X132773957Y-100529746D01*
X132619103Y-100297990D01*
X132422010Y-100100897D01*
X132190254Y-99946043D01*
X131932740Y-99839377D01*
X131659365Y-99785000D01*
X131380635Y-99785000D01*
X131107260Y-99839377D01*
X130849746Y-99946043D01*
X130617990Y-100100897D01*
X130420897Y-100297990D01*
X130266043Y-100529746D01*
X130250000Y-100568477D01*
X130233957Y-100529746D01*
X130079103Y-100297990D01*
X129882010Y-100100897D01*
X129650254Y-99946043D01*
X129392740Y-99839377D01*
X129119365Y-99785000D01*
X128840635Y-99785000D01*
X128567260Y-99839377D01*
X128309746Y-99946043D01*
X128077990Y-100100897D01*
X127880897Y-100297990D01*
X127726043Y-100529746D01*
X127710000Y-100568477D01*
X127693957Y-100529746D01*
X127539103Y-100297990D01*
X127342010Y-100100897D01*
X127110254Y-99946043D01*
X126852740Y-99839377D01*
X126579365Y-99785000D01*
X126300635Y-99785000D01*
X126027260Y-99839377D01*
X125769746Y-99946043D01*
X125537990Y-100100897D01*
X125340897Y-100297990D01*
X125186043Y-100529746D01*
X125170000Y-100568477D01*
X125153957Y-100529746D01*
X124999103Y-100297990D01*
X124802010Y-100100897D01*
X124570254Y-99946043D01*
X124312740Y-99839377D01*
X124039365Y-99785000D01*
X123760635Y-99785000D01*
X123487260Y-99839377D01*
X123229746Y-99946043D01*
X122997990Y-100100897D01*
X122800897Y-100297990D01*
X122646043Y-100529746D01*
X122630000Y-100568477D01*
X122613957Y-100529746D01*
X122459103Y-100297990D01*
X122262010Y-100100897D01*
X122030254Y-99946043D01*
X121772740Y-99839377D01*
X121499365Y-99785000D01*
X121220635Y-99785000D01*
X120947260Y-99839377D01*
X120689746Y-99946043D01*
X120457990Y-100100897D01*
X120260897Y-100297990D01*
X120106043Y-100529746D01*
X120090000Y-100568477D01*
X120073957Y-100529746D01*
X119919103Y-100297990D01*
X119722010Y-100100897D01*
X119490254Y-99946043D01*
X119232740Y-99839377D01*
X118959365Y-99785000D01*
X118680635Y-99785000D01*
X118407260Y-99839377D01*
X118149746Y-99946043D01*
X117917990Y-100100897D01*
X117720897Y-100297990D01*
X117566043Y-100529746D01*
X117550000Y-100568477D01*
X117533957Y-100529746D01*
X117379103Y-100297990D01*
X117182010Y-100100897D01*
X116950254Y-99946043D01*
X116692740Y-99839377D01*
X116419365Y-99785000D01*
X116140635Y-99785000D01*
X115867260Y-99839377D01*
X115609746Y-99946043D01*
X115377990Y-100100897D01*
X115180897Y-100297990D01*
X115026043Y-100529746D01*
X115010000Y-100568477D01*
X114993957Y-100529746D01*
X114839103Y-100297990D01*
X114642010Y-100100897D01*
X114410254Y-99946043D01*
X114152740Y-99839377D01*
X113879365Y-99785000D01*
X113600635Y-99785000D01*
X113327260Y-99839377D01*
X113069746Y-99946043D01*
X112837990Y-100100897D01*
X112640897Y-100297990D01*
X112486043Y-100529746D01*
X112470000Y-100568477D01*
X112453957Y-100529746D01*
X112299103Y-100297990D01*
X112102010Y-100100897D01*
X111870254Y-99946043D01*
X111612740Y-99839377D01*
X111339365Y-99785000D01*
X111060635Y-99785000D01*
X110787260Y-99839377D01*
X110529746Y-99946043D01*
X110297990Y-100100897D01*
X110100897Y-100297990D01*
X109946043Y-100529746D01*
X109930000Y-100568477D01*
X109913957Y-100529746D01*
X109759103Y-100297990D01*
X109562010Y-100100897D01*
X109330254Y-99946043D01*
X109072740Y-99839377D01*
X108799365Y-99785000D01*
X108520635Y-99785000D01*
X108247260Y-99839377D01*
X107989746Y-99946043D01*
X107757990Y-100100897D01*
X107560897Y-100297990D01*
X107406043Y-100529746D01*
X107390000Y-100568477D01*
X107373957Y-100529746D01*
X107219103Y-100297990D01*
X107022010Y-100100897D01*
X106790254Y-99946043D01*
X106532740Y-99839377D01*
X106259365Y-99785000D01*
X105980635Y-99785000D01*
X105707260Y-99839377D01*
X105449746Y-99946043D01*
X105217990Y-100100897D01*
X105020897Y-100297990D01*
X104866043Y-100529746D01*
X104851223Y-100565525D01*
X104800349Y-100470345D01*
X104558421Y-100401184D01*
X103759605Y-101200000D01*
X103400395Y-101200000D01*
X102601579Y-100401184D01*
X102359651Y-100470345D01*
X102311575Y-100572279D01*
X102293957Y-100529746D01*
X102139103Y-100297990D01*
X102062692Y-100221579D01*
X102781184Y-100221579D01*
X103580000Y-101020395D01*
X104378816Y-100221579D01*
X104309655Y-99979651D01*
X104057557Y-99860752D01*
X103787106Y-99793319D01*
X103508697Y-99779943D01*
X103233028Y-99821140D01*
X102970692Y-99915325D01*
X102850345Y-99979651D01*
X102781184Y-100221579D01*
X102062692Y-100221579D01*
X101942010Y-100100897D01*
X101710254Y-99946043D01*
X101452740Y-99839377D01*
X101179365Y-99785000D01*
X100900635Y-99785000D01*
X100627260Y-99839377D01*
X100369746Y-99946043D01*
X100137990Y-100100897D01*
X99940897Y-100297990D01*
X99786043Y-100529746D01*
X99770000Y-100568477D01*
X99753957Y-100529746D01*
X99599103Y-100297990D01*
X99402010Y-100100897D01*
X99170254Y-99946043D01*
X98912740Y-99839377D01*
X98639365Y-99785000D01*
X98360635Y-99785000D01*
X98087260Y-99839377D01*
X97829746Y-99946043D01*
X97597990Y-100100897D01*
X97400897Y-100297990D01*
X97246043Y-100529746D01*
X97230000Y-100568477D01*
X97213957Y-100529746D01*
X97059103Y-100297990D01*
X96862010Y-100100897D01*
X96630254Y-99946043D01*
X96372740Y-99839377D01*
X96099365Y-99785000D01*
X95820635Y-99785000D01*
X95547260Y-99839377D01*
X95289746Y-99946043D01*
X95057990Y-100100897D01*
X94860897Y-100297990D01*
X94706043Y-100529746D01*
X94690000Y-100568477D01*
X94673957Y-100529746D01*
X94519103Y-100297990D01*
X94322010Y-100100897D01*
X94090254Y-99946043D01*
X93832740Y-99839377D01*
X93559365Y-99785000D01*
X93280635Y-99785000D01*
X93007260Y-99839377D01*
X92749746Y-99946043D01*
X92517990Y-100100897D01*
X92320897Y-100297990D01*
X92166043Y-100529746D01*
X92150000Y-100568477D01*
X92133957Y-100529746D01*
X91979103Y-100297990D01*
X91782010Y-100100897D01*
X91550254Y-99946043D01*
X91292740Y-99839377D01*
X91019365Y-99785000D01*
X90740635Y-99785000D01*
X90467260Y-99839377D01*
X90209746Y-99946043D01*
X89977990Y-100100897D01*
X89780897Y-100297990D01*
X89626043Y-100529746D01*
X89611223Y-100565525D01*
X89560349Y-100470345D01*
X89318421Y-100401184D01*
X88519605Y-101200000D01*
X88160395Y-101200000D01*
X87361579Y-100401184D01*
X87119651Y-100470345D01*
X87000752Y-100722443D01*
X86933319Y-100992894D01*
X86919943Y-101271303D01*
X79985755Y-101271303D01*
X79920155Y-101147000D01*
X78727000Y-101147000D01*
X78727000Y-101167000D01*
X78473000Y-101167000D01*
X78473000Y-101147000D01*
X78453000Y-101147000D01*
X78453000Y-100893000D01*
X78473000Y-100893000D01*
X78473000Y-100873000D01*
X78727000Y-100873000D01*
X78727000Y-100893000D01*
X79920155Y-100893000D01*
X80041476Y-100663110D01*
X79996825Y-100515901D01*
X79871641Y-100253080D01*
X79848145Y-100221579D01*
X87541184Y-100221579D01*
X88340000Y-101020395D01*
X89138816Y-100221579D01*
X89069655Y-99979651D01*
X88817557Y-99860752D01*
X88547106Y-99793319D01*
X88268697Y-99779943D01*
X87993028Y-99821140D01*
X87730692Y-99915325D01*
X87610345Y-99979651D01*
X87541184Y-100221579D01*
X79848145Y-100221579D01*
X79697588Y-100019731D01*
X79481355Y-99824822D01*
X79364466Y-99755195D01*
X79546632Y-99633475D01*
X79753475Y-99426632D01*
X79915990Y-99183411D01*
X80027932Y-98913158D01*
X80085000Y-98626260D01*
X80085000Y-98333740D01*
X80027932Y-98046842D01*
X79915990Y-97776589D01*
X79753475Y-97533368D01*
X79546632Y-97326525D01*
X79364466Y-97204805D01*
X79481355Y-97135178D01*
X79697588Y-96940269D01*
X79871641Y-96706920D01*
X79996825Y-96444099D01*
X80041476Y-96296890D01*
X79920155Y-96067000D01*
X78727000Y-96067000D01*
X78727000Y-96087000D01*
X78473000Y-96087000D01*
X78473000Y-96067000D01*
X78453000Y-96067000D01*
X78453000Y-95813000D01*
X78473000Y-95813000D01*
X78473000Y-95793000D01*
X78727000Y-95793000D01*
X78727000Y-95813000D01*
X79920155Y-95813000D01*
X80041476Y-95583110D01*
X79996825Y-95435901D01*
X79871641Y-95173080D01*
X79697588Y-94939731D01*
X79613534Y-94863966D01*
X79694180Y-94839502D01*
X79804494Y-94780537D01*
X79901185Y-94701185D01*
X79980537Y-94604494D01*
X80039502Y-94494180D01*
X80075812Y-94374482D01*
X80088072Y-94250000D01*
X80088072Y-92550000D01*
X80075812Y-92425518D01*
X80039502Y-92305820D01*
X79980537Y-92195506D01*
X79901185Y-92098815D01*
X79804494Y-92019463D01*
X79694180Y-91960498D01*
X79574482Y-91924188D01*
X79450000Y-91911928D01*
X77750000Y-91911928D01*
X77625518Y-91924188D01*
X77505820Y-91960498D01*
X77395506Y-92019463D01*
X77298815Y-92098815D01*
X77219463Y-92195506D01*
X77160498Y-92305820D01*
X77138487Y-92378380D01*
X77006632Y-92246525D01*
X76763411Y-92084010D01*
X76493158Y-91972068D01*
X76206260Y-91915000D01*
X75913740Y-91915000D01*
X75626842Y-91972068D01*
X75356589Y-92084010D01*
X75113368Y-92246525D01*
X74906525Y-92453368D01*
X74744010Y-92696589D01*
X74632068Y-92966842D01*
X74575000Y-93253740D01*
X68785000Y-93253740D01*
X68785000Y-89800000D01*
X138911686Y-89800000D01*
X138915001Y-89833657D01*
X138915000Y-109766353D01*
X138911686Y-109800000D01*
X138924912Y-109934283D01*
X138964081Y-110063406D01*
X139027688Y-110182407D01*
X139113289Y-110286711D01*
X139191409Y-110350823D01*
X139217593Y-110372312D01*
X139336594Y-110435919D01*
X139465717Y-110475088D01*
X139600000Y-110488314D01*
X139633647Y-110485000D01*
X175566353Y-110485000D01*
X175600000Y-110488314D01*
X175734283Y-110475088D01*
X175863406Y-110435919D01*
X175982407Y-110372312D01*
X176086711Y-110286711D01*
X176172312Y-110182407D01*
X176235919Y-110063406D01*
X176275088Y-109934283D01*
X176285000Y-109833647D01*
X176285000Y-109833646D01*
X176288314Y-109800000D01*
X176285000Y-109766353D01*
X176285000Y-108075000D01*
X185136928Y-108075000D01*
X185136928Y-109725000D01*
X185149188Y-109849482D01*
X185185498Y-109969180D01*
X185244463Y-110079494D01*
X185323815Y-110176185D01*
X185420506Y-110255537D01*
X185530820Y-110314502D01*
X185650518Y-110350812D01*
X185775000Y-110363072D01*
X187425000Y-110363072D01*
X187549482Y-110350812D01*
X187669180Y-110314502D01*
X187779494Y-110255537D01*
X187876185Y-110176185D01*
X187955537Y-110079494D01*
X188014502Y-109969180D01*
X188032286Y-109910551D01*
X188309054Y-109910551D01*
X188383663Y-110157073D01*
X188643439Y-110280473D01*
X188922297Y-110350823D01*
X189209521Y-110365417D01*
X189494074Y-110323697D01*
X189765020Y-110227265D01*
X189896337Y-110157073D01*
X189970946Y-109910551D01*
X189140000Y-109079605D01*
X188309054Y-109910551D01*
X188032286Y-109910551D01*
X188050812Y-109849482D01*
X188063072Y-109725000D01*
X188063072Y-109710857D01*
X188129449Y-109730946D01*
X188960395Y-108900000D01*
X188129449Y-108069054D01*
X188063072Y-108089143D01*
X188063072Y-108075000D01*
X188050812Y-107950518D01*
X188032287Y-107889449D01*
X188309054Y-107889449D01*
X189140000Y-108720395D01*
X189970946Y-107889449D01*
X189896337Y-107642927D01*
X189636561Y-107519527D01*
X189357703Y-107449177D01*
X189070479Y-107434583D01*
X188785926Y-107476303D01*
X188514980Y-107572735D01*
X188383663Y-107642927D01*
X188309054Y-107889449D01*
X188032287Y-107889449D01*
X188014502Y-107830820D01*
X187955537Y-107720506D01*
X187876185Y-107623815D01*
X187779494Y-107544463D01*
X187669180Y-107485498D01*
X187549482Y-107449188D01*
X187425000Y-107436928D01*
X185775000Y-107436928D01*
X185650518Y-107449188D01*
X185530820Y-107485498D01*
X185420506Y-107544463D01*
X185323815Y-107623815D01*
X185244463Y-107720506D01*
X185185498Y-107830820D01*
X185149188Y-107950518D01*
X185136928Y-108075000D01*
X176285000Y-108075000D01*
X176285000Y-95803110D01*
X182458524Y-95803110D01*
X182579845Y-96033000D01*
X183773000Y-96033000D01*
X183773000Y-94839186D01*
X184027000Y-94839186D01*
X184027000Y-96033000D01*
X185220155Y-96033000D01*
X185341476Y-95803110D01*
X185296825Y-95655901D01*
X185171641Y-95393080D01*
X184997588Y-95159731D01*
X184781355Y-94964822D01*
X184531252Y-94815843D01*
X184256891Y-94718519D01*
X184027000Y-94839186D01*
X183773000Y-94839186D01*
X183543109Y-94718519D01*
X183268748Y-94815843D01*
X183018645Y-94964822D01*
X182802412Y-95159731D01*
X182628359Y-95393080D01*
X182503175Y-95655901D01*
X182458524Y-95803110D01*
X176285000Y-95803110D01*
X176285000Y-93253740D01*
X208575000Y-93253740D01*
X208575000Y-93546260D01*
X208632068Y-93833158D01*
X208744010Y-94103411D01*
X208906525Y-94346632D01*
X209113368Y-94553475D01*
X209287760Y-94670000D01*
X209113368Y-94786525D01*
X208906525Y-94993368D01*
X208744010Y-95236589D01*
X208632068Y-95506842D01*
X208575000Y-95793740D01*
X208575000Y-96086260D01*
X208632068Y-96373158D01*
X208744010Y-96643411D01*
X208906525Y-96886632D01*
X209113368Y-97093475D01*
X209287760Y-97210000D01*
X209113368Y-97326525D01*
X208906525Y-97533368D01*
X208744010Y-97776589D01*
X208632068Y-98046842D01*
X208575000Y-98333740D01*
X208575000Y-98626260D01*
X208632068Y-98913158D01*
X208744010Y-99183411D01*
X208906525Y-99426632D01*
X209113368Y-99633475D01*
X209287760Y-99750000D01*
X209113368Y-99866525D01*
X208906525Y-100073368D01*
X208744010Y-100316589D01*
X208632068Y-100586842D01*
X208575000Y-100873740D01*
X208575000Y-101166260D01*
X208632068Y-101453158D01*
X208744010Y-101723411D01*
X208906525Y-101966632D01*
X209113368Y-102173475D01*
X209287760Y-102290000D01*
X209113368Y-102406525D01*
X208906525Y-102613368D01*
X208744010Y-102856589D01*
X208632068Y-103126842D01*
X208575000Y-103413740D01*
X208575000Y-103706260D01*
X208632068Y-103993158D01*
X208744010Y-104263411D01*
X208906525Y-104506632D01*
X209113368Y-104713475D01*
X209287760Y-104830000D01*
X209113368Y-104946525D01*
X208906525Y-105153368D01*
X208744010Y-105396589D01*
X208632068Y-105666842D01*
X208575000Y-105953740D01*
X208575000Y-106246260D01*
X208632068Y-106533158D01*
X208744010Y-106803411D01*
X208906525Y-107046632D01*
X209113368Y-107253475D01*
X209287760Y-107370000D01*
X209113368Y-107486525D01*
X208906525Y-107693368D01*
X208744010Y-107936589D01*
X208632068Y-108206842D01*
X208575000Y-108493740D01*
X208575000Y-108786260D01*
X208632068Y-109073158D01*
X208744010Y-109343411D01*
X208906525Y-109586632D01*
X209113368Y-109793475D01*
X209287760Y-109910000D01*
X209113368Y-110026525D01*
X208906525Y-110233368D01*
X208744010Y-110476589D01*
X208632068Y-110746842D01*
X208575000Y-111033740D01*
X208575000Y-111326260D01*
X208632068Y-111613158D01*
X208744010Y-111883411D01*
X208906525Y-112126632D01*
X209113368Y-112333475D01*
X209356589Y-112495990D01*
X209626842Y-112607932D01*
X209913740Y-112665000D01*
X210206260Y-112665000D01*
X210493158Y-112607932D01*
X210763411Y-112495990D01*
X211006632Y-112333475D01*
X211213475Y-112126632D01*
X211331100Y-111950594D01*
X211502412Y-112180269D01*
X211718645Y-112375178D01*
X211968748Y-112524157D01*
X212243109Y-112621481D01*
X212473000Y-112500814D01*
X212473000Y-111307000D01*
X212727000Y-111307000D01*
X212727000Y-112500814D01*
X212956891Y-112621481D01*
X213231252Y-112524157D01*
X213481355Y-112375178D01*
X213697588Y-112180269D01*
X213871641Y-111946920D01*
X213996825Y-111684099D01*
X214041476Y-111536890D01*
X213920155Y-111307000D01*
X212727000Y-111307000D01*
X212473000Y-111307000D01*
X212453000Y-111307000D01*
X212453000Y-111053000D01*
X212473000Y-111053000D01*
X212473000Y-111033000D01*
X212727000Y-111033000D01*
X212727000Y-111053000D01*
X213920155Y-111053000D01*
X214041476Y-110823110D01*
X213996825Y-110675901D01*
X213871641Y-110413080D01*
X213697588Y-110179731D01*
X213481355Y-109984822D01*
X213364466Y-109915195D01*
X213546632Y-109793475D01*
X213753475Y-109586632D01*
X213915990Y-109343411D01*
X214027932Y-109073158D01*
X214085000Y-108786260D01*
X214085000Y-108493740D01*
X214027932Y-108206842D01*
X213915990Y-107936589D01*
X213753475Y-107693368D01*
X213546632Y-107486525D01*
X213372240Y-107370000D01*
X213546632Y-107253475D01*
X213753475Y-107046632D01*
X213915990Y-106803411D01*
X214027932Y-106533158D01*
X214085000Y-106246260D01*
X214085000Y-105953740D01*
X214027932Y-105666842D01*
X213915990Y-105396589D01*
X213753475Y-105153368D01*
X213546632Y-104946525D01*
X213372240Y-104830000D01*
X213546632Y-104713475D01*
X213753475Y-104506632D01*
X213915990Y-104263411D01*
X214027932Y-103993158D01*
X214085000Y-103706260D01*
X214085000Y-103413740D01*
X214027932Y-103126842D01*
X213915990Y-102856589D01*
X213753475Y-102613368D01*
X213546632Y-102406525D01*
X213364466Y-102284805D01*
X213481355Y-102215178D01*
X213697588Y-102020269D01*
X213871641Y-101786920D01*
X213996825Y-101524099D01*
X214041476Y-101376890D01*
X213920155Y-101147000D01*
X212727000Y-101147000D01*
X212727000Y-101167000D01*
X212473000Y-101167000D01*
X212473000Y-101147000D01*
X212453000Y-101147000D01*
X212453000Y-100893000D01*
X212473000Y-100893000D01*
X212473000Y-100873000D01*
X212727000Y-100873000D01*
X212727000Y-100893000D01*
X213920155Y-100893000D01*
X214041476Y-100663110D01*
X213996825Y-100515901D01*
X213871641Y-100253080D01*
X213697588Y-100019731D01*
X213481355Y-99824822D01*
X213364466Y-99755195D01*
X213546632Y-99633475D01*
X213753475Y-99426632D01*
X213915990Y-99183411D01*
X214027932Y-98913158D01*
X214085000Y-98626260D01*
X214085000Y-98333740D01*
X214027932Y-98046842D01*
X213915990Y-97776589D01*
X213753475Y-97533368D01*
X213546632Y-97326525D01*
X213364466Y-97204805D01*
X213481355Y-97135178D01*
X213697588Y-96940269D01*
X213871641Y-96706920D01*
X213996825Y-96444099D01*
X214041476Y-96296890D01*
X213920155Y-96067000D01*
X212727000Y-96067000D01*
X212727000Y-96087000D01*
X212473000Y-96087000D01*
X212473000Y-96067000D01*
X212453000Y-96067000D01*
X212453000Y-95813000D01*
X212473000Y-95813000D01*
X212473000Y-95793000D01*
X212727000Y-95793000D01*
X212727000Y-95813000D01*
X213920155Y-95813000D01*
X214041476Y-95583110D01*
X213996825Y-95435901D01*
X213871641Y-95173080D01*
X213697588Y-94939731D01*
X213613534Y-94863966D01*
X213694180Y-94839502D01*
X213804494Y-94780537D01*
X213901185Y-94701185D01*
X213980537Y-94604494D01*
X214039502Y-94494180D01*
X214075812Y-94374482D01*
X214088072Y-94250000D01*
X214088072Y-92550000D01*
X214075812Y-92425518D01*
X214039502Y-92305820D01*
X213980537Y-92195506D01*
X213901185Y-92098815D01*
X213804494Y-92019463D01*
X213694180Y-91960498D01*
X213574482Y-91924188D01*
X213450000Y-91911928D01*
X211750000Y-91911928D01*
X211625518Y-91924188D01*
X211505820Y-91960498D01*
X211395506Y-92019463D01*
X211298815Y-92098815D01*
X211219463Y-92195506D01*
X211160498Y-92305820D01*
X211138487Y-92378380D01*
X211006632Y-92246525D01*
X210763411Y-92084010D01*
X210493158Y-91972068D01*
X210206260Y-91915000D01*
X209913740Y-91915000D01*
X209626842Y-91972068D01*
X209356589Y-92084010D01*
X209113368Y-92246525D01*
X208906525Y-92453368D01*
X208744010Y-92696589D01*
X208632068Y-92966842D01*
X208575000Y-93253740D01*
X176285000Y-93253740D01*
X176285000Y-89833647D01*
X176288314Y-89800000D01*
X176275088Y-89665717D01*
X176235919Y-89536594D01*
X176172312Y-89417593D01*
X176086711Y-89313289D01*
X175982407Y-89227688D01*
X175863406Y-89164081D01*
X175734283Y-89124912D01*
X175633647Y-89115000D01*
X175600000Y-89111686D01*
X175566353Y-89115000D01*
X139633647Y-89115000D01*
X139600000Y-89111686D01*
X139566353Y-89115000D01*
X139465717Y-89124912D01*
X139336594Y-89164081D01*
X139217593Y-89227688D01*
X139113289Y-89313289D01*
X139027688Y-89417593D01*
X138964081Y-89536594D01*
X138924912Y-89665717D01*
X138911686Y-89800000D01*
X68785000Y-89800000D01*
X68785000Y-72985000D01*
X222415000Y-72985000D01*
X222415001Y-131615000D01*
G37*
G04 #@! TD.AperFunction*
D19*
X203340001Y-107314803D02*
X203340000Y-110985198D01*
X195585199Y-118740000D01*
X174337322Y-118740000D01*
X174299999Y-118736324D01*
X174262676Y-118740000D01*
X174262667Y-118740000D01*
X174151014Y-118750997D01*
X174007753Y-118794454D01*
X173875723Y-118865026D01*
X173792083Y-118933668D01*
X173759999Y-118959999D01*
X173736201Y-118988997D01*
X170168998Y-122556201D01*
X170140000Y-122579999D01*
X170116202Y-122608997D01*
X170116201Y-122608998D01*
X170045026Y-122695724D01*
X169974454Y-122827754D01*
X169930998Y-122971015D01*
X169916324Y-123120000D01*
X169920001Y-123157332D01*
X169920001Y-124221821D01*
X169733368Y-124346525D01*
X169526525Y-124553368D01*
X169410000Y-124727760D01*
X169293475Y-124553368D01*
X169086632Y-124346525D01*
X168900000Y-124221822D01*
X168900000Y-121877325D01*
X168903676Y-121840000D01*
X168900000Y-121802675D01*
X168900000Y-121802667D01*
X168889003Y-121691014D01*
X168845546Y-121547753D01*
X168774974Y-121415724D01*
X168680001Y-121299999D01*
X168651004Y-121276202D01*
X166324801Y-118950000D01*
X167814802Y-117460000D01*
X191462678Y-117460000D01*
X191500000Y-117463676D01*
X191537322Y-117460000D01*
X191537333Y-117460000D01*
X191648986Y-117449003D01*
X191792247Y-117405546D01*
X191924276Y-117334974D01*
X192040001Y-117240001D01*
X192063804Y-117210997D01*
X194731004Y-114543798D01*
X194760001Y-114520001D01*
X194786332Y-114487917D01*
X194854974Y-114404277D01*
X194925546Y-114272247D01*
X194925546Y-114272246D01*
X194969003Y-114128986D01*
X194980000Y-114017333D01*
X194980000Y-114017323D01*
X194983676Y-113980000D01*
X194980000Y-113942677D01*
X194980000Y-110148111D01*
X195150696Y-110034056D01*
X195354056Y-109830696D01*
X195490000Y-109627241D01*
X195625944Y-109830696D01*
X195829304Y-110034056D01*
X196068431Y-110193835D01*
X196334134Y-110303893D01*
X196616203Y-110360000D01*
X196903797Y-110360000D01*
X197185866Y-110303893D01*
X197451569Y-110193835D01*
X197690696Y-110034056D01*
X197894056Y-109830696D01*
X198030000Y-109627241D01*
X198165944Y-109830696D01*
X198369304Y-110034056D01*
X198608431Y-110193835D01*
X198874134Y-110303893D01*
X199156203Y-110360000D01*
X199443797Y-110360000D01*
X199725866Y-110303893D01*
X199991569Y-110193835D01*
X200230696Y-110034056D01*
X200354201Y-109910551D01*
X201009054Y-109910551D01*
X201083663Y-110157073D01*
X201343439Y-110280473D01*
X201622297Y-110350823D01*
X201909521Y-110365417D01*
X202194074Y-110323697D01*
X202465020Y-110227265D01*
X202596337Y-110157073D01*
X202670946Y-109910551D01*
X201840000Y-109079605D01*
X201009054Y-109910551D01*
X200354201Y-109910551D01*
X200434056Y-109830696D01*
X200568541Y-109629424D01*
X200582927Y-109656337D01*
X200829449Y-109730946D01*
X201660395Y-108900000D01*
X202019605Y-108900000D01*
X202850551Y-109730946D01*
X203097073Y-109656337D01*
X203220473Y-109396561D01*
X203290823Y-109117703D01*
X203305417Y-108830479D01*
X203263697Y-108545926D01*
X203167265Y-108274980D01*
X203097073Y-108143663D01*
X202850551Y-108069054D01*
X202019605Y-108900000D01*
X201660395Y-108900000D01*
X200829449Y-108069054D01*
X200582927Y-108143663D01*
X200569477Y-108171977D01*
X200434056Y-107969304D01*
X200354201Y-107889449D01*
X201009054Y-107889449D01*
X201840000Y-108720395D01*
X202670946Y-107889449D01*
X202596337Y-107642927D01*
X202336561Y-107519527D01*
X202057703Y-107449177D01*
X201770479Y-107434583D01*
X201485926Y-107476303D01*
X201214980Y-107572735D01*
X201083663Y-107642927D01*
X201009054Y-107889449D01*
X200354201Y-107889449D01*
X200230696Y-107765944D01*
X199991569Y-107606165D01*
X199725866Y-107496107D01*
X199443797Y-107440000D01*
X199156203Y-107440000D01*
X198874134Y-107496107D01*
X198608431Y-107606165D01*
X198369304Y-107765944D01*
X198165944Y-107969304D01*
X198030000Y-108172759D01*
X197894056Y-107969304D01*
X197690696Y-107765944D01*
X197451569Y-107606165D01*
X197185866Y-107496107D01*
X196903797Y-107440000D01*
X196616203Y-107440000D01*
X196334134Y-107496107D01*
X196068431Y-107606165D01*
X195829304Y-107765944D01*
X195625944Y-107969304D01*
X195490000Y-108172759D01*
X195354056Y-107969304D01*
X195150696Y-107765944D01*
X194911569Y-107606165D01*
X194645866Y-107496107D01*
X194363797Y-107440000D01*
X194076203Y-107440000D01*
X193794134Y-107496107D01*
X193528431Y-107606165D01*
X193289304Y-107765944D01*
X193085944Y-107969304D01*
X192950000Y-108172759D01*
X192814056Y-107969304D01*
X192610696Y-107765944D01*
X192440000Y-107651889D01*
X192440000Y-107534801D01*
X193814802Y-106160000D01*
X202185199Y-106160000D01*
X203340001Y-107314803D01*
G04 #@! TA.AperFunction,Conductor*
D20*
G36*
X203340001Y-107314803D02*
G01*
X203340000Y-110985198D01*
X195585199Y-118740000D01*
X174337322Y-118740000D01*
X174299999Y-118736324D01*
X174262676Y-118740000D01*
X174262667Y-118740000D01*
X174151014Y-118750997D01*
X174007753Y-118794454D01*
X173875723Y-118865026D01*
X173792083Y-118933668D01*
X173759999Y-118959999D01*
X173736201Y-118988997D01*
X170168998Y-122556201D01*
X170140000Y-122579999D01*
X170116202Y-122608997D01*
X170116201Y-122608998D01*
X170045026Y-122695724D01*
X169974454Y-122827754D01*
X169930998Y-122971015D01*
X169916324Y-123120000D01*
X169920001Y-123157332D01*
X169920001Y-124221821D01*
X169733368Y-124346525D01*
X169526525Y-124553368D01*
X169410000Y-124727760D01*
X169293475Y-124553368D01*
X169086632Y-124346525D01*
X168900000Y-124221822D01*
X168900000Y-121877325D01*
X168903676Y-121840000D01*
X168900000Y-121802675D01*
X168900000Y-121802667D01*
X168889003Y-121691014D01*
X168845546Y-121547753D01*
X168774974Y-121415724D01*
X168680001Y-121299999D01*
X168651004Y-121276202D01*
X166324801Y-118950000D01*
X167814802Y-117460000D01*
X191462678Y-117460000D01*
X191500000Y-117463676D01*
X191537322Y-117460000D01*
X191537333Y-117460000D01*
X191648986Y-117449003D01*
X191792247Y-117405546D01*
X191924276Y-117334974D01*
X192040001Y-117240001D01*
X192063804Y-117210997D01*
X194731004Y-114543798D01*
X194760001Y-114520001D01*
X194786332Y-114487917D01*
X194854974Y-114404277D01*
X194925546Y-114272247D01*
X194925546Y-114272246D01*
X194969003Y-114128986D01*
X194980000Y-114017333D01*
X194980000Y-114017323D01*
X194983676Y-113980000D01*
X194980000Y-113942677D01*
X194980000Y-110148111D01*
X195150696Y-110034056D01*
X195354056Y-109830696D01*
X195490000Y-109627241D01*
X195625944Y-109830696D01*
X195829304Y-110034056D01*
X196068431Y-110193835D01*
X196334134Y-110303893D01*
X196616203Y-110360000D01*
X196903797Y-110360000D01*
X197185866Y-110303893D01*
X197451569Y-110193835D01*
X197690696Y-110034056D01*
X197894056Y-109830696D01*
X198030000Y-109627241D01*
X198165944Y-109830696D01*
X198369304Y-110034056D01*
X198608431Y-110193835D01*
X198874134Y-110303893D01*
X199156203Y-110360000D01*
X199443797Y-110360000D01*
X199725866Y-110303893D01*
X199991569Y-110193835D01*
X200230696Y-110034056D01*
X200354201Y-109910551D01*
X201009054Y-109910551D01*
X201083663Y-110157073D01*
X201343439Y-110280473D01*
X201622297Y-110350823D01*
X201909521Y-110365417D01*
X202194074Y-110323697D01*
X202465020Y-110227265D01*
X202596337Y-110157073D01*
X202670946Y-109910551D01*
X201840000Y-109079605D01*
X201009054Y-109910551D01*
X200354201Y-109910551D01*
X200434056Y-109830696D01*
X200568541Y-109629424D01*
X200582927Y-109656337D01*
X200829449Y-109730946D01*
X201660395Y-108900000D01*
X202019605Y-108900000D01*
X202850551Y-109730946D01*
X203097073Y-109656337D01*
X203220473Y-109396561D01*
X203290823Y-109117703D01*
X203305417Y-108830479D01*
X203263697Y-108545926D01*
X203167265Y-108274980D01*
X203097073Y-108143663D01*
X202850551Y-108069054D01*
X202019605Y-108900000D01*
X201660395Y-108900000D01*
X200829449Y-108069054D01*
X200582927Y-108143663D01*
X200569477Y-108171977D01*
X200434056Y-107969304D01*
X200354201Y-107889449D01*
X201009054Y-107889449D01*
X201840000Y-108720395D01*
X202670946Y-107889449D01*
X202596337Y-107642927D01*
X202336561Y-107519527D01*
X202057703Y-107449177D01*
X201770479Y-107434583D01*
X201485926Y-107476303D01*
X201214980Y-107572735D01*
X201083663Y-107642927D01*
X201009054Y-107889449D01*
X200354201Y-107889449D01*
X200230696Y-107765944D01*
X199991569Y-107606165D01*
X199725866Y-107496107D01*
X199443797Y-107440000D01*
X199156203Y-107440000D01*
X198874134Y-107496107D01*
X198608431Y-107606165D01*
X198369304Y-107765944D01*
X198165944Y-107969304D01*
X198030000Y-108172759D01*
X197894056Y-107969304D01*
X197690696Y-107765944D01*
X197451569Y-107606165D01*
X197185866Y-107496107D01*
X196903797Y-107440000D01*
X196616203Y-107440000D01*
X196334134Y-107496107D01*
X196068431Y-107606165D01*
X195829304Y-107765944D01*
X195625944Y-107969304D01*
X195490000Y-108172759D01*
X195354056Y-107969304D01*
X195150696Y-107765944D01*
X194911569Y-107606165D01*
X194645866Y-107496107D01*
X194363797Y-107440000D01*
X194076203Y-107440000D01*
X193794134Y-107496107D01*
X193528431Y-107606165D01*
X193289304Y-107765944D01*
X193085944Y-107969304D01*
X192950000Y-108172759D01*
X192814056Y-107969304D01*
X192610696Y-107765944D01*
X192440000Y-107651889D01*
X192440000Y-107534801D01*
X193814802Y-106160000D01*
X202185199Y-106160000D01*
X203340001Y-107314803D01*
G37*
G04 #@! TD.AperFunction*
M02*
