%TF.GenerationSoftware,KiCad,Pcbnew,5.1.9*%
%TF.CreationDate,2020-12-26T21:21:17+01:00*%
%TF.ProjectId,esp32_air_monitor,65737033-325f-4616-9972-5f6d6f6e6974,0.1*%
%TF.SameCoordinates,Original*%
%TF.FileFunction,Soldermask,Bot*%
%TF.FilePolarity,Negative*%
%FSLAX46Y46*%
G04 Gerber Fmt 4.6, Leading zero omitted, Abs format (unit mm)*
G04 Created by KiCad (PCBNEW 5.1.9) date 2020-12-26 21:21:17*
%MOMM*%
%LPD*%
G01*
G04 APERTURE LIST*
%ADD10R,1.560000X1.560000*%
%ADD11C,1.560000*%
%ADD12R,1.650000X1.650000*%
%ADD13C,1.650000*%
%ADD14O,1.700000X1.700000*%
%ADD15R,1.700000X1.700000*%
G04 APERTURE END LIST*
D10*
%TO.C,U1*%
X88340000Y-126600000D03*
D11*
X90880000Y-126600000D03*
X134060000Y-126600000D03*
X93420000Y-126600000D03*
X95960000Y-126600000D03*
X98500000Y-126600000D03*
X101040000Y-126600000D03*
X103580000Y-126600000D03*
X106120000Y-126600000D03*
X108660000Y-126600000D03*
X111200000Y-126600000D03*
X113740000Y-126600000D03*
X116280000Y-126600000D03*
X118820000Y-126600000D03*
X121360000Y-126600000D03*
X123900000Y-126600000D03*
X126440000Y-126600000D03*
X128980000Y-126600000D03*
X131520000Y-126600000D03*
X88340000Y-101200000D03*
X90880000Y-101200000D03*
X93420000Y-101200000D03*
X95960000Y-101200000D03*
X98500000Y-101200000D03*
X101040000Y-101200000D03*
X103580000Y-101200000D03*
X106120000Y-101200000D03*
X108660000Y-101200000D03*
X111200000Y-101200000D03*
X113740000Y-101200000D03*
X116280000Y-101200000D03*
X118820000Y-101200000D03*
X121360000Y-101200000D03*
X123900000Y-101200000D03*
X126440000Y-101200000D03*
X128980000Y-101200000D03*
X131520000Y-101200000D03*
X134060000Y-101200000D03*
%TD*%
D12*
%TO.C,U2*%
X186600000Y-108900000D03*
D13*
X189140000Y-108900000D03*
X191680000Y-108900000D03*
X194220000Y-108900000D03*
X196760000Y-108900000D03*
X199300000Y-108900000D03*
X201840000Y-108900000D03*
%TD*%
D14*
%TO.C,J2*%
X76060000Y-111180000D03*
X78600000Y-111180000D03*
X76060000Y-108640000D03*
X78600000Y-108640000D03*
X76060000Y-106100000D03*
X78600000Y-106100000D03*
X76060000Y-103560000D03*
X78600000Y-103560000D03*
X76060000Y-101020000D03*
X78600000Y-101020000D03*
X76060000Y-98480000D03*
X78600000Y-98480000D03*
X76060000Y-95940000D03*
X78600000Y-95940000D03*
X76060000Y-93400000D03*
D15*
X78600000Y-93400000D03*
%TD*%
%TO.C,J3*%
X212600000Y-93400000D03*
D14*
X210060000Y-93400000D03*
X212600000Y-95940000D03*
X210060000Y-95940000D03*
X212600000Y-98480000D03*
X210060000Y-98480000D03*
X212600000Y-101020000D03*
X210060000Y-101020000D03*
X212600000Y-103560000D03*
X210060000Y-103560000D03*
X212600000Y-106100000D03*
X210060000Y-106100000D03*
X212600000Y-108640000D03*
X210060000Y-108640000D03*
X212600000Y-111180000D03*
X210060000Y-111180000D03*
%TD*%
%TO.C,J5*%
X168140000Y-125500000D03*
X170680000Y-125500000D03*
X173220000Y-125500000D03*
X175760000Y-125500000D03*
D15*
X178300000Y-125500000D03*
%TD*%
D14*
%TO.C,J4*%
X142400000Y-128560000D03*
X142400000Y-126020000D03*
X142400000Y-123480000D03*
X142400000Y-120940000D03*
D15*
X142400000Y-118400000D03*
%TD*%
D14*
%TO.C,J1*%
X183900000Y-96160000D03*
D15*
X183900000Y-98700000D03*
%TD*%
M02*
