G04 #@! TF.GenerationSoftware,KiCad,Pcbnew,5.1.9*
G04 #@! TF.CreationDate,2021-01-23T21:49:56+01:00*
G04 #@! TF.ProjectId,esp32_air_monitor,65737033-325f-4616-9972-5f6d6f6e6974,0.1*
G04 #@! TF.SameCoordinates,Original*
G04 #@! TF.FileFunction,Copper,L2,Bot*
G04 #@! TF.FilePolarity,Positive*
%FSLAX46Y46*%
G04 Gerber Fmt 4.6, Leading zero omitted, Abs format (unit mm)*
G04 Created by KiCad (PCBNEW 5.1.9) date 2021-01-23 21:49:56*
%MOMM*%
%LPD*%
G01*
G04 APERTURE LIST*
G04 #@! TA.AperFunction,ComponentPad*
%ADD10O,1.700000X1.700000*%
G04 #@! TD*
G04 #@! TA.AperFunction,ComponentPad*
%ADD11R,1.700000X1.700000*%
G04 #@! TD*
G04 #@! TA.AperFunction,ComponentPad*
%ADD12R,1.650000X1.650000*%
G04 #@! TD*
G04 #@! TA.AperFunction,ComponentPad*
%ADD13C,1.650000*%
G04 #@! TD*
G04 #@! TA.AperFunction,ComponentPad*
%ADD14R,1.560000X1.560000*%
G04 #@! TD*
G04 #@! TA.AperFunction,ComponentPad*
%ADD15C,1.560000*%
G04 #@! TD*
G04 #@! TA.AperFunction,ComponentPad*
%ADD16O,1.600000X1.600000*%
G04 #@! TD*
G04 #@! TA.AperFunction,ComponentPad*
%ADD17R,1.600000X1.600000*%
G04 #@! TD*
G04 #@! TA.AperFunction,ViaPad*
%ADD18C,1.200000*%
G04 #@! TD*
G04 #@! TA.AperFunction,ViaPad*
%ADD19C,0.800000*%
G04 #@! TD*
G04 #@! TA.AperFunction,Conductor*
%ADD20C,0.250000*%
G04 #@! TD*
G04 #@! TA.AperFunction,Conductor*
%ADD21C,0.254000*%
G04 #@! TD*
G04 #@! TA.AperFunction,Conductor*
%ADD22C,0.100000*%
G04 #@! TD*
G04 APERTURE END LIST*
D10*
X146440000Y-85500000D03*
D11*
X143900000Y-85500000D03*
D10*
X155440000Y-119700000D03*
X157980000Y-119700000D03*
X160520000Y-119700000D03*
X163060000Y-119700000D03*
D11*
X165600000Y-119700000D03*
D10*
X212600000Y-111200000D03*
X215140000Y-111200000D03*
X212600000Y-108660000D03*
X215140000Y-108660000D03*
X212600000Y-106120000D03*
X215140000Y-106120000D03*
X212600000Y-103580000D03*
X215140000Y-103580000D03*
X212600000Y-101040000D03*
X215140000Y-101040000D03*
X212600000Y-98500000D03*
X215140000Y-98500000D03*
X212600000Y-95960000D03*
X215140000Y-95960000D03*
X212600000Y-93420000D03*
D11*
X215140000Y-93420000D03*
D10*
X76060000Y-111180000D03*
X78600000Y-111180000D03*
X76060000Y-108640000D03*
X78600000Y-108640000D03*
X76060000Y-106100000D03*
X78600000Y-106100000D03*
X76060000Y-103560000D03*
X78600000Y-103560000D03*
X76060000Y-101020000D03*
X78600000Y-101020000D03*
X76060000Y-98480000D03*
X78600000Y-98480000D03*
X76060000Y-95940000D03*
X78600000Y-95940000D03*
X76060000Y-93400000D03*
D11*
X78600000Y-93400000D03*
D12*
X186600000Y-108900000D03*
D13*
X189140000Y-108900000D03*
X191680000Y-108900000D03*
X194220000Y-108900000D03*
X196760000Y-108900000D03*
X199300000Y-108900000D03*
X201840000Y-108900000D03*
D10*
X187300000Y-96160000D03*
X187300000Y-93620000D03*
X187300000Y-91080000D03*
X187300000Y-88540000D03*
D11*
X187300000Y-86000000D03*
D14*
X128620000Y-101000000D03*
D15*
X126080000Y-101000000D03*
X82900000Y-101000000D03*
X123540000Y-101000000D03*
X121000000Y-101000000D03*
X118460000Y-101000000D03*
X115920000Y-101000000D03*
X113380000Y-101000000D03*
X110840000Y-101000000D03*
X108300000Y-101000000D03*
X105760000Y-101000000D03*
X103220000Y-101000000D03*
X100680000Y-101000000D03*
X98140000Y-101000000D03*
X95600000Y-101000000D03*
X93060000Y-101000000D03*
X90520000Y-101000000D03*
X87980000Y-101000000D03*
X85440000Y-101000000D03*
X128620000Y-126400000D03*
X126080000Y-126400000D03*
X123540000Y-126400000D03*
X121000000Y-126400000D03*
X118460000Y-126400000D03*
X115920000Y-126400000D03*
X113380000Y-126400000D03*
X110840000Y-126400000D03*
X108300000Y-126400000D03*
X105760000Y-126400000D03*
X103220000Y-126400000D03*
X100680000Y-126400000D03*
X98140000Y-126400000D03*
X95600000Y-126400000D03*
X93060000Y-126400000D03*
X90520000Y-126400000D03*
X87980000Y-126400000D03*
X85440000Y-126400000D03*
X82900000Y-126400000D03*
D10*
X106500000Y-82920000D03*
D11*
X106500000Y-88000000D03*
D10*
X115800000Y-82920000D03*
D11*
X115800000Y-88000000D03*
D16*
X125400000Y-81580000D03*
X133020000Y-89200000D03*
X127940000Y-81580000D03*
X130480000Y-89200000D03*
X130480000Y-81580000D03*
X127940000Y-89200000D03*
X133020000Y-81580000D03*
D17*
X125400000Y-89200000D03*
D10*
X96900000Y-82920000D03*
D11*
X96900000Y-88000000D03*
D18*
X215200000Y-113800000D03*
X218000000Y-111200000D03*
X201900000Y-111200000D03*
X204500000Y-108900000D03*
X189100000Y-111200000D03*
X189100000Y-106400000D03*
X187300000Y-98800000D03*
X190200000Y-96300000D03*
X213000000Y-89000000D03*
X213000000Y-86000000D03*
X213000000Y-83000000D03*
X213000000Y-79800000D03*
X216400000Y-89000000D03*
X216400000Y-86000000D03*
X216400000Y-83000000D03*
X216400000Y-79800000D03*
X217900000Y-100900000D03*
X221200000Y-100900000D03*
X184000000Y-96200000D03*
X150000000Y-85500000D03*
X146500000Y-88500000D03*
X146500000Y-82400000D03*
X95600000Y-98700000D03*
X95600000Y-103600000D03*
X113400000Y-124300000D03*
X113400000Y-128900000D03*
X131000000Y-126400000D03*
X128600000Y-123400000D03*
X128600000Y-129900000D03*
X78600000Y-113800000D03*
X80900000Y-111200000D03*
X80500000Y-101000000D03*
X83700000Y-90900000D03*
X83700000Y-94700000D03*
X83700000Y-87100000D03*
X83700000Y-83000000D03*
X160500000Y-122500000D03*
X153700000Y-126600000D03*
X148000000Y-126700000D03*
X70100000Y-98300000D03*
X70100000Y-94500000D03*
X70100000Y-90400000D03*
X70100000Y-86600000D03*
X70100000Y-82900000D03*
X71200000Y-128900000D03*
X74800000Y-128900000D03*
X71200000Y-125300000D03*
X86600000Y-79900000D03*
X71700000Y-74700000D03*
X136500000Y-103100000D03*
X132800000Y-103100000D03*
X132800000Y-99700000D03*
X136500000Y-99700000D03*
X178700000Y-96200000D03*
X178700000Y-98800000D03*
X178700000Y-111200000D03*
X160500000Y-117500000D03*
X148000000Y-122700000D03*
X192900000Y-104000000D03*
X193000000Y-99400000D03*
X193000000Y-111700000D03*
X192900000Y-116300000D03*
X188700000Y-120500000D03*
X183700000Y-125400000D03*
X176100000Y-126600000D03*
X167400000Y-126700000D03*
X83000000Y-113800000D03*
X87200000Y-113800000D03*
X78600000Y-118100000D03*
X83000000Y-118100000D03*
X87200000Y-118100000D03*
X95500000Y-121400000D03*
X98500000Y-121400000D03*
D19*
X148800000Y-128600000D03*
X133000000Y-90700000D03*
X96900000Y-89900000D03*
X130500000Y-90700000D03*
X127900000Y-90700000D03*
X125400000Y-90700000D03*
X106500000Y-90000000D03*
X115800000Y-90000000D03*
D20*
X155440000Y-121960000D02*
X155440000Y-119700000D01*
X148800000Y-128600000D02*
X155440000Y-121960000D01*
X77300000Y-107400000D02*
X76060000Y-108640000D01*
X77300000Y-102700000D02*
X77300000Y-107400000D01*
X99380000Y-102300000D02*
X77700000Y-102300000D01*
X77700000Y-102300000D02*
X77300000Y-102700000D01*
X100680000Y-101000000D02*
X99380000Y-102300000D01*
X93060000Y-101000000D02*
X91860000Y-99800000D01*
X77280000Y-99800000D02*
X76060000Y-101020000D01*
X91860000Y-99800000D02*
X77280000Y-99800000D01*
X127134979Y-92325021D02*
X118460000Y-101000000D01*
X131374979Y-92325021D02*
X127134979Y-92325021D01*
X133000000Y-90700000D02*
X131374979Y-92325021D01*
X96900000Y-89900000D02*
X99100000Y-89900000D01*
X103220000Y-94020000D02*
X103220000Y-101000000D01*
X99100000Y-89900000D02*
X103220000Y-94020000D01*
X125044989Y-91875011D02*
X115920000Y-101000000D01*
X129324989Y-91875011D02*
X125044989Y-91875011D01*
X130500000Y-90700000D02*
X129324989Y-91875011D01*
X122954999Y-91425001D02*
X113380000Y-101000000D01*
X127174999Y-91425001D02*
X122954999Y-91425001D01*
X127900000Y-90700000D02*
X127174999Y-91425001D01*
X121140000Y-90700000D02*
X110840000Y-101000000D01*
X125400000Y-90700000D02*
X121140000Y-90700000D01*
X105760000Y-90740000D02*
X106500000Y-90000000D01*
X105760000Y-101000000D02*
X105760000Y-90740000D01*
X108300000Y-97500000D02*
X115800000Y-90000000D01*
X108300000Y-101000000D02*
X108300000Y-97500000D01*
D21*
X222415001Y-131615000D02*
X68785000Y-131615000D01*
X68785000Y-128498061D01*
X147765000Y-128498061D01*
X147765000Y-128701939D01*
X147804774Y-128901898D01*
X147882795Y-129090256D01*
X147996063Y-129259774D01*
X148140226Y-129403937D01*
X148309744Y-129517205D01*
X148498102Y-129595226D01*
X148698061Y-129635000D01*
X148901939Y-129635000D01*
X149101898Y-129595226D01*
X149290256Y-129517205D01*
X149459774Y-129403937D01*
X149603937Y-129259774D01*
X149717205Y-129090256D01*
X149795226Y-128901898D01*
X149835000Y-128701939D01*
X149835000Y-128639801D01*
X155951004Y-122523798D01*
X155980001Y-122500001D01*
X156006332Y-122467917D01*
X156074974Y-122384277D01*
X156145546Y-122252247D01*
X156145546Y-122252246D01*
X156189003Y-122108986D01*
X156200000Y-121997333D01*
X156200000Y-121997324D01*
X156203676Y-121960001D01*
X156200000Y-121922678D01*
X156200000Y-120978178D01*
X156386632Y-120853475D01*
X156593475Y-120646632D01*
X156710000Y-120472240D01*
X156826525Y-120646632D01*
X157033368Y-120853475D01*
X157276589Y-121015990D01*
X157546842Y-121127932D01*
X157833740Y-121185000D01*
X158126260Y-121185000D01*
X158413158Y-121127932D01*
X158683411Y-121015990D01*
X158926632Y-120853475D01*
X159133475Y-120646632D01*
X159255195Y-120464466D01*
X159324822Y-120581355D01*
X159519731Y-120797588D01*
X159753080Y-120971641D01*
X160015901Y-121096825D01*
X160163110Y-121141476D01*
X160393000Y-121020155D01*
X160393000Y-119827000D01*
X160373000Y-119827000D01*
X160373000Y-119573000D01*
X160393000Y-119573000D01*
X160393000Y-118379845D01*
X160647000Y-118379845D01*
X160647000Y-119573000D01*
X160667000Y-119573000D01*
X160667000Y-119827000D01*
X160647000Y-119827000D01*
X160647000Y-121020155D01*
X160876890Y-121141476D01*
X161024099Y-121096825D01*
X161286920Y-120971641D01*
X161520269Y-120797588D01*
X161715178Y-120581355D01*
X161784805Y-120464466D01*
X161906525Y-120646632D01*
X162113368Y-120853475D01*
X162356589Y-121015990D01*
X162626842Y-121127932D01*
X162913740Y-121185000D01*
X163206260Y-121185000D01*
X163493158Y-121127932D01*
X163763411Y-121015990D01*
X164006632Y-120853475D01*
X164138487Y-120721620D01*
X164160498Y-120794180D01*
X164219463Y-120904494D01*
X164298815Y-121001185D01*
X164395506Y-121080537D01*
X164505820Y-121139502D01*
X164625518Y-121175812D01*
X164750000Y-121188072D01*
X166450000Y-121188072D01*
X166574482Y-121175812D01*
X166694180Y-121139502D01*
X166804494Y-121080537D01*
X166901185Y-121001185D01*
X166980537Y-120904494D01*
X167039502Y-120794180D01*
X167075812Y-120674482D01*
X167088072Y-120550000D01*
X167088072Y-118850000D01*
X167075812Y-118725518D01*
X167039502Y-118605820D01*
X166980537Y-118495506D01*
X166901185Y-118398815D01*
X166804494Y-118319463D01*
X166694180Y-118260498D01*
X166574482Y-118224188D01*
X166450000Y-118211928D01*
X164750000Y-118211928D01*
X164625518Y-118224188D01*
X164505820Y-118260498D01*
X164395506Y-118319463D01*
X164298815Y-118398815D01*
X164219463Y-118495506D01*
X164160498Y-118605820D01*
X164138487Y-118678380D01*
X164006632Y-118546525D01*
X163763411Y-118384010D01*
X163493158Y-118272068D01*
X163206260Y-118215000D01*
X162913740Y-118215000D01*
X162626842Y-118272068D01*
X162356589Y-118384010D01*
X162113368Y-118546525D01*
X161906525Y-118753368D01*
X161784805Y-118935534D01*
X161715178Y-118818645D01*
X161520269Y-118602412D01*
X161286920Y-118428359D01*
X161024099Y-118303175D01*
X160876890Y-118258524D01*
X160647000Y-118379845D01*
X160393000Y-118379845D01*
X160163110Y-118258524D01*
X160015901Y-118303175D01*
X159753080Y-118428359D01*
X159519731Y-118602412D01*
X159324822Y-118818645D01*
X159255195Y-118935534D01*
X159133475Y-118753368D01*
X158926632Y-118546525D01*
X158683411Y-118384010D01*
X158413158Y-118272068D01*
X158126260Y-118215000D01*
X157833740Y-118215000D01*
X157546842Y-118272068D01*
X157276589Y-118384010D01*
X157033368Y-118546525D01*
X156826525Y-118753368D01*
X156710000Y-118927760D01*
X156593475Y-118753368D01*
X156386632Y-118546525D01*
X156143411Y-118384010D01*
X155873158Y-118272068D01*
X155586260Y-118215000D01*
X155293740Y-118215000D01*
X155006842Y-118272068D01*
X154736589Y-118384010D01*
X154493368Y-118546525D01*
X154286525Y-118753368D01*
X154124010Y-118996589D01*
X154012068Y-119266842D01*
X153955000Y-119553740D01*
X153955000Y-119846260D01*
X154012068Y-120133158D01*
X154124010Y-120403411D01*
X154286525Y-120646632D01*
X154493368Y-120853475D01*
X154680000Y-120978179D01*
X154680000Y-121645198D01*
X148760199Y-127565000D01*
X148698061Y-127565000D01*
X148498102Y-127604774D01*
X148309744Y-127682795D01*
X148140226Y-127796063D01*
X147996063Y-127940226D01*
X147882795Y-128109744D01*
X147804774Y-128298102D01*
X147765000Y-128498061D01*
X68785000Y-128498061D01*
X68785000Y-126260635D01*
X81485000Y-126260635D01*
X81485000Y-126539365D01*
X81539377Y-126812740D01*
X81646043Y-127070254D01*
X81800897Y-127302010D01*
X81997990Y-127499103D01*
X82229746Y-127653957D01*
X82487260Y-127760623D01*
X82760635Y-127815000D01*
X83039365Y-127815000D01*
X83312740Y-127760623D01*
X83570254Y-127653957D01*
X83802010Y-127499103D01*
X83999103Y-127302010D01*
X84153957Y-127070254D01*
X84170000Y-127031523D01*
X84186043Y-127070254D01*
X84340897Y-127302010D01*
X84537990Y-127499103D01*
X84769746Y-127653957D01*
X85027260Y-127760623D01*
X85300635Y-127815000D01*
X85579365Y-127815000D01*
X85852740Y-127760623D01*
X86110254Y-127653957D01*
X86342010Y-127499103D01*
X86539103Y-127302010D01*
X86693957Y-127070254D01*
X86710000Y-127031523D01*
X86726043Y-127070254D01*
X86880897Y-127302010D01*
X87077990Y-127499103D01*
X87309746Y-127653957D01*
X87567260Y-127760623D01*
X87840635Y-127815000D01*
X88119365Y-127815000D01*
X88392740Y-127760623D01*
X88650254Y-127653957D01*
X88882010Y-127499103D01*
X89079103Y-127302010D01*
X89233957Y-127070254D01*
X89250000Y-127031523D01*
X89266043Y-127070254D01*
X89420897Y-127302010D01*
X89617990Y-127499103D01*
X89849746Y-127653957D01*
X90107260Y-127760623D01*
X90380635Y-127815000D01*
X90659365Y-127815000D01*
X90932740Y-127760623D01*
X91190254Y-127653957D01*
X91422010Y-127499103D01*
X91619103Y-127302010D01*
X91773957Y-127070254D01*
X91790000Y-127031523D01*
X91806043Y-127070254D01*
X91960897Y-127302010D01*
X92157990Y-127499103D01*
X92389746Y-127653957D01*
X92647260Y-127760623D01*
X92920635Y-127815000D01*
X93199365Y-127815000D01*
X93472740Y-127760623D01*
X93730254Y-127653957D01*
X93962010Y-127499103D01*
X94159103Y-127302010D01*
X94313957Y-127070254D01*
X94330000Y-127031523D01*
X94346043Y-127070254D01*
X94500897Y-127302010D01*
X94697990Y-127499103D01*
X94929746Y-127653957D01*
X95187260Y-127760623D01*
X95460635Y-127815000D01*
X95739365Y-127815000D01*
X96012740Y-127760623D01*
X96270254Y-127653957D01*
X96502010Y-127499103D01*
X96699103Y-127302010D01*
X96853957Y-127070254D01*
X96870000Y-127031523D01*
X96886043Y-127070254D01*
X97040897Y-127302010D01*
X97237990Y-127499103D01*
X97469746Y-127653957D01*
X97727260Y-127760623D01*
X98000635Y-127815000D01*
X98279365Y-127815000D01*
X98552740Y-127760623D01*
X98810254Y-127653957D01*
X99042010Y-127499103D01*
X99239103Y-127302010D01*
X99393957Y-127070254D01*
X99410000Y-127031523D01*
X99426043Y-127070254D01*
X99580897Y-127302010D01*
X99777990Y-127499103D01*
X100009746Y-127653957D01*
X100267260Y-127760623D01*
X100540635Y-127815000D01*
X100819365Y-127815000D01*
X101092740Y-127760623D01*
X101350254Y-127653957D01*
X101582010Y-127499103D01*
X101779103Y-127302010D01*
X101933957Y-127070254D01*
X101950000Y-127031523D01*
X101966043Y-127070254D01*
X102120897Y-127302010D01*
X102317990Y-127499103D01*
X102549746Y-127653957D01*
X102807260Y-127760623D01*
X103080635Y-127815000D01*
X103359365Y-127815000D01*
X103632740Y-127760623D01*
X103890254Y-127653957D01*
X104122010Y-127499103D01*
X104319103Y-127302010D01*
X104473957Y-127070254D01*
X104490000Y-127031523D01*
X104506043Y-127070254D01*
X104660897Y-127302010D01*
X104857990Y-127499103D01*
X105089746Y-127653957D01*
X105347260Y-127760623D01*
X105620635Y-127815000D01*
X105899365Y-127815000D01*
X106172740Y-127760623D01*
X106430254Y-127653957D01*
X106662010Y-127499103D01*
X106859103Y-127302010D01*
X107013957Y-127070254D01*
X107030000Y-127031523D01*
X107046043Y-127070254D01*
X107200897Y-127302010D01*
X107397990Y-127499103D01*
X107629746Y-127653957D01*
X107887260Y-127760623D01*
X108160635Y-127815000D01*
X108439365Y-127815000D01*
X108712740Y-127760623D01*
X108970254Y-127653957D01*
X109202010Y-127499103D01*
X109399103Y-127302010D01*
X109553957Y-127070254D01*
X109570000Y-127031523D01*
X109586043Y-127070254D01*
X109740897Y-127302010D01*
X109937990Y-127499103D01*
X110169746Y-127653957D01*
X110427260Y-127760623D01*
X110700635Y-127815000D01*
X110979365Y-127815000D01*
X111252740Y-127760623D01*
X111510254Y-127653957D01*
X111742010Y-127499103D01*
X111862692Y-127378421D01*
X112581184Y-127378421D01*
X112650345Y-127620349D01*
X112902443Y-127739248D01*
X113172894Y-127806681D01*
X113451303Y-127820057D01*
X113726972Y-127778860D01*
X113989308Y-127684675D01*
X114109655Y-127620349D01*
X114178816Y-127378421D01*
X113380000Y-126579605D01*
X112581184Y-127378421D01*
X111862692Y-127378421D01*
X111939103Y-127302010D01*
X112093957Y-127070254D01*
X112108777Y-127034475D01*
X112159651Y-127129655D01*
X112401579Y-127198816D01*
X113200395Y-126400000D01*
X113559605Y-126400000D01*
X114358421Y-127198816D01*
X114600349Y-127129655D01*
X114648425Y-127027721D01*
X114666043Y-127070254D01*
X114820897Y-127302010D01*
X115017990Y-127499103D01*
X115249746Y-127653957D01*
X115507260Y-127760623D01*
X115780635Y-127815000D01*
X116059365Y-127815000D01*
X116332740Y-127760623D01*
X116590254Y-127653957D01*
X116822010Y-127499103D01*
X117019103Y-127302010D01*
X117173957Y-127070254D01*
X117190000Y-127031523D01*
X117206043Y-127070254D01*
X117360897Y-127302010D01*
X117557990Y-127499103D01*
X117789746Y-127653957D01*
X118047260Y-127760623D01*
X118320635Y-127815000D01*
X118599365Y-127815000D01*
X118872740Y-127760623D01*
X119130254Y-127653957D01*
X119362010Y-127499103D01*
X119559103Y-127302010D01*
X119713957Y-127070254D01*
X119730000Y-127031523D01*
X119746043Y-127070254D01*
X119900897Y-127302010D01*
X120097990Y-127499103D01*
X120329746Y-127653957D01*
X120587260Y-127760623D01*
X120860635Y-127815000D01*
X121139365Y-127815000D01*
X121412740Y-127760623D01*
X121670254Y-127653957D01*
X121902010Y-127499103D01*
X122099103Y-127302010D01*
X122253957Y-127070254D01*
X122270000Y-127031523D01*
X122286043Y-127070254D01*
X122440897Y-127302010D01*
X122637990Y-127499103D01*
X122869746Y-127653957D01*
X123127260Y-127760623D01*
X123400635Y-127815000D01*
X123679365Y-127815000D01*
X123952740Y-127760623D01*
X124210254Y-127653957D01*
X124442010Y-127499103D01*
X124639103Y-127302010D01*
X124793957Y-127070254D01*
X124810000Y-127031523D01*
X124826043Y-127070254D01*
X124980897Y-127302010D01*
X125177990Y-127499103D01*
X125409746Y-127653957D01*
X125667260Y-127760623D01*
X125940635Y-127815000D01*
X126219365Y-127815000D01*
X126492740Y-127760623D01*
X126750254Y-127653957D01*
X126982010Y-127499103D01*
X127102692Y-127378421D01*
X127821184Y-127378421D01*
X127890345Y-127620349D01*
X128142443Y-127739248D01*
X128412894Y-127806681D01*
X128691303Y-127820057D01*
X128966972Y-127778860D01*
X129229308Y-127684675D01*
X129349655Y-127620349D01*
X129418816Y-127378421D01*
X128620000Y-126579605D01*
X127821184Y-127378421D01*
X127102692Y-127378421D01*
X127179103Y-127302010D01*
X127333957Y-127070254D01*
X127348777Y-127034475D01*
X127399651Y-127129655D01*
X127641579Y-127198816D01*
X128440395Y-126400000D01*
X128799605Y-126400000D01*
X129598421Y-127198816D01*
X129840349Y-127129655D01*
X129959248Y-126877557D01*
X130026681Y-126607106D01*
X130040057Y-126328697D01*
X129998860Y-126053028D01*
X129904675Y-125790692D01*
X129840349Y-125670345D01*
X129598421Y-125601184D01*
X128799605Y-126400000D01*
X128440395Y-126400000D01*
X127641579Y-125601184D01*
X127399651Y-125670345D01*
X127351575Y-125772279D01*
X127333957Y-125729746D01*
X127179103Y-125497990D01*
X127102692Y-125421579D01*
X127821184Y-125421579D01*
X128620000Y-126220395D01*
X129418816Y-125421579D01*
X129349655Y-125179651D01*
X129097557Y-125060752D01*
X128827106Y-124993319D01*
X128548697Y-124979943D01*
X128273028Y-125021140D01*
X128010692Y-125115325D01*
X127890345Y-125179651D01*
X127821184Y-125421579D01*
X127102692Y-125421579D01*
X126982010Y-125300897D01*
X126750254Y-125146043D01*
X126492740Y-125039377D01*
X126219365Y-124985000D01*
X125940635Y-124985000D01*
X125667260Y-125039377D01*
X125409746Y-125146043D01*
X125177990Y-125300897D01*
X124980897Y-125497990D01*
X124826043Y-125729746D01*
X124810000Y-125768477D01*
X124793957Y-125729746D01*
X124639103Y-125497990D01*
X124442010Y-125300897D01*
X124210254Y-125146043D01*
X123952740Y-125039377D01*
X123679365Y-124985000D01*
X123400635Y-124985000D01*
X123127260Y-125039377D01*
X122869746Y-125146043D01*
X122637990Y-125300897D01*
X122440897Y-125497990D01*
X122286043Y-125729746D01*
X122270000Y-125768477D01*
X122253957Y-125729746D01*
X122099103Y-125497990D01*
X121902010Y-125300897D01*
X121670254Y-125146043D01*
X121412740Y-125039377D01*
X121139365Y-124985000D01*
X120860635Y-124985000D01*
X120587260Y-125039377D01*
X120329746Y-125146043D01*
X120097990Y-125300897D01*
X119900897Y-125497990D01*
X119746043Y-125729746D01*
X119730000Y-125768477D01*
X119713957Y-125729746D01*
X119559103Y-125497990D01*
X119362010Y-125300897D01*
X119130254Y-125146043D01*
X118872740Y-125039377D01*
X118599365Y-124985000D01*
X118320635Y-124985000D01*
X118047260Y-125039377D01*
X117789746Y-125146043D01*
X117557990Y-125300897D01*
X117360897Y-125497990D01*
X117206043Y-125729746D01*
X117190000Y-125768477D01*
X117173957Y-125729746D01*
X117019103Y-125497990D01*
X116822010Y-125300897D01*
X116590254Y-125146043D01*
X116332740Y-125039377D01*
X116059365Y-124985000D01*
X115780635Y-124985000D01*
X115507260Y-125039377D01*
X115249746Y-125146043D01*
X115017990Y-125300897D01*
X114820897Y-125497990D01*
X114666043Y-125729746D01*
X114651223Y-125765525D01*
X114600349Y-125670345D01*
X114358421Y-125601184D01*
X113559605Y-126400000D01*
X113200395Y-126400000D01*
X112401579Y-125601184D01*
X112159651Y-125670345D01*
X112111575Y-125772279D01*
X112093957Y-125729746D01*
X111939103Y-125497990D01*
X111862692Y-125421579D01*
X112581184Y-125421579D01*
X113380000Y-126220395D01*
X114178816Y-125421579D01*
X114109655Y-125179651D01*
X113857557Y-125060752D01*
X113587106Y-124993319D01*
X113308697Y-124979943D01*
X113033028Y-125021140D01*
X112770692Y-125115325D01*
X112650345Y-125179651D01*
X112581184Y-125421579D01*
X111862692Y-125421579D01*
X111742010Y-125300897D01*
X111510254Y-125146043D01*
X111252740Y-125039377D01*
X110979365Y-124985000D01*
X110700635Y-124985000D01*
X110427260Y-125039377D01*
X110169746Y-125146043D01*
X109937990Y-125300897D01*
X109740897Y-125497990D01*
X109586043Y-125729746D01*
X109570000Y-125768477D01*
X109553957Y-125729746D01*
X109399103Y-125497990D01*
X109202010Y-125300897D01*
X108970254Y-125146043D01*
X108712740Y-125039377D01*
X108439365Y-124985000D01*
X108160635Y-124985000D01*
X107887260Y-125039377D01*
X107629746Y-125146043D01*
X107397990Y-125300897D01*
X107200897Y-125497990D01*
X107046043Y-125729746D01*
X107030000Y-125768477D01*
X107013957Y-125729746D01*
X106859103Y-125497990D01*
X106662010Y-125300897D01*
X106430254Y-125146043D01*
X106172740Y-125039377D01*
X105899365Y-124985000D01*
X105620635Y-124985000D01*
X105347260Y-125039377D01*
X105089746Y-125146043D01*
X104857990Y-125300897D01*
X104660897Y-125497990D01*
X104506043Y-125729746D01*
X104490000Y-125768477D01*
X104473957Y-125729746D01*
X104319103Y-125497990D01*
X104122010Y-125300897D01*
X103890254Y-125146043D01*
X103632740Y-125039377D01*
X103359365Y-124985000D01*
X103080635Y-124985000D01*
X102807260Y-125039377D01*
X102549746Y-125146043D01*
X102317990Y-125300897D01*
X102120897Y-125497990D01*
X101966043Y-125729746D01*
X101950000Y-125768477D01*
X101933957Y-125729746D01*
X101779103Y-125497990D01*
X101582010Y-125300897D01*
X101350254Y-125146043D01*
X101092740Y-125039377D01*
X100819365Y-124985000D01*
X100540635Y-124985000D01*
X100267260Y-125039377D01*
X100009746Y-125146043D01*
X99777990Y-125300897D01*
X99580897Y-125497990D01*
X99426043Y-125729746D01*
X99410000Y-125768477D01*
X99393957Y-125729746D01*
X99239103Y-125497990D01*
X99042010Y-125300897D01*
X98810254Y-125146043D01*
X98552740Y-125039377D01*
X98279365Y-124985000D01*
X98000635Y-124985000D01*
X97727260Y-125039377D01*
X97469746Y-125146043D01*
X97237990Y-125300897D01*
X97040897Y-125497990D01*
X96886043Y-125729746D01*
X96870000Y-125768477D01*
X96853957Y-125729746D01*
X96699103Y-125497990D01*
X96502010Y-125300897D01*
X96270254Y-125146043D01*
X96012740Y-125039377D01*
X95739365Y-124985000D01*
X95460635Y-124985000D01*
X95187260Y-125039377D01*
X94929746Y-125146043D01*
X94697990Y-125300897D01*
X94500897Y-125497990D01*
X94346043Y-125729746D01*
X94330000Y-125768477D01*
X94313957Y-125729746D01*
X94159103Y-125497990D01*
X93962010Y-125300897D01*
X93730254Y-125146043D01*
X93472740Y-125039377D01*
X93199365Y-124985000D01*
X92920635Y-124985000D01*
X92647260Y-125039377D01*
X92389746Y-125146043D01*
X92157990Y-125300897D01*
X91960897Y-125497990D01*
X91806043Y-125729746D01*
X91790000Y-125768477D01*
X91773957Y-125729746D01*
X91619103Y-125497990D01*
X91422010Y-125300897D01*
X91190254Y-125146043D01*
X90932740Y-125039377D01*
X90659365Y-124985000D01*
X90380635Y-124985000D01*
X90107260Y-125039377D01*
X89849746Y-125146043D01*
X89617990Y-125300897D01*
X89420897Y-125497990D01*
X89266043Y-125729746D01*
X89250000Y-125768477D01*
X89233957Y-125729746D01*
X89079103Y-125497990D01*
X88882010Y-125300897D01*
X88650254Y-125146043D01*
X88392740Y-125039377D01*
X88119365Y-124985000D01*
X87840635Y-124985000D01*
X87567260Y-125039377D01*
X87309746Y-125146043D01*
X87077990Y-125300897D01*
X86880897Y-125497990D01*
X86726043Y-125729746D01*
X86710000Y-125768477D01*
X86693957Y-125729746D01*
X86539103Y-125497990D01*
X86342010Y-125300897D01*
X86110254Y-125146043D01*
X85852740Y-125039377D01*
X85579365Y-124985000D01*
X85300635Y-124985000D01*
X85027260Y-125039377D01*
X84769746Y-125146043D01*
X84537990Y-125300897D01*
X84340897Y-125497990D01*
X84186043Y-125729746D01*
X84170000Y-125768477D01*
X84153957Y-125729746D01*
X83999103Y-125497990D01*
X83802010Y-125300897D01*
X83570254Y-125146043D01*
X83312740Y-125039377D01*
X83039365Y-124985000D01*
X82760635Y-124985000D01*
X82487260Y-125039377D01*
X82229746Y-125146043D01*
X81997990Y-125300897D01*
X81800897Y-125497990D01*
X81646043Y-125729746D01*
X81539377Y-125987260D01*
X81485000Y-126260635D01*
X68785000Y-126260635D01*
X68785000Y-93253740D01*
X74575000Y-93253740D01*
X74575000Y-93546260D01*
X74632068Y-93833158D01*
X74744010Y-94103411D01*
X74906525Y-94346632D01*
X75113368Y-94553475D01*
X75287760Y-94670000D01*
X75113368Y-94786525D01*
X74906525Y-94993368D01*
X74744010Y-95236589D01*
X74632068Y-95506842D01*
X74575000Y-95793740D01*
X74575000Y-96086260D01*
X74632068Y-96373158D01*
X74744010Y-96643411D01*
X74906525Y-96886632D01*
X75113368Y-97093475D01*
X75287760Y-97210000D01*
X75113368Y-97326525D01*
X74906525Y-97533368D01*
X74744010Y-97776589D01*
X74632068Y-98046842D01*
X74575000Y-98333740D01*
X74575000Y-98626260D01*
X74632068Y-98913158D01*
X74744010Y-99183411D01*
X74906525Y-99426632D01*
X75113368Y-99633475D01*
X75287760Y-99750000D01*
X75113368Y-99866525D01*
X74906525Y-100073368D01*
X74744010Y-100316589D01*
X74632068Y-100586842D01*
X74575000Y-100873740D01*
X74575000Y-101166260D01*
X74632068Y-101453158D01*
X74744010Y-101723411D01*
X74906525Y-101966632D01*
X75113368Y-102173475D01*
X75287760Y-102290000D01*
X75113368Y-102406525D01*
X74906525Y-102613368D01*
X74744010Y-102856589D01*
X74632068Y-103126842D01*
X74575000Y-103413740D01*
X74575000Y-103706260D01*
X74632068Y-103993158D01*
X74744010Y-104263411D01*
X74906525Y-104506632D01*
X75113368Y-104713475D01*
X75287760Y-104830000D01*
X75113368Y-104946525D01*
X74906525Y-105153368D01*
X74744010Y-105396589D01*
X74632068Y-105666842D01*
X74575000Y-105953740D01*
X74575000Y-106246260D01*
X74632068Y-106533158D01*
X74744010Y-106803411D01*
X74906525Y-107046632D01*
X75113368Y-107253475D01*
X75287760Y-107370000D01*
X75113368Y-107486525D01*
X74906525Y-107693368D01*
X74744010Y-107936589D01*
X74632068Y-108206842D01*
X74575000Y-108493740D01*
X74575000Y-108786260D01*
X74632068Y-109073158D01*
X74744010Y-109343411D01*
X74906525Y-109586632D01*
X75113368Y-109793475D01*
X75287760Y-109910000D01*
X75113368Y-110026525D01*
X74906525Y-110233368D01*
X74744010Y-110476589D01*
X74632068Y-110746842D01*
X74575000Y-111033740D01*
X74575000Y-111326260D01*
X74632068Y-111613158D01*
X74744010Y-111883411D01*
X74906525Y-112126632D01*
X75113368Y-112333475D01*
X75356589Y-112495990D01*
X75626842Y-112607932D01*
X75913740Y-112665000D01*
X76206260Y-112665000D01*
X76493158Y-112607932D01*
X76763411Y-112495990D01*
X77006632Y-112333475D01*
X77213475Y-112126632D01*
X77331100Y-111950594D01*
X77502412Y-112180269D01*
X77718645Y-112375178D01*
X77968748Y-112524157D01*
X78243109Y-112621481D01*
X78473000Y-112500814D01*
X78473000Y-111307000D01*
X78727000Y-111307000D01*
X78727000Y-112500814D01*
X78956891Y-112621481D01*
X79231252Y-112524157D01*
X79481355Y-112375178D01*
X79697588Y-112180269D01*
X79871641Y-111946920D01*
X79996825Y-111684099D01*
X80041476Y-111536890D01*
X79920155Y-111307000D01*
X78727000Y-111307000D01*
X78473000Y-111307000D01*
X78453000Y-111307000D01*
X78453000Y-111053000D01*
X78473000Y-111053000D01*
X78473000Y-111033000D01*
X78727000Y-111033000D01*
X78727000Y-111053000D01*
X79920155Y-111053000D01*
X80041476Y-110823110D01*
X79996825Y-110675901D01*
X79871641Y-110413080D01*
X79697588Y-110179731D01*
X79481355Y-109984822D01*
X79364466Y-109915195D01*
X79546632Y-109793475D01*
X79753475Y-109586632D01*
X79915990Y-109343411D01*
X80027932Y-109073158D01*
X80085000Y-108786260D01*
X80085000Y-108493740D01*
X80027932Y-108206842D01*
X79915990Y-107936589D01*
X79753475Y-107693368D01*
X79546632Y-107486525D01*
X79372240Y-107370000D01*
X79546632Y-107253475D01*
X79753475Y-107046632D01*
X79915990Y-106803411D01*
X80027932Y-106533158D01*
X80085000Y-106246260D01*
X80085000Y-105953740D01*
X80027932Y-105666842D01*
X79915990Y-105396589D01*
X79753475Y-105153368D01*
X79546632Y-104946525D01*
X79372240Y-104830000D01*
X79546632Y-104713475D01*
X79753475Y-104506632D01*
X79915990Y-104263411D01*
X80027932Y-103993158D01*
X80085000Y-103706260D01*
X80085000Y-103413740D01*
X80027932Y-103126842D01*
X80000245Y-103060000D01*
X99342678Y-103060000D01*
X99380000Y-103063676D01*
X99417322Y-103060000D01*
X99417333Y-103060000D01*
X99528986Y-103049003D01*
X99672247Y-103005546D01*
X99804276Y-102934974D01*
X99920001Y-102840001D01*
X99943804Y-102810997D01*
X100373121Y-102381680D01*
X100540635Y-102415000D01*
X100819365Y-102415000D01*
X101092740Y-102360623D01*
X101350254Y-102253957D01*
X101582010Y-102099103D01*
X101779103Y-101902010D01*
X101933957Y-101670254D01*
X101950000Y-101631523D01*
X101966043Y-101670254D01*
X102120897Y-101902010D01*
X102317990Y-102099103D01*
X102549746Y-102253957D01*
X102807260Y-102360623D01*
X103080635Y-102415000D01*
X103359365Y-102415000D01*
X103632740Y-102360623D01*
X103890254Y-102253957D01*
X104122010Y-102099103D01*
X104319103Y-101902010D01*
X104473957Y-101670254D01*
X104490000Y-101631523D01*
X104506043Y-101670254D01*
X104660897Y-101902010D01*
X104857990Y-102099103D01*
X105089746Y-102253957D01*
X105347260Y-102360623D01*
X105620635Y-102415000D01*
X105899365Y-102415000D01*
X106172740Y-102360623D01*
X106430254Y-102253957D01*
X106662010Y-102099103D01*
X106859103Y-101902010D01*
X107013957Y-101670254D01*
X107030000Y-101631523D01*
X107046043Y-101670254D01*
X107200897Y-101902010D01*
X107397990Y-102099103D01*
X107629746Y-102253957D01*
X107887260Y-102360623D01*
X108160635Y-102415000D01*
X108439365Y-102415000D01*
X108712740Y-102360623D01*
X108970254Y-102253957D01*
X109202010Y-102099103D01*
X109399103Y-101902010D01*
X109553957Y-101670254D01*
X109570000Y-101631523D01*
X109586043Y-101670254D01*
X109740897Y-101902010D01*
X109937990Y-102099103D01*
X110169746Y-102253957D01*
X110427260Y-102360623D01*
X110700635Y-102415000D01*
X110979365Y-102415000D01*
X111252740Y-102360623D01*
X111510254Y-102253957D01*
X111742010Y-102099103D01*
X111939103Y-101902010D01*
X112093957Y-101670254D01*
X112110000Y-101631523D01*
X112126043Y-101670254D01*
X112280897Y-101902010D01*
X112477990Y-102099103D01*
X112709746Y-102253957D01*
X112967260Y-102360623D01*
X113240635Y-102415000D01*
X113519365Y-102415000D01*
X113792740Y-102360623D01*
X114050254Y-102253957D01*
X114282010Y-102099103D01*
X114479103Y-101902010D01*
X114633957Y-101670254D01*
X114650000Y-101631523D01*
X114666043Y-101670254D01*
X114820897Y-101902010D01*
X115017990Y-102099103D01*
X115249746Y-102253957D01*
X115507260Y-102360623D01*
X115780635Y-102415000D01*
X116059365Y-102415000D01*
X116332740Y-102360623D01*
X116590254Y-102253957D01*
X116822010Y-102099103D01*
X117019103Y-101902010D01*
X117173957Y-101670254D01*
X117190000Y-101631523D01*
X117206043Y-101670254D01*
X117360897Y-101902010D01*
X117557990Y-102099103D01*
X117789746Y-102253957D01*
X118047260Y-102360623D01*
X118320635Y-102415000D01*
X118599365Y-102415000D01*
X118872740Y-102360623D01*
X119130254Y-102253957D01*
X119362010Y-102099103D01*
X119559103Y-101902010D01*
X119713957Y-101670254D01*
X119730000Y-101631523D01*
X119746043Y-101670254D01*
X119900897Y-101902010D01*
X120097990Y-102099103D01*
X120329746Y-102253957D01*
X120587260Y-102360623D01*
X120860635Y-102415000D01*
X121139365Y-102415000D01*
X121412740Y-102360623D01*
X121670254Y-102253957D01*
X121902010Y-102099103D01*
X122099103Y-101902010D01*
X122253957Y-101670254D01*
X122270000Y-101631523D01*
X122286043Y-101670254D01*
X122440897Y-101902010D01*
X122637990Y-102099103D01*
X122869746Y-102253957D01*
X123127260Y-102360623D01*
X123400635Y-102415000D01*
X123679365Y-102415000D01*
X123952740Y-102360623D01*
X124210254Y-102253957D01*
X124442010Y-102099103D01*
X124639103Y-101902010D01*
X124793957Y-101670254D01*
X124810000Y-101631523D01*
X124826043Y-101670254D01*
X124980897Y-101902010D01*
X125177990Y-102099103D01*
X125409746Y-102253957D01*
X125667260Y-102360623D01*
X125940635Y-102415000D01*
X126219365Y-102415000D01*
X126492740Y-102360623D01*
X126750254Y-102253957D01*
X126982010Y-102099103D01*
X127179103Y-101902010D01*
X127209469Y-101856564D01*
X127214188Y-101904482D01*
X127250498Y-102024180D01*
X127309463Y-102134494D01*
X127388815Y-102231185D01*
X127485506Y-102310537D01*
X127595820Y-102369502D01*
X127715518Y-102405812D01*
X127840000Y-102418072D01*
X129400000Y-102418072D01*
X129524482Y-102405812D01*
X129644180Y-102369502D01*
X129754494Y-102310537D01*
X129851185Y-102231185D01*
X129930537Y-102134494D01*
X129989502Y-102024180D01*
X130025812Y-101904482D01*
X130038072Y-101780000D01*
X130038072Y-100220000D01*
X130025812Y-100095518D01*
X129989502Y-99975820D01*
X129930537Y-99865506D01*
X129851185Y-99768815D01*
X129754494Y-99689463D01*
X129644180Y-99630498D01*
X129524482Y-99594188D01*
X129400000Y-99581928D01*
X127840000Y-99581928D01*
X127715518Y-99594188D01*
X127595820Y-99630498D01*
X127485506Y-99689463D01*
X127388815Y-99768815D01*
X127309463Y-99865506D01*
X127250498Y-99975820D01*
X127214188Y-100095518D01*
X127209469Y-100143436D01*
X127179103Y-100097990D01*
X126982010Y-99900897D01*
X126750254Y-99746043D01*
X126492740Y-99639377D01*
X126219365Y-99585000D01*
X125940635Y-99585000D01*
X125667260Y-99639377D01*
X125409746Y-99746043D01*
X125177990Y-99900897D01*
X124980897Y-100097990D01*
X124826043Y-100329746D01*
X124810000Y-100368477D01*
X124793957Y-100329746D01*
X124639103Y-100097990D01*
X124442010Y-99900897D01*
X124210254Y-99746043D01*
X123952740Y-99639377D01*
X123679365Y-99585000D01*
X123400635Y-99585000D01*
X123127260Y-99639377D01*
X122869746Y-99746043D01*
X122637990Y-99900897D01*
X122440897Y-100097990D01*
X122286043Y-100329746D01*
X122270000Y-100368477D01*
X122253957Y-100329746D01*
X122099103Y-100097990D01*
X121902010Y-99900897D01*
X121670254Y-99746043D01*
X121412740Y-99639377D01*
X121139365Y-99585000D01*
X120949801Y-99585000D01*
X127449781Y-93085021D01*
X131337657Y-93085021D01*
X131374979Y-93088697D01*
X131412301Y-93085021D01*
X131412312Y-93085021D01*
X131523965Y-93074024D01*
X131667226Y-93030567D01*
X131799255Y-92959995D01*
X131914980Y-92865022D01*
X131938783Y-92836018D01*
X133039802Y-91735000D01*
X133101939Y-91735000D01*
X133301898Y-91695226D01*
X133490256Y-91617205D01*
X133659774Y-91503937D01*
X133803937Y-91359774D01*
X133917205Y-91190256D01*
X133995226Y-91001898D01*
X134035000Y-90801939D01*
X134035000Y-90598061D01*
X133995226Y-90398102D01*
X133953069Y-90296327D01*
X134134637Y-90114759D01*
X134291680Y-89879727D01*
X134324703Y-89800000D01*
X138911686Y-89800000D01*
X138915001Y-89833657D01*
X138915000Y-109766353D01*
X138911686Y-109800000D01*
X138924912Y-109934283D01*
X138964081Y-110063406D01*
X139027688Y-110182407D01*
X139113289Y-110286711D01*
X139191409Y-110350823D01*
X139217593Y-110372312D01*
X139336594Y-110435919D01*
X139465717Y-110475088D01*
X139600000Y-110488314D01*
X139633647Y-110485000D01*
X175566353Y-110485000D01*
X175600000Y-110488314D01*
X175734283Y-110475088D01*
X175863406Y-110435919D01*
X175982407Y-110372312D01*
X176086711Y-110286711D01*
X176172312Y-110182407D01*
X176235919Y-110063406D01*
X176275088Y-109934283D01*
X176285000Y-109833647D01*
X176285000Y-109833646D01*
X176288314Y-109800000D01*
X176285000Y-109766353D01*
X176285000Y-108075000D01*
X185136928Y-108075000D01*
X185136928Y-109725000D01*
X185149188Y-109849482D01*
X185185498Y-109969180D01*
X185244463Y-110079494D01*
X185323815Y-110176185D01*
X185420506Y-110255537D01*
X185530820Y-110314502D01*
X185650518Y-110350812D01*
X185775000Y-110363072D01*
X187425000Y-110363072D01*
X187549482Y-110350812D01*
X187669180Y-110314502D01*
X187779494Y-110255537D01*
X187876185Y-110176185D01*
X187955537Y-110079494D01*
X188014502Y-109969180D01*
X188032286Y-109910551D01*
X188309054Y-109910551D01*
X188383663Y-110157073D01*
X188643439Y-110280473D01*
X188922297Y-110350823D01*
X189209521Y-110365417D01*
X189494074Y-110323697D01*
X189765020Y-110227265D01*
X189896337Y-110157073D01*
X189970946Y-109910551D01*
X189140000Y-109079605D01*
X188309054Y-109910551D01*
X188032286Y-109910551D01*
X188050812Y-109849482D01*
X188063072Y-109725000D01*
X188063072Y-109710857D01*
X188129449Y-109730946D01*
X188960395Y-108900000D01*
X189319605Y-108900000D01*
X190150551Y-109730946D01*
X190397073Y-109656337D01*
X190410523Y-109628023D01*
X190545944Y-109830696D01*
X190749304Y-110034056D01*
X190988431Y-110193835D01*
X191254134Y-110303893D01*
X191536203Y-110360000D01*
X191823797Y-110360000D01*
X192105866Y-110303893D01*
X192371569Y-110193835D01*
X192610696Y-110034056D01*
X192814056Y-109830696D01*
X192950000Y-109627241D01*
X193085944Y-109830696D01*
X193289304Y-110034056D01*
X193528431Y-110193835D01*
X193794134Y-110303893D01*
X194076203Y-110360000D01*
X194363797Y-110360000D01*
X194645866Y-110303893D01*
X194911569Y-110193835D01*
X195150696Y-110034056D01*
X195354056Y-109830696D01*
X195490000Y-109627241D01*
X195625944Y-109830696D01*
X195829304Y-110034056D01*
X196068431Y-110193835D01*
X196334134Y-110303893D01*
X196616203Y-110360000D01*
X196903797Y-110360000D01*
X197185866Y-110303893D01*
X197451569Y-110193835D01*
X197690696Y-110034056D01*
X197894056Y-109830696D01*
X198030000Y-109627241D01*
X198165944Y-109830696D01*
X198369304Y-110034056D01*
X198608431Y-110193835D01*
X198874134Y-110303893D01*
X199156203Y-110360000D01*
X199443797Y-110360000D01*
X199725866Y-110303893D01*
X199991569Y-110193835D01*
X200230696Y-110034056D01*
X200354201Y-109910551D01*
X201009054Y-109910551D01*
X201083663Y-110157073D01*
X201343439Y-110280473D01*
X201622297Y-110350823D01*
X201909521Y-110365417D01*
X202194074Y-110323697D01*
X202465020Y-110227265D01*
X202596337Y-110157073D01*
X202670946Y-109910551D01*
X201840000Y-109079605D01*
X201009054Y-109910551D01*
X200354201Y-109910551D01*
X200434056Y-109830696D01*
X200568541Y-109629424D01*
X200582927Y-109656337D01*
X200829449Y-109730946D01*
X201660395Y-108900000D01*
X202019605Y-108900000D01*
X202850551Y-109730946D01*
X203097073Y-109656337D01*
X203220473Y-109396561D01*
X203290823Y-109117703D01*
X203305417Y-108830479D01*
X203263697Y-108545926D01*
X203167265Y-108274980D01*
X203097073Y-108143663D01*
X202850551Y-108069054D01*
X202019605Y-108900000D01*
X201660395Y-108900000D01*
X200829449Y-108069054D01*
X200582927Y-108143663D01*
X200569477Y-108171977D01*
X200434056Y-107969304D01*
X200354201Y-107889449D01*
X201009054Y-107889449D01*
X201840000Y-108720395D01*
X202670946Y-107889449D01*
X202596337Y-107642927D01*
X202336561Y-107519527D01*
X202057703Y-107449177D01*
X201770479Y-107434583D01*
X201485926Y-107476303D01*
X201214980Y-107572735D01*
X201083663Y-107642927D01*
X201009054Y-107889449D01*
X200354201Y-107889449D01*
X200230696Y-107765944D01*
X199991569Y-107606165D01*
X199725866Y-107496107D01*
X199443797Y-107440000D01*
X199156203Y-107440000D01*
X198874134Y-107496107D01*
X198608431Y-107606165D01*
X198369304Y-107765944D01*
X198165944Y-107969304D01*
X198030000Y-108172759D01*
X197894056Y-107969304D01*
X197690696Y-107765944D01*
X197451569Y-107606165D01*
X197185866Y-107496107D01*
X196903797Y-107440000D01*
X196616203Y-107440000D01*
X196334134Y-107496107D01*
X196068431Y-107606165D01*
X195829304Y-107765944D01*
X195625944Y-107969304D01*
X195490000Y-108172759D01*
X195354056Y-107969304D01*
X195150696Y-107765944D01*
X194911569Y-107606165D01*
X194645866Y-107496107D01*
X194363797Y-107440000D01*
X194076203Y-107440000D01*
X193794134Y-107496107D01*
X193528431Y-107606165D01*
X193289304Y-107765944D01*
X193085944Y-107969304D01*
X192950000Y-108172759D01*
X192814056Y-107969304D01*
X192610696Y-107765944D01*
X192371569Y-107606165D01*
X192105866Y-107496107D01*
X191823797Y-107440000D01*
X191536203Y-107440000D01*
X191254134Y-107496107D01*
X190988431Y-107606165D01*
X190749304Y-107765944D01*
X190545944Y-107969304D01*
X190411459Y-108170576D01*
X190397073Y-108143663D01*
X190150551Y-108069054D01*
X189319605Y-108900000D01*
X188960395Y-108900000D01*
X188129449Y-108069054D01*
X188063072Y-108089143D01*
X188063072Y-108075000D01*
X188050812Y-107950518D01*
X188032287Y-107889449D01*
X188309054Y-107889449D01*
X189140000Y-108720395D01*
X189970946Y-107889449D01*
X189896337Y-107642927D01*
X189636561Y-107519527D01*
X189357703Y-107449177D01*
X189070479Y-107434583D01*
X188785926Y-107476303D01*
X188514980Y-107572735D01*
X188383663Y-107642927D01*
X188309054Y-107889449D01*
X188032287Y-107889449D01*
X188014502Y-107830820D01*
X187955537Y-107720506D01*
X187876185Y-107623815D01*
X187779494Y-107544463D01*
X187669180Y-107485498D01*
X187549482Y-107449188D01*
X187425000Y-107436928D01*
X185775000Y-107436928D01*
X185650518Y-107449188D01*
X185530820Y-107485498D01*
X185420506Y-107544463D01*
X185323815Y-107623815D01*
X185244463Y-107720506D01*
X185185498Y-107830820D01*
X185149188Y-107950518D01*
X185136928Y-108075000D01*
X176285000Y-108075000D01*
X176285000Y-96516890D01*
X185858524Y-96516890D01*
X185903175Y-96664099D01*
X186028359Y-96926920D01*
X186202412Y-97160269D01*
X186418645Y-97355178D01*
X186668748Y-97504157D01*
X186943109Y-97601481D01*
X187173000Y-97480814D01*
X187173000Y-96287000D01*
X187427000Y-96287000D01*
X187427000Y-97480814D01*
X187656891Y-97601481D01*
X187931252Y-97504157D01*
X188181355Y-97355178D01*
X188397588Y-97160269D01*
X188571641Y-96926920D01*
X188696825Y-96664099D01*
X188741476Y-96516890D01*
X188620155Y-96287000D01*
X187427000Y-96287000D01*
X187173000Y-96287000D01*
X185979845Y-96287000D01*
X185858524Y-96516890D01*
X176285000Y-96516890D01*
X176285000Y-89833647D01*
X176288314Y-89800000D01*
X176275088Y-89665717D01*
X176235919Y-89536594D01*
X176172312Y-89417593D01*
X176086711Y-89313289D01*
X175982407Y-89227688D01*
X175863406Y-89164081D01*
X175734283Y-89124912D01*
X175633647Y-89115000D01*
X175600000Y-89111686D01*
X175566353Y-89115000D01*
X139633647Y-89115000D01*
X139600000Y-89111686D01*
X139566353Y-89115000D01*
X139465717Y-89124912D01*
X139336594Y-89164081D01*
X139217593Y-89227688D01*
X139113289Y-89313289D01*
X139027688Y-89417593D01*
X138964081Y-89536594D01*
X138924912Y-89665717D01*
X138911686Y-89800000D01*
X134324703Y-89800000D01*
X134399853Y-89618574D01*
X134455000Y-89341335D01*
X134455000Y-89058665D01*
X134399853Y-88781426D01*
X134291680Y-88520273D01*
X134134637Y-88285241D01*
X133934759Y-88085363D01*
X133699727Y-87928320D01*
X133438574Y-87820147D01*
X133161335Y-87765000D01*
X132878665Y-87765000D01*
X132601426Y-87820147D01*
X132340273Y-87928320D01*
X132105241Y-88085363D01*
X131905363Y-88285241D01*
X131750000Y-88517759D01*
X131594637Y-88285241D01*
X131394759Y-88085363D01*
X131159727Y-87928320D01*
X130898574Y-87820147D01*
X130621335Y-87765000D01*
X130338665Y-87765000D01*
X130061426Y-87820147D01*
X129800273Y-87928320D01*
X129565241Y-88085363D01*
X129365363Y-88285241D01*
X129210000Y-88517759D01*
X129054637Y-88285241D01*
X128854759Y-88085363D01*
X128619727Y-87928320D01*
X128358574Y-87820147D01*
X128081335Y-87765000D01*
X127798665Y-87765000D01*
X127521426Y-87820147D01*
X127260273Y-87928320D01*
X127025241Y-88085363D01*
X126826643Y-88283961D01*
X126825812Y-88275518D01*
X126789502Y-88155820D01*
X126730537Y-88045506D01*
X126651185Y-87948815D01*
X126554494Y-87869463D01*
X126444180Y-87810498D01*
X126324482Y-87774188D01*
X126200000Y-87761928D01*
X124600000Y-87761928D01*
X124475518Y-87774188D01*
X124355820Y-87810498D01*
X124245506Y-87869463D01*
X124148815Y-87948815D01*
X124069463Y-88045506D01*
X124010498Y-88155820D01*
X123974188Y-88275518D01*
X123961928Y-88400000D01*
X123961928Y-89940000D01*
X121177325Y-89940000D01*
X121140000Y-89936324D01*
X121102675Y-89940000D01*
X121102667Y-89940000D01*
X120991014Y-89950997D01*
X120847753Y-89994454D01*
X120715724Y-90065026D01*
X120599999Y-90159999D01*
X120576201Y-90188997D01*
X111146879Y-99618320D01*
X110979365Y-99585000D01*
X110700635Y-99585000D01*
X110427260Y-99639377D01*
X110169746Y-99746043D01*
X109937990Y-99900897D01*
X109740897Y-100097990D01*
X109586043Y-100329746D01*
X109570000Y-100368477D01*
X109553957Y-100329746D01*
X109399103Y-100097990D01*
X109202010Y-99900897D01*
X109060000Y-99806009D01*
X109060000Y-97814801D01*
X115839802Y-91035000D01*
X115901939Y-91035000D01*
X116101898Y-90995226D01*
X116290256Y-90917205D01*
X116459774Y-90803937D01*
X116603937Y-90659774D01*
X116717205Y-90490256D01*
X116795226Y-90301898D01*
X116835000Y-90101939D01*
X116835000Y-89898061D01*
X116795226Y-89698102D01*
X116717205Y-89509744D01*
X116699469Y-89483200D01*
X116774482Y-89475812D01*
X116894180Y-89439502D01*
X117004494Y-89380537D01*
X117101185Y-89301185D01*
X117180537Y-89204494D01*
X117239502Y-89094180D01*
X117275812Y-88974482D01*
X117288072Y-88850000D01*
X117288072Y-87150000D01*
X117275812Y-87025518D01*
X117239502Y-86905820D01*
X117180537Y-86795506D01*
X117101185Y-86698815D01*
X117004494Y-86619463D01*
X116894180Y-86560498D01*
X116774482Y-86524188D01*
X116650000Y-86511928D01*
X114950000Y-86511928D01*
X114825518Y-86524188D01*
X114705820Y-86560498D01*
X114595506Y-86619463D01*
X114498815Y-86698815D01*
X114419463Y-86795506D01*
X114360498Y-86905820D01*
X114324188Y-87025518D01*
X114311928Y-87150000D01*
X114311928Y-88850000D01*
X114324188Y-88974482D01*
X114360498Y-89094180D01*
X114419463Y-89204494D01*
X114498815Y-89301185D01*
X114595506Y-89380537D01*
X114705820Y-89439502D01*
X114825518Y-89475812D01*
X114900531Y-89483200D01*
X114882795Y-89509744D01*
X114804774Y-89698102D01*
X114765000Y-89898061D01*
X114765000Y-89960198D01*
X107788998Y-96936201D01*
X107760000Y-96959999D01*
X107736202Y-96988997D01*
X107736201Y-96988998D01*
X107665026Y-97075724D01*
X107594454Y-97207754D01*
X107550998Y-97351015D01*
X107536324Y-97500000D01*
X107540001Y-97537332D01*
X107540000Y-99806009D01*
X107397990Y-99900897D01*
X107200897Y-100097990D01*
X107046043Y-100329746D01*
X107030000Y-100368477D01*
X107013957Y-100329746D01*
X106859103Y-100097990D01*
X106662010Y-99900897D01*
X106520000Y-99806009D01*
X106520000Y-91054801D01*
X106539801Y-91035000D01*
X106601939Y-91035000D01*
X106801898Y-90995226D01*
X106990256Y-90917205D01*
X107159774Y-90803937D01*
X107303937Y-90659774D01*
X107417205Y-90490256D01*
X107495226Y-90301898D01*
X107535000Y-90101939D01*
X107535000Y-89898061D01*
X107495226Y-89698102D01*
X107417205Y-89509744D01*
X107399469Y-89483200D01*
X107474482Y-89475812D01*
X107594180Y-89439502D01*
X107704494Y-89380537D01*
X107801185Y-89301185D01*
X107880537Y-89204494D01*
X107939502Y-89094180D01*
X107975812Y-88974482D01*
X107988072Y-88850000D01*
X107988072Y-87150000D01*
X107975812Y-87025518D01*
X107939502Y-86905820D01*
X107880537Y-86795506D01*
X107801185Y-86698815D01*
X107704494Y-86619463D01*
X107594180Y-86560498D01*
X107474482Y-86524188D01*
X107350000Y-86511928D01*
X105650000Y-86511928D01*
X105525518Y-86524188D01*
X105405820Y-86560498D01*
X105295506Y-86619463D01*
X105198815Y-86698815D01*
X105119463Y-86795506D01*
X105060498Y-86905820D01*
X105024188Y-87025518D01*
X105011928Y-87150000D01*
X105011928Y-88850000D01*
X105024188Y-88974482D01*
X105060498Y-89094180D01*
X105119463Y-89204494D01*
X105198815Y-89301185D01*
X105295506Y-89380537D01*
X105405820Y-89439502D01*
X105525518Y-89475812D01*
X105600531Y-89483200D01*
X105582795Y-89509744D01*
X105504774Y-89698102D01*
X105465000Y-89898061D01*
X105465000Y-89960199D01*
X105248998Y-90176201D01*
X105220000Y-90199999D01*
X105196202Y-90228997D01*
X105196201Y-90228998D01*
X105125026Y-90315724D01*
X105054454Y-90447754D01*
X105010998Y-90591015D01*
X104996324Y-90740000D01*
X105000001Y-90777332D01*
X105000000Y-99806009D01*
X104857990Y-99900897D01*
X104660897Y-100097990D01*
X104506043Y-100329746D01*
X104490000Y-100368477D01*
X104473957Y-100329746D01*
X104319103Y-100097990D01*
X104122010Y-99900897D01*
X103980000Y-99806009D01*
X103980000Y-94057323D01*
X103983676Y-94020000D01*
X103980000Y-93982677D01*
X103980000Y-93982667D01*
X103969003Y-93871014D01*
X103925546Y-93727753D01*
X103854975Y-93595725D01*
X103854974Y-93595723D01*
X103783799Y-93508997D01*
X103760001Y-93479999D01*
X103731004Y-93456202D01*
X99663804Y-89389003D01*
X99640001Y-89359999D01*
X99524276Y-89265026D01*
X99392247Y-89194454D01*
X99248986Y-89150997D01*
X99137333Y-89140000D01*
X99137322Y-89140000D01*
X99100000Y-89136324D01*
X99062678Y-89140000D01*
X98315010Y-89140000D01*
X98339502Y-89094180D01*
X98375812Y-88974482D01*
X98388072Y-88850000D01*
X98388072Y-87150000D01*
X98375812Y-87025518D01*
X98339502Y-86905820D01*
X98280537Y-86795506D01*
X98201185Y-86698815D01*
X98104494Y-86619463D01*
X97994180Y-86560498D01*
X97874482Y-86524188D01*
X97750000Y-86511928D01*
X96050000Y-86511928D01*
X95925518Y-86524188D01*
X95805820Y-86560498D01*
X95695506Y-86619463D01*
X95598815Y-86698815D01*
X95519463Y-86795506D01*
X95460498Y-86905820D01*
X95424188Y-87025518D01*
X95411928Y-87150000D01*
X95411928Y-88850000D01*
X95424188Y-88974482D01*
X95460498Y-89094180D01*
X95519463Y-89204494D01*
X95598815Y-89301185D01*
X95695506Y-89380537D01*
X95805820Y-89439502D01*
X95925518Y-89475812D01*
X95954256Y-89478642D01*
X95904774Y-89598102D01*
X95865000Y-89798061D01*
X95865000Y-90001939D01*
X95904774Y-90201898D01*
X95982795Y-90390256D01*
X96096063Y-90559774D01*
X96240226Y-90703937D01*
X96409744Y-90817205D01*
X96598102Y-90895226D01*
X96798061Y-90935000D01*
X97001939Y-90935000D01*
X97201898Y-90895226D01*
X97390256Y-90817205D01*
X97559774Y-90703937D01*
X97603711Y-90660000D01*
X98785199Y-90660000D01*
X102460000Y-94334802D01*
X102460001Y-99806009D01*
X102317990Y-99900897D01*
X102120897Y-100097990D01*
X101966043Y-100329746D01*
X101950000Y-100368477D01*
X101933957Y-100329746D01*
X101779103Y-100097990D01*
X101582010Y-99900897D01*
X101350254Y-99746043D01*
X101092740Y-99639377D01*
X100819365Y-99585000D01*
X100540635Y-99585000D01*
X100267260Y-99639377D01*
X100009746Y-99746043D01*
X99777990Y-99900897D01*
X99580897Y-100097990D01*
X99426043Y-100329746D01*
X99410000Y-100368477D01*
X99393957Y-100329746D01*
X99239103Y-100097990D01*
X99042010Y-99900897D01*
X98810254Y-99746043D01*
X98552740Y-99639377D01*
X98279365Y-99585000D01*
X98000635Y-99585000D01*
X97727260Y-99639377D01*
X97469746Y-99746043D01*
X97237990Y-99900897D01*
X97040897Y-100097990D01*
X96886043Y-100329746D01*
X96871223Y-100365525D01*
X96820349Y-100270345D01*
X96578421Y-100201184D01*
X95779605Y-101000000D01*
X95793748Y-101014143D01*
X95614143Y-101193748D01*
X95600000Y-101179605D01*
X95585858Y-101193748D01*
X95406253Y-101014143D01*
X95420395Y-101000000D01*
X94621579Y-100201184D01*
X94379651Y-100270345D01*
X94331575Y-100372279D01*
X94313957Y-100329746D01*
X94159103Y-100097990D01*
X94082692Y-100021579D01*
X94801184Y-100021579D01*
X95600000Y-100820395D01*
X96398816Y-100021579D01*
X96329655Y-99779651D01*
X96077557Y-99660752D01*
X95807106Y-99593319D01*
X95528697Y-99579943D01*
X95253028Y-99621140D01*
X94990692Y-99715325D01*
X94870345Y-99779651D01*
X94801184Y-100021579D01*
X94082692Y-100021579D01*
X93962010Y-99900897D01*
X93730254Y-99746043D01*
X93472740Y-99639377D01*
X93199365Y-99585000D01*
X92920635Y-99585000D01*
X92753121Y-99618320D01*
X92423804Y-99289003D01*
X92400001Y-99259999D01*
X92284276Y-99165026D01*
X92152247Y-99094454D01*
X92008986Y-99050997D01*
X91897333Y-99040000D01*
X91897322Y-99040000D01*
X91860000Y-99036324D01*
X91822678Y-99040000D01*
X79975393Y-99040000D01*
X80027932Y-98913158D01*
X80085000Y-98626260D01*
X80085000Y-98333740D01*
X80027932Y-98046842D01*
X79915990Y-97776589D01*
X79753475Y-97533368D01*
X79546632Y-97326525D01*
X79364466Y-97204805D01*
X79481355Y-97135178D01*
X79697588Y-96940269D01*
X79871641Y-96706920D01*
X79996825Y-96444099D01*
X80041476Y-96296890D01*
X79920155Y-96067000D01*
X78727000Y-96067000D01*
X78727000Y-96087000D01*
X78473000Y-96087000D01*
X78473000Y-96067000D01*
X78453000Y-96067000D01*
X78453000Y-95813000D01*
X78473000Y-95813000D01*
X78473000Y-95793000D01*
X78727000Y-95793000D01*
X78727000Y-95813000D01*
X79920155Y-95813000D01*
X80041476Y-95583110D01*
X79996825Y-95435901D01*
X79871641Y-95173080D01*
X79697588Y-94939731D01*
X79613534Y-94863966D01*
X79694180Y-94839502D01*
X79804494Y-94780537D01*
X79901185Y-94701185D01*
X79980537Y-94604494D01*
X80039502Y-94494180D01*
X80075812Y-94374482D01*
X80088072Y-94250000D01*
X80088072Y-92550000D01*
X80075812Y-92425518D01*
X80039502Y-92305820D01*
X79980537Y-92195506D01*
X79901185Y-92098815D01*
X79804494Y-92019463D01*
X79694180Y-91960498D01*
X79574482Y-91924188D01*
X79450000Y-91911928D01*
X77750000Y-91911928D01*
X77625518Y-91924188D01*
X77505820Y-91960498D01*
X77395506Y-92019463D01*
X77298815Y-92098815D01*
X77219463Y-92195506D01*
X77160498Y-92305820D01*
X77138487Y-92378380D01*
X77006632Y-92246525D01*
X76763411Y-92084010D01*
X76493158Y-91972068D01*
X76206260Y-91915000D01*
X75913740Y-91915000D01*
X75626842Y-91972068D01*
X75356589Y-92084010D01*
X75113368Y-92246525D01*
X74906525Y-92453368D01*
X74744010Y-92696589D01*
X74632068Y-92966842D01*
X74575000Y-93253740D01*
X68785000Y-93253740D01*
X68785000Y-84650000D01*
X142411928Y-84650000D01*
X142411928Y-86350000D01*
X142424188Y-86474482D01*
X142460498Y-86594180D01*
X142519463Y-86704494D01*
X142598815Y-86801185D01*
X142695506Y-86880537D01*
X142805820Y-86939502D01*
X142925518Y-86975812D01*
X143050000Y-86988072D01*
X144750000Y-86988072D01*
X144874482Y-86975812D01*
X144994180Y-86939502D01*
X145104494Y-86880537D01*
X145201185Y-86801185D01*
X145280537Y-86704494D01*
X145339502Y-86594180D01*
X145363966Y-86513534D01*
X145439731Y-86597588D01*
X145673080Y-86771641D01*
X145935901Y-86896825D01*
X146083110Y-86941476D01*
X146313000Y-86820155D01*
X146313000Y-85627000D01*
X146567000Y-85627000D01*
X146567000Y-86820155D01*
X146796890Y-86941476D01*
X146944099Y-86896825D01*
X147206920Y-86771641D01*
X147440269Y-86597588D01*
X147635178Y-86381355D01*
X147784157Y-86131252D01*
X147881481Y-85856891D01*
X147760814Y-85627000D01*
X146567000Y-85627000D01*
X146313000Y-85627000D01*
X146293000Y-85627000D01*
X146293000Y-85373000D01*
X146313000Y-85373000D01*
X146313000Y-84179845D01*
X146567000Y-84179845D01*
X146567000Y-85373000D01*
X147760814Y-85373000D01*
X147877863Y-85150000D01*
X185811928Y-85150000D01*
X185811928Y-86850000D01*
X185824188Y-86974482D01*
X185860498Y-87094180D01*
X185919463Y-87204494D01*
X185998815Y-87301185D01*
X186095506Y-87380537D01*
X186205820Y-87439502D01*
X186278380Y-87461513D01*
X186146525Y-87593368D01*
X185984010Y-87836589D01*
X185872068Y-88106842D01*
X185815000Y-88393740D01*
X185815000Y-88686260D01*
X185872068Y-88973158D01*
X185984010Y-89243411D01*
X186146525Y-89486632D01*
X186353368Y-89693475D01*
X186527760Y-89810000D01*
X186353368Y-89926525D01*
X186146525Y-90133368D01*
X185984010Y-90376589D01*
X185872068Y-90646842D01*
X185815000Y-90933740D01*
X185815000Y-91226260D01*
X185872068Y-91513158D01*
X185984010Y-91783411D01*
X186146525Y-92026632D01*
X186353368Y-92233475D01*
X186527760Y-92350000D01*
X186353368Y-92466525D01*
X186146525Y-92673368D01*
X185984010Y-92916589D01*
X185872068Y-93186842D01*
X185815000Y-93473740D01*
X185815000Y-93766260D01*
X185872068Y-94053158D01*
X185984010Y-94323411D01*
X186146525Y-94566632D01*
X186353368Y-94773475D01*
X186535534Y-94895195D01*
X186418645Y-94964822D01*
X186202412Y-95159731D01*
X186028359Y-95393080D01*
X185903175Y-95655901D01*
X185858524Y-95803110D01*
X185979845Y-96033000D01*
X187173000Y-96033000D01*
X187173000Y-96013000D01*
X187427000Y-96013000D01*
X187427000Y-96033000D01*
X188620155Y-96033000D01*
X188741476Y-95803110D01*
X188696825Y-95655901D01*
X188571641Y-95393080D01*
X188397588Y-95159731D01*
X188181355Y-94964822D01*
X188064466Y-94895195D01*
X188246632Y-94773475D01*
X188453475Y-94566632D01*
X188615990Y-94323411D01*
X188727932Y-94053158D01*
X188785000Y-93766260D01*
X188785000Y-93473740D01*
X188745218Y-93273740D01*
X211115000Y-93273740D01*
X211115000Y-93566260D01*
X211172068Y-93853158D01*
X211284010Y-94123411D01*
X211446525Y-94366632D01*
X211653368Y-94573475D01*
X211827760Y-94690000D01*
X211653368Y-94806525D01*
X211446525Y-95013368D01*
X211284010Y-95256589D01*
X211172068Y-95526842D01*
X211115000Y-95813740D01*
X211115000Y-96106260D01*
X211172068Y-96393158D01*
X211284010Y-96663411D01*
X211446525Y-96906632D01*
X211653368Y-97113475D01*
X211827760Y-97230000D01*
X211653368Y-97346525D01*
X211446525Y-97553368D01*
X211284010Y-97796589D01*
X211172068Y-98066842D01*
X211115000Y-98353740D01*
X211115000Y-98646260D01*
X211172068Y-98933158D01*
X211284010Y-99203411D01*
X211446525Y-99446632D01*
X211653368Y-99653475D01*
X211827760Y-99770000D01*
X211653368Y-99886525D01*
X211446525Y-100093368D01*
X211284010Y-100336589D01*
X211172068Y-100606842D01*
X211115000Y-100893740D01*
X211115000Y-101186260D01*
X211172068Y-101473158D01*
X211284010Y-101743411D01*
X211446525Y-101986632D01*
X211653368Y-102193475D01*
X211827760Y-102310000D01*
X211653368Y-102426525D01*
X211446525Y-102633368D01*
X211284010Y-102876589D01*
X211172068Y-103146842D01*
X211115000Y-103433740D01*
X211115000Y-103726260D01*
X211172068Y-104013158D01*
X211284010Y-104283411D01*
X211446525Y-104526632D01*
X211653368Y-104733475D01*
X211827760Y-104850000D01*
X211653368Y-104966525D01*
X211446525Y-105173368D01*
X211284010Y-105416589D01*
X211172068Y-105686842D01*
X211115000Y-105973740D01*
X211115000Y-106266260D01*
X211172068Y-106553158D01*
X211284010Y-106823411D01*
X211446525Y-107066632D01*
X211653368Y-107273475D01*
X211827760Y-107390000D01*
X211653368Y-107506525D01*
X211446525Y-107713368D01*
X211284010Y-107956589D01*
X211172068Y-108226842D01*
X211115000Y-108513740D01*
X211115000Y-108806260D01*
X211172068Y-109093158D01*
X211284010Y-109363411D01*
X211446525Y-109606632D01*
X211653368Y-109813475D01*
X211827760Y-109930000D01*
X211653368Y-110046525D01*
X211446525Y-110253368D01*
X211284010Y-110496589D01*
X211172068Y-110766842D01*
X211115000Y-111053740D01*
X211115000Y-111346260D01*
X211172068Y-111633158D01*
X211284010Y-111903411D01*
X211446525Y-112146632D01*
X211653368Y-112353475D01*
X211896589Y-112515990D01*
X212166842Y-112627932D01*
X212453740Y-112685000D01*
X212746260Y-112685000D01*
X213033158Y-112627932D01*
X213303411Y-112515990D01*
X213546632Y-112353475D01*
X213753475Y-112146632D01*
X213871100Y-111970594D01*
X214042412Y-112200269D01*
X214258645Y-112395178D01*
X214508748Y-112544157D01*
X214783109Y-112641481D01*
X215013000Y-112520814D01*
X215013000Y-111327000D01*
X215267000Y-111327000D01*
X215267000Y-112520814D01*
X215496891Y-112641481D01*
X215771252Y-112544157D01*
X216021355Y-112395178D01*
X216237588Y-112200269D01*
X216411641Y-111966920D01*
X216536825Y-111704099D01*
X216581476Y-111556890D01*
X216460155Y-111327000D01*
X215267000Y-111327000D01*
X215013000Y-111327000D01*
X214993000Y-111327000D01*
X214993000Y-111073000D01*
X215013000Y-111073000D01*
X215013000Y-111053000D01*
X215267000Y-111053000D01*
X215267000Y-111073000D01*
X216460155Y-111073000D01*
X216581476Y-110843110D01*
X216536825Y-110695901D01*
X216411641Y-110433080D01*
X216237588Y-110199731D01*
X216021355Y-110004822D01*
X215904466Y-109935195D01*
X216086632Y-109813475D01*
X216293475Y-109606632D01*
X216455990Y-109363411D01*
X216567932Y-109093158D01*
X216625000Y-108806260D01*
X216625000Y-108513740D01*
X216567932Y-108226842D01*
X216455990Y-107956589D01*
X216293475Y-107713368D01*
X216086632Y-107506525D01*
X215912240Y-107390000D01*
X216086632Y-107273475D01*
X216293475Y-107066632D01*
X216455990Y-106823411D01*
X216567932Y-106553158D01*
X216625000Y-106266260D01*
X216625000Y-105973740D01*
X216567932Y-105686842D01*
X216455990Y-105416589D01*
X216293475Y-105173368D01*
X216086632Y-104966525D01*
X215912240Y-104850000D01*
X216086632Y-104733475D01*
X216293475Y-104526632D01*
X216455990Y-104283411D01*
X216567932Y-104013158D01*
X216625000Y-103726260D01*
X216625000Y-103433740D01*
X216567932Y-103146842D01*
X216455990Y-102876589D01*
X216293475Y-102633368D01*
X216086632Y-102426525D01*
X215904466Y-102304805D01*
X216021355Y-102235178D01*
X216237588Y-102040269D01*
X216411641Y-101806920D01*
X216536825Y-101544099D01*
X216581476Y-101396890D01*
X216460155Y-101167000D01*
X215267000Y-101167000D01*
X215267000Y-101187000D01*
X215013000Y-101187000D01*
X215013000Y-101167000D01*
X214993000Y-101167000D01*
X214993000Y-100913000D01*
X215013000Y-100913000D01*
X215013000Y-100893000D01*
X215267000Y-100893000D01*
X215267000Y-100913000D01*
X216460155Y-100913000D01*
X216581476Y-100683110D01*
X216536825Y-100535901D01*
X216411641Y-100273080D01*
X216237588Y-100039731D01*
X216021355Y-99844822D01*
X215904466Y-99775195D01*
X216086632Y-99653475D01*
X216293475Y-99446632D01*
X216455990Y-99203411D01*
X216567932Y-98933158D01*
X216625000Y-98646260D01*
X216625000Y-98353740D01*
X216567932Y-98066842D01*
X216455990Y-97796589D01*
X216293475Y-97553368D01*
X216086632Y-97346525D01*
X215904466Y-97224805D01*
X216021355Y-97155178D01*
X216237588Y-96960269D01*
X216411641Y-96726920D01*
X216536825Y-96464099D01*
X216581476Y-96316890D01*
X216460155Y-96087000D01*
X215267000Y-96087000D01*
X215267000Y-96107000D01*
X215013000Y-96107000D01*
X215013000Y-96087000D01*
X214993000Y-96087000D01*
X214993000Y-95833000D01*
X215013000Y-95833000D01*
X215013000Y-95813000D01*
X215267000Y-95813000D01*
X215267000Y-95833000D01*
X216460155Y-95833000D01*
X216581476Y-95603110D01*
X216536825Y-95455901D01*
X216411641Y-95193080D01*
X216237588Y-94959731D01*
X216153534Y-94883966D01*
X216234180Y-94859502D01*
X216344494Y-94800537D01*
X216441185Y-94721185D01*
X216520537Y-94624494D01*
X216579502Y-94514180D01*
X216615812Y-94394482D01*
X216628072Y-94270000D01*
X216628072Y-92570000D01*
X216615812Y-92445518D01*
X216579502Y-92325820D01*
X216520537Y-92215506D01*
X216441185Y-92118815D01*
X216344494Y-92039463D01*
X216234180Y-91980498D01*
X216114482Y-91944188D01*
X215990000Y-91931928D01*
X214290000Y-91931928D01*
X214165518Y-91944188D01*
X214045820Y-91980498D01*
X213935506Y-92039463D01*
X213838815Y-92118815D01*
X213759463Y-92215506D01*
X213700498Y-92325820D01*
X213678487Y-92398380D01*
X213546632Y-92266525D01*
X213303411Y-92104010D01*
X213033158Y-91992068D01*
X212746260Y-91935000D01*
X212453740Y-91935000D01*
X212166842Y-91992068D01*
X211896589Y-92104010D01*
X211653368Y-92266525D01*
X211446525Y-92473368D01*
X211284010Y-92716589D01*
X211172068Y-92986842D01*
X211115000Y-93273740D01*
X188745218Y-93273740D01*
X188727932Y-93186842D01*
X188615990Y-92916589D01*
X188453475Y-92673368D01*
X188246632Y-92466525D01*
X188072240Y-92350000D01*
X188246632Y-92233475D01*
X188453475Y-92026632D01*
X188615990Y-91783411D01*
X188727932Y-91513158D01*
X188785000Y-91226260D01*
X188785000Y-90933740D01*
X188727932Y-90646842D01*
X188615990Y-90376589D01*
X188453475Y-90133368D01*
X188246632Y-89926525D01*
X188072240Y-89810000D01*
X188246632Y-89693475D01*
X188453475Y-89486632D01*
X188615990Y-89243411D01*
X188727932Y-88973158D01*
X188785000Y-88686260D01*
X188785000Y-88393740D01*
X188727932Y-88106842D01*
X188615990Y-87836589D01*
X188453475Y-87593368D01*
X188321620Y-87461513D01*
X188394180Y-87439502D01*
X188504494Y-87380537D01*
X188601185Y-87301185D01*
X188680537Y-87204494D01*
X188739502Y-87094180D01*
X188775812Y-86974482D01*
X188788072Y-86850000D01*
X188788072Y-85150000D01*
X188775812Y-85025518D01*
X188739502Y-84905820D01*
X188680537Y-84795506D01*
X188601185Y-84698815D01*
X188504494Y-84619463D01*
X188394180Y-84560498D01*
X188274482Y-84524188D01*
X188150000Y-84511928D01*
X186450000Y-84511928D01*
X186325518Y-84524188D01*
X186205820Y-84560498D01*
X186095506Y-84619463D01*
X185998815Y-84698815D01*
X185919463Y-84795506D01*
X185860498Y-84905820D01*
X185824188Y-85025518D01*
X185811928Y-85150000D01*
X147877863Y-85150000D01*
X147881481Y-85143109D01*
X147784157Y-84868748D01*
X147635178Y-84618645D01*
X147440269Y-84402412D01*
X147206920Y-84228359D01*
X146944099Y-84103175D01*
X146796890Y-84058524D01*
X146567000Y-84179845D01*
X146313000Y-84179845D01*
X146083110Y-84058524D01*
X145935901Y-84103175D01*
X145673080Y-84228359D01*
X145439731Y-84402412D01*
X145363966Y-84486466D01*
X145339502Y-84405820D01*
X145280537Y-84295506D01*
X145201185Y-84198815D01*
X145104494Y-84119463D01*
X144994180Y-84060498D01*
X144874482Y-84024188D01*
X144750000Y-84011928D01*
X143050000Y-84011928D01*
X142925518Y-84024188D01*
X142805820Y-84060498D01*
X142695506Y-84119463D01*
X142598815Y-84198815D01*
X142519463Y-84295506D01*
X142460498Y-84405820D01*
X142424188Y-84525518D01*
X142411928Y-84650000D01*
X68785000Y-84650000D01*
X68785000Y-83276890D01*
X95458524Y-83276890D01*
X95503175Y-83424099D01*
X95628359Y-83686920D01*
X95802412Y-83920269D01*
X96018645Y-84115178D01*
X96268748Y-84264157D01*
X96543109Y-84361481D01*
X96773000Y-84240814D01*
X96773000Y-83047000D01*
X97027000Y-83047000D01*
X97027000Y-84240814D01*
X97256891Y-84361481D01*
X97531252Y-84264157D01*
X97781355Y-84115178D01*
X97997588Y-83920269D01*
X98171641Y-83686920D01*
X98296825Y-83424099D01*
X98341476Y-83276890D01*
X105058524Y-83276890D01*
X105103175Y-83424099D01*
X105228359Y-83686920D01*
X105402412Y-83920269D01*
X105618645Y-84115178D01*
X105868748Y-84264157D01*
X106143109Y-84361481D01*
X106373000Y-84240814D01*
X106373000Y-83047000D01*
X106627000Y-83047000D01*
X106627000Y-84240814D01*
X106856891Y-84361481D01*
X107131252Y-84264157D01*
X107381355Y-84115178D01*
X107597588Y-83920269D01*
X107771641Y-83686920D01*
X107896825Y-83424099D01*
X107941476Y-83276890D01*
X114358524Y-83276890D01*
X114403175Y-83424099D01*
X114528359Y-83686920D01*
X114702412Y-83920269D01*
X114918645Y-84115178D01*
X115168748Y-84264157D01*
X115443109Y-84361481D01*
X115673000Y-84240814D01*
X115673000Y-83047000D01*
X115927000Y-83047000D01*
X115927000Y-84240814D01*
X116156891Y-84361481D01*
X116431252Y-84264157D01*
X116681355Y-84115178D01*
X116897588Y-83920269D01*
X117071641Y-83686920D01*
X117196825Y-83424099D01*
X117241476Y-83276890D01*
X117120155Y-83047000D01*
X115927000Y-83047000D01*
X115673000Y-83047000D01*
X114479845Y-83047000D01*
X114358524Y-83276890D01*
X107941476Y-83276890D01*
X107820155Y-83047000D01*
X106627000Y-83047000D01*
X106373000Y-83047000D01*
X105179845Y-83047000D01*
X105058524Y-83276890D01*
X98341476Y-83276890D01*
X98220155Y-83047000D01*
X97027000Y-83047000D01*
X96773000Y-83047000D01*
X95579845Y-83047000D01*
X95458524Y-83276890D01*
X68785000Y-83276890D01*
X68785000Y-82563110D01*
X95458524Y-82563110D01*
X95579845Y-82793000D01*
X96773000Y-82793000D01*
X96773000Y-81599186D01*
X97027000Y-81599186D01*
X97027000Y-82793000D01*
X98220155Y-82793000D01*
X98341476Y-82563110D01*
X105058524Y-82563110D01*
X105179845Y-82793000D01*
X106373000Y-82793000D01*
X106373000Y-81599186D01*
X106627000Y-81599186D01*
X106627000Y-82793000D01*
X107820155Y-82793000D01*
X107941476Y-82563110D01*
X114358524Y-82563110D01*
X114479845Y-82793000D01*
X115673000Y-82793000D01*
X115673000Y-81599186D01*
X115927000Y-81599186D01*
X115927000Y-82793000D01*
X117120155Y-82793000D01*
X117241476Y-82563110D01*
X117196825Y-82415901D01*
X117071641Y-82153080D01*
X116904532Y-81929040D01*
X124008091Y-81929040D01*
X124102930Y-82193881D01*
X124247615Y-82435131D01*
X124436586Y-82643519D01*
X124662580Y-82811037D01*
X124916913Y-82931246D01*
X125050961Y-82971904D01*
X125273000Y-82849915D01*
X125273000Y-81707000D01*
X125527000Y-81707000D01*
X125527000Y-82849915D01*
X125749039Y-82971904D01*
X125883087Y-82931246D01*
X126137420Y-82811037D01*
X126363414Y-82643519D01*
X126552385Y-82435131D01*
X126670000Y-82239018D01*
X126787615Y-82435131D01*
X126976586Y-82643519D01*
X127202580Y-82811037D01*
X127456913Y-82931246D01*
X127590961Y-82971904D01*
X127813000Y-82849915D01*
X127813000Y-81707000D01*
X128067000Y-81707000D01*
X128067000Y-82849915D01*
X128289039Y-82971904D01*
X128423087Y-82931246D01*
X128677420Y-82811037D01*
X128903414Y-82643519D01*
X129092385Y-82435131D01*
X129210000Y-82239018D01*
X129327615Y-82435131D01*
X129516586Y-82643519D01*
X129742580Y-82811037D01*
X129996913Y-82931246D01*
X130130961Y-82971904D01*
X130353000Y-82849915D01*
X130353000Y-81707000D01*
X130607000Y-81707000D01*
X130607000Y-82849915D01*
X130829039Y-82971904D01*
X130963087Y-82931246D01*
X131217420Y-82811037D01*
X131443414Y-82643519D01*
X131632385Y-82435131D01*
X131750000Y-82239018D01*
X131867615Y-82435131D01*
X132056586Y-82643519D01*
X132282580Y-82811037D01*
X132536913Y-82931246D01*
X132670961Y-82971904D01*
X132893000Y-82849915D01*
X132893000Y-81707000D01*
X133147000Y-81707000D01*
X133147000Y-82849915D01*
X133369039Y-82971904D01*
X133503087Y-82931246D01*
X133757420Y-82811037D01*
X133983414Y-82643519D01*
X134172385Y-82435131D01*
X134317070Y-82193881D01*
X134411909Y-81929040D01*
X134290624Y-81707000D01*
X133147000Y-81707000D01*
X132893000Y-81707000D01*
X130607000Y-81707000D01*
X130353000Y-81707000D01*
X128067000Y-81707000D01*
X127813000Y-81707000D01*
X125527000Y-81707000D01*
X125273000Y-81707000D01*
X124129376Y-81707000D01*
X124008091Y-81929040D01*
X116904532Y-81929040D01*
X116897588Y-81919731D01*
X116681355Y-81724822D01*
X116431252Y-81575843D01*
X116156891Y-81478519D01*
X115927000Y-81599186D01*
X115673000Y-81599186D01*
X115443109Y-81478519D01*
X115168748Y-81575843D01*
X114918645Y-81724822D01*
X114702412Y-81919731D01*
X114528359Y-82153080D01*
X114403175Y-82415901D01*
X114358524Y-82563110D01*
X107941476Y-82563110D01*
X107896825Y-82415901D01*
X107771641Y-82153080D01*
X107597588Y-81919731D01*
X107381355Y-81724822D01*
X107131252Y-81575843D01*
X106856891Y-81478519D01*
X106627000Y-81599186D01*
X106373000Y-81599186D01*
X106143109Y-81478519D01*
X105868748Y-81575843D01*
X105618645Y-81724822D01*
X105402412Y-81919731D01*
X105228359Y-82153080D01*
X105103175Y-82415901D01*
X105058524Y-82563110D01*
X98341476Y-82563110D01*
X98296825Y-82415901D01*
X98171641Y-82153080D01*
X97997588Y-81919731D01*
X97781355Y-81724822D01*
X97531252Y-81575843D01*
X97256891Y-81478519D01*
X97027000Y-81599186D01*
X96773000Y-81599186D01*
X96543109Y-81478519D01*
X96268748Y-81575843D01*
X96018645Y-81724822D01*
X95802412Y-81919731D01*
X95628359Y-82153080D01*
X95503175Y-82415901D01*
X95458524Y-82563110D01*
X68785000Y-82563110D01*
X68785000Y-81230960D01*
X124008091Y-81230960D01*
X124129376Y-81453000D01*
X125273000Y-81453000D01*
X125273000Y-80310085D01*
X125527000Y-80310085D01*
X125527000Y-81453000D01*
X127813000Y-81453000D01*
X127813000Y-80310085D01*
X128067000Y-80310085D01*
X128067000Y-81453000D01*
X130353000Y-81453000D01*
X130353000Y-80310085D01*
X130607000Y-80310085D01*
X130607000Y-81453000D01*
X132893000Y-81453000D01*
X132893000Y-80310085D01*
X133147000Y-80310085D01*
X133147000Y-81453000D01*
X134290624Y-81453000D01*
X134411909Y-81230960D01*
X134317070Y-80966119D01*
X134172385Y-80724869D01*
X133983414Y-80516481D01*
X133757420Y-80348963D01*
X133503087Y-80228754D01*
X133369039Y-80188096D01*
X133147000Y-80310085D01*
X132893000Y-80310085D01*
X132670961Y-80188096D01*
X132536913Y-80228754D01*
X132282580Y-80348963D01*
X132056586Y-80516481D01*
X131867615Y-80724869D01*
X131750000Y-80920982D01*
X131632385Y-80724869D01*
X131443414Y-80516481D01*
X131217420Y-80348963D01*
X130963087Y-80228754D01*
X130829039Y-80188096D01*
X130607000Y-80310085D01*
X130353000Y-80310085D01*
X130130961Y-80188096D01*
X129996913Y-80228754D01*
X129742580Y-80348963D01*
X129516586Y-80516481D01*
X129327615Y-80724869D01*
X129210000Y-80920982D01*
X129092385Y-80724869D01*
X128903414Y-80516481D01*
X128677420Y-80348963D01*
X128423087Y-80228754D01*
X128289039Y-80188096D01*
X128067000Y-80310085D01*
X127813000Y-80310085D01*
X127590961Y-80188096D01*
X127456913Y-80228754D01*
X127202580Y-80348963D01*
X126976586Y-80516481D01*
X126787615Y-80724869D01*
X126670000Y-80920982D01*
X126552385Y-80724869D01*
X126363414Y-80516481D01*
X126137420Y-80348963D01*
X125883087Y-80228754D01*
X125749039Y-80188096D01*
X125527000Y-80310085D01*
X125273000Y-80310085D01*
X125050961Y-80188096D01*
X124916913Y-80228754D01*
X124662580Y-80348963D01*
X124436586Y-80516481D01*
X124247615Y-80724869D01*
X124102930Y-80966119D01*
X124008091Y-81230960D01*
X68785000Y-81230960D01*
X68785000Y-72985000D01*
X222415000Y-72985000D01*
X222415001Y-131615000D01*
G04 #@! TA.AperFunction,Conductor*
D22*
G36*
X222415001Y-131615000D02*
G01*
X68785000Y-131615000D01*
X68785000Y-128498061D01*
X147765000Y-128498061D01*
X147765000Y-128701939D01*
X147804774Y-128901898D01*
X147882795Y-129090256D01*
X147996063Y-129259774D01*
X148140226Y-129403937D01*
X148309744Y-129517205D01*
X148498102Y-129595226D01*
X148698061Y-129635000D01*
X148901939Y-129635000D01*
X149101898Y-129595226D01*
X149290256Y-129517205D01*
X149459774Y-129403937D01*
X149603937Y-129259774D01*
X149717205Y-129090256D01*
X149795226Y-128901898D01*
X149835000Y-128701939D01*
X149835000Y-128639801D01*
X155951004Y-122523798D01*
X155980001Y-122500001D01*
X156006332Y-122467917D01*
X156074974Y-122384277D01*
X156145546Y-122252247D01*
X156145546Y-122252246D01*
X156189003Y-122108986D01*
X156200000Y-121997333D01*
X156200000Y-121997324D01*
X156203676Y-121960001D01*
X156200000Y-121922678D01*
X156200000Y-120978178D01*
X156386632Y-120853475D01*
X156593475Y-120646632D01*
X156710000Y-120472240D01*
X156826525Y-120646632D01*
X157033368Y-120853475D01*
X157276589Y-121015990D01*
X157546842Y-121127932D01*
X157833740Y-121185000D01*
X158126260Y-121185000D01*
X158413158Y-121127932D01*
X158683411Y-121015990D01*
X158926632Y-120853475D01*
X159133475Y-120646632D01*
X159255195Y-120464466D01*
X159324822Y-120581355D01*
X159519731Y-120797588D01*
X159753080Y-120971641D01*
X160015901Y-121096825D01*
X160163110Y-121141476D01*
X160393000Y-121020155D01*
X160393000Y-119827000D01*
X160373000Y-119827000D01*
X160373000Y-119573000D01*
X160393000Y-119573000D01*
X160393000Y-118379845D01*
X160647000Y-118379845D01*
X160647000Y-119573000D01*
X160667000Y-119573000D01*
X160667000Y-119827000D01*
X160647000Y-119827000D01*
X160647000Y-121020155D01*
X160876890Y-121141476D01*
X161024099Y-121096825D01*
X161286920Y-120971641D01*
X161520269Y-120797588D01*
X161715178Y-120581355D01*
X161784805Y-120464466D01*
X161906525Y-120646632D01*
X162113368Y-120853475D01*
X162356589Y-121015990D01*
X162626842Y-121127932D01*
X162913740Y-121185000D01*
X163206260Y-121185000D01*
X163493158Y-121127932D01*
X163763411Y-121015990D01*
X164006632Y-120853475D01*
X164138487Y-120721620D01*
X164160498Y-120794180D01*
X164219463Y-120904494D01*
X164298815Y-121001185D01*
X164395506Y-121080537D01*
X164505820Y-121139502D01*
X164625518Y-121175812D01*
X164750000Y-121188072D01*
X166450000Y-121188072D01*
X166574482Y-121175812D01*
X166694180Y-121139502D01*
X166804494Y-121080537D01*
X166901185Y-121001185D01*
X166980537Y-120904494D01*
X167039502Y-120794180D01*
X167075812Y-120674482D01*
X167088072Y-120550000D01*
X167088072Y-118850000D01*
X167075812Y-118725518D01*
X167039502Y-118605820D01*
X166980537Y-118495506D01*
X166901185Y-118398815D01*
X166804494Y-118319463D01*
X166694180Y-118260498D01*
X166574482Y-118224188D01*
X166450000Y-118211928D01*
X164750000Y-118211928D01*
X164625518Y-118224188D01*
X164505820Y-118260498D01*
X164395506Y-118319463D01*
X164298815Y-118398815D01*
X164219463Y-118495506D01*
X164160498Y-118605820D01*
X164138487Y-118678380D01*
X164006632Y-118546525D01*
X163763411Y-118384010D01*
X163493158Y-118272068D01*
X163206260Y-118215000D01*
X162913740Y-118215000D01*
X162626842Y-118272068D01*
X162356589Y-118384010D01*
X162113368Y-118546525D01*
X161906525Y-118753368D01*
X161784805Y-118935534D01*
X161715178Y-118818645D01*
X161520269Y-118602412D01*
X161286920Y-118428359D01*
X161024099Y-118303175D01*
X160876890Y-118258524D01*
X160647000Y-118379845D01*
X160393000Y-118379845D01*
X160163110Y-118258524D01*
X160015901Y-118303175D01*
X159753080Y-118428359D01*
X159519731Y-118602412D01*
X159324822Y-118818645D01*
X159255195Y-118935534D01*
X159133475Y-118753368D01*
X158926632Y-118546525D01*
X158683411Y-118384010D01*
X158413158Y-118272068D01*
X158126260Y-118215000D01*
X157833740Y-118215000D01*
X157546842Y-118272068D01*
X157276589Y-118384010D01*
X157033368Y-118546525D01*
X156826525Y-118753368D01*
X156710000Y-118927760D01*
X156593475Y-118753368D01*
X156386632Y-118546525D01*
X156143411Y-118384010D01*
X155873158Y-118272068D01*
X155586260Y-118215000D01*
X155293740Y-118215000D01*
X155006842Y-118272068D01*
X154736589Y-118384010D01*
X154493368Y-118546525D01*
X154286525Y-118753368D01*
X154124010Y-118996589D01*
X154012068Y-119266842D01*
X153955000Y-119553740D01*
X153955000Y-119846260D01*
X154012068Y-120133158D01*
X154124010Y-120403411D01*
X154286525Y-120646632D01*
X154493368Y-120853475D01*
X154680000Y-120978179D01*
X154680000Y-121645198D01*
X148760199Y-127565000D01*
X148698061Y-127565000D01*
X148498102Y-127604774D01*
X148309744Y-127682795D01*
X148140226Y-127796063D01*
X147996063Y-127940226D01*
X147882795Y-128109744D01*
X147804774Y-128298102D01*
X147765000Y-128498061D01*
X68785000Y-128498061D01*
X68785000Y-126260635D01*
X81485000Y-126260635D01*
X81485000Y-126539365D01*
X81539377Y-126812740D01*
X81646043Y-127070254D01*
X81800897Y-127302010D01*
X81997990Y-127499103D01*
X82229746Y-127653957D01*
X82487260Y-127760623D01*
X82760635Y-127815000D01*
X83039365Y-127815000D01*
X83312740Y-127760623D01*
X83570254Y-127653957D01*
X83802010Y-127499103D01*
X83999103Y-127302010D01*
X84153957Y-127070254D01*
X84170000Y-127031523D01*
X84186043Y-127070254D01*
X84340897Y-127302010D01*
X84537990Y-127499103D01*
X84769746Y-127653957D01*
X85027260Y-127760623D01*
X85300635Y-127815000D01*
X85579365Y-127815000D01*
X85852740Y-127760623D01*
X86110254Y-127653957D01*
X86342010Y-127499103D01*
X86539103Y-127302010D01*
X86693957Y-127070254D01*
X86710000Y-127031523D01*
X86726043Y-127070254D01*
X86880897Y-127302010D01*
X87077990Y-127499103D01*
X87309746Y-127653957D01*
X87567260Y-127760623D01*
X87840635Y-127815000D01*
X88119365Y-127815000D01*
X88392740Y-127760623D01*
X88650254Y-127653957D01*
X88882010Y-127499103D01*
X89079103Y-127302010D01*
X89233957Y-127070254D01*
X89250000Y-127031523D01*
X89266043Y-127070254D01*
X89420897Y-127302010D01*
X89617990Y-127499103D01*
X89849746Y-127653957D01*
X90107260Y-127760623D01*
X90380635Y-127815000D01*
X90659365Y-127815000D01*
X90932740Y-127760623D01*
X91190254Y-127653957D01*
X91422010Y-127499103D01*
X91619103Y-127302010D01*
X91773957Y-127070254D01*
X91790000Y-127031523D01*
X91806043Y-127070254D01*
X91960897Y-127302010D01*
X92157990Y-127499103D01*
X92389746Y-127653957D01*
X92647260Y-127760623D01*
X92920635Y-127815000D01*
X93199365Y-127815000D01*
X93472740Y-127760623D01*
X93730254Y-127653957D01*
X93962010Y-127499103D01*
X94159103Y-127302010D01*
X94313957Y-127070254D01*
X94330000Y-127031523D01*
X94346043Y-127070254D01*
X94500897Y-127302010D01*
X94697990Y-127499103D01*
X94929746Y-127653957D01*
X95187260Y-127760623D01*
X95460635Y-127815000D01*
X95739365Y-127815000D01*
X96012740Y-127760623D01*
X96270254Y-127653957D01*
X96502010Y-127499103D01*
X96699103Y-127302010D01*
X96853957Y-127070254D01*
X96870000Y-127031523D01*
X96886043Y-127070254D01*
X97040897Y-127302010D01*
X97237990Y-127499103D01*
X97469746Y-127653957D01*
X97727260Y-127760623D01*
X98000635Y-127815000D01*
X98279365Y-127815000D01*
X98552740Y-127760623D01*
X98810254Y-127653957D01*
X99042010Y-127499103D01*
X99239103Y-127302010D01*
X99393957Y-127070254D01*
X99410000Y-127031523D01*
X99426043Y-127070254D01*
X99580897Y-127302010D01*
X99777990Y-127499103D01*
X100009746Y-127653957D01*
X100267260Y-127760623D01*
X100540635Y-127815000D01*
X100819365Y-127815000D01*
X101092740Y-127760623D01*
X101350254Y-127653957D01*
X101582010Y-127499103D01*
X101779103Y-127302010D01*
X101933957Y-127070254D01*
X101950000Y-127031523D01*
X101966043Y-127070254D01*
X102120897Y-127302010D01*
X102317990Y-127499103D01*
X102549746Y-127653957D01*
X102807260Y-127760623D01*
X103080635Y-127815000D01*
X103359365Y-127815000D01*
X103632740Y-127760623D01*
X103890254Y-127653957D01*
X104122010Y-127499103D01*
X104319103Y-127302010D01*
X104473957Y-127070254D01*
X104490000Y-127031523D01*
X104506043Y-127070254D01*
X104660897Y-127302010D01*
X104857990Y-127499103D01*
X105089746Y-127653957D01*
X105347260Y-127760623D01*
X105620635Y-127815000D01*
X105899365Y-127815000D01*
X106172740Y-127760623D01*
X106430254Y-127653957D01*
X106662010Y-127499103D01*
X106859103Y-127302010D01*
X107013957Y-127070254D01*
X107030000Y-127031523D01*
X107046043Y-127070254D01*
X107200897Y-127302010D01*
X107397990Y-127499103D01*
X107629746Y-127653957D01*
X107887260Y-127760623D01*
X108160635Y-127815000D01*
X108439365Y-127815000D01*
X108712740Y-127760623D01*
X108970254Y-127653957D01*
X109202010Y-127499103D01*
X109399103Y-127302010D01*
X109553957Y-127070254D01*
X109570000Y-127031523D01*
X109586043Y-127070254D01*
X109740897Y-127302010D01*
X109937990Y-127499103D01*
X110169746Y-127653957D01*
X110427260Y-127760623D01*
X110700635Y-127815000D01*
X110979365Y-127815000D01*
X111252740Y-127760623D01*
X111510254Y-127653957D01*
X111742010Y-127499103D01*
X111862692Y-127378421D01*
X112581184Y-127378421D01*
X112650345Y-127620349D01*
X112902443Y-127739248D01*
X113172894Y-127806681D01*
X113451303Y-127820057D01*
X113726972Y-127778860D01*
X113989308Y-127684675D01*
X114109655Y-127620349D01*
X114178816Y-127378421D01*
X113380000Y-126579605D01*
X112581184Y-127378421D01*
X111862692Y-127378421D01*
X111939103Y-127302010D01*
X112093957Y-127070254D01*
X112108777Y-127034475D01*
X112159651Y-127129655D01*
X112401579Y-127198816D01*
X113200395Y-126400000D01*
X113559605Y-126400000D01*
X114358421Y-127198816D01*
X114600349Y-127129655D01*
X114648425Y-127027721D01*
X114666043Y-127070254D01*
X114820897Y-127302010D01*
X115017990Y-127499103D01*
X115249746Y-127653957D01*
X115507260Y-127760623D01*
X115780635Y-127815000D01*
X116059365Y-127815000D01*
X116332740Y-127760623D01*
X116590254Y-127653957D01*
X116822010Y-127499103D01*
X117019103Y-127302010D01*
X117173957Y-127070254D01*
X117190000Y-127031523D01*
X117206043Y-127070254D01*
X117360897Y-127302010D01*
X117557990Y-127499103D01*
X117789746Y-127653957D01*
X118047260Y-127760623D01*
X118320635Y-127815000D01*
X118599365Y-127815000D01*
X118872740Y-127760623D01*
X119130254Y-127653957D01*
X119362010Y-127499103D01*
X119559103Y-127302010D01*
X119713957Y-127070254D01*
X119730000Y-127031523D01*
X119746043Y-127070254D01*
X119900897Y-127302010D01*
X120097990Y-127499103D01*
X120329746Y-127653957D01*
X120587260Y-127760623D01*
X120860635Y-127815000D01*
X121139365Y-127815000D01*
X121412740Y-127760623D01*
X121670254Y-127653957D01*
X121902010Y-127499103D01*
X122099103Y-127302010D01*
X122253957Y-127070254D01*
X122270000Y-127031523D01*
X122286043Y-127070254D01*
X122440897Y-127302010D01*
X122637990Y-127499103D01*
X122869746Y-127653957D01*
X123127260Y-127760623D01*
X123400635Y-127815000D01*
X123679365Y-127815000D01*
X123952740Y-127760623D01*
X124210254Y-127653957D01*
X124442010Y-127499103D01*
X124639103Y-127302010D01*
X124793957Y-127070254D01*
X124810000Y-127031523D01*
X124826043Y-127070254D01*
X124980897Y-127302010D01*
X125177990Y-127499103D01*
X125409746Y-127653957D01*
X125667260Y-127760623D01*
X125940635Y-127815000D01*
X126219365Y-127815000D01*
X126492740Y-127760623D01*
X126750254Y-127653957D01*
X126982010Y-127499103D01*
X127102692Y-127378421D01*
X127821184Y-127378421D01*
X127890345Y-127620349D01*
X128142443Y-127739248D01*
X128412894Y-127806681D01*
X128691303Y-127820057D01*
X128966972Y-127778860D01*
X129229308Y-127684675D01*
X129349655Y-127620349D01*
X129418816Y-127378421D01*
X128620000Y-126579605D01*
X127821184Y-127378421D01*
X127102692Y-127378421D01*
X127179103Y-127302010D01*
X127333957Y-127070254D01*
X127348777Y-127034475D01*
X127399651Y-127129655D01*
X127641579Y-127198816D01*
X128440395Y-126400000D01*
X128799605Y-126400000D01*
X129598421Y-127198816D01*
X129840349Y-127129655D01*
X129959248Y-126877557D01*
X130026681Y-126607106D01*
X130040057Y-126328697D01*
X129998860Y-126053028D01*
X129904675Y-125790692D01*
X129840349Y-125670345D01*
X129598421Y-125601184D01*
X128799605Y-126400000D01*
X128440395Y-126400000D01*
X127641579Y-125601184D01*
X127399651Y-125670345D01*
X127351575Y-125772279D01*
X127333957Y-125729746D01*
X127179103Y-125497990D01*
X127102692Y-125421579D01*
X127821184Y-125421579D01*
X128620000Y-126220395D01*
X129418816Y-125421579D01*
X129349655Y-125179651D01*
X129097557Y-125060752D01*
X128827106Y-124993319D01*
X128548697Y-124979943D01*
X128273028Y-125021140D01*
X128010692Y-125115325D01*
X127890345Y-125179651D01*
X127821184Y-125421579D01*
X127102692Y-125421579D01*
X126982010Y-125300897D01*
X126750254Y-125146043D01*
X126492740Y-125039377D01*
X126219365Y-124985000D01*
X125940635Y-124985000D01*
X125667260Y-125039377D01*
X125409746Y-125146043D01*
X125177990Y-125300897D01*
X124980897Y-125497990D01*
X124826043Y-125729746D01*
X124810000Y-125768477D01*
X124793957Y-125729746D01*
X124639103Y-125497990D01*
X124442010Y-125300897D01*
X124210254Y-125146043D01*
X123952740Y-125039377D01*
X123679365Y-124985000D01*
X123400635Y-124985000D01*
X123127260Y-125039377D01*
X122869746Y-125146043D01*
X122637990Y-125300897D01*
X122440897Y-125497990D01*
X122286043Y-125729746D01*
X122270000Y-125768477D01*
X122253957Y-125729746D01*
X122099103Y-125497990D01*
X121902010Y-125300897D01*
X121670254Y-125146043D01*
X121412740Y-125039377D01*
X121139365Y-124985000D01*
X120860635Y-124985000D01*
X120587260Y-125039377D01*
X120329746Y-125146043D01*
X120097990Y-125300897D01*
X119900897Y-125497990D01*
X119746043Y-125729746D01*
X119730000Y-125768477D01*
X119713957Y-125729746D01*
X119559103Y-125497990D01*
X119362010Y-125300897D01*
X119130254Y-125146043D01*
X118872740Y-125039377D01*
X118599365Y-124985000D01*
X118320635Y-124985000D01*
X118047260Y-125039377D01*
X117789746Y-125146043D01*
X117557990Y-125300897D01*
X117360897Y-125497990D01*
X117206043Y-125729746D01*
X117190000Y-125768477D01*
X117173957Y-125729746D01*
X117019103Y-125497990D01*
X116822010Y-125300897D01*
X116590254Y-125146043D01*
X116332740Y-125039377D01*
X116059365Y-124985000D01*
X115780635Y-124985000D01*
X115507260Y-125039377D01*
X115249746Y-125146043D01*
X115017990Y-125300897D01*
X114820897Y-125497990D01*
X114666043Y-125729746D01*
X114651223Y-125765525D01*
X114600349Y-125670345D01*
X114358421Y-125601184D01*
X113559605Y-126400000D01*
X113200395Y-126400000D01*
X112401579Y-125601184D01*
X112159651Y-125670345D01*
X112111575Y-125772279D01*
X112093957Y-125729746D01*
X111939103Y-125497990D01*
X111862692Y-125421579D01*
X112581184Y-125421579D01*
X113380000Y-126220395D01*
X114178816Y-125421579D01*
X114109655Y-125179651D01*
X113857557Y-125060752D01*
X113587106Y-124993319D01*
X113308697Y-124979943D01*
X113033028Y-125021140D01*
X112770692Y-125115325D01*
X112650345Y-125179651D01*
X112581184Y-125421579D01*
X111862692Y-125421579D01*
X111742010Y-125300897D01*
X111510254Y-125146043D01*
X111252740Y-125039377D01*
X110979365Y-124985000D01*
X110700635Y-124985000D01*
X110427260Y-125039377D01*
X110169746Y-125146043D01*
X109937990Y-125300897D01*
X109740897Y-125497990D01*
X109586043Y-125729746D01*
X109570000Y-125768477D01*
X109553957Y-125729746D01*
X109399103Y-125497990D01*
X109202010Y-125300897D01*
X108970254Y-125146043D01*
X108712740Y-125039377D01*
X108439365Y-124985000D01*
X108160635Y-124985000D01*
X107887260Y-125039377D01*
X107629746Y-125146043D01*
X107397990Y-125300897D01*
X107200897Y-125497990D01*
X107046043Y-125729746D01*
X107030000Y-125768477D01*
X107013957Y-125729746D01*
X106859103Y-125497990D01*
X106662010Y-125300897D01*
X106430254Y-125146043D01*
X106172740Y-125039377D01*
X105899365Y-124985000D01*
X105620635Y-124985000D01*
X105347260Y-125039377D01*
X105089746Y-125146043D01*
X104857990Y-125300897D01*
X104660897Y-125497990D01*
X104506043Y-125729746D01*
X104490000Y-125768477D01*
X104473957Y-125729746D01*
X104319103Y-125497990D01*
X104122010Y-125300897D01*
X103890254Y-125146043D01*
X103632740Y-125039377D01*
X103359365Y-124985000D01*
X103080635Y-124985000D01*
X102807260Y-125039377D01*
X102549746Y-125146043D01*
X102317990Y-125300897D01*
X102120897Y-125497990D01*
X101966043Y-125729746D01*
X101950000Y-125768477D01*
X101933957Y-125729746D01*
X101779103Y-125497990D01*
X101582010Y-125300897D01*
X101350254Y-125146043D01*
X101092740Y-125039377D01*
X100819365Y-124985000D01*
X100540635Y-124985000D01*
X100267260Y-125039377D01*
X100009746Y-125146043D01*
X99777990Y-125300897D01*
X99580897Y-125497990D01*
X99426043Y-125729746D01*
X99410000Y-125768477D01*
X99393957Y-125729746D01*
X99239103Y-125497990D01*
X99042010Y-125300897D01*
X98810254Y-125146043D01*
X98552740Y-125039377D01*
X98279365Y-124985000D01*
X98000635Y-124985000D01*
X97727260Y-125039377D01*
X97469746Y-125146043D01*
X97237990Y-125300897D01*
X97040897Y-125497990D01*
X96886043Y-125729746D01*
X96870000Y-125768477D01*
X96853957Y-125729746D01*
X96699103Y-125497990D01*
X96502010Y-125300897D01*
X96270254Y-125146043D01*
X96012740Y-125039377D01*
X95739365Y-124985000D01*
X95460635Y-124985000D01*
X95187260Y-125039377D01*
X94929746Y-125146043D01*
X94697990Y-125300897D01*
X94500897Y-125497990D01*
X94346043Y-125729746D01*
X94330000Y-125768477D01*
X94313957Y-125729746D01*
X94159103Y-125497990D01*
X93962010Y-125300897D01*
X93730254Y-125146043D01*
X93472740Y-125039377D01*
X93199365Y-124985000D01*
X92920635Y-124985000D01*
X92647260Y-125039377D01*
X92389746Y-125146043D01*
X92157990Y-125300897D01*
X91960897Y-125497990D01*
X91806043Y-125729746D01*
X91790000Y-125768477D01*
X91773957Y-125729746D01*
X91619103Y-125497990D01*
X91422010Y-125300897D01*
X91190254Y-125146043D01*
X90932740Y-125039377D01*
X90659365Y-124985000D01*
X90380635Y-124985000D01*
X90107260Y-125039377D01*
X89849746Y-125146043D01*
X89617990Y-125300897D01*
X89420897Y-125497990D01*
X89266043Y-125729746D01*
X89250000Y-125768477D01*
X89233957Y-125729746D01*
X89079103Y-125497990D01*
X88882010Y-125300897D01*
X88650254Y-125146043D01*
X88392740Y-125039377D01*
X88119365Y-124985000D01*
X87840635Y-124985000D01*
X87567260Y-125039377D01*
X87309746Y-125146043D01*
X87077990Y-125300897D01*
X86880897Y-125497990D01*
X86726043Y-125729746D01*
X86710000Y-125768477D01*
X86693957Y-125729746D01*
X86539103Y-125497990D01*
X86342010Y-125300897D01*
X86110254Y-125146043D01*
X85852740Y-125039377D01*
X85579365Y-124985000D01*
X85300635Y-124985000D01*
X85027260Y-125039377D01*
X84769746Y-125146043D01*
X84537990Y-125300897D01*
X84340897Y-125497990D01*
X84186043Y-125729746D01*
X84170000Y-125768477D01*
X84153957Y-125729746D01*
X83999103Y-125497990D01*
X83802010Y-125300897D01*
X83570254Y-125146043D01*
X83312740Y-125039377D01*
X83039365Y-124985000D01*
X82760635Y-124985000D01*
X82487260Y-125039377D01*
X82229746Y-125146043D01*
X81997990Y-125300897D01*
X81800897Y-125497990D01*
X81646043Y-125729746D01*
X81539377Y-125987260D01*
X81485000Y-126260635D01*
X68785000Y-126260635D01*
X68785000Y-93253740D01*
X74575000Y-93253740D01*
X74575000Y-93546260D01*
X74632068Y-93833158D01*
X74744010Y-94103411D01*
X74906525Y-94346632D01*
X75113368Y-94553475D01*
X75287760Y-94670000D01*
X75113368Y-94786525D01*
X74906525Y-94993368D01*
X74744010Y-95236589D01*
X74632068Y-95506842D01*
X74575000Y-95793740D01*
X74575000Y-96086260D01*
X74632068Y-96373158D01*
X74744010Y-96643411D01*
X74906525Y-96886632D01*
X75113368Y-97093475D01*
X75287760Y-97210000D01*
X75113368Y-97326525D01*
X74906525Y-97533368D01*
X74744010Y-97776589D01*
X74632068Y-98046842D01*
X74575000Y-98333740D01*
X74575000Y-98626260D01*
X74632068Y-98913158D01*
X74744010Y-99183411D01*
X74906525Y-99426632D01*
X75113368Y-99633475D01*
X75287760Y-99750000D01*
X75113368Y-99866525D01*
X74906525Y-100073368D01*
X74744010Y-100316589D01*
X74632068Y-100586842D01*
X74575000Y-100873740D01*
X74575000Y-101166260D01*
X74632068Y-101453158D01*
X74744010Y-101723411D01*
X74906525Y-101966632D01*
X75113368Y-102173475D01*
X75287760Y-102290000D01*
X75113368Y-102406525D01*
X74906525Y-102613368D01*
X74744010Y-102856589D01*
X74632068Y-103126842D01*
X74575000Y-103413740D01*
X74575000Y-103706260D01*
X74632068Y-103993158D01*
X74744010Y-104263411D01*
X74906525Y-104506632D01*
X75113368Y-104713475D01*
X75287760Y-104830000D01*
X75113368Y-104946525D01*
X74906525Y-105153368D01*
X74744010Y-105396589D01*
X74632068Y-105666842D01*
X74575000Y-105953740D01*
X74575000Y-106246260D01*
X74632068Y-106533158D01*
X74744010Y-106803411D01*
X74906525Y-107046632D01*
X75113368Y-107253475D01*
X75287760Y-107370000D01*
X75113368Y-107486525D01*
X74906525Y-107693368D01*
X74744010Y-107936589D01*
X74632068Y-108206842D01*
X74575000Y-108493740D01*
X74575000Y-108786260D01*
X74632068Y-109073158D01*
X74744010Y-109343411D01*
X74906525Y-109586632D01*
X75113368Y-109793475D01*
X75287760Y-109910000D01*
X75113368Y-110026525D01*
X74906525Y-110233368D01*
X74744010Y-110476589D01*
X74632068Y-110746842D01*
X74575000Y-111033740D01*
X74575000Y-111326260D01*
X74632068Y-111613158D01*
X74744010Y-111883411D01*
X74906525Y-112126632D01*
X75113368Y-112333475D01*
X75356589Y-112495990D01*
X75626842Y-112607932D01*
X75913740Y-112665000D01*
X76206260Y-112665000D01*
X76493158Y-112607932D01*
X76763411Y-112495990D01*
X77006632Y-112333475D01*
X77213475Y-112126632D01*
X77331100Y-111950594D01*
X77502412Y-112180269D01*
X77718645Y-112375178D01*
X77968748Y-112524157D01*
X78243109Y-112621481D01*
X78473000Y-112500814D01*
X78473000Y-111307000D01*
X78727000Y-111307000D01*
X78727000Y-112500814D01*
X78956891Y-112621481D01*
X79231252Y-112524157D01*
X79481355Y-112375178D01*
X79697588Y-112180269D01*
X79871641Y-111946920D01*
X79996825Y-111684099D01*
X80041476Y-111536890D01*
X79920155Y-111307000D01*
X78727000Y-111307000D01*
X78473000Y-111307000D01*
X78453000Y-111307000D01*
X78453000Y-111053000D01*
X78473000Y-111053000D01*
X78473000Y-111033000D01*
X78727000Y-111033000D01*
X78727000Y-111053000D01*
X79920155Y-111053000D01*
X80041476Y-110823110D01*
X79996825Y-110675901D01*
X79871641Y-110413080D01*
X79697588Y-110179731D01*
X79481355Y-109984822D01*
X79364466Y-109915195D01*
X79546632Y-109793475D01*
X79753475Y-109586632D01*
X79915990Y-109343411D01*
X80027932Y-109073158D01*
X80085000Y-108786260D01*
X80085000Y-108493740D01*
X80027932Y-108206842D01*
X79915990Y-107936589D01*
X79753475Y-107693368D01*
X79546632Y-107486525D01*
X79372240Y-107370000D01*
X79546632Y-107253475D01*
X79753475Y-107046632D01*
X79915990Y-106803411D01*
X80027932Y-106533158D01*
X80085000Y-106246260D01*
X80085000Y-105953740D01*
X80027932Y-105666842D01*
X79915990Y-105396589D01*
X79753475Y-105153368D01*
X79546632Y-104946525D01*
X79372240Y-104830000D01*
X79546632Y-104713475D01*
X79753475Y-104506632D01*
X79915990Y-104263411D01*
X80027932Y-103993158D01*
X80085000Y-103706260D01*
X80085000Y-103413740D01*
X80027932Y-103126842D01*
X80000245Y-103060000D01*
X99342678Y-103060000D01*
X99380000Y-103063676D01*
X99417322Y-103060000D01*
X99417333Y-103060000D01*
X99528986Y-103049003D01*
X99672247Y-103005546D01*
X99804276Y-102934974D01*
X99920001Y-102840001D01*
X99943804Y-102810997D01*
X100373121Y-102381680D01*
X100540635Y-102415000D01*
X100819365Y-102415000D01*
X101092740Y-102360623D01*
X101350254Y-102253957D01*
X101582010Y-102099103D01*
X101779103Y-101902010D01*
X101933957Y-101670254D01*
X101950000Y-101631523D01*
X101966043Y-101670254D01*
X102120897Y-101902010D01*
X102317990Y-102099103D01*
X102549746Y-102253957D01*
X102807260Y-102360623D01*
X103080635Y-102415000D01*
X103359365Y-102415000D01*
X103632740Y-102360623D01*
X103890254Y-102253957D01*
X104122010Y-102099103D01*
X104319103Y-101902010D01*
X104473957Y-101670254D01*
X104490000Y-101631523D01*
X104506043Y-101670254D01*
X104660897Y-101902010D01*
X104857990Y-102099103D01*
X105089746Y-102253957D01*
X105347260Y-102360623D01*
X105620635Y-102415000D01*
X105899365Y-102415000D01*
X106172740Y-102360623D01*
X106430254Y-102253957D01*
X106662010Y-102099103D01*
X106859103Y-101902010D01*
X107013957Y-101670254D01*
X107030000Y-101631523D01*
X107046043Y-101670254D01*
X107200897Y-101902010D01*
X107397990Y-102099103D01*
X107629746Y-102253957D01*
X107887260Y-102360623D01*
X108160635Y-102415000D01*
X108439365Y-102415000D01*
X108712740Y-102360623D01*
X108970254Y-102253957D01*
X109202010Y-102099103D01*
X109399103Y-101902010D01*
X109553957Y-101670254D01*
X109570000Y-101631523D01*
X109586043Y-101670254D01*
X109740897Y-101902010D01*
X109937990Y-102099103D01*
X110169746Y-102253957D01*
X110427260Y-102360623D01*
X110700635Y-102415000D01*
X110979365Y-102415000D01*
X111252740Y-102360623D01*
X111510254Y-102253957D01*
X111742010Y-102099103D01*
X111939103Y-101902010D01*
X112093957Y-101670254D01*
X112110000Y-101631523D01*
X112126043Y-101670254D01*
X112280897Y-101902010D01*
X112477990Y-102099103D01*
X112709746Y-102253957D01*
X112967260Y-102360623D01*
X113240635Y-102415000D01*
X113519365Y-102415000D01*
X113792740Y-102360623D01*
X114050254Y-102253957D01*
X114282010Y-102099103D01*
X114479103Y-101902010D01*
X114633957Y-101670254D01*
X114650000Y-101631523D01*
X114666043Y-101670254D01*
X114820897Y-101902010D01*
X115017990Y-102099103D01*
X115249746Y-102253957D01*
X115507260Y-102360623D01*
X115780635Y-102415000D01*
X116059365Y-102415000D01*
X116332740Y-102360623D01*
X116590254Y-102253957D01*
X116822010Y-102099103D01*
X117019103Y-101902010D01*
X117173957Y-101670254D01*
X117190000Y-101631523D01*
X117206043Y-101670254D01*
X117360897Y-101902010D01*
X117557990Y-102099103D01*
X117789746Y-102253957D01*
X118047260Y-102360623D01*
X118320635Y-102415000D01*
X118599365Y-102415000D01*
X118872740Y-102360623D01*
X119130254Y-102253957D01*
X119362010Y-102099103D01*
X119559103Y-101902010D01*
X119713957Y-101670254D01*
X119730000Y-101631523D01*
X119746043Y-101670254D01*
X119900897Y-101902010D01*
X120097990Y-102099103D01*
X120329746Y-102253957D01*
X120587260Y-102360623D01*
X120860635Y-102415000D01*
X121139365Y-102415000D01*
X121412740Y-102360623D01*
X121670254Y-102253957D01*
X121902010Y-102099103D01*
X122099103Y-101902010D01*
X122253957Y-101670254D01*
X122270000Y-101631523D01*
X122286043Y-101670254D01*
X122440897Y-101902010D01*
X122637990Y-102099103D01*
X122869746Y-102253957D01*
X123127260Y-102360623D01*
X123400635Y-102415000D01*
X123679365Y-102415000D01*
X123952740Y-102360623D01*
X124210254Y-102253957D01*
X124442010Y-102099103D01*
X124639103Y-101902010D01*
X124793957Y-101670254D01*
X124810000Y-101631523D01*
X124826043Y-101670254D01*
X124980897Y-101902010D01*
X125177990Y-102099103D01*
X125409746Y-102253957D01*
X125667260Y-102360623D01*
X125940635Y-102415000D01*
X126219365Y-102415000D01*
X126492740Y-102360623D01*
X126750254Y-102253957D01*
X126982010Y-102099103D01*
X127179103Y-101902010D01*
X127209469Y-101856564D01*
X127214188Y-101904482D01*
X127250498Y-102024180D01*
X127309463Y-102134494D01*
X127388815Y-102231185D01*
X127485506Y-102310537D01*
X127595820Y-102369502D01*
X127715518Y-102405812D01*
X127840000Y-102418072D01*
X129400000Y-102418072D01*
X129524482Y-102405812D01*
X129644180Y-102369502D01*
X129754494Y-102310537D01*
X129851185Y-102231185D01*
X129930537Y-102134494D01*
X129989502Y-102024180D01*
X130025812Y-101904482D01*
X130038072Y-101780000D01*
X130038072Y-100220000D01*
X130025812Y-100095518D01*
X129989502Y-99975820D01*
X129930537Y-99865506D01*
X129851185Y-99768815D01*
X129754494Y-99689463D01*
X129644180Y-99630498D01*
X129524482Y-99594188D01*
X129400000Y-99581928D01*
X127840000Y-99581928D01*
X127715518Y-99594188D01*
X127595820Y-99630498D01*
X127485506Y-99689463D01*
X127388815Y-99768815D01*
X127309463Y-99865506D01*
X127250498Y-99975820D01*
X127214188Y-100095518D01*
X127209469Y-100143436D01*
X127179103Y-100097990D01*
X126982010Y-99900897D01*
X126750254Y-99746043D01*
X126492740Y-99639377D01*
X126219365Y-99585000D01*
X125940635Y-99585000D01*
X125667260Y-99639377D01*
X125409746Y-99746043D01*
X125177990Y-99900897D01*
X124980897Y-100097990D01*
X124826043Y-100329746D01*
X124810000Y-100368477D01*
X124793957Y-100329746D01*
X124639103Y-100097990D01*
X124442010Y-99900897D01*
X124210254Y-99746043D01*
X123952740Y-99639377D01*
X123679365Y-99585000D01*
X123400635Y-99585000D01*
X123127260Y-99639377D01*
X122869746Y-99746043D01*
X122637990Y-99900897D01*
X122440897Y-100097990D01*
X122286043Y-100329746D01*
X122270000Y-100368477D01*
X122253957Y-100329746D01*
X122099103Y-100097990D01*
X121902010Y-99900897D01*
X121670254Y-99746043D01*
X121412740Y-99639377D01*
X121139365Y-99585000D01*
X120949801Y-99585000D01*
X127449781Y-93085021D01*
X131337657Y-93085021D01*
X131374979Y-93088697D01*
X131412301Y-93085021D01*
X131412312Y-93085021D01*
X131523965Y-93074024D01*
X131667226Y-93030567D01*
X131799255Y-92959995D01*
X131914980Y-92865022D01*
X131938783Y-92836018D01*
X133039802Y-91735000D01*
X133101939Y-91735000D01*
X133301898Y-91695226D01*
X133490256Y-91617205D01*
X133659774Y-91503937D01*
X133803937Y-91359774D01*
X133917205Y-91190256D01*
X133995226Y-91001898D01*
X134035000Y-90801939D01*
X134035000Y-90598061D01*
X133995226Y-90398102D01*
X133953069Y-90296327D01*
X134134637Y-90114759D01*
X134291680Y-89879727D01*
X134324703Y-89800000D01*
X138911686Y-89800000D01*
X138915001Y-89833657D01*
X138915000Y-109766353D01*
X138911686Y-109800000D01*
X138924912Y-109934283D01*
X138964081Y-110063406D01*
X139027688Y-110182407D01*
X139113289Y-110286711D01*
X139191409Y-110350823D01*
X139217593Y-110372312D01*
X139336594Y-110435919D01*
X139465717Y-110475088D01*
X139600000Y-110488314D01*
X139633647Y-110485000D01*
X175566353Y-110485000D01*
X175600000Y-110488314D01*
X175734283Y-110475088D01*
X175863406Y-110435919D01*
X175982407Y-110372312D01*
X176086711Y-110286711D01*
X176172312Y-110182407D01*
X176235919Y-110063406D01*
X176275088Y-109934283D01*
X176285000Y-109833647D01*
X176285000Y-109833646D01*
X176288314Y-109800000D01*
X176285000Y-109766353D01*
X176285000Y-108075000D01*
X185136928Y-108075000D01*
X185136928Y-109725000D01*
X185149188Y-109849482D01*
X185185498Y-109969180D01*
X185244463Y-110079494D01*
X185323815Y-110176185D01*
X185420506Y-110255537D01*
X185530820Y-110314502D01*
X185650518Y-110350812D01*
X185775000Y-110363072D01*
X187425000Y-110363072D01*
X187549482Y-110350812D01*
X187669180Y-110314502D01*
X187779494Y-110255537D01*
X187876185Y-110176185D01*
X187955537Y-110079494D01*
X188014502Y-109969180D01*
X188032286Y-109910551D01*
X188309054Y-109910551D01*
X188383663Y-110157073D01*
X188643439Y-110280473D01*
X188922297Y-110350823D01*
X189209521Y-110365417D01*
X189494074Y-110323697D01*
X189765020Y-110227265D01*
X189896337Y-110157073D01*
X189970946Y-109910551D01*
X189140000Y-109079605D01*
X188309054Y-109910551D01*
X188032286Y-109910551D01*
X188050812Y-109849482D01*
X188063072Y-109725000D01*
X188063072Y-109710857D01*
X188129449Y-109730946D01*
X188960395Y-108900000D01*
X189319605Y-108900000D01*
X190150551Y-109730946D01*
X190397073Y-109656337D01*
X190410523Y-109628023D01*
X190545944Y-109830696D01*
X190749304Y-110034056D01*
X190988431Y-110193835D01*
X191254134Y-110303893D01*
X191536203Y-110360000D01*
X191823797Y-110360000D01*
X192105866Y-110303893D01*
X192371569Y-110193835D01*
X192610696Y-110034056D01*
X192814056Y-109830696D01*
X192950000Y-109627241D01*
X193085944Y-109830696D01*
X193289304Y-110034056D01*
X193528431Y-110193835D01*
X193794134Y-110303893D01*
X194076203Y-110360000D01*
X194363797Y-110360000D01*
X194645866Y-110303893D01*
X194911569Y-110193835D01*
X195150696Y-110034056D01*
X195354056Y-109830696D01*
X195490000Y-109627241D01*
X195625944Y-109830696D01*
X195829304Y-110034056D01*
X196068431Y-110193835D01*
X196334134Y-110303893D01*
X196616203Y-110360000D01*
X196903797Y-110360000D01*
X197185866Y-110303893D01*
X197451569Y-110193835D01*
X197690696Y-110034056D01*
X197894056Y-109830696D01*
X198030000Y-109627241D01*
X198165944Y-109830696D01*
X198369304Y-110034056D01*
X198608431Y-110193835D01*
X198874134Y-110303893D01*
X199156203Y-110360000D01*
X199443797Y-110360000D01*
X199725866Y-110303893D01*
X199991569Y-110193835D01*
X200230696Y-110034056D01*
X200354201Y-109910551D01*
X201009054Y-109910551D01*
X201083663Y-110157073D01*
X201343439Y-110280473D01*
X201622297Y-110350823D01*
X201909521Y-110365417D01*
X202194074Y-110323697D01*
X202465020Y-110227265D01*
X202596337Y-110157073D01*
X202670946Y-109910551D01*
X201840000Y-109079605D01*
X201009054Y-109910551D01*
X200354201Y-109910551D01*
X200434056Y-109830696D01*
X200568541Y-109629424D01*
X200582927Y-109656337D01*
X200829449Y-109730946D01*
X201660395Y-108900000D01*
X202019605Y-108900000D01*
X202850551Y-109730946D01*
X203097073Y-109656337D01*
X203220473Y-109396561D01*
X203290823Y-109117703D01*
X203305417Y-108830479D01*
X203263697Y-108545926D01*
X203167265Y-108274980D01*
X203097073Y-108143663D01*
X202850551Y-108069054D01*
X202019605Y-108900000D01*
X201660395Y-108900000D01*
X200829449Y-108069054D01*
X200582927Y-108143663D01*
X200569477Y-108171977D01*
X200434056Y-107969304D01*
X200354201Y-107889449D01*
X201009054Y-107889449D01*
X201840000Y-108720395D01*
X202670946Y-107889449D01*
X202596337Y-107642927D01*
X202336561Y-107519527D01*
X202057703Y-107449177D01*
X201770479Y-107434583D01*
X201485926Y-107476303D01*
X201214980Y-107572735D01*
X201083663Y-107642927D01*
X201009054Y-107889449D01*
X200354201Y-107889449D01*
X200230696Y-107765944D01*
X199991569Y-107606165D01*
X199725866Y-107496107D01*
X199443797Y-107440000D01*
X199156203Y-107440000D01*
X198874134Y-107496107D01*
X198608431Y-107606165D01*
X198369304Y-107765944D01*
X198165944Y-107969304D01*
X198030000Y-108172759D01*
X197894056Y-107969304D01*
X197690696Y-107765944D01*
X197451569Y-107606165D01*
X197185866Y-107496107D01*
X196903797Y-107440000D01*
X196616203Y-107440000D01*
X196334134Y-107496107D01*
X196068431Y-107606165D01*
X195829304Y-107765944D01*
X195625944Y-107969304D01*
X195490000Y-108172759D01*
X195354056Y-107969304D01*
X195150696Y-107765944D01*
X194911569Y-107606165D01*
X194645866Y-107496107D01*
X194363797Y-107440000D01*
X194076203Y-107440000D01*
X193794134Y-107496107D01*
X193528431Y-107606165D01*
X193289304Y-107765944D01*
X193085944Y-107969304D01*
X192950000Y-108172759D01*
X192814056Y-107969304D01*
X192610696Y-107765944D01*
X192371569Y-107606165D01*
X192105866Y-107496107D01*
X191823797Y-107440000D01*
X191536203Y-107440000D01*
X191254134Y-107496107D01*
X190988431Y-107606165D01*
X190749304Y-107765944D01*
X190545944Y-107969304D01*
X190411459Y-108170576D01*
X190397073Y-108143663D01*
X190150551Y-108069054D01*
X189319605Y-108900000D01*
X188960395Y-108900000D01*
X188129449Y-108069054D01*
X188063072Y-108089143D01*
X188063072Y-108075000D01*
X188050812Y-107950518D01*
X188032287Y-107889449D01*
X188309054Y-107889449D01*
X189140000Y-108720395D01*
X189970946Y-107889449D01*
X189896337Y-107642927D01*
X189636561Y-107519527D01*
X189357703Y-107449177D01*
X189070479Y-107434583D01*
X188785926Y-107476303D01*
X188514980Y-107572735D01*
X188383663Y-107642927D01*
X188309054Y-107889449D01*
X188032287Y-107889449D01*
X188014502Y-107830820D01*
X187955537Y-107720506D01*
X187876185Y-107623815D01*
X187779494Y-107544463D01*
X187669180Y-107485498D01*
X187549482Y-107449188D01*
X187425000Y-107436928D01*
X185775000Y-107436928D01*
X185650518Y-107449188D01*
X185530820Y-107485498D01*
X185420506Y-107544463D01*
X185323815Y-107623815D01*
X185244463Y-107720506D01*
X185185498Y-107830820D01*
X185149188Y-107950518D01*
X185136928Y-108075000D01*
X176285000Y-108075000D01*
X176285000Y-96516890D01*
X185858524Y-96516890D01*
X185903175Y-96664099D01*
X186028359Y-96926920D01*
X186202412Y-97160269D01*
X186418645Y-97355178D01*
X186668748Y-97504157D01*
X186943109Y-97601481D01*
X187173000Y-97480814D01*
X187173000Y-96287000D01*
X187427000Y-96287000D01*
X187427000Y-97480814D01*
X187656891Y-97601481D01*
X187931252Y-97504157D01*
X188181355Y-97355178D01*
X188397588Y-97160269D01*
X188571641Y-96926920D01*
X188696825Y-96664099D01*
X188741476Y-96516890D01*
X188620155Y-96287000D01*
X187427000Y-96287000D01*
X187173000Y-96287000D01*
X185979845Y-96287000D01*
X185858524Y-96516890D01*
X176285000Y-96516890D01*
X176285000Y-89833647D01*
X176288314Y-89800000D01*
X176275088Y-89665717D01*
X176235919Y-89536594D01*
X176172312Y-89417593D01*
X176086711Y-89313289D01*
X175982407Y-89227688D01*
X175863406Y-89164081D01*
X175734283Y-89124912D01*
X175633647Y-89115000D01*
X175600000Y-89111686D01*
X175566353Y-89115000D01*
X139633647Y-89115000D01*
X139600000Y-89111686D01*
X139566353Y-89115000D01*
X139465717Y-89124912D01*
X139336594Y-89164081D01*
X139217593Y-89227688D01*
X139113289Y-89313289D01*
X139027688Y-89417593D01*
X138964081Y-89536594D01*
X138924912Y-89665717D01*
X138911686Y-89800000D01*
X134324703Y-89800000D01*
X134399853Y-89618574D01*
X134455000Y-89341335D01*
X134455000Y-89058665D01*
X134399853Y-88781426D01*
X134291680Y-88520273D01*
X134134637Y-88285241D01*
X133934759Y-88085363D01*
X133699727Y-87928320D01*
X133438574Y-87820147D01*
X133161335Y-87765000D01*
X132878665Y-87765000D01*
X132601426Y-87820147D01*
X132340273Y-87928320D01*
X132105241Y-88085363D01*
X131905363Y-88285241D01*
X131750000Y-88517759D01*
X131594637Y-88285241D01*
X131394759Y-88085363D01*
X131159727Y-87928320D01*
X130898574Y-87820147D01*
X130621335Y-87765000D01*
X130338665Y-87765000D01*
X130061426Y-87820147D01*
X129800273Y-87928320D01*
X129565241Y-88085363D01*
X129365363Y-88285241D01*
X129210000Y-88517759D01*
X129054637Y-88285241D01*
X128854759Y-88085363D01*
X128619727Y-87928320D01*
X128358574Y-87820147D01*
X128081335Y-87765000D01*
X127798665Y-87765000D01*
X127521426Y-87820147D01*
X127260273Y-87928320D01*
X127025241Y-88085363D01*
X126826643Y-88283961D01*
X126825812Y-88275518D01*
X126789502Y-88155820D01*
X126730537Y-88045506D01*
X126651185Y-87948815D01*
X126554494Y-87869463D01*
X126444180Y-87810498D01*
X126324482Y-87774188D01*
X126200000Y-87761928D01*
X124600000Y-87761928D01*
X124475518Y-87774188D01*
X124355820Y-87810498D01*
X124245506Y-87869463D01*
X124148815Y-87948815D01*
X124069463Y-88045506D01*
X124010498Y-88155820D01*
X123974188Y-88275518D01*
X123961928Y-88400000D01*
X123961928Y-89940000D01*
X121177325Y-89940000D01*
X121140000Y-89936324D01*
X121102675Y-89940000D01*
X121102667Y-89940000D01*
X120991014Y-89950997D01*
X120847753Y-89994454D01*
X120715724Y-90065026D01*
X120599999Y-90159999D01*
X120576201Y-90188997D01*
X111146879Y-99618320D01*
X110979365Y-99585000D01*
X110700635Y-99585000D01*
X110427260Y-99639377D01*
X110169746Y-99746043D01*
X109937990Y-99900897D01*
X109740897Y-100097990D01*
X109586043Y-100329746D01*
X109570000Y-100368477D01*
X109553957Y-100329746D01*
X109399103Y-100097990D01*
X109202010Y-99900897D01*
X109060000Y-99806009D01*
X109060000Y-97814801D01*
X115839802Y-91035000D01*
X115901939Y-91035000D01*
X116101898Y-90995226D01*
X116290256Y-90917205D01*
X116459774Y-90803937D01*
X116603937Y-90659774D01*
X116717205Y-90490256D01*
X116795226Y-90301898D01*
X116835000Y-90101939D01*
X116835000Y-89898061D01*
X116795226Y-89698102D01*
X116717205Y-89509744D01*
X116699469Y-89483200D01*
X116774482Y-89475812D01*
X116894180Y-89439502D01*
X117004494Y-89380537D01*
X117101185Y-89301185D01*
X117180537Y-89204494D01*
X117239502Y-89094180D01*
X117275812Y-88974482D01*
X117288072Y-88850000D01*
X117288072Y-87150000D01*
X117275812Y-87025518D01*
X117239502Y-86905820D01*
X117180537Y-86795506D01*
X117101185Y-86698815D01*
X117004494Y-86619463D01*
X116894180Y-86560498D01*
X116774482Y-86524188D01*
X116650000Y-86511928D01*
X114950000Y-86511928D01*
X114825518Y-86524188D01*
X114705820Y-86560498D01*
X114595506Y-86619463D01*
X114498815Y-86698815D01*
X114419463Y-86795506D01*
X114360498Y-86905820D01*
X114324188Y-87025518D01*
X114311928Y-87150000D01*
X114311928Y-88850000D01*
X114324188Y-88974482D01*
X114360498Y-89094180D01*
X114419463Y-89204494D01*
X114498815Y-89301185D01*
X114595506Y-89380537D01*
X114705820Y-89439502D01*
X114825518Y-89475812D01*
X114900531Y-89483200D01*
X114882795Y-89509744D01*
X114804774Y-89698102D01*
X114765000Y-89898061D01*
X114765000Y-89960198D01*
X107788998Y-96936201D01*
X107760000Y-96959999D01*
X107736202Y-96988997D01*
X107736201Y-96988998D01*
X107665026Y-97075724D01*
X107594454Y-97207754D01*
X107550998Y-97351015D01*
X107536324Y-97500000D01*
X107540001Y-97537332D01*
X107540000Y-99806009D01*
X107397990Y-99900897D01*
X107200897Y-100097990D01*
X107046043Y-100329746D01*
X107030000Y-100368477D01*
X107013957Y-100329746D01*
X106859103Y-100097990D01*
X106662010Y-99900897D01*
X106520000Y-99806009D01*
X106520000Y-91054801D01*
X106539801Y-91035000D01*
X106601939Y-91035000D01*
X106801898Y-90995226D01*
X106990256Y-90917205D01*
X107159774Y-90803937D01*
X107303937Y-90659774D01*
X107417205Y-90490256D01*
X107495226Y-90301898D01*
X107535000Y-90101939D01*
X107535000Y-89898061D01*
X107495226Y-89698102D01*
X107417205Y-89509744D01*
X107399469Y-89483200D01*
X107474482Y-89475812D01*
X107594180Y-89439502D01*
X107704494Y-89380537D01*
X107801185Y-89301185D01*
X107880537Y-89204494D01*
X107939502Y-89094180D01*
X107975812Y-88974482D01*
X107988072Y-88850000D01*
X107988072Y-87150000D01*
X107975812Y-87025518D01*
X107939502Y-86905820D01*
X107880537Y-86795506D01*
X107801185Y-86698815D01*
X107704494Y-86619463D01*
X107594180Y-86560498D01*
X107474482Y-86524188D01*
X107350000Y-86511928D01*
X105650000Y-86511928D01*
X105525518Y-86524188D01*
X105405820Y-86560498D01*
X105295506Y-86619463D01*
X105198815Y-86698815D01*
X105119463Y-86795506D01*
X105060498Y-86905820D01*
X105024188Y-87025518D01*
X105011928Y-87150000D01*
X105011928Y-88850000D01*
X105024188Y-88974482D01*
X105060498Y-89094180D01*
X105119463Y-89204494D01*
X105198815Y-89301185D01*
X105295506Y-89380537D01*
X105405820Y-89439502D01*
X105525518Y-89475812D01*
X105600531Y-89483200D01*
X105582795Y-89509744D01*
X105504774Y-89698102D01*
X105465000Y-89898061D01*
X105465000Y-89960199D01*
X105248998Y-90176201D01*
X105220000Y-90199999D01*
X105196202Y-90228997D01*
X105196201Y-90228998D01*
X105125026Y-90315724D01*
X105054454Y-90447754D01*
X105010998Y-90591015D01*
X104996324Y-90740000D01*
X105000001Y-90777332D01*
X105000000Y-99806009D01*
X104857990Y-99900897D01*
X104660897Y-100097990D01*
X104506043Y-100329746D01*
X104490000Y-100368477D01*
X104473957Y-100329746D01*
X104319103Y-100097990D01*
X104122010Y-99900897D01*
X103980000Y-99806009D01*
X103980000Y-94057323D01*
X103983676Y-94020000D01*
X103980000Y-93982677D01*
X103980000Y-93982667D01*
X103969003Y-93871014D01*
X103925546Y-93727753D01*
X103854975Y-93595725D01*
X103854974Y-93595723D01*
X103783799Y-93508997D01*
X103760001Y-93479999D01*
X103731004Y-93456202D01*
X99663804Y-89389003D01*
X99640001Y-89359999D01*
X99524276Y-89265026D01*
X99392247Y-89194454D01*
X99248986Y-89150997D01*
X99137333Y-89140000D01*
X99137322Y-89140000D01*
X99100000Y-89136324D01*
X99062678Y-89140000D01*
X98315010Y-89140000D01*
X98339502Y-89094180D01*
X98375812Y-88974482D01*
X98388072Y-88850000D01*
X98388072Y-87150000D01*
X98375812Y-87025518D01*
X98339502Y-86905820D01*
X98280537Y-86795506D01*
X98201185Y-86698815D01*
X98104494Y-86619463D01*
X97994180Y-86560498D01*
X97874482Y-86524188D01*
X97750000Y-86511928D01*
X96050000Y-86511928D01*
X95925518Y-86524188D01*
X95805820Y-86560498D01*
X95695506Y-86619463D01*
X95598815Y-86698815D01*
X95519463Y-86795506D01*
X95460498Y-86905820D01*
X95424188Y-87025518D01*
X95411928Y-87150000D01*
X95411928Y-88850000D01*
X95424188Y-88974482D01*
X95460498Y-89094180D01*
X95519463Y-89204494D01*
X95598815Y-89301185D01*
X95695506Y-89380537D01*
X95805820Y-89439502D01*
X95925518Y-89475812D01*
X95954256Y-89478642D01*
X95904774Y-89598102D01*
X95865000Y-89798061D01*
X95865000Y-90001939D01*
X95904774Y-90201898D01*
X95982795Y-90390256D01*
X96096063Y-90559774D01*
X96240226Y-90703937D01*
X96409744Y-90817205D01*
X96598102Y-90895226D01*
X96798061Y-90935000D01*
X97001939Y-90935000D01*
X97201898Y-90895226D01*
X97390256Y-90817205D01*
X97559774Y-90703937D01*
X97603711Y-90660000D01*
X98785199Y-90660000D01*
X102460000Y-94334802D01*
X102460001Y-99806009D01*
X102317990Y-99900897D01*
X102120897Y-100097990D01*
X101966043Y-100329746D01*
X101950000Y-100368477D01*
X101933957Y-100329746D01*
X101779103Y-100097990D01*
X101582010Y-99900897D01*
X101350254Y-99746043D01*
X101092740Y-99639377D01*
X100819365Y-99585000D01*
X100540635Y-99585000D01*
X100267260Y-99639377D01*
X100009746Y-99746043D01*
X99777990Y-99900897D01*
X99580897Y-100097990D01*
X99426043Y-100329746D01*
X99410000Y-100368477D01*
X99393957Y-100329746D01*
X99239103Y-100097990D01*
X99042010Y-99900897D01*
X98810254Y-99746043D01*
X98552740Y-99639377D01*
X98279365Y-99585000D01*
X98000635Y-99585000D01*
X97727260Y-99639377D01*
X97469746Y-99746043D01*
X97237990Y-99900897D01*
X97040897Y-100097990D01*
X96886043Y-100329746D01*
X96871223Y-100365525D01*
X96820349Y-100270345D01*
X96578421Y-100201184D01*
X95779605Y-101000000D01*
X95793748Y-101014143D01*
X95614143Y-101193748D01*
X95600000Y-101179605D01*
X95585858Y-101193748D01*
X95406253Y-101014143D01*
X95420395Y-101000000D01*
X94621579Y-100201184D01*
X94379651Y-100270345D01*
X94331575Y-100372279D01*
X94313957Y-100329746D01*
X94159103Y-100097990D01*
X94082692Y-100021579D01*
X94801184Y-100021579D01*
X95600000Y-100820395D01*
X96398816Y-100021579D01*
X96329655Y-99779651D01*
X96077557Y-99660752D01*
X95807106Y-99593319D01*
X95528697Y-99579943D01*
X95253028Y-99621140D01*
X94990692Y-99715325D01*
X94870345Y-99779651D01*
X94801184Y-100021579D01*
X94082692Y-100021579D01*
X93962010Y-99900897D01*
X93730254Y-99746043D01*
X93472740Y-99639377D01*
X93199365Y-99585000D01*
X92920635Y-99585000D01*
X92753121Y-99618320D01*
X92423804Y-99289003D01*
X92400001Y-99259999D01*
X92284276Y-99165026D01*
X92152247Y-99094454D01*
X92008986Y-99050997D01*
X91897333Y-99040000D01*
X91897322Y-99040000D01*
X91860000Y-99036324D01*
X91822678Y-99040000D01*
X79975393Y-99040000D01*
X80027932Y-98913158D01*
X80085000Y-98626260D01*
X80085000Y-98333740D01*
X80027932Y-98046842D01*
X79915990Y-97776589D01*
X79753475Y-97533368D01*
X79546632Y-97326525D01*
X79364466Y-97204805D01*
X79481355Y-97135178D01*
X79697588Y-96940269D01*
X79871641Y-96706920D01*
X79996825Y-96444099D01*
X80041476Y-96296890D01*
X79920155Y-96067000D01*
X78727000Y-96067000D01*
X78727000Y-96087000D01*
X78473000Y-96087000D01*
X78473000Y-96067000D01*
X78453000Y-96067000D01*
X78453000Y-95813000D01*
X78473000Y-95813000D01*
X78473000Y-95793000D01*
X78727000Y-95793000D01*
X78727000Y-95813000D01*
X79920155Y-95813000D01*
X80041476Y-95583110D01*
X79996825Y-95435901D01*
X79871641Y-95173080D01*
X79697588Y-94939731D01*
X79613534Y-94863966D01*
X79694180Y-94839502D01*
X79804494Y-94780537D01*
X79901185Y-94701185D01*
X79980537Y-94604494D01*
X80039502Y-94494180D01*
X80075812Y-94374482D01*
X80088072Y-94250000D01*
X80088072Y-92550000D01*
X80075812Y-92425518D01*
X80039502Y-92305820D01*
X79980537Y-92195506D01*
X79901185Y-92098815D01*
X79804494Y-92019463D01*
X79694180Y-91960498D01*
X79574482Y-91924188D01*
X79450000Y-91911928D01*
X77750000Y-91911928D01*
X77625518Y-91924188D01*
X77505820Y-91960498D01*
X77395506Y-92019463D01*
X77298815Y-92098815D01*
X77219463Y-92195506D01*
X77160498Y-92305820D01*
X77138487Y-92378380D01*
X77006632Y-92246525D01*
X76763411Y-92084010D01*
X76493158Y-91972068D01*
X76206260Y-91915000D01*
X75913740Y-91915000D01*
X75626842Y-91972068D01*
X75356589Y-92084010D01*
X75113368Y-92246525D01*
X74906525Y-92453368D01*
X74744010Y-92696589D01*
X74632068Y-92966842D01*
X74575000Y-93253740D01*
X68785000Y-93253740D01*
X68785000Y-84650000D01*
X142411928Y-84650000D01*
X142411928Y-86350000D01*
X142424188Y-86474482D01*
X142460498Y-86594180D01*
X142519463Y-86704494D01*
X142598815Y-86801185D01*
X142695506Y-86880537D01*
X142805820Y-86939502D01*
X142925518Y-86975812D01*
X143050000Y-86988072D01*
X144750000Y-86988072D01*
X144874482Y-86975812D01*
X144994180Y-86939502D01*
X145104494Y-86880537D01*
X145201185Y-86801185D01*
X145280537Y-86704494D01*
X145339502Y-86594180D01*
X145363966Y-86513534D01*
X145439731Y-86597588D01*
X145673080Y-86771641D01*
X145935901Y-86896825D01*
X146083110Y-86941476D01*
X146313000Y-86820155D01*
X146313000Y-85627000D01*
X146567000Y-85627000D01*
X146567000Y-86820155D01*
X146796890Y-86941476D01*
X146944099Y-86896825D01*
X147206920Y-86771641D01*
X147440269Y-86597588D01*
X147635178Y-86381355D01*
X147784157Y-86131252D01*
X147881481Y-85856891D01*
X147760814Y-85627000D01*
X146567000Y-85627000D01*
X146313000Y-85627000D01*
X146293000Y-85627000D01*
X146293000Y-85373000D01*
X146313000Y-85373000D01*
X146313000Y-84179845D01*
X146567000Y-84179845D01*
X146567000Y-85373000D01*
X147760814Y-85373000D01*
X147877863Y-85150000D01*
X185811928Y-85150000D01*
X185811928Y-86850000D01*
X185824188Y-86974482D01*
X185860498Y-87094180D01*
X185919463Y-87204494D01*
X185998815Y-87301185D01*
X186095506Y-87380537D01*
X186205820Y-87439502D01*
X186278380Y-87461513D01*
X186146525Y-87593368D01*
X185984010Y-87836589D01*
X185872068Y-88106842D01*
X185815000Y-88393740D01*
X185815000Y-88686260D01*
X185872068Y-88973158D01*
X185984010Y-89243411D01*
X186146525Y-89486632D01*
X186353368Y-89693475D01*
X186527760Y-89810000D01*
X186353368Y-89926525D01*
X186146525Y-90133368D01*
X185984010Y-90376589D01*
X185872068Y-90646842D01*
X185815000Y-90933740D01*
X185815000Y-91226260D01*
X185872068Y-91513158D01*
X185984010Y-91783411D01*
X186146525Y-92026632D01*
X186353368Y-92233475D01*
X186527760Y-92350000D01*
X186353368Y-92466525D01*
X186146525Y-92673368D01*
X185984010Y-92916589D01*
X185872068Y-93186842D01*
X185815000Y-93473740D01*
X185815000Y-93766260D01*
X185872068Y-94053158D01*
X185984010Y-94323411D01*
X186146525Y-94566632D01*
X186353368Y-94773475D01*
X186535534Y-94895195D01*
X186418645Y-94964822D01*
X186202412Y-95159731D01*
X186028359Y-95393080D01*
X185903175Y-95655901D01*
X185858524Y-95803110D01*
X185979845Y-96033000D01*
X187173000Y-96033000D01*
X187173000Y-96013000D01*
X187427000Y-96013000D01*
X187427000Y-96033000D01*
X188620155Y-96033000D01*
X188741476Y-95803110D01*
X188696825Y-95655901D01*
X188571641Y-95393080D01*
X188397588Y-95159731D01*
X188181355Y-94964822D01*
X188064466Y-94895195D01*
X188246632Y-94773475D01*
X188453475Y-94566632D01*
X188615990Y-94323411D01*
X188727932Y-94053158D01*
X188785000Y-93766260D01*
X188785000Y-93473740D01*
X188745218Y-93273740D01*
X211115000Y-93273740D01*
X211115000Y-93566260D01*
X211172068Y-93853158D01*
X211284010Y-94123411D01*
X211446525Y-94366632D01*
X211653368Y-94573475D01*
X211827760Y-94690000D01*
X211653368Y-94806525D01*
X211446525Y-95013368D01*
X211284010Y-95256589D01*
X211172068Y-95526842D01*
X211115000Y-95813740D01*
X211115000Y-96106260D01*
X211172068Y-96393158D01*
X211284010Y-96663411D01*
X211446525Y-96906632D01*
X211653368Y-97113475D01*
X211827760Y-97230000D01*
X211653368Y-97346525D01*
X211446525Y-97553368D01*
X211284010Y-97796589D01*
X211172068Y-98066842D01*
X211115000Y-98353740D01*
X211115000Y-98646260D01*
X211172068Y-98933158D01*
X211284010Y-99203411D01*
X211446525Y-99446632D01*
X211653368Y-99653475D01*
X211827760Y-99770000D01*
X211653368Y-99886525D01*
X211446525Y-100093368D01*
X211284010Y-100336589D01*
X211172068Y-100606842D01*
X211115000Y-100893740D01*
X211115000Y-101186260D01*
X211172068Y-101473158D01*
X211284010Y-101743411D01*
X211446525Y-101986632D01*
X211653368Y-102193475D01*
X211827760Y-102310000D01*
X211653368Y-102426525D01*
X211446525Y-102633368D01*
X211284010Y-102876589D01*
X211172068Y-103146842D01*
X211115000Y-103433740D01*
X211115000Y-103726260D01*
X211172068Y-104013158D01*
X211284010Y-104283411D01*
X211446525Y-104526632D01*
X211653368Y-104733475D01*
X211827760Y-104850000D01*
X211653368Y-104966525D01*
X211446525Y-105173368D01*
X211284010Y-105416589D01*
X211172068Y-105686842D01*
X211115000Y-105973740D01*
X211115000Y-106266260D01*
X211172068Y-106553158D01*
X211284010Y-106823411D01*
X211446525Y-107066632D01*
X211653368Y-107273475D01*
X211827760Y-107390000D01*
X211653368Y-107506525D01*
X211446525Y-107713368D01*
X211284010Y-107956589D01*
X211172068Y-108226842D01*
X211115000Y-108513740D01*
X211115000Y-108806260D01*
X211172068Y-109093158D01*
X211284010Y-109363411D01*
X211446525Y-109606632D01*
X211653368Y-109813475D01*
X211827760Y-109930000D01*
X211653368Y-110046525D01*
X211446525Y-110253368D01*
X211284010Y-110496589D01*
X211172068Y-110766842D01*
X211115000Y-111053740D01*
X211115000Y-111346260D01*
X211172068Y-111633158D01*
X211284010Y-111903411D01*
X211446525Y-112146632D01*
X211653368Y-112353475D01*
X211896589Y-112515990D01*
X212166842Y-112627932D01*
X212453740Y-112685000D01*
X212746260Y-112685000D01*
X213033158Y-112627932D01*
X213303411Y-112515990D01*
X213546632Y-112353475D01*
X213753475Y-112146632D01*
X213871100Y-111970594D01*
X214042412Y-112200269D01*
X214258645Y-112395178D01*
X214508748Y-112544157D01*
X214783109Y-112641481D01*
X215013000Y-112520814D01*
X215013000Y-111327000D01*
X215267000Y-111327000D01*
X215267000Y-112520814D01*
X215496891Y-112641481D01*
X215771252Y-112544157D01*
X216021355Y-112395178D01*
X216237588Y-112200269D01*
X216411641Y-111966920D01*
X216536825Y-111704099D01*
X216581476Y-111556890D01*
X216460155Y-111327000D01*
X215267000Y-111327000D01*
X215013000Y-111327000D01*
X214993000Y-111327000D01*
X214993000Y-111073000D01*
X215013000Y-111073000D01*
X215013000Y-111053000D01*
X215267000Y-111053000D01*
X215267000Y-111073000D01*
X216460155Y-111073000D01*
X216581476Y-110843110D01*
X216536825Y-110695901D01*
X216411641Y-110433080D01*
X216237588Y-110199731D01*
X216021355Y-110004822D01*
X215904466Y-109935195D01*
X216086632Y-109813475D01*
X216293475Y-109606632D01*
X216455990Y-109363411D01*
X216567932Y-109093158D01*
X216625000Y-108806260D01*
X216625000Y-108513740D01*
X216567932Y-108226842D01*
X216455990Y-107956589D01*
X216293475Y-107713368D01*
X216086632Y-107506525D01*
X215912240Y-107390000D01*
X216086632Y-107273475D01*
X216293475Y-107066632D01*
X216455990Y-106823411D01*
X216567932Y-106553158D01*
X216625000Y-106266260D01*
X216625000Y-105973740D01*
X216567932Y-105686842D01*
X216455990Y-105416589D01*
X216293475Y-105173368D01*
X216086632Y-104966525D01*
X215912240Y-104850000D01*
X216086632Y-104733475D01*
X216293475Y-104526632D01*
X216455990Y-104283411D01*
X216567932Y-104013158D01*
X216625000Y-103726260D01*
X216625000Y-103433740D01*
X216567932Y-103146842D01*
X216455990Y-102876589D01*
X216293475Y-102633368D01*
X216086632Y-102426525D01*
X215904466Y-102304805D01*
X216021355Y-102235178D01*
X216237588Y-102040269D01*
X216411641Y-101806920D01*
X216536825Y-101544099D01*
X216581476Y-101396890D01*
X216460155Y-101167000D01*
X215267000Y-101167000D01*
X215267000Y-101187000D01*
X215013000Y-101187000D01*
X215013000Y-101167000D01*
X214993000Y-101167000D01*
X214993000Y-100913000D01*
X215013000Y-100913000D01*
X215013000Y-100893000D01*
X215267000Y-100893000D01*
X215267000Y-100913000D01*
X216460155Y-100913000D01*
X216581476Y-100683110D01*
X216536825Y-100535901D01*
X216411641Y-100273080D01*
X216237588Y-100039731D01*
X216021355Y-99844822D01*
X215904466Y-99775195D01*
X216086632Y-99653475D01*
X216293475Y-99446632D01*
X216455990Y-99203411D01*
X216567932Y-98933158D01*
X216625000Y-98646260D01*
X216625000Y-98353740D01*
X216567932Y-98066842D01*
X216455990Y-97796589D01*
X216293475Y-97553368D01*
X216086632Y-97346525D01*
X215904466Y-97224805D01*
X216021355Y-97155178D01*
X216237588Y-96960269D01*
X216411641Y-96726920D01*
X216536825Y-96464099D01*
X216581476Y-96316890D01*
X216460155Y-96087000D01*
X215267000Y-96087000D01*
X215267000Y-96107000D01*
X215013000Y-96107000D01*
X215013000Y-96087000D01*
X214993000Y-96087000D01*
X214993000Y-95833000D01*
X215013000Y-95833000D01*
X215013000Y-95813000D01*
X215267000Y-95813000D01*
X215267000Y-95833000D01*
X216460155Y-95833000D01*
X216581476Y-95603110D01*
X216536825Y-95455901D01*
X216411641Y-95193080D01*
X216237588Y-94959731D01*
X216153534Y-94883966D01*
X216234180Y-94859502D01*
X216344494Y-94800537D01*
X216441185Y-94721185D01*
X216520537Y-94624494D01*
X216579502Y-94514180D01*
X216615812Y-94394482D01*
X216628072Y-94270000D01*
X216628072Y-92570000D01*
X216615812Y-92445518D01*
X216579502Y-92325820D01*
X216520537Y-92215506D01*
X216441185Y-92118815D01*
X216344494Y-92039463D01*
X216234180Y-91980498D01*
X216114482Y-91944188D01*
X215990000Y-91931928D01*
X214290000Y-91931928D01*
X214165518Y-91944188D01*
X214045820Y-91980498D01*
X213935506Y-92039463D01*
X213838815Y-92118815D01*
X213759463Y-92215506D01*
X213700498Y-92325820D01*
X213678487Y-92398380D01*
X213546632Y-92266525D01*
X213303411Y-92104010D01*
X213033158Y-91992068D01*
X212746260Y-91935000D01*
X212453740Y-91935000D01*
X212166842Y-91992068D01*
X211896589Y-92104010D01*
X211653368Y-92266525D01*
X211446525Y-92473368D01*
X211284010Y-92716589D01*
X211172068Y-92986842D01*
X211115000Y-93273740D01*
X188745218Y-93273740D01*
X188727932Y-93186842D01*
X188615990Y-92916589D01*
X188453475Y-92673368D01*
X188246632Y-92466525D01*
X188072240Y-92350000D01*
X188246632Y-92233475D01*
X188453475Y-92026632D01*
X188615990Y-91783411D01*
X188727932Y-91513158D01*
X188785000Y-91226260D01*
X188785000Y-90933740D01*
X188727932Y-90646842D01*
X188615990Y-90376589D01*
X188453475Y-90133368D01*
X188246632Y-89926525D01*
X188072240Y-89810000D01*
X188246632Y-89693475D01*
X188453475Y-89486632D01*
X188615990Y-89243411D01*
X188727932Y-88973158D01*
X188785000Y-88686260D01*
X188785000Y-88393740D01*
X188727932Y-88106842D01*
X188615990Y-87836589D01*
X188453475Y-87593368D01*
X188321620Y-87461513D01*
X188394180Y-87439502D01*
X188504494Y-87380537D01*
X188601185Y-87301185D01*
X188680537Y-87204494D01*
X188739502Y-87094180D01*
X188775812Y-86974482D01*
X188788072Y-86850000D01*
X188788072Y-85150000D01*
X188775812Y-85025518D01*
X188739502Y-84905820D01*
X188680537Y-84795506D01*
X188601185Y-84698815D01*
X188504494Y-84619463D01*
X188394180Y-84560498D01*
X188274482Y-84524188D01*
X188150000Y-84511928D01*
X186450000Y-84511928D01*
X186325518Y-84524188D01*
X186205820Y-84560498D01*
X186095506Y-84619463D01*
X185998815Y-84698815D01*
X185919463Y-84795506D01*
X185860498Y-84905820D01*
X185824188Y-85025518D01*
X185811928Y-85150000D01*
X147877863Y-85150000D01*
X147881481Y-85143109D01*
X147784157Y-84868748D01*
X147635178Y-84618645D01*
X147440269Y-84402412D01*
X147206920Y-84228359D01*
X146944099Y-84103175D01*
X146796890Y-84058524D01*
X146567000Y-84179845D01*
X146313000Y-84179845D01*
X146083110Y-84058524D01*
X145935901Y-84103175D01*
X145673080Y-84228359D01*
X145439731Y-84402412D01*
X145363966Y-84486466D01*
X145339502Y-84405820D01*
X145280537Y-84295506D01*
X145201185Y-84198815D01*
X145104494Y-84119463D01*
X144994180Y-84060498D01*
X144874482Y-84024188D01*
X144750000Y-84011928D01*
X143050000Y-84011928D01*
X142925518Y-84024188D01*
X142805820Y-84060498D01*
X142695506Y-84119463D01*
X142598815Y-84198815D01*
X142519463Y-84295506D01*
X142460498Y-84405820D01*
X142424188Y-84525518D01*
X142411928Y-84650000D01*
X68785000Y-84650000D01*
X68785000Y-83276890D01*
X95458524Y-83276890D01*
X95503175Y-83424099D01*
X95628359Y-83686920D01*
X95802412Y-83920269D01*
X96018645Y-84115178D01*
X96268748Y-84264157D01*
X96543109Y-84361481D01*
X96773000Y-84240814D01*
X96773000Y-83047000D01*
X97027000Y-83047000D01*
X97027000Y-84240814D01*
X97256891Y-84361481D01*
X97531252Y-84264157D01*
X97781355Y-84115178D01*
X97997588Y-83920269D01*
X98171641Y-83686920D01*
X98296825Y-83424099D01*
X98341476Y-83276890D01*
X105058524Y-83276890D01*
X105103175Y-83424099D01*
X105228359Y-83686920D01*
X105402412Y-83920269D01*
X105618645Y-84115178D01*
X105868748Y-84264157D01*
X106143109Y-84361481D01*
X106373000Y-84240814D01*
X106373000Y-83047000D01*
X106627000Y-83047000D01*
X106627000Y-84240814D01*
X106856891Y-84361481D01*
X107131252Y-84264157D01*
X107381355Y-84115178D01*
X107597588Y-83920269D01*
X107771641Y-83686920D01*
X107896825Y-83424099D01*
X107941476Y-83276890D01*
X114358524Y-83276890D01*
X114403175Y-83424099D01*
X114528359Y-83686920D01*
X114702412Y-83920269D01*
X114918645Y-84115178D01*
X115168748Y-84264157D01*
X115443109Y-84361481D01*
X115673000Y-84240814D01*
X115673000Y-83047000D01*
X115927000Y-83047000D01*
X115927000Y-84240814D01*
X116156891Y-84361481D01*
X116431252Y-84264157D01*
X116681355Y-84115178D01*
X116897588Y-83920269D01*
X117071641Y-83686920D01*
X117196825Y-83424099D01*
X117241476Y-83276890D01*
X117120155Y-83047000D01*
X115927000Y-83047000D01*
X115673000Y-83047000D01*
X114479845Y-83047000D01*
X114358524Y-83276890D01*
X107941476Y-83276890D01*
X107820155Y-83047000D01*
X106627000Y-83047000D01*
X106373000Y-83047000D01*
X105179845Y-83047000D01*
X105058524Y-83276890D01*
X98341476Y-83276890D01*
X98220155Y-83047000D01*
X97027000Y-83047000D01*
X96773000Y-83047000D01*
X95579845Y-83047000D01*
X95458524Y-83276890D01*
X68785000Y-83276890D01*
X68785000Y-82563110D01*
X95458524Y-82563110D01*
X95579845Y-82793000D01*
X96773000Y-82793000D01*
X96773000Y-81599186D01*
X97027000Y-81599186D01*
X97027000Y-82793000D01*
X98220155Y-82793000D01*
X98341476Y-82563110D01*
X105058524Y-82563110D01*
X105179845Y-82793000D01*
X106373000Y-82793000D01*
X106373000Y-81599186D01*
X106627000Y-81599186D01*
X106627000Y-82793000D01*
X107820155Y-82793000D01*
X107941476Y-82563110D01*
X114358524Y-82563110D01*
X114479845Y-82793000D01*
X115673000Y-82793000D01*
X115673000Y-81599186D01*
X115927000Y-81599186D01*
X115927000Y-82793000D01*
X117120155Y-82793000D01*
X117241476Y-82563110D01*
X117196825Y-82415901D01*
X117071641Y-82153080D01*
X116904532Y-81929040D01*
X124008091Y-81929040D01*
X124102930Y-82193881D01*
X124247615Y-82435131D01*
X124436586Y-82643519D01*
X124662580Y-82811037D01*
X124916913Y-82931246D01*
X125050961Y-82971904D01*
X125273000Y-82849915D01*
X125273000Y-81707000D01*
X125527000Y-81707000D01*
X125527000Y-82849915D01*
X125749039Y-82971904D01*
X125883087Y-82931246D01*
X126137420Y-82811037D01*
X126363414Y-82643519D01*
X126552385Y-82435131D01*
X126670000Y-82239018D01*
X126787615Y-82435131D01*
X126976586Y-82643519D01*
X127202580Y-82811037D01*
X127456913Y-82931246D01*
X127590961Y-82971904D01*
X127813000Y-82849915D01*
X127813000Y-81707000D01*
X128067000Y-81707000D01*
X128067000Y-82849915D01*
X128289039Y-82971904D01*
X128423087Y-82931246D01*
X128677420Y-82811037D01*
X128903414Y-82643519D01*
X129092385Y-82435131D01*
X129210000Y-82239018D01*
X129327615Y-82435131D01*
X129516586Y-82643519D01*
X129742580Y-82811037D01*
X129996913Y-82931246D01*
X130130961Y-82971904D01*
X130353000Y-82849915D01*
X130353000Y-81707000D01*
X130607000Y-81707000D01*
X130607000Y-82849915D01*
X130829039Y-82971904D01*
X130963087Y-82931246D01*
X131217420Y-82811037D01*
X131443414Y-82643519D01*
X131632385Y-82435131D01*
X131750000Y-82239018D01*
X131867615Y-82435131D01*
X132056586Y-82643519D01*
X132282580Y-82811037D01*
X132536913Y-82931246D01*
X132670961Y-82971904D01*
X132893000Y-82849915D01*
X132893000Y-81707000D01*
X133147000Y-81707000D01*
X133147000Y-82849915D01*
X133369039Y-82971904D01*
X133503087Y-82931246D01*
X133757420Y-82811037D01*
X133983414Y-82643519D01*
X134172385Y-82435131D01*
X134317070Y-82193881D01*
X134411909Y-81929040D01*
X134290624Y-81707000D01*
X133147000Y-81707000D01*
X132893000Y-81707000D01*
X130607000Y-81707000D01*
X130353000Y-81707000D01*
X128067000Y-81707000D01*
X127813000Y-81707000D01*
X125527000Y-81707000D01*
X125273000Y-81707000D01*
X124129376Y-81707000D01*
X124008091Y-81929040D01*
X116904532Y-81929040D01*
X116897588Y-81919731D01*
X116681355Y-81724822D01*
X116431252Y-81575843D01*
X116156891Y-81478519D01*
X115927000Y-81599186D01*
X115673000Y-81599186D01*
X115443109Y-81478519D01*
X115168748Y-81575843D01*
X114918645Y-81724822D01*
X114702412Y-81919731D01*
X114528359Y-82153080D01*
X114403175Y-82415901D01*
X114358524Y-82563110D01*
X107941476Y-82563110D01*
X107896825Y-82415901D01*
X107771641Y-82153080D01*
X107597588Y-81919731D01*
X107381355Y-81724822D01*
X107131252Y-81575843D01*
X106856891Y-81478519D01*
X106627000Y-81599186D01*
X106373000Y-81599186D01*
X106143109Y-81478519D01*
X105868748Y-81575843D01*
X105618645Y-81724822D01*
X105402412Y-81919731D01*
X105228359Y-82153080D01*
X105103175Y-82415901D01*
X105058524Y-82563110D01*
X98341476Y-82563110D01*
X98296825Y-82415901D01*
X98171641Y-82153080D01*
X97997588Y-81919731D01*
X97781355Y-81724822D01*
X97531252Y-81575843D01*
X97256891Y-81478519D01*
X97027000Y-81599186D01*
X96773000Y-81599186D01*
X96543109Y-81478519D01*
X96268748Y-81575843D01*
X96018645Y-81724822D01*
X95802412Y-81919731D01*
X95628359Y-82153080D01*
X95503175Y-82415901D01*
X95458524Y-82563110D01*
X68785000Y-82563110D01*
X68785000Y-81230960D01*
X124008091Y-81230960D01*
X124129376Y-81453000D01*
X125273000Y-81453000D01*
X125273000Y-80310085D01*
X125527000Y-80310085D01*
X125527000Y-81453000D01*
X127813000Y-81453000D01*
X127813000Y-80310085D01*
X128067000Y-80310085D01*
X128067000Y-81453000D01*
X130353000Y-81453000D01*
X130353000Y-80310085D01*
X130607000Y-80310085D01*
X130607000Y-81453000D01*
X132893000Y-81453000D01*
X132893000Y-80310085D01*
X133147000Y-80310085D01*
X133147000Y-81453000D01*
X134290624Y-81453000D01*
X134411909Y-81230960D01*
X134317070Y-80966119D01*
X134172385Y-80724869D01*
X133983414Y-80516481D01*
X133757420Y-80348963D01*
X133503087Y-80228754D01*
X133369039Y-80188096D01*
X133147000Y-80310085D01*
X132893000Y-80310085D01*
X132670961Y-80188096D01*
X132536913Y-80228754D01*
X132282580Y-80348963D01*
X132056586Y-80516481D01*
X131867615Y-80724869D01*
X131750000Y-80920982D01*
X131632385Y-80724869D01*
X131443414Y-80516481D01*
X131217420Y-80348963D01*
X130963087Y-80228754D01*
X130829039Y-80188096D01*
X130607000Y-80310085D01*
X130353000Y-80310085D01*
X130130961Y-80188096D01*
X129996913Y-80228754D01*
X129742580Y-80348963D01*
X129516586Y-80516481D01*
X129327615Y-80724869D01*
X129210000Y-80920982D01*
X129092385Y-80724869D01*
X128903414Y-80516481D01*
X128677420Y-80348963D01*
X128423087Y-80228754D01*
X128289039Y-80188096D01*
X128067000Y-80310085D01*
X127813000Y-80310085D01*
X127590961Y-80188096D01*
X127456913Y-80228754D01*
X127202580Y-80348963D01*
X126976586Y-80516481D01*
X126787615Y-80724869D01*
X126670000Y-80920982D01*
X126552385Y-80724869D01*
X126363414Y-80516481D01*
X126137420Y-80348963D01*
X125883087Y-80228754D01*
X125749039Y-80188096D01*
X125527000Y-80310085D01*
X125273000Y-80310085D01*
X125050961Y-80188096D01*
X124916913Y-80228754D01*
X124662580Y-80348963D01*
X124436586Y-80516481D01*
X124247615Y-80724869D01*
X124102930Y-80966119D01*
X124008091Y-81230960D01*
X68785000Y-81230960D01*
X68785000Y-72985000D01*
X222415000Y-72985000D01*
X222415001Y-131615000D01*
G37*
G04 #@! TD.AperFunction*
D21*
X81539377Y-100587260D02*
X81485000Y-100860635D01*
X81485000Y-101139365D01*
X81539377Y-101412740D01*
X81592090Y-101540000D01*
X79989251Y-101540000D01*
X79996825Y-101524099D01*
X80041476Y-101376890D01*
X79920155Y-101147000D01*
X78727000Y-101147000D01*
X78727000Y-101167000D01*
X78473000Y-101167000D01*
X78473000Y-101147000D01*
X78453000Y-101147000D01*
X78453000Y-100893000D01*
X78473000Y-100893000D01*
X78473000Y-100873000D01*
X78727000Y-100873000D01*
X78727000Y-100893000D01*
X79920155Y-100893000D01*
X80041476Y-100663110D01*
X80010201Y-100560000D01*
X81550668Y-100560000D01*
X81539377Y-100587260D01*
G04 #@! TA.AperFunction,Conductor*
D22*
G36*
X81539377Y-100587260D02*
G01*
X81485000Y-100860635D01*
X81485000Y-101139365D01*
X81539377Y-101412740D01*
X81592090Y-101540000D01*
X79989251Y-101540000D01*
X79996825Y-101524099D01*
X80041476Y-101376890D01*
X79920155Y-101147000D01*
X78727000Y-101147000D01*
X78727000Y-101167000D01*
X78473000Y-101167000D01*
X78473000Y-101147000D01*
X78453000Y-101147000D01*
X78453000Y-100893000D01*
X78473000Y-100893000D01*
X78473000Y-100873000D01*
X78727000Y-100873000D01*
X78727000Y-100893000D01*
X79920155Y-100893000D01*
X80041476Y-100663110D01*
X80010201Y-100560000D01*
X81550668Y-100560000D01*
X81539377Y-100587260D01*
G37*
G04 #@! TD.AperFunction*
M02*
