M48
; DRILL file {KiCad 5.1.9} date Sat Dec 26 21:22:02 2020
; FORMAT={-:-/ absolute / inch / decimal}
; #@! TF.CreationDate,2020-12-26T21:22:02+01:00
; #@! TF.GenerationSoftware,Kicad,Pcbnew,5.1.9
; #@! TF.FileFunction,Plated,1,2,PTH
FMAT,2
INCH
T1C0.0236
T2C0.0394
T3C0.0409
T4C0.0433
%
G90
G05
T1
X2.9488Y-3.1457
X2.9606Y-3.4331
X2.9843Y-4.4961
X2.9882Y-4.6535
X3.0945Y-4.4921
X3.1102Y-4.6575
X3.1299Y-3.4331
X3.1378Y-3.1417
X3.1969Y-3.7756
X3.2087Y-3.9803
X3.4764Y-3.8937
X4.0748Y-3.5472
X4.0787Y-3.8898
X4.0787Y-4.0748
X4.5039Y-3.8898
X4.5079Y-3.5394
X4.7756Y-4.8898
X4.7795Y-5.0748
X5.4055Y-5.0591
X5.7244Y-5.0669
X6.0118Y-5.0551
X6.8189Y-4.8346
X6.8228Y-5.0669
X7.1654Y-4.5315
X7.2362Y-3.6339
X7.3701Y-3.7874
X7.3898Y-4.8268
X7.4449Y-4.1969
X7.4488Y-4.3858
X7.9449Y-4.1969
X7.9488Y-4.3622
X8.0Y-4.685
X8.2283Y-4.685
X8.374Y-4.4882
X8.3898Y-3.5709
X8.4646Y-3.9764
X8.4764Y-3.6772
X8.4803Y-4.378
X8.6693Y-3.9685
T2
X2.9945Y-3.6772
X2.9945Y-3.7772
X2.9945Y-3.8772
X2.9945Y-3.9772
X2.9945Y-4.0772
X2.9945Y-4.1772
X2.9945Y-4.2772
X2.9945Y-4.3772
X3.0945Y-3.6772
X3.0945Y-3.7772
X3.0945Y-3.8772
X3.0945Y-3.9772
X3.0945Y-4.0772
X3.0945Y-4.1772
X3.0945Y-4.2772
X3.0945Y-4.3772
X5.6063Y-4.6614
X5.6063Y-4.7614
X5.6063Y-4.8614
X5.6063Y-4.9614
X5.6063Y-5.0614
X6.6197Y-4.9409
X6.7197Y-4.9409
X6.8197Y-4.9409
X6.9197Y-4.9409
X7.0197Y-4.9409
X7.2402Y-3.7858
X7.2402Y-3.8858
X8.2701Y-3.6772
X8.2701Y-3.7772
X8.2701Y-3.8772
X8.2701Y-3.9772
X8.2701Y-4.0772
X8.2701Y-4.1772
X8.2701Y-4.2772
X8.2701Y-4.3772
X8.3701Y-3.6772
X8.3701Y-3.7772
X8.3701Y-3.8772
X8.3701Y-3.9772
X8.3701Y-4.0772
X8.3701Y-4.1772
X8.3701Y-4.2772
X8.3701Y-4.3772
T3
X3.478Y-3.9843
X3.478Y-4.9843
X3.578Y-3.9843
X3.578Y-4.9843
X3.678Y-3.9843
X3.678Y-4.9843
X3.778Y-3.9843
X3.778Y-4.9843
X3.878Y-3.9843
X3.878Y-4.9843
X3.978Y-3.9843
X3.978Y-4.9843
X4.078Y-3.9843
X4.078Y-4.9843
X4.178Y-3.9843
X4.178Y-4.9843
X4.278Y-3.9843
X4.278Y-4.9843
X4.378Y-3.9843
X4.378Y-4.9843
X4.478Y-3.9843
X4.478Y-4.9843
X4.578Y-3.9843
X4.578Y-4.9843
X4.678Y-3.9843
X4.678Y-4.9843
X4.778Y-3.9843
X4.778Y-4.9843
X4.878Y-3.9843
X4.878Y-4.9843
X4.978Y-3.9843
X4.978Y-4.9843
X5.078Y-3.9843
X5.078Y-4.9843
X5.178Y-3.9843
X5.178Y-4.9843
X5.278Y-3.9843
X5.278Y-4.9843
T4
X7.3465Y-4.2874
X7.4465Y-4.2874
X7.5465Y-4.2874
X7.6465Y-4.2874
X7.7465Y-4.2874
X7.8465Y-4.2874
X7.9465Y-4.2874
T0
M30
