M48
; DRILL file {KiCad 5.1.9} date Sat Jan 23 21:50:04 2021
; FORMAT={-:-/ absolute / inch / decimal}
; #@! TF.CreationDate,2021-01-23T21:50:04+01:00
; #@! TF.GenerationSoftware,Kicad,Pcbnew,5.1.9
; #@! TF.FileFunction,Plated,1,2,PTH
FMAT,2
INCH
T1C0.0157
T2C0.0236
T3C0.0315
T4C0.0394
T5C0.0409
T6C0.0433
%
G90
G05
T1
X3.815Y-3.5394
X4.1929Y-3.5433
X4.5591Y-3.5433
X4.937Y-3.5709
X5.0354Y-3.5709
X5.1378Y-3.5709
X5.2362Y-3.5709
X5.8583Y-5.063
T2
X2.7598Y-3.2638
X2.7598Y-3.4094
X2.7598Y-3.5591
X2.7598Y-3.7205
X2.7598Y-3.8701
X2.8031Y-4.9331
X2.8031Y-5.0748
X2.8228Y-2.9409
X2.9449Y-5.0748
X3.0945Y-4.4803
X3.0945Y-4.6496
X3.1693Y-3.9764
X3.185Y-4.378
X3.2677Y-4.4803
X3.2677Y-4.6496
X3.2953Y-3.2677
X3.2953Y-3.4291
X3.2953Y-3.5787
X3.2953Y-3.7283
X3.4094Y-3.1457
X3.4331Y-4.4803
X3.4331Y-4.6496
X3.7598Y-4.7795
X3.7638Y-3.8858
X3.7638Y-4.0787
X3.878Y-4.7795
X4.4646Y-4.8937
X4.4646Y-5.0748
X5.063Y-4.8583
X5.063Y-5.1142
X5.1575Y-4.9764
X5.2283Y-3.9252
X5.2283Y-4.0591
X5.374Y-3.9252
X5.374Y-4.0591
X5.7677Y-3.2441
X5.7677Y-3.4843
X5.8268Y-4.8307
X5.8268Y-4.9882
X5.9055Y-3.3661
X6.0512Y-4.9843
X6.3189Y-4.626
X6.3189Y-4.8228
X6.5906Y-4.9882
X6.9331Y-4.9843
X7.0354Y-3.7874
X7.0354Y-3.8898
X7.0354Y-4.378
X7.2323Y-4.937
X7.2441Y-3.7874
X7.374Y-3.8898
X7.4291Y-4.7441
X7.4449Y-4.189
X7.4449Y-4.378
X7.4882Y-3.7913
X7.5945Y-4.0945
X7.5945Y-4.5787
X7.5984Y-3.9134
X7.5984Y-4.3976
X7.9488Y-4.378
X8.0512Y-4.2874
X8.3858Y-3.1417
X8.3858Y-3.2677
X8.3858Y-3.3858
X8.3858Y-3.5039
X8.4724Y-4.4803
X8.5197Y-3.1417
X8.5197Y-3.2677
X8.5197Y-3.3858
X8.5197Y-3.5039
X8.5787Y-3.9724
X8.5827Y-4.378
X8.7087Y-3.9724
T3
X4.937Y-3.2118
X4.937Y-3.5118
X5.037Y-3.2118
X5.037Y-3.5118
X5.137Y-3.2118
X5.137Y-3.5118
X5.237Y-3.2118
X5.237Y-3.5118
T4
X2.9945Y-3.6772
X2.9945Y-3.7772
X2.9945Y-3.8772
X2.9945Y-3.9772
X2.9945Y-4.0772
X2.9945Y-4.1772
X2.9945Y-4.2772
X2.9945Y-4.3772
X3.0945Y-3.6772
X3.0945Y-3.7772
X3.0945Y-3.8772
X3.0945Y-3.9772
X3.0945Y-4.0772
X3.0945Y-4.1772
X3.0945Y-4.2772
X3.0945Y-4.3772
X3.815Y-3.2646
X3.815Y-3.4646
X4.1929Y-3.2646
X4.1929Y-3.4646
X4.5591Y-3.2646
X4.5591Y-3.4646
X5.6654Y-3.3661
X5.7654Y-3.3661
X6.1197Y-4.7126
X6.2197Y-4.7126
X6.3197Y-4.7126
X6.4197Y-4.7126
X6.5197Y-4.7126
X7.374Y-3.3858
X7.374Y-3.4858
X7.374Y-3.5858
X7.374Y-3.6858
X7.374Y-3.7858
X8.3701Y-3.678
X8.3701Y-3.778
X8.3701Y-3.878
X8.3701Y-3.978
X8.3701Y-4.078
X8.3701Y-4.178
X8.3701Y-4.278
X8.3701Y-4.378
X8.4701Y-3.678
X8.4701Y-3.778
X8.4701Y-3.878
X8.4701Y-3.978
X8.4701Y-4.078
X8.4701Y-4.178
X8.4701Y-4.278
X8.4701Y-4.378
T5
X3.2638Y-3.9764
X3.2638Y-4.9764
X3.3638Y-3.9764
X3.3638Y-4.9764
X3.4638Y-3.9764
X3.4638Y-4.9764
X3.5638Y-3.9764
X3.5638Y-4.9764
X3.6638Y-3.9764
X3.6638Y-4.9764
X3.7638Y-3.9764
X3.7638Y-4.9764
X3.8638Y-3.9764
X3.8638Y-4.9764
X3.9638Y-3.9764
X3.9638Y-4.9764
X4.0638Y-3.9764
X4.0638Y-4.9764
X4.1638Y-3.9764
X4.1638Y-4.9764
X4.2638Y-3.9764
X4.2638Y-4.9764
X4.3638Y-3.9764
X4.3638Y-4.9764
X4.4638Y-3.9764
X4.4638Y-4.9764
X4.5638Y-3.9764
X4.5638Y-4.9764
X4.6638Y-3.9764
X4.6638Y-4.9764
X4.7638Y-3.9764
X4.7638Y-4.9764
X4.8638Y-3.9764
X4.8638Y-4.9764
X4.9638Y-3.9764
X4.9638Y-4.9764
X5.0638Y-3.9764
X5.0638Y-4.9764
T6
X7.3465Y-4.2874
X7.4465Y-4.2874
X7.5465Y-4.2874
X7.6465Y-4.2874
X7.7465Y-4.2874
X7.8465Y-4.2874
X7.9465Y-4.2874
T0
M30
